<svg width="33" height="25" viewBox="0 0 33 25" fill="none" xmlns="http://www.w3.org/2000/svg">
<path d="M25.8335 12.6666C25.8335 13.5222 26.5335 14.2222 27.389 14.2222H30.5001C31.3557 14.2222 32.0557 13.5222 32.0557 12.6666C32.0557 11.8111 31.3557 11.1111 30.5001 11.1111H27.389C26.5335 11.1111 25.8335 11.8111 25.8335 12.6666ZM23.6401 20.1644C23.518 20.3237 23.429 20.5059 23.3785 20.7002C23.3279 20.8945 23.3168 21.097 23.3458 21.2956C23.3748 21.4943 23.4434 21.6851 23.5473 21.8569C23.6513 22.0286 23.7887 22.1777 23.9512 22.2955C24.7757 22.9022 25.6468 23.5555 26.4712 24.1777C27.1557 24.6911 28.1201 24.5511 28.6179 23.8666C28.6179 23.8511 28.6335 23.8511 28.6335 23.8355C28.7556 23.6748 28.8445 23.4913 28.895 23.2958C28.9455 23.1004 28.9566 22.8968 28.9277 22.697C28.8987 22.4972 28.8303 22.3052 28.7264 22.1321C28.6224 21.959 28.4851 21.8083 28.3224 21.6889C27.4979 21.0666 26.6268 20.4133 25.8179 19.8066C25.6546 19.6859 25.469 19.5986 25.2719 19.5496C25.0747 19.5007 24.8699 19.4911 24.669 19.5215C24.4682 19.5518 24.2753 19.6215 24.1014 19.7265C23.9276 19.8315 23.7761 19.9697 23.6557 20.1333C23.6557 20.1488 23.6401 20.1644 23.6401 20.1644ZM28.649 1.48218C28.649 1.46663 28.6335 1.46663 28.6335 1.45107C28.5137 1.28867 28.3629 1.15166 28.1899 1.04798C28.0168 0.944292 27.8248 0.876 27.6251 0.847061C27.4254 0.818121 27.222 0.82911 27.0266 0.879389C26.8312 0.929668 26.6477 1.01824 26.4868 1.13996C25.6624 1.76218 24.7757 2.41552 23.9668 3.03774C23.2824 3.55107 23.1579 4.51552 23.6712 5.18441C23.6712 5.19996 23.6868 5.19996 23.6868 5.21552C24.2001 5.89996 25.149 6.03996 25.8335 5.52663C26.6579 4.91996 27.529 4.25107 28.3535 3.62885C29.0224 3.13107 29.1468 2.16663 28.649 1.48218ZM10.2779 7.99996H4.05569C2.34458 7.99996 0.94458 9.39996 0.94458 11.1111V14.2222C0.94458 15.9333 2.34458 17.3333 4.05569 17.3333H5.61125V22C5.61125 22.8555 6.31125 23.5555 7.1668 23.5555C8.02236 23.5555 8.72236 22.8555 8.72236 22V17.3333H10.2779L18.0557 22V3.3333L10.2779 7.99996ZM21.9446 12.6666C21.9446 10.5977 21.0424 8.73107 19.6112 7.45552V17.8622C21.0424 16.6022 21.9446 14.7355 21.9446 12.6666Z" fill="#9ED0E0"/>
</svg>
