<svg width="381" height="46" viewBox="0 0 381 46" fill="none" xmlns="http://www.w3.org/2000/svg">
<path d="M49.6 45.7144C26.7391 45.7144 23.04 33.5932 0 33.5931V6.86646e-05H96V33.5931C72.96 33.5931 72.4609 45.7143 49.6 45.7144Z" fill="#67B0C7"/>
<path d="M144.6 45.7144C121.739 45.7144 118.04 33.5932 95 33.5931V6.86646e-05H191V33.5931C167.96 33.5931 167.461 45.7143 144.6 45.7144Z" fill="#67B0C7"/>
<path d="M239.6 45.7144C216.739 45.7144 213.04 33.5932 190 33.5931V6.86646e-05H286V33.5931C262.96 33.5931 262.461 45.7143 239.6 45.7144Z" fill="#67B0C7"/>
<path d="M334.6 45.7144C311.739 45.7144 308.04 33.5932 285 33.5931V6.86646e-05H381V33.5931C357.96 33.5931 357.461 45.7143 334.6 45.7144Z" fill="#67B0C7"/>
</svg>
