<svg width="375" height="46" viewBox="0 0 375 46" fill="none" xmlns="http://www.w3.org/2000/svg">
<path d="M329.9 0C352.761 -1.80372e-05 356.46 12.1212 379.5 12.1212V45.7143H283.5V12.1212C306.54 12.1212 307.039 1.80372e-05 329.9 0Z" fill="#67B0C7"/>
<path d="M233.9 0C256.761 -1.80372e-05 260.46 12.1212 283.5 12.1212V45.7143H187.5V12.1212C210.54 12.1212 211.039 1.80372e-05 233.9 0Z" fill="#67B0C7"/>
<path d="M137.9 0C160.761 -1.80372e-05 164.46 12.1212 187.5 12.1212V45.7143H91.5V12.1212C114.54 12.1212 115.039 1.80372e-05 137.9 0Z" fill="#67B0C7"/>
<path d="M41.9 0C64.7609 -1.80372e-05 68.46 12.1212 91.5 12.1212V45.7143H-4.5V12.1212C18.54 12.1212 19.0391 1.80372e-05 41.9 0Z" fill="#67B0C7"/>
</svg>
