<svg width="33" height="29" viewBox="0 0 33 29" fill="none" xmlns="http://www.w3.org/2000/svg">
<path d="M11.8332 0.111084L8.98656 3.2222H4.05545C2.34434 3.2222 0.944336 4.6222 0.944336 6.33331V25C0.944336 26.7111 2.34434 28.1111 4.05545 28.1111H28.9443C30.6554 28.1111 32.0554 26.7111 32.0554 25V6.33331C32.0554 4.6222 30.6554 3.2222 28.9443 3.2222H24.0132L21.1666 0.111084H11.8332ZM16.4999 23.4444C12.2066 23.4444 8.72211 19.96 8.72211 15.6666C8.72211 11.3733 12.2066 7.88886 16.4999 7.88886C20.7932 7.88886 24.2777 11.3733 24.2777 15.6666C24.2777 19.96 20.7932 23.4444 16.4999 23.4444Z" fill="#9ED0E0"/>
</svg>
