<svg width="33" height="33" viewBox="0 0 33 33" fill="none" xmlns="http://www.w3.org/2000/svg">
<path d="M11.7206 12.84L16.894 18.0134L22.0673 12.84C22.1908 12.7166 22.3373 12.6187 22.4986 12.5519C22.6599 12.4851 22.8327 12.4507 23.0073 12.4507C23.1819 12.4507 23.3547 12.4851 23.516 12.5519C23.6773 12.6187 23.8239 12.7166 23.9473 12.84C24.0708 12.9635 24.1687 13.11 24.2355 13.2713C24.3023 13.4326 24.3367 13.6055 24.3367 13.78C24.3367 13.9546 24.3023 14.1275 24.2355 14.2888C24.1687 14.4501 24.0708 14.5966 23.9473 14.72L17.8273 20.84C17.3073 21.36 16.4673 21.36 15.9473 20.84L9.82731 14.72C9.70371 14.5967 9.60564 14.4502 9.53873 14.2889C9.47183 14.1276 9.43739 13.9547 9.43739 13.78C9.43739 13.6054 9.47183 13.4325 9.53873 13.2712C9.60564 13.1099 9.70371 12.9634 9.82731 12.84C10.3473 12.3334 11.2006 12.32 11.7206 12.84Z" fill="white"/>
</svg>
