<svg width="12" height="13" viewBox="0 0 12 13" fill="none" xmlns="http://www.w3.org/2000/svg">
<g clip-path="url(#clip0_42300_126)">
<path d="M7.51615 5.60568C7.51615 5.77524 7.44879 5.93786 7.3289 6.05776C7.209 6.17766 7.04639 6.24502 6.87683 6.24502H5.81129V7.31058C5.81129 7.48014 5.74394 7.64276 5.62404 7.76265C5.50415 7.88255 5.34153 7.94991 5.17197 7.94991C5.00241 7.94991 4.8398 7.88255 4.7199 7.76265C4.60001 7.64276 4.53265 7.48014 4.53265 7.31058V6.24502H3.46712C3.29756 6.24502 3.13495 6.17766 3.01505 6.05776C2.89515 5.93786 2.8278 5.77524 2.8278 5.60568C2.8278 5.43612 2.89515 5.2735 3.01505 5.1536C3.13495 5.0337 3.29756 4.96635 3.46712 4.96635H4.53265V3.90079C4.53265 3.73122 4.60001 3.56861 4.7199 3.44871C4.8398 3.32881 5.00241 3.26145 5.17197 3.26145C5.34153 3.26145 5.50415 3.32881 5.62404 3.44871C5.74394 3.56861 5.81129 3.73122 5.81129 3.90079V4.96635H6.87683C7.04639 4.96635 7.209 5.0337 7.3289 5.1536C7.44879 5.2735 7.51615 5.43612 7.51615 5.60568ZM11.5913 12.0251C11.5319 12.0847 11.4613 12.132 11.3836 12.1643C11.3059 12.1966 11.2226 12.2132 11.1384 12.2132C11.0543 12.2132 10.971 12.1966 10.8933 12.1643C10.8156 12.132 10.745 12.0847 10.6856 12.0251L8.15547 9.49497C7.1669 10.2536 5.92679 10.6078 4.6867 10.4857C3.4466 10.3636 2.29938 9.77431 1.47776 8.83744C0.656136 7.90057 0.221634 6.68624 0.262394 5.44079C0.303154 4.19533 0.816124 3.01201 1.69724 2.13087C2.57837 1.24973 3.76166 0.736749 5.00708 0.695988C6.25251 0.655227 7.46681 1.08974 8.40366 1.91138C9.3405 2.73302 9.92975 3.88027 10.0519 5.12039C10.174 6.36052 9.81978 7.60066 9.06117 8.58925L11.5939 11.1215C11.7133 11.2418 11.7801 11.4045 11.7796 11.5739C11.7791 11.7433 11.7114 11.9056 11.5913 12.0251ZM5.17197 9.22858C5.8885 9.22858 6.58893 9.0161 7.1847 8.61801C7.78047 8.21992 8.24482 7.6541 8.51902 6.99211C8.79322 6.33011 8.86497 5.60166 8.72518 4.89889C8.58539 4.19611 8.24035 3.55058 7.73369 3.0439C7.22703 2.53723 6.58151 2.19218 5.87875 2.05239C5.17599 1.9126 4.44756 1.98435 3.78558 2.25856C3.1236 2.53277 2.55779 2.99712 2.15971 3.5929C1.76163 4.18869 1.54916 4.88914 1.54916 5.60568C1.55028 6.56619 1.93233 7.48703 2.6115 8.16621C3.29067 8.8454 4.21149 9.22746 5.17197 9.22858Z" fill="#F5F5F5"/>
</g>
<defs>
<clipPath id="clip0_42300_126">
<rect width="11.5198" height="11.5198" fill="white" transform="translate(0.259766 0.693359)"/>
</clipPath>
</defs>
</svg>
