<svg width="48" height="49" viewBox="0 0 48 49" fill="none" xmlns="http://www.w3.org/2000/svg">
<path d="M21.4995 2.3273C22.9624 1.1607 25.0376 1.1607 26.5005 2.3273C27.5166 3.13761 28.8623 3.4053 30.1112 3.04551C31.9091 2.52754 33.8264 3.32168 34.7314 4.95929C35.3601 6.09676 36.501 6.85908 37.7925 7.00459C39.6518 7.21409 41.1192 8.68148 41.3287 10.5408C41.4742 11.8323 42.2365 12.9731 43.374 13.6018C45.0116 14.5069 45.8057 16.4241 45.2877 18.2221C44.928 19.4709 45.1956 20.8167 46.006 21.8328C47.1726 23.2957 47.1726 25.3708 46.006 26.8337C45.1956 27.8498 44.928 29.1956 45.2877 30.4444C45.8057 32.2424 45.0116 34.1596 43.374 35.0647C42.2365 35.6934 41.4742 36.8342 41.3287 38.1257C41.1192 39.985 39.6518 41.4524 37.7925 41.6619C36.501 41.8074 35.3601 42.5697 34.7314 43.7072C33.8264 45.3448 31.9091 46.139 30.1112 45.621C28.8623 45.2612 27.5166 45.5289 26.5005 46.3392C25.0376 47.5058 22.9624 47.5058 21.4995 46.3392C20.4834 45.5289 19.1377 45.2612 17.8888 45.621C16.0909 46.139 14.1736 45.3448 13.2685 43.7072C12.6399 42.5697 11.499 41.8074 10.2075 41.6619C8.34822 41.4524 6.88084 39.985 6.67134 38.1257C6.52582 36.8342 5.76351 35.6934 4.62604 35.0647C2.98843 34.1596 2.19428 32.2424 2.71226 30.4444C3.07204 29.1956 2.80436 27.8498 1.99405 26.8337C0.827449 25.3708 0.827449 23.2957 1.99405 21.8328C2.80436 20.8167 3.07204 19.4709 2.71226 18.2221C2.19428 16.4241 2.98843 14.5069 4.62604 13.6018C5.76351 12.9731 6.52582 11.8323 6.67134 10.5408C6.88084 8.68148 8.34822 7.21409 10.2075 7.00459C11.499 6.85908 12.6399 6.09676 13.2685 4.9593C14.1736 3.32168 16.0909 2.52754 17.8888 3.04551C19.1377 3.4053 20.4834 3.13761 21.4995 2.3273Z" fill="#CE2073"/>
<path d="M19.8747 9.25646H23.5764V10.0936H19.8747V9.25646ZM19.4139 10.7464H23.9143V11.5989H19.4139V10.7464ZM19.5828 12.2901H23.8375V13.1425H19.5828V12.2901ZM21.2417 8.56526H22.1556V11.2149H21.2417V8.56526ZM22.1556 11.5067H23.0695V14.7553C23.0695 15.2238 22.9774 15.4773 22.6702 15.6155C22.363 15.7537 21.9252 15.7768 21.3415 15.7768C21.3108 15.508 21.1879 15.1163 21.0651 14.8629C21.4414 14.8782 21.8638 14.8782 21.9943 14.8705C22.1172 14.8705 22.1556 14.8475 22.1556 14.74V11.5067ZM19.8516 13.5573L20.5351 13.1349C20.8731 13.4728 21.2801 13.9566 21.4644 14.2945L20.7348 14.7707C20.5735 14.4328 20.1819 13.9259 19.8516 13.5573ZM16.6798 12.6664C17.4324 12.4974 18.5537 12.1825 19.6135 11.883L19.7364 12.6894C18.7687 12.9966 17.7166 13.3115 16.9025 13.5496L16.6798 12.6664ZM18.0622 8.57294H18.907V15.7845H18.0622V8.57294ZM17.0484 8.9723L17.8164 9.10286C17.7166 10.1166 17.5323 11.1841 17.2558 11.8753C17.1175 11.7601 16.7873 11.5528 16.603 11.4606C16.8487 10.8385 16.9793 9.87854 17.0484 8.9723ZM17.2558 10.0245H19.5444V10.9H17.0868L17.2558 10.0245ZM28.5147 14.5173L29.1751 13.9182C29.9815 14.2945 30.9185 14.7937 31.4407 15.1393L30.5959 15.7537C30.1198 15.4081 29.2827 14.8936 28.5147 14.5173ZM24.3982 13.1425H31.5943V14.0104H24.3982V13.1425ZM25.6116 11.2686H30.3348V12.1211H25.6116V11.2686ZM26.7559 8.5499H27.6161V13.5265H26.7559V8.5499ZM28.3534 8.54222H29.2289V13.5265H28.3534V8.54222ZM25.1585 9.45614H30.8955V13.4574H29.9662V10.3086H26.0494V13.4574H25.1585V9.45614ZM26.6638 13.9259L27.5086 14.4865C26.9019 14.9627 25.9188 15.4849 25.1278 15.7768C24.9511 15.5848 24.6286 15.2853 24.4059 15.1086C25.2199 14.8475 26.1876 14.3329 26.6638 13.9259Z" fill="white"/>
<path d="M28.5914 21.4178L25.1354 28.0534L23.3152 27.0626C23.4688 27.0012 23.6301 26.9551 23.7991 26.9244C23.9834 26.8937 24.1524 26.8783 24.306 26.8783C24.8436 26.863 25.3812 26.9244 25.9188 27.0626C26.4564 27.2009 26.9402 27.4466 27.3703 27.7999C27.8157 28.1532 28.169 28.637 28.4301 29.2514C28.7066 29.8658 28.8448 30.6492 28.8448 31.6015C28.8448 32.7074 28.5837 33.6598 28.0615 34.4585C27.5546 35.2418 26.8864 35.8409 26.057 36.2556C25.2276 36.6703 24.329 36.8777 23.3613 36.8777C22.6087 36.8777 21.8176 36.7241 20.9882 36.4169C20.1588 36.0943 19.4983 35.6719 19.0068 35.1497L20.7117 32.3849C20.9421 32.6767 21.2954 32.9609 21.7716 33.2374C22.2477 33.5138 22.7469 33.6521 23.2692 33.6521C23.6071 33.6521 23.9373 33.5676 24.2599 33.3986C24.5824 33.2297 24.8512 32.9762 25.0663 32.6383C25.2813 32.3004 25.3888 31.8857 25.3888 31.3942C25.3888 30.7183 25.1968 30.1807 24.8128 29.7814C24.4442 29.382 23.922 29.1823 23.2461 29.1823C22.7853 29.1823 22.432 29.2054 22.1863 29.2514C21.9559 29.2822 21.7255 29.3282 21.4951 29.3897L21.426 29.2975L24.1216 24.2518L25.0893 24.6434H20.274V21.4178H28.5914Z" fill="white"/>
</svg>
