<svg width="36" height="37" viewBox="0 0 36 37" fill="none" xmlns="http://www.w3.org/2000/svg">
<path d="M36.0001 0.333252V36.3333H0L36.0001 0.333252Z" fill="#67B0C7"/>
<g clip-path="url(#clip0_42300_124)">
<path d="M26.5161 23.6057C26.5161 23.7752 26.4488 23.9379 26.3289 24.0578C26.209 24.1777 26.0464 24.245 25.8768 24.245H24.8113V25.3106C24.8113 25.4801 24.7439 25.6428 24.624 25.7627C24.5041 25.8826 24.3415 25.9499 24.172 25.9499C24.0024 25.9499 23.8398 25.8826 23.7199 25.7627C23.6 25.6428 23.5327 25.4801 23.5327 25.3106V24.245H22.4671C22.2976 24.245 22.1349 24.1777 22.015 24.0578C21.8952 23.9379 21.8278 23.7752 21.8278 23.6057C21.8278 23.4361 21.8952 23.2735 22.015 23.1536C22.1349 23.0337 22.2976 22.9663 22.4671 22.9663H23.5327V21.9008C23.5327 21.7312 23.6 21.5686 23.7199 21.4487C23.8398 21.3288 24.0024 21.2615 24.172 21.2615C24.3415 21.2615 24.5041 21.3288 24.624 21.4487C24.7439 21.5686 24.8113 21.7312 24.8113 21.9008V22.9663H25.8768C26.0464 22.9663 26.209 23.0337 26.3289 23.1536C26.4488 23.2735 26.5161 23.4361 26.5161 23.6057ZM30.5913 30.0251C30.5319 30.0847 30.4613 30.132 30.3836 30.1643C30.3059 30.1966 30.2226 30.2132 30.1384 30.2132C30.0543 30.2132 29.971 30.1966 29.8933 30.1643C29.8156 30.132 29.745 30.0847 29.6856 30.0251L27.1555 27.495C26.1669 28.2536 24.9268 28.6078 23.6867 28.4857C22.4466 28.3636 21.2994 27.7743 20.4778 26.8374C19.6561 25.9006 19.2216 24.6862 19.2624 23.4408C19.3032 22.1953 19.8161 21.012 20.6972 20.1309C21.5784 19.2497 22.7617 18.7367 24.0071 18.696C25.2525 18.6552 26.4668 19.0897 27.4037 19.9114C28.3405 20.733 28.9297 21.8803 29.0519 23.1204C29.174 24.3605 28.8198 25.6007 28.0612 26.5892L30.5939 29.1215C30.7133 29.2418 30.7801 29.4045 30.7796 29.5739C30.7791 29.7433 30.7114 29.9056 30.5913 30.0251ZM24.172 27.2286C24.8885 27.2286 25.5889 27.0161 26.1847 26.618C26.7805 26.2199 27.2448 25.6541 27.519 24.9921C27.7932 24.3301 27.865 23.6017 27.7252 22.8989C27.5854 22.1961 27.2404 21.5506 26.7337 21.0439C26.227 20.5372 25.5815 20.1922 24.8787 20.0524C24.176 19.9126 23.4476 19.9843 22.7856 20.2586C22.1236 20.5328 21.5578 20.9971 21.1597 21.5929C20.7616 22.1887 20.5492 22.8891 20.5492 23.6057C20.5503 24.5662 20.9323 25.487 21.6115 26.1662C22.2907 26.8454 23.2115 27.2275 24.172 27.2286Z" fill="#F5F5F5"/>
</g>
<defs>
<clipPath id="clip0_42300_124">
<rect width="11.5198" height="11.5198" fill="white" transform="translate(19.2598 18.6934)"/>
</clipPath>
</defs>
</svg>
