<svg width="49" height="49" viewBox="0 0 49 49" fill="none" xmlns="http://www.w3.org/2000/svg">
<path d="M21.9995 2.3273C23.4624 1.1607 25.5376 1.1607 27.0005 2.3273C28.0166 3.13761 29.3623 3.4053 30.6112 3.04551C32.4091 2.52754 34.3264 3.32168 35.2314 4.95929C35.8601 6.09676 37.001 6.85908 38.2925 7.00459C40.1518 7.21409 41.6192 8.68148 41.8287 10.5408C41.9742 11.8323 42.7365 12.9731 43.874 13.6018C45.5116 14.5069 46.3057 16.4241 45.7877 18.2221C45.428 19.4709 45.6956 20.8167 46.506 21.8328C47.6726 23.2957 47.6726 25.3708 46.506 26.8337C45.6956 27.8498 45.428 29.1956 45.7877 30.4444C46.3057 32.2424 45.5116 34.1596 43.874 35.0647C42.7365 35.6934 41.9742 36.8342 41.8287 38.1257C41.6192 39.985 40.1518 41.4524 38.2925 41.6619C37.001 41.8074 35.8601 42.5697 35.2314 43.7072C34.3264 45.3448 32.4091 46.139 30.6112 45.621C29.3623 45.2612 28.0166 45.5289 27.0005 46.3392C25.5376 47.5058 23.4624 47.5058 21.9995 46.3392C20.9834 45.5289 19.6377 45.2612 18.3888 45.621C16.5909 46.139 14.6736 45.3448 13.7685 43.7072C13.1399 42.5697 11.999 41.8074 10.7075 41.6619C8.84822 41.4524 7.38084 39.985 7.17134 38.1257C7.02582 36.8342 6.26351 35.6934 5.12604 35.0647C3.48843 34.1596 2.69428 32.2424 3.21226 30.4444C3.57204 29.1956 3.30436 27.8498 2.49405 26.8337C1.32745 25.3708 1.32745 23.2957 2.49405 21.8328C3.30436 20.8167 3.57204 19.4709 3.21226 18.2221C2.69428 16.4241 3.48843 14.5069 5.12604 13.6018C6.26351 12.9731 7.02582 11.8323 7.17134 10.5408C7.38084 8.68148 8.84822 7.21409 10.7075 7.00459C11.999 6.85908 13.1399 6.09676 13.7685 4.9593C14.6736 3.32168 16.5909 2.52754 18.3888 3.04551C19.6377 3.4053 20.9834 3.13761 21.9995 2.3273Z" fill="#CE2073"/>
<path d="M20.3747 9.25646H24.0764V10.0936H20.3747V9.25646ZM19.9139 10.7464H24.4143V11.5989H19.9139V10.7464ZM20.0828 12.2901H24.3375V13.1425H20.0828V12.2901ZM21.7417 8.56526H22.6556V11.2149H21.7417V8.56526ZM22.6556 11.5067H23.5695V14.7553C23.5695 15.2238 23.4774 15.4773 23.1702 15.6155C22.863 15.7537 22.4252 15.7768 21.8415 15.7768C21.8108 15.508 21.6879 15.1163 21.5651 14.8629C21.9414 14.8782 22.3638 14.8782 22.4943 14.8705C22.6172 14.8705 22.6556 14.8475 22.6556 14.74V11.5067ZM20.3516 13.5573L21.0351 13.1349C21.3731 13.4728 21.7801 13.9566 21.9644 14.2945L21.2348 14.7707C21.0735 14.4328 20.6819 13.9259 20.3516 13.5573ZM17.1798 12.6664C17.9324 12.4974 19.0537 12.1825 20.1135 11.883L20.2364 12.6894C19.2687 12.9966 18.2166 13.3115 17.4025 13.5496L17.1798 12.6664ZM18.5622 8.57294H19.407V15.7845H18.5622V8.57294ZM17.5484 8.9723L18.3164 9.10286C18.2166 10.1166 18.0323 11.1841 17.7558 11.8753C17.6175 11.7601 17.2873 11.5528 17.103 11.4606C17.3487 10.8385 17.4793 9.87854 17.5484 8.9723ZM17.7558 10.0245H20.0444V10.9H17.5868L17.7558 10.0245ZM29.0147 14.5173L29.6751 13.9182C30.4815 14.2945 31.4185 14.7937 31.9407 15.1393L31.0959 15.7537C30.6198 15.4081 29.7827 14.8936 29.0147 14.5173ZM24.8982 13.1425H32.0943V14.0104H24.8982V13.1425ZM26.1116 11.2686H30.8348V12.1211H26.1116V11.2686ZM27.2559 8.5499H28.1161V13.5265H27.2559V8.5499ZM28.8534 8.54222H29.7289V13.5265H28.8534V8.54222ZM25.6585 9.45614H31.3955V13.4574H30.4662V10.3086H26.5494V13.4574H25.6585V9.45614ZM27.1638 13.9259L28.0086 14.4865C27.4019 14.9627 26.4188 15.4849 25.6278 15.7768C25.4511 15.5848 25.1286 15.2853 24.9059 15.1086C25.7199 14.8475 26.6876 14.3329 27.1638 13.9259Z" fill="white"/>
<path d="M24.2733 36.8777C23.3671 36.8777 22.4839 36.7087 21.6237 36.3708C20.7636 36.0329 20.0954 35.6258 19.6193 35.1497L21.3473 32.477C21.6237 32.815 22.0154 33.0991 22.5223 33.3295C23.0445 33.5446 23.5437 33.6521 24.0199 33.6521C24.3732 33.6521 24.7034 33.5753 25.0106 33.4217C25.3178 33.2681 25.5636 33.0377 25.7479 32.7305C25.9322 32.4233 26.0244 32.047 26.0244 31.6015C26.0244 31.11 25.9245 30.6799 25.7249 30.3113C25.5405 29.9426 25.2641 29.6585 24.8954 29.4588C24.5421 29.2438 24.1197 29.1362 23.6282 29.1362C23.1521 29.1362 22.6989 29.2054 22.2689 29.3436C21.8388 29.4665 21.3319 29.6815 20.7482 29.9887H20.7252V21.4178H28.3514V24.6434H23.6052V27.1087L23.2135 26.4175C23.4285 26.3868 23.6359 26.3638 23.8356 26.3484C24.0353 26.333 24.2349 26.3254 24.4346 26.3254C25.5098 26.3254 26.4161 26.5634 27.1533 27.0396C27.906 27.5158 28.482 28.1455 28.8813 28.9289C29.2807 29.7122 29.4804 30.5647 29.4804 31.4863C29.4804 32.5001 29.25 33.414 28.7892 34.2281C28.3284 35.0422 27.6986 35.6873 26.8999 36.1634C26.1165 36.6396 25.241 36.8777 24.2733 36.8777Z" fill="white"/>
</svg>
