<svg width="255" height="56" viewBox="0 0 255 56" fill="none" xmlns="http://www.w3.org/2000/svg">
<path fill-rule="evenodd" clip-rule="evenodd" d="M37.0983 13.2969L36.2344 12.7549C34.6186 11.741 32.7842 10.8357 30.7267 10.0422C28.7161 9.2668 26.7465 8.86297 24.8134 8.8181L24.808 8.81797C23.2189 8.77265 21.9149 8.95623 20.8683 9.3323L20.8568 9.33643L20.8452 9.34029C19.802 9.68742 18.938 10.1545 18.2354 10.7293C17.5771 11.3069 17.0992 11.951 16.7826 12.662C16.4412 13.4286 16.2615 14.1461 16.2218 14.8193L16.2215 14.8251C16.1419 16.0559 16.4715 17.1182 17.217 18.0625C18.0808 19.0944 19.2448 20.0448 20.735 20.9026C22.2941 21.7511 23.9252 22.577 25.6285 23.3801C27.6904 24.3117 29.6548 25.4144 31.5211 26.688C33.524 27.9724 35.1222 29.6463 36.3054 31.7004C37.5481 33.8576 37.9605 36.5785 37.6615 39.7707C37.5058 41.6769 36.9651 43.5664 36.0558 45.4348C35.1802 47.3334 33.9228 49.0193 32.2971 50.4913C30.6938 51.9867 28.6998 53.152 26.3417 54.0038C23.9832 54.8733 21.2561 55.2419 18.1846 55.143L18.1793 55.1429L18.174 55.1427C15.845 55.0437 13.6081 54.6971 11.4657 54.1003L11.4518 54.0964L11.438 54.0922C9.36953 53.4531 7.41906 52.6649 5.58817 51.7265L5.57322 51.7188L5.55853 51.7106C3.77499 50.7216 2.15764 49.6049 0.709653 48.3589L0 47.7482L4.95695 40.802L5.81377 41.5795C6.80849 42.4822 7.99553 43.3505 9.38167 44.1815C10.75 44.9545 12.2116 45.5934 13.7683 46.0973C15.3653 46.5516 16.9063 46.8224 18.3927 46.9148C20.328 46.9115 21.9975 46.5956 23.4217 45.9937C24.9039 45.3398 26.0485 44.4414 26.8895 43.3081L26.8931 43.3032C27.7786 42.1248 28.2872 40.7813 28.417 39.2478C28.4965 37.9456 28.1731 36.8532 27.4687 35.9158L27.4544 35.8968L27.4411 35.8771C26.7163 34.8132 25.7238 33.8795 24.4392 33.0836L24.4214 33.0726L24.4041 33.0608C23.1169 32.189 21.685 31.4043 20.1053 30.7086L20.1012 30.7068L20.0971 30.705C18.5843 30.023 17.0262 29.2452 15.423 28.3723L15.4171 28.3691L15.4113 28.3658C13.8206 27.4727 12.3508 26.4536 11.0035 25.3079C9.59088 24.1068 8.49279 22.6435 7.71225 20.9294L7.70685 20.9176L7.70175 20.9056C6.94802 19.1321 6.72485 17.1087 6.97754 14.8726C7.23343 11.935 8.154 9.35998 9.76371 7.18304C11.3623 5.02119 13.4503 3.3786 16.0049 2.2566L16.0083 2.2551L16.0117 2.25363C18.6029 1.13791 21.4782 0.589622 24.6215 0.589622H24.6433L24.6652 0.59055C26.9822 0.688967 29.1212 1.00912 31.0765 1.5585C32.9965 2.05059 34.757 2.66851 36.3543 3.41586C37.9352 4.15558 39.3769 4.97345 40.6763 5.87142L41.4908 6.43421L37.0983 13.2969ZM30.8094 2.54934C28.9386 2.02264 26.876 1.71141 24.6215 1.61565C21.5995 1.61565 18.8653 2.14235 16.4189 3.19574C14.0205 4.24913 12.0777 5.78133 10.5907 7.79235C9.10371 9.80336 8.24028 12.1974 8.00044 14.9745C7.76059 17.0813 7.97645 18.9248 8.64801 20.5048C9.36753 22.0849 10.3749 23.4256 11.67 24.5269C12.9652 25.6281 14.3802 26.6097 15.9152 27.4716C17.4982 28.3334 19.0332 29.0995 20.5202 29.7699C22.1511 30.4881 23.6381 31.3021 24.9812 32.2118C26.3723 33.0737 27.4756 34.1031 28.291 35.3002C29.1545 36.4493 29.5382 37.79 29.4423 39.3222C29.2984 41.0459 28.7228 42.5781 27.7154 43.9188C26.7561 45.2116 25.4609 46.2171 23.83 46.9353C22.247 47.6057 20.4242 47.9409 18.3616 47.9409C16.7786 47.8451 15.1477 47.5578 13.4688 47.079C11.8379 46.5523 10.3029 45.882 8.86387 45.068C7.76567 44.4102 6.77921 43.7246 5.9045 43.0111C5.63302 42.7897 5.37229 42.5656 5.12234 42.3387L1.38081 47.5817C2.77189 48.7788 4.33086 49.8561 6.05772 50.8137C7.83255 51.7235 9.7273 52.4896 11.742 53.112C13.8046 53.6866 15.9632 54.0218 18.2177 54.1175C21.1917 54.2133 23.782 53.8542 25.9886 53.0402C28.2431 52.2262 30.1138 51.125 31.6009 49.7364C33.1358 48.3478 34.3111 46.7678 35.1265 44.9961C35.99 43.2245 36.4936 41.4529 36.6375 39.6813C36.9253 36.6169 36.5176 34.1271 35.4143 32.2118C34.3111 30.2966 32.8241 28.7404 30.9533 27.5434C29.1305 26.2985 27.2118 25.2212 25.1971 24.3114C23.4702 23.4974 21.8153 22.6595 20.2324 21.7976C18.6494 20.8879 17.3782 19.8584 16.4189 18.7093C15.5075 17.5601 15.0998 16.2434 15.1957 14.7591C15.2437 13.9451 15.4595 13.1072 15.8433 12.2453C16.227 11.3834 16.8026 10.6173 17.5701 9.947C18.3856 9.27667 19.3689 8.74997 20.5202 8.36692C21.7194 7.93599 23.1584 7.74446 24.8373 7.79235C26.9 7.84023 28.9866 8.27116 31.0972 9.08514C33.2078 9.89912 35.1026 10.8328 36.7814 11.8862L40.0913 6.71501C38.8441 5.85315 37.453 5.06311 35.918 4.34489C34.383 3.62667 32.6801 3.02815 30.8094 2.54934ZM59.4774 1.68747H73.2923C75.6427 1.68747 77.8013 1.9987 79.768 2.62116C81.7827 3.24362 83.5095 4.15336 84.9486 5.35039C86.4356 6.54743 87.5868 8.03175 88.4023 9.80336C89.2178 11.5271 89.6255 13.5381 89.6255 15.8364C89.6255 17.9911 89.2657 20.1697 88.5462 22.3722C87.8267 24.5269 86.6754 26.5379 85.0925 28.4053C83.5575 30.2248 81.5428 31.7091 79.0485 32.8582C76.5541 33.9595 73.5561 34.5101 70.0544 34.5101H62.5714L60.2689 53.6148H53.0736L59.4774 1.68747ZM63.483 35.5362L61.1805 54.6408H51.9114L58.5683 0.661443H73.2923C75.7324 0.661443 77.9962 0.984438 80.0754 1.64207C82.199 2.29862 84.0468 3.26626 85.6002 4.55686C87.2092 5.85364 88.455 7.46232 89.334 9.36985C90.2247 11.2548 90.6534 13.4192 90.6534 15.8364C90.6534 18.1069 90.274 20.3928 89.5235 22.6903L89.5214 22.6967C88.7574 24.9844 87.538 27.1087 85.8772 29.068C84.2314 31.0182 82.0888 32.5876 79.4792 33.7898L79.4718 33.7933L79.4643 33.7966C76.8074 34.9696 73.6602 35.5362 70.0544 35.5362H63.483ZM78.9457 23.193L78.9496 23.1878C79.7991 22.0721 80.3851 20.9575 80.7283 19.844L80.7335 19.827L80.7394 19.8101C81.1467 18.6355 81.3304 17.6513 81.3304 16.8419C81.3304 15.666 81.0582 14.5007 80.4968 13.3368C79.9675 12.2395 79.129 11.3295 77.9394 10.6086L77.9281 10.6017L77.917 10.5946C76.7917 9.8725 75.2304 9.46477 73.1484 9.46477H66.7191L64.596 26.8047H70.702C72.7948 26.8047 74.4686 26.4407 75.7709 25.7698C77.1424 25.0632 78.1894 24.1997 78.9457 23.193ZM63.4348 27.8307L65.8092 8.43874H73.1484C75.3549 8.43874 77.1297 8.86968 78.4729 9.73154C79.816 10.5455 80.7993 11.5989 81.4229 12.8917C82.0465 14.1845 82.3583 15.5012 82.3583 16.8419C82.3583 17.7995 82.1424 18.9008 81.7107 20.1457C81.327 21.3906 80.6794 22.6116 79.768 23.8087C78.9046 24.9578 77.7294 25.9154 76.2423 26.6815C74.7553 27.4476 72.9085 27.8307 70.702 27.8307H63.4348ZM109.385 48.6436L109.381 48.6402C106.912 46.4777 104.957 43.7944 103.51 40.6075C102.048 37.3867 101.332 33.6944 101.332 29.5544C101.332 26.2635 101.957 22.9144 103.191 19.5122C104.432 16.044 106.269 12.8741 108.695 10.0063C111.144 7.06398 114.211 4.70381 117.879 2.92197C121.593 1.06947 125.854 0.158691 130.637 0.158691C133.919 0.158691 137.105 0.704968 140.189 1.79704C143.331 2.89284 146.132 4.5147 148.584 6.66205C151.055 8.82667 153.01 11.5358 154.456 14.7696C155.917 17.9897 156.633 21.681 156.633 25.8197C156.633 29.1113 156.008 32.484 154.774 35.9326L154.772 35.937C153.531 39.3571 151.695 42.5242 149.272 45.4362L149.27 45.4395L149.267 45.4428C146.817 48.3376 143.75 50.6728 140.083 52.4537C136.415 54.2588 132.153 55.1436 127.327 55.1436C124.045 55.1436 120.859 54.597 117.774 53.5044C114.68 52.4086 111.883 50.7882 109.389 48.6469L109.385 48.6436ZM139.631 51.532C143.181 49.8082 146.131 47.5578 148.482 44.7807C150.832 41.9557 152.607 38.8913 153.806 35.5875C155.005 32.2358 155.605 28.9798 155.605 25.8197C155.605 21.7976 154.909 18.2544 153.518 15.19C152.127 12.0777 150.256 9.49213 147.906 7.43324C145.555 5.37434 142.869 3.81819 139.847 2.76481C136.873 1.71142 133.803 1.18472 130.637 1.18472C125.984 1.18472 121.883 2.07052 118.333 3.84213C114.784 5.56586 111.834 7.84023 109.483 10.6652C107.133 13.4423 105.358 16.5068 104.159 19.8584C102.96 23.1623 102.36 26.3942 102.36 29.5544C102.36 33.5764 103.056 37.1197 104.447 40.1841C105.838 43.2485 107.708 45.8101 110.059 47.869C112.457 49.9279 115.144 51.4841 118.118 52.5375C121.092 53.5909 124.162 54.1175 127.327 54.1175C132.028 54.1175 136.13 53.2557 139.631 51.532ZM142.501 39.6835L142.505 39.678C144.155 37.6655 145.363 35.4786 146.137 33.114L146.14 33.1056L146.143 33.0972C146.974 30.7022 147.382 28.3976 147.382 26.1788C147.382 23.8171 146.95 21.6315 146.096 19.6111L146.09 19.5986L146.085 19.5859C145.271 17.5089 144.098 15.6861 142.564 14.1094L142.559 14.1042L142.554 14.099C141.019 12.4773 139.216 11.2165 137.135 10.3134L137.122 10.3079L137.11 10.3022C135.102 9.36663 132.854 8.89019 130.349 8.89019C126.88 8.89019 123.928 9.53642 121.462 10.7895L121.459 10.7912L121.455 10.7929C118.989 12.024 116.949 13.6334 115.32 15.6188C113.717 17.6312 112.531 19.8199 111.755 22.1883C110.971 24.5848 110.583 26.9192 110.583 29.1953C110.583 31.5135 110.992 33.7086 111.808 35.7882C112.623 37.8693 113.775 39.6939 115.263 41.2704C116.801 42.8494 118.587 44.1141 120.627 45.0661C122.688 45.9588 124.965 46.4121 127.471 46.4121C130.943 46.4121 133.898 45.789 136.365 44.5812C138.882 43.3011 140.919 41.6682 142.497 39.689L142.501 39.6835ZM136.825 45.4989C134.187 46.7917 131.069 47.4381 127.471 47.4381C124.833 47.4381 122.411 46.9593 120.204 46.0017C118.046 44.9961 116.151 43.6555 114.52 41.9796C112.937 40.3038 111.714 38.3646 110.85 36.162C109.987 33.9595 109.555 31.6373 109.555 29.1953C109.555 26.8012 109.963 24.3593 110.778 21.8695C111.594 19.3796 112.841 17.0813 114.52 14.9745C116.247 12.8678 118.405 11.168 120.996 9.87518C123.634 8.53451 126.752 7.86417 130.349 7.86417C132.988 7.86417 135.386 8.36692 137.545 9.37243C139.751 10.3301 141.67 11.6707 143.301 13.3945C144.932 15.0703 146.179 17.0095 147.042 19.212C147.954 21.3667 148.41 23.689 148.41 26.1788C148.41 28.525 147.978 30.943 147.114 33.4328C146.299 35.9226 145.028 38.2209 143.301 40.3277C141.622 42.4345 139.463 44.1582 136.825 45.4989ZM170.751 0.661443H207.361L206.238 9.53659H192.426L186.886 54.6408H177.619L183.16 9.53659H169.628L170.751 0.661443ZM184.321 8.51057L178.781 53.6148H185.976L191.516 8.51057H205.331L206.195 1.68747H171.658L170.794 8.51057H184.321ZM250.047 13.2969L249.183 12.7549C247.567 11.741 245.733 10.8357 243.675 10.0422C241.665 9.2668 239.695 8.86297 237.762 8.8181L237.756 8.81797C236.167 8.77264 234.863 8.95623 233.817 9.3323L233.805 9.33643L233.794 9.34029C232.75 9.68742 231.887 10.1545 231.184 10.7293C230.526 11.3069 230.048 11.951 229.731 12.662C229.39 13.4286 229.21 14.1461 229.17 14.8193L229.17 14.8251C229.09 16.0559 229.42 17.1181 230.165 18.0625C231.029 19.0943 232.193 20.0448 233.684 20.9026C235.242 21.7511 236.874 22.577 238.577 23.38C240.639 24.3116 242.603 25.4143 244.469 26.6879C246.472 27.9723 248.071 29.6463 249.254 31.7004C250.497 33.8576 250.909 36.5783 250.61 39.7704C250.454 41.6766 249.914 43.5662 249.004 45.4347C248.129 47.3334 246.871 49.0195 245.245 50.4916C243.642 51.9868 241.648 53.152 239.29 54.0038C236.932 54.8733 234.205 55.2419 231.133 55.143L231.128 55.1429L231.122 55.1427C228.794 55.0437 226.557 54.6971 224.414 54.1003L224.4 54.0964L224.387 54.0922C222.318 53.4531 220.368 52.6649 218.537 51.7265L218.522 51.7188L218.507 51.7106C216.723 50.7216 215.106 49.6049 213.658 48.3589L212.949 47.7482L217.905 40.802L218.762 41.5795C219.757 42.4822 220.944 43.3505 222.33 44.1815C223.698 44.9545 225.16 45.5934 226.717 46.0973C228.314 46.5516 229.855 46.8224 231.341 46.9148C233.276 46.9114 234.946 46.5956 236.37 45.9938C237.852 45.3399 238.997 44.4414 239.838 43.3081L239.842 43.3032C240.727 42.1248 241.236 40.7814 241.366 39.2479C241.445 37.9457 241.122 36.8532 240.417 35.9158L240.403 35.8968L240.39 35.8771C239.665 34.8132 238.672 33.8795 237.388 33.0836L237.37 33.0726L237.353 33.0608C236.065 32.189 234.633 31.4043 233.054 30.7086L233.05 30.7068L233.046 30.705C231.533 30.023 229.975 29.2452 228.372 28.3723L228.366 28.3691L228.36 28.3658C226.769 27.4727 225.299 26.4536 223.952 25.3079C222.539 24.1068 221.441 22.6435 220.661 20.9294L220.655 20.9176L220.65 20.9056C219.896 19.132 219.673 17.1083 219.926 14.872C220.182 11.9347 221.103 9.35984 222.712 7.18304C224.311 5.02119 226.399 3.3786 228.953 2.2566L228.957 2.2551L228.96 2.25363C231.551 1.13791 234.427 0.589622 237.57 0.589622H237.592L237.614 0.59055C239.931 0.688967 242.07 1.00912 244.025 1.5585C245.945 2.05059 247.706 2.66851 249.303 3.41586C250.884 4.15558 252.325 4.97345 253.625 5.87142L254.439 6.43421L250.047 13.2969ZM243.758 2.54934C241.887 2.02264 239.824 1.71141 237.57 1.61565C234.548 1.61565 231.814 2.14235 229.367 3.19574C226.969 4.24913 225.026 5.78133 223.539 7.79235C222.052 9.80336 221.189 12.1974 220.949 14.9745C220.709 17.0813 220.925 18.9248 221.597 20.5048C222.316 22.0849 223.323 23.4256 224.619 24.5269C225.914 25.6281 227.329 26.6097 228.864 27.4716C230.447 28.3334 231.982 29.0995 233.469 29.7699C235.1 30.4881 236.587 31.3021 237.93 32.2118C239.321 33.0737 240.424 34.1031 241.24 35.3002C242.103 36.4493 242.487 37.79 242.391 39.3222C242.247 41.0459 241.671 42.5781 240.664 43.9188C239.705 45.2116 238.409 46.2171 236.778 46.9353C235.196 47.6057 233.373 47.9409 231.31 47.9409C229.727 47.8451 228.096 47.5578 226.417 47.079C224.786 46.5523 223.251 45.882 221.812 45.068C220.714 44.4102 219.728 43.7246 218.853 43.0111C218.582 42.7897 218.321 42.5656 218.071 42.3387L214.329 47.5817C215.72 48.7788 217.279 49.8561 219.006 50.8137C220.781 51.7235 222.676 52.4896 224.69 53.112C226.753 53.6866 228.912 54.0218 231.166 54.1175C234.14 54.2133 236.731 53.8542 238.937 53.0402C241.192 52.2262 243.062 51.125 244.549 49.7364C246.084 48.3478 247.26 46.7678 248.075 44.9961C248.938 43.2245 249.442 41.4529 249.586 39.6813C249.874 36.6169 249.466 34.1271 248.363 32.2118C247.26 30.2966 245.773 28.7404 243.902 27.5434C242.079 26.2985 240.16 25.2212 238.146 24.3114C236.419 23.4974 234.764 22.6595 233.181 21.7976C231.598 20.8879 230.327 19.8584 229.367 18.7093C228.456 17.5601 228.048 16.2434 228.144 14.7591C228.192 13.9451 228.408 13.1072 228.792 12.2453C229.176 11.3834 229.751 10.6173 230.519 9.947C231.334 9.27667 232.317 8.74997 233.469 8.36692C234.668 7.93599 236.107 7.74446 237.786 7.79235C239.848 7.84023 241.935 8.27116 244.046 9.08514C246.156 9.89912 248.051 10.8328 249.73 11.8862L249.73 11.8855L253.04 6.71516C251.792 5.8533 250.401 5.06311 248.867 4.34489C247.332 3.62667 245.629 3.02815 243.758 2.54934Z" fill="white"/>
</svg>
