<svg width="48" height="49" viewBox="0 0 48 49" fill="none" xmlns="http://www.w3.org/2000/svg">
<path d="M21.4995 2.3273C22.9624 1.1607 25.0376 1.1607 26.5005 2.3273C27.5166 3.13761 28.8623 3.4053 30.1112 3.04551C31.9091 2.52754 33.8264 3.32168 34.7314 4.95929C35.3601 6.09676 36.501 6.85908 37.7925 7.00459C39.6518 7.21409 41.1192 8.68148 41.3287 10.5408C41.4742 11.8323 42.2365 12.9731 43.374 13.6018C45.0116 14.5069 45.8057 16.4241 45.2877 18.2221C44.928 19.4709 45.1956 20.8167 46.006 21.8328C47.1726 23.2957 47.1726 25.3708 46.006 26.8337C45.1956 27.8498 44.928 29.1956 45.2877 30.4444C45.8057 32.2424 45.0116 34.1596 43.374 35.0647C42.2365 35.6934 41.4742 36.8342 41.3287 38.1257C41.1192 39.985 39.6518 41.4524 37.7925 41.6619C36.501 41.8074 35.3601 42.5697 34.7314 43.7072C33.8264 45.3448 31.9091 46.139 30.1112 45.621C28.8623 45.2612 27.5166 45.5289 26.5005 46.3392C25.0376 47.5058 22.9624 47.5058 21.4995 46.3392C20.4834 45.5289 19.1377 45.2612 17.8888 45.621C16.0909 46.139 14.1736 45.3448 13.2685 43.7072C12.6399 42.5697 11.499 41.8074 10.2075 41.6619C8.34822 41.4524 6.88084 39.985 6.67134 38.1257C6.52582 36.8342 5.76351 35.6934 4.62604 35.0647C2.98843 34.1596 2.19428 32.2424 2.71226 30.4444C3.07204 29.1956 2.80436 27.8498 1.99405 26.8337C0.827449 25.3708 0.827449 23.2957 1.99405 21.8328C2.80436 20.8167 3.07204 19.4709 2.71226 18.2221C2.19428 16.4241 2.98843 14.5069 4.62604 13.6018C5.76351 12.9731 6.52582 11.8323 6.67134 10.5408C6.88084 8.68148 8.34822 7.21409 10.2075 7.00459C11.499 6.85908 12.6399 6.09676 13.2685 4.9593C14.1736 3.32168 16.0909 2.52754 17.8888 3.04551C19.1377 3.4053 20.4834 3.13761 21.4995 2.3273Z" fill="#CE2073"/>
<path d="M19.8747 9.25646H23.5764V10.0936H19.8747V9.25646ZM19.4139 10.7464H23.9143V11.5989H19.4139V10.7464ZM19.5828 12.2901H23.8375V13.1425H19.5828V12.2901ZM21.2417 8.56526H22.1556V11.2149H21.2417V8.56526ZM22.1556 11.5067H23.0695V14.7553C23.0695 15.2238 22.9774 15.4773 22.6702 15.6155C22.363 15.7537 21.9252 15.7768 21.3415 15.7768C21.3108 15.508 21.1879 15.1163 21.0651 14.8629C21.4414 14.8782 21.8638 14.8782 21.9943 14.8705C22.1172 14.8705 22.1556 14.8475 22.1556 14.74V11.5067ZM19.8516 13.5573L20.5351 13.1349C20.8731 13.4728 21.2801 13.9566 21.4644 14.2945L20.7348 14.7707C20.5735 14.4328 20.1819 13.9259 19.8516 13.5573ZM16.6798 12.6664C17.4324 12.4974 18.5537 12.1825 19.6135 11.883L19.7364 12.6894C18.7687 12.9966 17.7166 13.3115 16.9025 13.5496L16.6798 12.6664ZM18.0622 8.57294H18.907V15.7845H18.0622V8.57294ZM17.0484 8.9723L17.8164 9.10286C17.7166 10.1166 17.5323 11.1841 17.2558 11.8753C17.1175 11.7601 16.7873 11.5528 16.603 11.4606C16.8487 10.8385 16.9793 9.87854 17.0484 8.9723ZM17.2558 10.0245H19.5444V10.9H17.0868L17.2558 10.0245ZM28.5147 14.5173L29.1751 13.9182C29.9815 14.2945 30.9185 14.7937 31.4407 15.1393L30.5959 15.7537C30.1198 15.4081 29.2827 14.8936 28.5147 14.5173ZM24.3982 13.1425H31.5943V14.0104H24.3982V13.1425ZM25.6116 11.2686H30.3348V12.1211H25.6116V11.2686ZM26.7559 8.5499H27.6161V13.5265H26.7559V8.5499ZM28.3534 8.54222H29.2289V13.5265H28.3534V8.54222ZM25.1585 9.45614H30.8955V13.4574H29.9662V10.3086H26.0494V13.4574H25.1585V9.45614ZM26.6638 13.9259L27.5086 14.4865C26.9019 14.9627 25.9188 15.4849 25.1278 15.7768C24.9511 15.5848 24.6286 15.2853 24.4059 15.1086C25.2199 14.8475 26.1876 14.3329 26.6638 13.9259Z" fill="white"/>
<path d="M18.6881 36.6934C19.6404 35.7257 20.5543 34.7964 21.4298 33.9055C22.3053 32.9993 23.0887 32.1314 23.7799 31.302C24.4865 30.4572 25.0394 29.6431 25.4388 28.8598C25.8535 28.0764 26.0609 27.3161 26.0609 26.5788C26.0609 26.2562 25.9994 25.9644 25.8765 25.7033C25.769 25.4422 25.6077 25.2194 25.3927 25.0351C25.193 24.8508 24.9473 24.7126 24.6554 24.6204C24.3789 24.5129 24.0641 24.4591 23.7108 24.4591C23.3575 24.4591 23.0426 24.5129 22.7661 24.6204C22.4897 24.7126 22.2593 24.8431 22.0749 25.0121C21.8906 25.181 21.7447 25.3654 21.6372 25.565C21.545 25.7647 21.4989 25.9721 21.4989 26.1871C21.4989 26.6786 21.5757 27.1164 21.7293 27.5004C21.8983 27.869 22.121 28.1993 22.3975 28.4911L20.3469 30.3574C19.9015 30.1423 19.5175 29.7814 19.1949 29.2745C18.8877 28.7676 18.6497 28.2377 18.4807 27.6847C18.3271 27.1164 18.2503 26.6479 18.2503 26.2793C18.2503 25.4345 18.4807 24.6281 18.9415 23.8601C19.4177 23.0921 20.1012 22.4623 20.9921 21.9708C21.8983 21.4793 22.9965 21.2335 24.2868 21.2335C25.3466 21.2335 26.2682 21.4716 27.0516 21.9478C27.8349 22.4239 28.4417 23.0537 28.8717 23.837C29.3172 24.605 29.5399 25.4268 29.5399 26.3023C29.5399 26.9935 29.4324 27.6617 29.2173 28.3068C29.0023 28.9519 28.7028 29.5894 28.3188 30.2191C27.9501 30.8335 27.5277 31.4479 27.0516 32.0623C26.5754 32.6614 26.0839 33.2758 25.577 33.9055L24.0564 33.4678H29.7242V36.6934H18.6881Z" fill="white"/>
</svg>
