<svg width="384" height="46" viewBox="0 0 384 46" fill="none" xmlns="http://www.w3.org/2000/svg">
<path d="M49.6 0.285645C26.7391 0.285626 23.04 12.4068 0 12.4069V45.9999H96V12.4069C72.96 12.4069 72.4609 0.285663 49.6 0.285645Z" fill="#67B0C7"/>
<path d="M145.6 0.285645C122.739 0.285626 119.04 12.4068 96 12.4069V45.9999H192V12.4069C168.96 12.4069 168.461 0.285663 145.6 0.285645Z" fill="#67B0C7"/>
<path d="M241.6 0.285645C218.739 0.285626 215.04 12.4068 192 12.4069V45.9999H288V12.4069C264.96 12.4069 264.461 0.285663 241.6 0.285645Z" fill="#67B0C7"/>
<path d="M337.6 0.285645C314.739 0.285626 311.04 12.4068 288 12.4069V45.9999H384V12.4069C360.96 12.4069 360.461 0.285663 337.6 0.285645Z" fill="#67B0C7"/>
</svg>
