<svg width="113" height="24" fill="none" xmlns="http://www.w3.org/2000/svg"><path fill-rule="evenodd" clip-rule="evenodd" d="M32.217 3.437a38.591 38.591 0 00-5.723.31c-.86.11-1.64-.563-1.74-1.504-.101-.94.515-1.792 1.376-1.901a41.464 41.464 0 016.15-.333c.867.02 1.555.802 1.538 1.749-.018.946-.734 1.698-1.6 1.68zM112.306.333c.719.529.911 1.594.427 2.38-.507.824-1.212 1.81-2.08 2.893-.571.712-1.563.784-2.215.16-.652-.624-.717-1.707-.146-2.42.807-1.006 1.423-1.875 1.836-2.546.484-.786 1.459-.995 2.178-.467zM39.552 2.601c.22-.916 1.077-1.464 1.916-1.224a34.469 34.469 0 015.848 2.266c.79.391 1.139 1.408.78 2.27-.358.862-1.288 1.243-2.078.852a31.5 31.5 0 00-5.346-2.072c-.838-.24-1.34-1.176-1.12-2.092zm-20.46.943c.248.907-.224 1.862-1.055 2.134A53.148 53.148 0 0012.591 7.8c-.8.363-1.719-.052-2.051-.926-.333-.874.046-1.877.847-2.24a56.11 56.11 0 015.75-2.241c.831-.271 1.706.244 1.954 1.151zm33.925 5.687c.54-.74 1.528-.86 2.205-.27a42.941 42.941 0 012.347 2.21c.771.785 1.544 1.51 2.317 2.183.678.59.79 1.668.25 2.409-.54.74-1.527.863-2.205.273a44.407 44.407 0 01-2.5-2.353 39.202 39.202 0 00-2.167-2.042c-.677-.591-.788-1.67-.247-2.41zm-47.64.506c.455.805.226 1.862-.511 2.359a42.272 42.272 0 00-2.384 1.726c-.705.55-1.685.373-2.19-.398-.503-.77-.34-1.84.364-2.391a45.326 45.326 0 012.561-1.855c.738-.497 1.705-.247 2.16.559zm98.394.788c.536.744.42 1.822-.261 2.408a57.111 57.111 0 01-5.347 4.09c-.738.497-1.705.246-2.16-.56-.454-.806-.225-1.862.513-2.359a53.765 53.765 0 005.05-3.863c.681-.587 1.668-.46 2.205.284zm-38.152 8.826c.327-.877 1.243-1.299 2.046-.941 1.934.86 3.857 1.44 5.756 1.78.855.153 1.435 1.035 1.294 1.97-.14.933-.947 1.567-1.802 1.413a27.875 27.875 0 01-6.432-1.988c-.803-.357-1.189-1.358-.862-2.234zm24.643.174c.29.892-.136 1.872-.953 2.19a34.485 34.485 0 01-6.41 1.82c-.855.152-1.662-.481-1.802-1.416-.14-.934.44-1.815 1.296-1.968a31.563 31.563 0 005.865-1.668c.817-.317 1.714.15 2.004 1.042z" fill="#CE2073"/></svg>