<svg width="244" height="130" fill="none" xmlns="http://www.w3.org/2000/svg"><g filter="url(#filter0_d_1110_3840)"><mask id="a" maskUnits="userSpaceOnUse" x="38" y="7.07" width="142" height="98" fill="#000"><path fill="#fff" d="M38 7.07h142v98H38z"/><path d="M112.14 14.062a16.892 16.892 0 00-2.592-1.056 9.05 9.05 0 00-2.752-.448c-1.238 0-2.23.288-2.976.864-.726.576-1.088 1.344-1.088 2.304 0 .725.234 1.344.704 1.856.469.49 1.088.917 1.856 1.28.768.362 1.568.704 2.4 1.024.725.277 1.44.586 2.144.928a7.753 7.753 0 011.888 1.28 5.258 5.258 0 011.344 1.888c.341.746.512 1.674.512 2.784a6.22 6.22 0 01-.928 3.328c-.598 1.002-1.462 1.792-2.592 2.368-1.131.576-2.475.864-4.032.864-1.024 0-2.006-.118-2.944-.352a15.036 15.036 0 01-2.56-.896 19.108 19.108 0 01-2.112-1.184l1.376-2.432c.512.362 1.098.714 1.76 1.056a13.5 13.5 0 002.08.8 8.236 8.236 0 002.112.288c.725 0 1.44-.128 2.144-.384a4.328 4.328 0 001.792-1.248c.469-.555.704-1.29.704-2.208 0-.79-.214-1.44-.64-1.952-.406-.534-.95-.982-1.632-1.344a17.01 17.01 0 00-2.176-1.024 59.232 59.232 0 01-2.208-.896 11.799 11.799 0 01-2.08-1.216 5.636 5.636 0 01-1.536-1.792c-.384-.704-.576-1.558-.576-2.56 0-1.216.288-2.272.864-3.168.597-.918 1.408-1.632 2.432-2.144 1.024-.534 2.197-.822 3.52-.864 1.493 0 2.805.181 3.936.544 1.152.362 2.165.81 3.04 1.344l-1.184 2.368zm5.921 19.008V8.302h2.912v14.592l-.064-.544c.448-.875 1.13-1.6 2.048-2.176.938-.576 2.037-.864 3.296-.864 1.258 0 2.282.373 3.072 1.12.81.725 1.226 1.674 1.248 2.848v9.792h-3.008v-8.736c-.022-.726-.235-1.312-.64-1.76-.384-.47-.992-.704-1.824-.704a3.46 3.46 0 00-2.08.672c-.619.426-1.11 1.013-1.472 1.76-.342.746-.512 1.6-.512 2.56v6.208h-2.976zm23.191.32c-1.237 0-2.368-.267-3.392-.8-1.002-.534-1.802-1.312-2.4-2.336-.576-1.046-.864-2.315-.864-3.808 0-1.472.31-2.742.928-3.808.619-1.088 1.44-1.92 2.464-2.496a6.981 6.981 0 013.424-.864c1.238 0 2.283.288 3.136.864.854.554 1.504 1.216 1.952 1.984l-.192.512.288-2.816h2.752V33.07h-2.976v-3.456l.32.768c-.085.213-.277.49-.576.832-.277.32-.661.65-1.152.992a6.937 6.937 0 01-1.632.864c-.618.213-1.312.32-2.08.32zm.8-2.464c.747 0 1.419-.139 2.016-.416a3.94 3.94 0 001.472-1.152c.406-.512.683-1.12.832-1.824v-2.592a3.933 3.933 0 00-.896-1.664 4.194 4.194 0 00-1.536-1.12 4.65 4.65 0 00-1.984-.416c-.789 0-1.514.192-2.176.576a4.432 4.432 0 00-1.6 1.6c-.384.682-.576 1.482-.576 2.4 0 .853.203 1.632.608 2.336a4.54 4.54 0 001.632 1.664 4.252 4.252 0 002.208.608zm15.102-11.104l.288 3.84-.16-.512a5.49 5.49 0 011.472-2.048c.662-.576 1.344-1.014 2.048-1.312.726-.32 1.355-.48 1.888-.48l-.16 2.944c-1.002-.064-1.888.128-2.656.576a5.153 5.153 0 00-1.792 1.792 4.765 4.765 0 00-.64 2.4v6.048h-2.944V19.822h2.656zm14.957 13.568c-1.515 0-2.816-.299-3.904-.896-1.088-.619-1.931-1.45-2.528-2.496-.576-1.067-.864-2.283-.864-3.648 0-1.302.331-2.486.992-3.552a7.454 7.454 0 012.656-2.56c1.109-.64 2.347-.96 3.712-.96 1.749 0 3.2.512 4.352 1.536 1.152 1.024 1.931 2.432 2.336 4.224l-10.912 3.84-.704-1.76 8.96-3.264-.64.416a4.323 4.323 0 00-1.28-1.824c-.597-.534-1.376-.8-2.336-.8-.811 0-1.536.202-2.176.608a4.03 4.03 0 00-1.504 1.6c-.363.682-.544 1.461-.544 2.336 0 .917.192 1.728.576 2.432a4.431 4.431 0 001.568 1.632c.683.384 1.451.576 2.304.576a4.44 4.44 0 001.664-.32 6.658 6.658 0 001.536-.832l1.376 2.208a9.097 9.097 0 01-2.24 1.088 7.386 7.386 0 01-2.4.416zm-126.072 32c-1.238 0-2.369-.267-3.392-.8-1.003-.534-1.803-1.312-2.4-2.336-.577-1.046-.864-2.315-.864-3.808 0-1.472.309-2.742.927-3.808.62-1.088 1.44-1.92 2.465-2.496a6.978 6.978 0 013.424-.864c1.237 0 2.282.288 3.136.864.853.554 1.504 1.216 1.951 1.984l-.192.512.288-2.816h2.753V65.07h-2.977v-3.456l.32.768c-.085.213-.277.49-.575.832-.278.32-.662.65-1.152.992a6.95 6.95 0 01-1.633.864c-.618.213-1.312.32-2.08.32zm.8-2.464c.746 0 1.418-.139 2.016-.416a3.946 3.946 0 001.472-1.152c.405-.512.682-1.12.831-1.824v-2.592a3.944 3.944 0 00-.895-1.664 4.206 4.206 0 00-1.536-1.12 4.653 4.653 0 00-1.984-.416 4.26 4.26 0 00-2.177.576 4.424 4.424 0 00-1.6 1.6c-.383.682-.575 1.482-.575 2.4 0 .853.202 1.632.608 2.336a4.529 4.529 0 001.631 1.664 4.25 4.25 0 002.209.608zm22.347-11.104l.255 2.976-.127-.256c.49-1.003 1.184-1.792 2.08-2.368.917-.576 1.962-.864 3.135-.864.747 0 1.409.117 1.984.352a3.444 3.444 0 011.408 1.024c.384.426.63.96.736 1.6l-.16.096c.513-.96 1.216-1.707 2.112-2.24.918-.555 1.878-.832 2.88-.832 1.302 0 2.326.373 3.072 1.12.768.725 1.163 1.674 1.184 2.848v9.792H84.77v-8.736c-.02-.683-.192-1.248-.512-1.696-.298-.47-.832-.726-1.6-.768-.767 0-1.46.234-2.08.704a4.824 4.824 0 00-1.407 1.824 5.84 5.84 0 00-.544 2.368v6.304H75.65v-8.736c-.02-.683-.202-1.248-.543-1.696-.32-.47-.864-.726-1.632-.768-.79 0-1.483.234-2.08.704-.598.47-1.067 1.077-1.409 1.824a6.027 6.027 0 00-.48 2.4v6.272H66.53V51.822h2.656zm22.598 6.496c0-1.323.31-2.518.928-3.584a6.947 6.947 0 012.624-2.528c1.11-.619 2.368-.928 3.776-.928 1.45 0 2.72.31 3.808.928a6.547 6.547 0 012.528 2.528c.597 1.066.896 2.261.896 3.584 0 1.322-.299 2.528-.896 3.616-.598 1.066-1.451 1.91-2.56 2.528-1.088.618-2.358.928-3.808.928-1.408 0-2.667-.288-3.776-.864a6.85 6.85 0 01-2.592-2.464c-.619-1.067-.928-2.315-.928-3.744zm2.976.032c0 .853.192 1.632.576 2.336a4.518 4.518 0 001.536 1.632 4.085 4.085 0 002.176.608c.832 0 1.568-.203 2.208-.608a4.19 4.19 0 001.536-1.632 5.033 5.033 0 00.544-2.336c0-.854-.182-1.622-.544-2.304a4.134 4.134 0 00-1.536-1.664c-.64-.427-1.376-.64-2.208-.64-.81 0-1.547.213-2.208.64a4.712 4.712 0 00-1.536 1.696c-.363.682-.544 1.44-.544 2.272zm18.269-6.528l.256 2.976-.128-.256c.491-1.003 1.184-1.792 2.08-2.368.918-.576 1.963-.864 3.136-.864.747 0 1.408.117 1.984.352a3.44 3.44 0 011.408 1.024c.384.426.63.96.736 1.6l-.16.096c.512-.96 1.216-1.707 2.112-2.24.918-.555 1.878-.832 2.88-.832 1.302 0 2.326.373 3.072 1.12.768.725 1.163 1.674 1.184 2.848v9.792h-2.976v-8.736c-.021-.683-.192-1.248-.512-1.696-.298-.47-.832-.726-1.6-.768-.768 0-1.461.234-2.08.704a4.836 4.836 0 00-1.408 1.824 5.857 5.857 0 00-.544 2.368v6.304h-2.976v-8.736c-.021-.683-.202-1.248-.544-1.696-.32-.47-.864-.726-1.632-.768-.789 0-1.482.234-2.08.704a4.836 4.836 0 00-1.408 1.824 6.027 6.027 0 00-.48 2.4v6.272h-2.976V51.822h2.656zm29.895 13.568c-1.515 0-2.816-.299-3.904-.896-1.088-.619-1.931-1.45-2.528-2.496-.576-1.067-.864-2.283-.864-3.648 0-1.302.33-2.486.992-3.552a7.446 7.446 0 012.656-2.56c1.109-.64 2.346-.96 3.712-.96 1.749 0 3.2.512 4.352 1.536 1.152 1.024 1.93 2.432 2.336 4.224l-10.912 3.84-.704-1.76 8.96-3.264-.64.416a4.323 4.323 0 00-1.28-1.824c-.598-.534-1.376-.8-2.336-.8-.811 0-1.536.202-2.176.608a4.024 4.024 0 00-1.504 1.6c-.363.682-.544 1.461-.544 2.336 0 .917.192 1.728.576 2.432a4.423 4.423 0 001.568 1.632c.682.384 1.45.576 2.304.576a4.45 4.45 0 001.664-.32 6.7 6.7 0 001.536-.832l1.376 2.208a9.115 9.115 0 01-2.24 1.088 7.386 7.386 0 01-2.4.416zm13.137-13.568l.256 3.232-.128-.512c.426-.982 1.12-1.76 2.08-2.336.96-.598 2.069-.896 3.328-.896 1.258 0 2.282.373 3.072 1.12.81.725 1.226 1.674 1.248 2.848v9.792h-3.008v-8.736c-.022-.726-.235-1.312-.64-1.76-.384-.47-.992-.704-1.824-.704-.768 0-1.462.213-2.08.64-.619.426-1.11 1.013-1.472 1.76-.342.746-.512 1.61-.512 2.592v6.208h-2.976V51.822h2.656zm16.311-5.824h2.976v5.888h3.648v2.336h-3.648V65.07h-2.976V54.222h-2.432v-2.336h2.432v-5.888zM42.904 83.822h2.976V97.07h-2.976V83.822zm-.224-4.8c0-.47.182-.864.544-1.184.385-.32.8-.48 1.248-.48.448 0 .843.16 1.184.48.363.32.544.714.544 1.184 0 .49-.18.896-.544 1.216a1.744 1.744 0 01-1.184.448c-.447 0-.864-.16-1.248-.48a1.517 1.517 0 01-.543-1.184zm11.005 4.8l.256 3.232-.128-.512c.427-.982 1.12-1.76 2.08-2.336.96-.598 2.07-.896 3.328-.896 1.26 0 2.283.373 3.073 1.12.81.725 1.226 1.674 1.248 2.848v9.792h-3.009v-8.736c-.02-.726-.234-1.312-.64-1.76-.383-.47-.992-.704-1.824-.704a3.58 3.58 0 00-2.08.64c-.618.426-1.109 1.013-1.471 1.76-.342.746-.513 1.61-.513 2.592v6.208H51.03V83.822h2.656zM84.346 97.39c-1.237 0-2.368-.267-3.392-.8-1.003-.534-1.803-1.312-2.4-2.336-.576-1.046-.864-2.315-.864-3.808 0-1.472.31-2.742.928-3.808.619-1.088 1.44-1.92 2.464-2.496a6.978 6.978 0 013.424-.864c1.237 0 2.283.288 3.136.864.853.554 1.504 1.216 1.952 1.984l-.192.512.288-2.816h2.752V97.07h-2.976v-3.456l.32.768c-.085.213-.277.49-.576.832-.277.32-.661.65-1.152.992-.47.341-1.013.63-1.632.864-.619.213-1.312.32-2.08.32zm.8-2.464c.747 0 1.419-.139 2.016-.416a3.946 3.946 0 001.472-1.152c.405-.512.683-1.12.832-1.824v-2.592a3.944 3.944 0 00-.896-1.664 4.206 4.206 0 00-1.536-1.12 4.653 4.653 0 00-1.984-.416c-.79 0-1.515.192-2.176.576a4.424 4.424 0 00-1.6 1.6c-.384.682-.576 1.482-.576 2.4 0 .853.203 1.632.608 2.336.405.704.95 1.258 1.632 1.664a4.25 4.25 0 002.208.608zm26.283 2.4c-.939 0-1.856-.16-2.752-.48-.875-.342-1.6-.843-2.176-1.504l1.248-1.728c.555.533 1.12.938 1.696 1.216a4.445 4.445 0 001.76.384c.427 0 .821-.054 1.184-.16.363-.107.651-.278.864-.512.235-.256.352-.598.352-1.024 0-.47-.16-.843-.48-1.12-.299-.278-.693-.502-1.184-.672-.469-.17-.971-.33-1.504-.48-1.088-.363-1.92-.864-2.496-1.504-.576-.64-.864-1.419-.864-2.336 0-.704.171-1.355.512-1.952.363-.619.885-1.12 1.568-1.504.704-.384 1.568-.576 2.592-.576.917 0 1.739.117 2.464.352a5.958 5.958 0 012.048 1.088l-1.184 1.856a3.504 3.504 0 00-1.376-.896c-.533-.192-1.013-.299-1.44-.32a2.546 2.546 0 00-1.056.16 2.13 2.13 0 00-.8.544c-.213.234-.32.512-.32.832 0 .448.149.81.448 1.088.299.277.683.501 1.152.672.491.15.971.31 1.44.48a6.973 6.973 0 011.76.768c.512.32.917.714 1.216 1.184.32.47.48 1.056.48 1.76a4.43 4.43 0 01-.576 2.208c-.363.661-.928 1.194-1.696 1.6-.747.384-1.707.576-2.88.576zm11.975-13.504l.256 3.232-.128-.512c.427-.982 1.12-1.76 2.08-2.336.96-.598 2.07-.896 3.328-.896 1.259 0 2.283.373 3.072 1.12.811.725 1.227 1.674 1.248 2.848v9.792h-3.008v-8.736c-.021-.726-.234-1.312-.64-1.76-.384-.47-.992-.704-1.824-.704a3.58 3.58 0 00-2.08.64c-.618.426-1.109 1.013-1.472 1.76-.341.746-.512 1.61-.512 2.592v6.208h-2.976V83.822h2.656zM143.94 97.39c-1.238 0-2.368-.267-3.392-.8-1.003-.534-1.803-1.312-2.4-2.336-.576-1.046-.864-2.315-.864-3.808 0-1.472.309-2.742.928-3.808.618-1.088 1.44-1.92 2.464-2.496a6.976 6.976 0 013.424-.864c1.237 0 2.282.288 3.136.864.853.554 1.504 1.216 1.952 1.984l-.192.512.288-2.816h2.752V97.07h-2.976v-3.456l.32.768c-.086.213-.278.49-.576.832-.278.32-.662.65-1.152.992-.47.341-1.014.63-1.632.864-.619.213-1.312.32-2.08.32zm.8-2.464c.746 0 1.418-.139 2.016-.416a3.948 3.948 0 001.472-1.152c.405-.512.682-1.12.832-1.824v-2.592a3.955 3.955 0 00-.896-1.664 4.21 4.21 0 00-1.536-1.12 4.656 4.656 0 00-1.984-.416c-.79 0-1.515.192-2.176.576a4.417 4.417 0 00-1.6 1.6c-.384.682-.576 1.482-.576 2.4 0 .853.202 1.632.608 2.336a4.52 4.52 0 001.632 1.664 4.247 4.247 0 002.208.608zm20.254 2.464a6.434 6.434 0 01-2.912-.704c-.918-.47-1.632-1.099-2.144-1.888l.192-.928v9.568h-2.944V83.63h2.56l.416 3.392-.32-.928c.64-.81 1.45-1.483 2.432-2.016.981-.534 2.08-.8 3.296-.8 1.237 0 2.346.298 3.328.896 1.002.597 1.792 1.43 2.368 2.496.576 1.066.864 2.314.864 3.744 0 1.43-.31 2.666-.928 3.712a6.39 6.39 0 01-2.56 2.432c-1.067.554-2.283.832-3.648.832zm-.576-2.368c.853 0 1.632-.192 2.336-.576a4.712 4.712 0 001.728-1.632c.426-.704.64-1.494.64-2.368 0-.896-.203-1.686-.608-2.368a4.534 4.534 0 00-1.632-1.664c-.662-.406-1.408-.608-2.24-.608-.768 0-1.462.15-2.08.448a4.176 4.176 0 00-1.536 1.248 4.653 4.653 0 00-.864 1.792v2.208c.106.682.362 1.29.768 1.824.405.533.906.95 1.504 1.248.618.298 1.28.448 1.984.448zm10.969-22.24h2.688v18.304h-2.688V72.782zm1.44 24.16c-.555 0-1.014-.16-1.376-.48a1.55 1.55 0 01-.544-1.216c0-.49.181-.896.544-1.216.362-.342.821-.512 1.376-.512.533 0 .97.17 1.312.512.362.32.544.725.544 1.216 0 .49-.182.896-.544 1.216-.342.32-.779.48-1.312.48z"/></mask><path d="M112.14 14.062a16.892 16.892 0 00-2.592-1.056 9.05 9.05 0 00-2.752-.448c-1.238 0-2.23.288-2.976.864-.726.576-1.088 1.344-1.088 2.304 0 .725.234 1.344.704 1.856.469.49 1.088.917 1.856 1.28.768.362 1.568.704 2.4 1.024.725.277 1.44.586 2.144.928a7.753 7.753 0 011.888 1.28 5.258 5.258 0 011.344 1.888c.341.746.512 1.674.512 2.784a6.22 6.22 0 01-.928 3.328c-.598 1.002-1.462 1.792-2.592 2.368-1.131.576-2.475.864-4.032.864-1.024 0-2.006-.118-2.944-.352a15.036 15.036 0 01-2.56-.896 19.108 19.108 0 01-2.112-1.184l1.376-2.432c.512.362 1.098.714 1.76 1.056a13.5 13.5 0 002.08.8 8.236 8.236 0 002.112.288c.725 0 1.44-.128 2.144-.384a4.328 4.328 0 001.792-1.248c.469-.555.704-1.29.704-2.208 0-.79-.214-1.44-.64-1.952-.406-.534-.95-.982-1.632-1.344a17.01 17.01 0 00-2.176-1.024 59.232 59.232 0 01-2.208-.896 11.799 11.799 0 01-2.08-1.216 5.636 5.636 0 01-1.536-1.792c-.384-.704-.576-1.558-.576-2.56 0-1.216.288-2.272.864-3.168.597-.918 1.408-1.632 2.432-2.144 1.024-.534 2.197-.822 3.52-.864 1.493 0 2.805.181 3.936.544 1.152.362 2.165.81 3.04 1.344l-1.184 2.368zm5.921 19.008V8.302h2.912v14.592l-.064-.544c.448-.875 1.13-1.6 2.048-2.176.938-.576 2.037-.864 3.296-.864 1.258 0 2.282.373 3.072 1.12.81.725 1.226 1.674 1.248 2.848v9.792h-3.008v-8.736c-.022-.726-.235-1.312-.64-1.76-.384-.47-.992-.704-1.824-.704a3.46 3.46 0 00-2.08.672c-.619.426-1.11 1.013-1.472 1.76-.342.746-.512 1.6-.512 2.56v6.208h-2.976zm23.191.32c-1.237 0-2.368-.267-3.392-.8-1.002-.534-1.802-1.312-2.4-2.336-.576-1.046-.864-2.315-.864-3.808 0-1.472.31-2.742.928-3.808.619-1.088 1.44-1.92 2.464-2.496a6.981 6.981 0 013.424-.864c1.238 0 2.283.288 3.136.864.854.554 1.504 1.216 1.952 1.984l-.192.512.288-2.816h2.752V33.07h-2.976v-3.456l.32.768c-.085.213-.277.49-.576.832-.277.32-.661.65-1.152.992a6.937 6.937 0 01-1.632.864c-.618.213-1.312.32-2.08.32zm.8-2.464c.747 0 1.419-.139 2.016-.416a3.94 3.94 0 001.472-1.152c.406-.512.683-1.12.832-1.824v-2.592a3.933 3.933 0 00-.896-1.664 4.194 4.194 0 00-1.536-1.12 4.65 4.65 0 00-1.984-.416c-.789 0-1.514.192-2.176.576a4.432 4.432 0 00-1.6 1.6c-.384.682-.576 1.482-.576 2.4 0 .853.203 1.632.608 2.336a4.54 4.54 0 001.632 1.664 4.252 4.252 0 002.208.608zm15.102-11.104l.288 3.84-.16-.512a5.49 5.49 0 011.472-2.048c.662-.576 1.344-1.014 2.048-1.312.726-.32 1.355-.48 1.888-.48l-.16 2.944c-1.002-.064-1.888.128-2.656.576a5.153 5.153 0 00-1.792 1.792 4.765 4.765 0 00-.64 2.4v6.048h-2.944V19.822h2.656zm14.957 13.568c-1.515 0-2.816-.299-3.904-.896-1.088-.619-1.931-1.45-2.528-2.496-.576-1.067-.864-2.283-.864-3.648 0-1.302.331-2.486.992-3.552a7.454 7.454 0 012.656-2.56c1.109-.64 2.347-.96 3.712-.96 1.749 0 3.2.512 4.352 1.536 1.152 1.024 1.931 2.432 2.336 4.224l-10.912 3.84-.704-1.76 8.96-3.264-.64.416a4.323 4.323 0 00-1.28-1.824c-.597-.534-1.376-.8-2.336-.8-.811 0-1.536.202-2.176.608a4.03 4.03 0 00-1.504 1.6c-.363.682-.544 1.461-.544 2.336 0 .917.192 1.728.576 2.432a4.431 4.431 0 001.568 1.632c.683.384 1.451.576 2.304.576a4.44 4.44 0 001.664-.32 6.658 6.658 0 001.536-.832l1.376 2.208a9.097 9.097 0 01-2.24 1.088 7.386 7.386 0 01-2.4.416zm-126.072 32c-1.238 0-2.369-.267-3.392-.8-1.003-.534-1.803-1.312-2.4-2.336-.577-1.046-.864-2.315-.864-3.808 0-1.472.309-2.742.927-3.808.62-1.088 1.44-1.92 2.465-2.496a6.978 6.978 0 013.424-.864c1.237 0 2.282.288 3.136.864.853.554 1.504 1.216 1.951 1.984l-.192.512.288-2.816h2.753V65.07h-2.977v-3.456l.32.768c-.085.213-.277.49-.575.832-.278.32-.662.65-1.152.992a6.95 6.95 0 01-1.633.864c-.618.213-1.312.32-2.08.32zm.8-2.464c.746 0 1.418-.139 2.016-.416a3.946 3.946 0 001.472-1.152c.405-.512.682-1.12.831-1.824v-2.592a3.944 3.944 0 00-.895-1.664 4.206 4.206 0 00-1.536-1.12 4.653 4.653 0 00-1.984-.416 4.26 4.26 0 00-2.177.576 4.424 4.424 0 00-1.6 1.6c-.383.682-.575 1.482-.575 2.4 0 .853.202 1.632.608 2.336a4.529 4.529 0 001.631 1.664 4.25 4.25 0 002.209.608zm22.347-11.104l.255 2.976-.127-.256c.49-1.003 1.184-1.792 2.08-2.368.917-.576 1.962-.864 3.135-.864.747 0 1.409.117 1.984.352a3.444 3.444 0 011.408 1.024c.384.426.63.96.736 1.6l-.16.096c.513-.96 1.216-1.707 2.112-2.24.918-.555 1.878-.832 2.88-.832 1.302 0 2.326.373 3.072 1.12.768.725 1.163 1.674 1.184 2.848v9.792H84.77v-8.736c-.02-.683-.192-1.248-.512-1.696-.298-.47-.832-.726-1.6-.768-.767 0-1.46.234-2.08.704a4.824 4.824 0 00-1.407 1.824 5.84 5.84 0 00-.544 2.368v6.304H75.65v-8.736c-.02-.683-.202-1.248-.543-1.696-.32-.47-.864-.726-1.632-.768-.79 0-1.483.234-2.08.704-.598.47-1.067 1.077-1.409 1.824a6.027 6.027 0 00-.48 2.4v6.272H66.53V51.822h2.656zm22.598 6.496c0-1.323.31-2.518.928-3.584a6.947 6.947 0 012.624-2.528c1.11-.619 2.368-.928 3.776-.928 1.45 0 2.72.31 3.808.928a6.547 6.547 0 012.528 2.528c.597 1.066.896 2.261.896 3.584 0 1.322-.299 2.528-.896 3.616-.598 1.066-1.451 1.91-2.56 2.528-1.088.618-2.358.928-3.808.928-1.408 0-2.667-.288-3.776-.864a6.85 6.85 0 01-2.592-2.464c-.619-1.067-.928-2.315-.928-3.744zm2.976.032c0 .853.192 1.632.576 2.336a4.518 4.518 0 001.536 1.632 4.085 4.085 0 002.176.608c.832 0 1.568-.203 2.208-.608a4.19 4.19 0 001.536-1.632 5.033 5.033 0 00.544-2.336c0-.854-.182-1.622-.544-2.304a4.134 4.134 0 00-1.536-1.664c-.64-.427-1.376-.64-2.208-.64-.81 0-1.547.213-2.208.64a4.712 4.712 0 00-1.536 1.696c-.363.682-.544 1.44-.544 2.272zm18.269-6.528l.256 2.976-.128-.256c.491-1.003 1.184-1.792 2.08-2.368.918-.576 1.963-.864 3.136-.864.747 0 1.408.117 1.984.352a3.44 3.44 0 011.408 1.024c.384.426.63.96.736 1.6l-.16.096c.512-.96 1.216-1.707 2.112-2.24.918-.555 1.878-.832 2.88-.832 1.302 0 2.326.373 3.072 1.12.768.725 1.163 1.674 1.184 2.848v9.792h-2.976v-8.736c-.021-.683-.192-1.248-.512-1.696-.298-.47-.832-.726-1.6-.768-.768 0-1.461.234-2.08.704a4.836 4.836 0 00-1.408 1.824 5.857 5.857 0 00-.544 2.368v6.304h-2.976v-8.736c-.021-.683-.202-1.248-.544-1.696-.32-.47-.864-.726-1.632-.768-.789 0-1.482.234-2.08.704a4.836 4.836 0 00-1.408 1.824 6.027 6.027 0 00-.48 2.4v6.272h-2.976V51.822h2.656zm29.895 13.568c-1.515 0-2.816-.299-3.904-.896-1.088-.619-1.931-1.45-2.528-2.496-.576-1.067-.864-2.283-.864-3.648 0-1.302.33-2.486.992-3.552a7.446 7.446 0 012.656-2.56c1.109-.64 2.346-.96 3.712-.96 1.749 0 3.2.512 4.352 1.536 1.152 1.024 1.93 2.432 2.336 4.224l-10.912 3.84-.704-1.76 8.96-3.264-.64.416a4.323 4.323 0 00-1.28-1.824c-.598-.534-1.376-.8-2.336-.8-.811 0-1.536.202-2.176.608a4.024 4.024 0 00-1.504 1.6c-.363.682-.544 1.461-.544 2.336 0 .917.192 1.728.576 2.432a4.423 4.423 0 001.568 1.632c.682.384 1.45.576 2.304.576a4.45 4.45 0 001.664-.32 6.7 6.7 0 001.536-.832l1.376 2.208a9.115 9.115 0 01-2.24 1.088 7.386 7.386 0 01-2.4.416zm13.137-13.568l.256 3.232-.128-.512c.426-.982 1.12-1.76 2.08-2.336.96-.598 2.069-.896 3.328-.896 1.258 0 2.282.373 3.072 1.12.81.725 1.226 1.674 1.248 2.848v9.792h-3.008v-8.736c-.022-.726-.235-1.312-.64-1.76-.384-.47-.992-.704-1.824-.704-.768 0-1.462.213-2.08.64-.619.426-1.11 1.013-1.472 1.76-.342.746-.512 1.61-.512 2.592v6.208h-2.976V51.822h2.656zm16.311-5.824h2.976v5.888h3.648v2.336h-3.648V65.07h-2.976V54.222h-2.432v-2.336h2.432v-5.888zM42.904 83.822h2.976V97.07h-2.976V83.822zm-.224-4.8c0-.47.182-.864.544-1.184.385-.32.8-.48 1.248-.48.448 0 .843.16 1.184.48.363.32.544.714.544 1.184 0 .49-.18.896-.544 1.216a1.744 1.744 0 01-1.184.448c-.447 0-.864-.16-1.248-.48a1.517 1.517 0 01-.543-1.184zm11.005 4.8l.256 3.232-.128-.512c.427-.982 1.12-1.76 2.08-2.336.96-.598 2.07-.896 3.328-.896 1.26 0 2.283.373 3.073 1.12.81.725 1.226 1.674 1.248 2.848v9.792h-3.009v-8.736c-.02-.726-.234-1.312-.64-1.76-.383-.47-.992-.704-1.824-.704a3.58 3.58 0 00-2.08.64c-.618.426-1.109 1.013-1.471 1.76-.342.746-.513 1.61-.513 2.592v6.208H51.03V83.822h2.656zM84.346 97.39c-1.237 0-2.368-.267-3.392-.8-1.003-.534-1.803-1.312-2.4-2.336-.576-1.046-.864-2.315-.864-3.808 0-1.472.31-2.742.928-3.808.619-1.088 1.44-1.92 2.464-2.496a6.978 6.978 0 013.424-.864c1.237 0 2.283.288 3.136.864.853.554 1.504 1.216 1.952 1.984l-.192.512.288-2.816h2.752V97.07h-2.976v-3.456l.32.768c-.085.213-.277.49-.576.832-.277.32-.661.65-1.152.992-.47.341-1.013.63-1.632.864-.619.213-1.312.32-2.08.32zm.8-2.464c.747 0 1.419-.139 2.016-.416a3.946 3.946 0 001.472-1.152c.405-.512.683-1.12.832-1.824v-2.592a3.944 3.944 0 00-.896-1.664 4.206 4.206 0 00-1.536-1.12 4.653 4.653 0 00-1.984-.416c-.79 0-1.515.192-2.176.576a4.424 4.424 0 00-1.6 1.6c-.384.682-.576 1.482-.576 2.4 0 .853.203 1.632.608 2.336.405.704.95 1.258 1.632 1.664a4.25 4.25 0 002.208.608zm26.283 2.4c-.939 0-1.856-.16-2.752-.48-.875-.342-1.6-.843-2.176-1.504l1.248-1.728c.555.533 1.12.938 1.696 1.216a4.445 4.445 0 001.76.384c.427 0 .821-.054 1.184-.16.363-.107.651-.278.864-.512.235-.256.352-.598.352-1.024 0-.47-.16-.843-.48-1.12-.299-.278-.693-.502-1.184-.672-.469-.17-.971-.33-1.504-.48-1.088-.363-1.92-.864-2.496-1.504-.576-.64-.864-1.419-.864-2.336 0-.704.171-1.355.512-1.952.363-.619.885-1.12 1.568-1.504.704-.384 1.568-.576 2.592-.576.917 0 1.739.117 2.464.352a5.958 5.958 0 012.048 1.088l-1.184 1.856a3.504 3.504 0 00-1.376-.896c-.533-.192-1.013-.299-1.44-.32a2.546 2.546 0 00-1.056.16 2.13 2.13 0 00-.8.544c-.213.234-.32.512-.32.832 0 .448.149.81.448 1.088.299.277.683.501 1.152.672.491.15.971.31 1.44.48a6.973 6.973 0 011.76.768c.512.32.917.714 1.216 1.184.32.47.48 1.056.48 1.76a4.43 4.43 0 01-.576 2.208c-.363.661-.928 1.194-1.696 1.6-.747.384-1.707.576-2.88.576zm11.975-13.504l.256 3.232-.128-.512c.427-.982 1.12-1.76 2.08-2.336.96-.598 2.07-.896 3.328-.896 1.259 0 2.283.373 3.072 1.12.811.725 1.227 1.674 1.248 2.848v9.792h-3.008v-8.736c-.021-.726-.234-1.312-.64-1.76-.384-.47-.992-.704-1.824-.704a3.58 3.58 0 00-2.08.64c-.618.426-1.109 1.013-1.472 1.76-.341.746-.512 1.61-.512 2.592v6.208h-2.976V83.822h2.656zM143.94 97.39c-1.238 0-2.368-.267-3.392-.8-1.003-.534-1.803-1.312-2.4-2.336-.576-1.046-.864-2.315-.864-3.808 0-1.472.309-2.742.928-3.808.618-1.088 1.44-1.92 2.464-2.496a6.976 6.976 0 013.424-.864c1.237 0 2.282.288 3.136.864.853.554 1.504 1.216 1.952 1.984l-.192.512.288-2.816h2.752V97.07h-2.976v-3.456l.32.768c-.086.213-.278.49-.576.832-.278.32-.662.65-1.152.992-.47.341-1.014.63-1.632.864-.619.213-1.312.32-2.08.32zm.8-2.464c.746 0 1.418-.139 2.016-.416a3.948 3.948 0 001.472-1.152c.405-.512.682-1.12.832-1.824v-2.592a3.955 3.955 0 00-.896-1.664 4.21 4.21 0 00-1.536-1.12 4.656 4.656 0 00-1.984-.416c-.79 0-1.515.192-2.176.576a4.417 4.417 0 00-1.6 1.6c-.384.682-.576 1.482-.576 2.4 0 .853.202 1.632.608 2.336a4.52 4.52 0 001.632 1.664 4.247 4.247 0 002.208.608zm20.254 2.464a6.434 6.434 0 01-2.912-.704c-.918-.47-1.632-1.099-2.144-1.888l.192-.928v9.568h-2.944V83.63h2.56l.416 3.392-.32-.928c.64-.81 1.45-1.483 2.432-2.016.981-.534 2.08-.8 3.296-.8 1.237 0 2.346.298 3.328.896 1.002.597 1.792 1.43 2.368 2.496.576 1.066.864 2.314.864 3.744 0 1.43-.31 2.666-.928 3.712a6.39 6.39 0 01-2.56 2.432c-1.067.554-2.283.832-3.648.832zm-.576-2.368c.853 0 1.632-.192 2.336-.576a4.712 4.712 0 001.728-1.632c.426-.704.64-1.494.64-2.368 0-.896-.203-1.686-.608-2.368a4.534 4.534 0 00-1.632-1.664c-.662-.406-1.408-.608-2.24-.608-.768 0-1.462.15-2.08.448a4.176 4.176 0 00-1.536 1.248 4.653 4.653 0 00-.864 1.792v2.208c.106.682.362 1.29.768 1.824.405.533.906.95 1.504 1.248.618.298 1.28.448 1.984.448zm10.969-22.24h2.688v18.304h-2.688V72.782zm1.44 24.16c-.555 0-1.014-.16-1.376-.48a1.55 1.55 0 01-.544-1.216c0-.49.181-.896.544-1.216.362-.342.821-.512 1.376-.512.533 0 .97.17 1.312.512.362.32.544.725.544 1.216 0 .49-.182.896-.544 1.216-.342.32-.779.48-1.312.48z" fill="#CE2073"/><path d="M112.14 14.062l-.457.89a1 1 0 001.351-.443l-.894-.447zm-8.32-.64l-.611-.792-.011.009.622.783zm-.384 4.16l-.737.675a.18.18 0 00.014.016l.723-.691zm1.856 1.28l.427-.904-.427.904zm2.4 1.024l-.359.933h.002l.357-.933zm4.032 2.208l-.679.735.014.012.665-.747zm1.344 1.888l-.919.394.009.021.91-.415zm-.416 6.112l-.851-.525a.089.089 0 00-.008.013l.859.512zm-2.592 2.368l.454.89-.454-.89zm-6.976.512l-.248.969h.005l.243-.97zm-2.56-.896l-.438.899.02.01.418-.91zm-2.112-1.184l-.87-.493a1 1 0 00.322 1.33l.548-.837zm1.376-2.432l.578-.816a1.001 1.001 0 00-1.449.323l.87.493zm1.76 1.056l-.459.888.023.012.436-.9zm2.08.8l-.282.96a.522.522 0 00.026.007l.256-.967zm4.256-.096l.341.94a.222.222 0 00.016-.006l-.357-.934zm1.792-1.248l.763.646-.763-.646zm.064-4.16l-.796.605a.582.582 0 00.028.035l.768-.64zm-1.632-1.344l-.491.871.022.012.469-.883zm-2.176-1.024l.362-.932-.005-.002-.357.934zm-2.208-.896l-.416.91.022.009.394-.92zm-2.08-1.216l-.609.793a.29.29 0 01.017.013l.592-.806zm-1.248-7.52l-.838-.546-.003.005.841.54zm2.432-2.144l.447.894.015-.007-.462-.887zm3.52-.864v-1h-.032l.032 1zm3.936.544l-.306.952.005.002.301-.954zm3.04 1.344l.894.447a1 1 0 00-.374-1.301l-.52.854zm-.727 1.478a17.857 17.857 0 00-2.746-1.12l-.606 1.907c.891.283 1.703.615 2.438.992l.914-1.779zm-2.746-1.12a10.051 10.051 0 00-3.055-.494v2c.783 0 1.598.13 2.449.4l.606-1.905zm-3.055-.494c-1.389 0-2.618.324-3.587 1.072l1.222 1.583c.523-.404 1.279-.655 2.365-.655v-2zm-3.598 1.08c-.974.774-1.466 1.836-1.466 3.088h2c0-.668.233-1.143.71-1.521l-1.244-1.566zm-1.466 3.088c0 .963.32 1.826.967 2.531l1.474-1.351c-.292-.319-.441-.693-.441-1.18h-2zm.981 2.547c.572.598 1.3 1.09 2.152 1.493l.854-1.808c-.684-.323-1.194-.684-1.561-1.067l-1.445 1.382zm2.152 1.493a35.81 35.81 0 002.468 1.053l.718-1.867a34.184 34.184 0 01-2.332-.995l-.854 1.809zm2.47 1.054a26.02 26.02 0 012.064.894l.873-1.8a28.232 28.232 0 00-2.223-.962l-.714 1.868zm2.064.894a6.73 6.73 0 011.646 1.115l1.357-1.47a8.741 8.741 0 00-2.13-1.445l-.873 1.8zm1.66 1.127a4.26 4.26 0 011.09 1.535l1.838-.788a6.259 6.259 0 00-1.599-2.242l-1.329 1.495zm1.099 1.556c.265.58.422 1.355.422 2.369h2c0-1.205-.185-2.285-.603-3.2l-1.819.832zm.422 2.369a5.214 5.214 0 01-.779 2.803l1.702 1.05a7.215 7.215 0 001.077-3.853h-2zm-.787 2.816c-.493.826-1.209 1.49-2.187 1.989l.908 1.782c1.283-.654 2.295-1.569 2.997-2.747l-1.718-1.024zm-2.187 1.989c-.962.49-2.143.755-3.578.755v2c1.68 0 3.186-.311 4.486-.973l-.908-1.782zm-3.578.755c-.947 0-1.847-.109-2.702-.322l-.485 1.94c1.023.255 2.086.382 3.187.382v-2zm-2.696-.321c-.865-.221-1.661-.5-2.391-.836l-.835 1.817c.849.39 1.759.708 2.73.957l.496-1.938zm-2.371-.827a18.112 18.112 0 01-2.001-1.12l-1.096 1.672c.66.433 1.402.848 2.222 1.247l.875-1.798zm-1.679.208l1.376-2.432-1.74-.985-1.377 2.432 1.741.985zm-.072-2.108c.556.394 1.184.77 1.879 1.128l.917-1.777a13.705 13.705 0 01-1.64-.983l-1.156 1.632zm1.902 1.14c.712.345 1.457.63 2.234.86l.564-1.92a12.566 12.566 0 01-1.927-.74l-.871 1.8zm2.26.867a9.243 9.243 0 002.368.32v-2a7.245 7.245 0 01-1.856-.254l-.512 1.934zm2.368.32c.845 0 1.676-.149 2.485-.443l-.683-1.88a5.229 5.229 0 01-1.802.324v2zm2.501-.45a5.318 5.318 0 002.198-1.535l-1.527-1.292a3.32 3.32 0 01-1.385.96l.714 1.868zm2.198-1.535c.659-.779.941-1.764.941-2.854h-2c0 .744-.188 1.231-.468 1.562l1.527 1.292zm.941-2.854c0-.978-.269-1.869-.872-2.592l-1.536 1.28c.25.3.408.711.408 1.312h2zm-.844-2.557c-.506-.665-1.168-1.202-1.959-1.622l-.938 1.766c.574.305.999.664 1.305 1.066l1.592-1.21zm-1.938-1.61a17.977 17.977 0 00-2.304-1.085l-.725 1.864c.727.282 1.409.604 2.048.963l.981-1.743zm-2.309-1.087a58.648 58.648 0 01-2.171-.881l-.788 1.838c.758.325 1.506.628 2.245.91l.714-1.867zm-2.149-.872a10.798 10.798 0 01-1.905-1.113l-1.183 1.613c.697.511 1.45.95 2.256 1.32l.832-1.82zm-1.888-1.1a4.624 4.624 0 01-1.266-1.477l-1.756.958a6.636 6.636 0 001.805 2.106l1.217-1.587zm-1.266-1.477c-.287-.525-.454-1.205-.454-2.081h-2c0 1.129.216 2.155.698 3.039l1.756-.958zm-.454-2.081c0-1.052.247-1.915.705-2.627l-1.682-1.082c-.694 1.08-1.023 2.329-1.023 3.709h2zm.702-2.623c.496-.761 1.168-1.358 2.041-1.795l-.894-1.789c-1.176.588-2.124 1.42-2.823 2.493l1.676 1.091zm2.056-1.802c.873-.455 1.895-.713 3.09-.752l-.064-1.999c-1.451.047-2.775.365-3.95.977l.924 1.774zm3.058-.751c1.415 0 2.62.172 3.63.496l.611-1.904c-1.251-.402-2.67-.592-4.241-.592v2zm3.635.498c1.089.342 2.026.76 2.82 1.244l1.041-1.708c-.954-.582-2.044-1.061-3.26-1.444l-.601 1.908zm2.446-.058l-1.184 2.368 1.789.895 1.184-2.368-1.789-.895zm5.632 21.824h-1a1 1 0 001 1v-1zm0-24.768v-1a1 1 0 00-1 1h1zm2.912 0h1a1 1 0 00-1-1v1zm0 14.592l-.993.117a1 1 0 001.993-.117h-1zm-.064-.544l-.89-.456a.988.988 0 00-.103.573l.993-.117zm2.048-2.176l-.523-.853-.009.006.532.847zm6.368.256l-.687.726.02.019.667-.745zm1.248 2.848h1v-.018l-1 .018zm0 9.792v1a1 1 0 001-1h-1zm-3.008 0h-1a1 1 0 001 1v-1zm0-8.736h1l-.001-.03-.999.03zm-.64-1.76l-.774.633a.75.75 0 00.032.038l.742-.671zm-3.904-.032l.567.823a.274.274 0 00.019-.013l-.586-.81zm-1.472 1.76l-.9-.437-.01.021.91.416zm-.512 8.768v1a1 1 0 001-1h-1zm-1.976 0V8.302h-2V33.07h2zm-1-23.768h2.912v-2h-2.912v2zm1.912-1v14.592h2V8.302h-2zm1.993 14.475l-.064-.544-1.986.234.064.544 1.986-.234zm-.167.029c.358-.699.909-1.295 1.69-1.785l-1.064-1.694c-1.054.661-1.868 1.516-2.406 2.567l1.78.912zm1.681-1.78c.76-.466 1.672-.716 2.773-.716v-2c-1.417 0-2.702.326-3.819 1.011l1.046 1.705zm2.773-.716c1.046 0 1.81.303 2.385.846l1.374-1.453c-1.004-.95-2.288-1.393-3.759-1.393v2zm2.405.865c.586.524.898 1.201.915 2.12l2-.035c-.026-1.427-.546-2.649-1.581-3.576l-1.334 1.491zm.915 2.103v9.792h2v-9.792h-2zm1 8.792h-3.008v2h3.008v-2zm-2.008 1v-8.736h-2v8.736h2zm-.001-8.766c-.027-.913-.302-1.743-.898-2.401l-1.483 1.342c.215.238.366.58.382 1.118l1.999-.059zm-.865-2.363c-.638-.78-1.584-1.071-2.598-1.071v2c.65 0 .92.178 1.05.337l1.548-1.267zm-2.598-1.071c-.978 0-1.876.29-2.667.862l1.173 1.62a2.463 2.463 0 011.494-.482v-2zm-2.648.848c-.775.535-1.374 1.262-1.804 2.147l1.799.874c.296-.608.678-1.055 1.14-1.374l-1.135-1.646zm-1.814 2.168c-.41.897-.602 1.896-.602 2.976h2c0-.84.149-1.549.421-2.144l-1.819-.832zm-.602 2.976v6.208h2v-6.208h-2zm1 5.208h-2.976v2h2.976v-2zm16.823.52l-.469.883.007.004.462-.887zm-2.4-2.336l-.876.482.012.022.864-.504zm.064-7.616l.865.502.005-.008-.87-.494zm2.464-2.496l-.482-.876-.008.004.49.872zm6.56 0l-.559.829.014.01.545-.84zm1.952 1.984l.937.35a1.004 1.004 0 00-.073-.854l-.864.504zm-.192.512l-.995-.102a1 1 0 001.932.453l-.937-.351zm.288-2.816v-1a1 1 0 00-.995.898l.995.102zm2.752 0h1a1 1 0 00-1-1v1zm0 13.248v1a1 1 0 001-1h-1zm-2.976 0h-1a1 1 0 001 1v-1zm0-3.456l.923-.385a1 1 0 00-1.923.385h1zm.32.768l.929.371a1 1 0 00-.006-.756l-.923.385zm-.576.832l-.752-.659-.003.004.755.655zm-1.152.992l-.571-.821-.017.012.588.809zm-1.632.864l.326.945.029-.01-.355-.935zm.736-2.56l-.421-.907.421.907zm1.472-1.152l-.784-.62-.003.003.787.617zm.832-1.824l.978.207a.966.966 0 00.022-.207h-1zm0-2.592h1a.976.976 0 00-.034-.258l-.966.258zm-.896-1.664l-.754.656a.175.175 0 00.014.016l.74-.672zm-1.536-1.12l-.421.907.027.012.394-.92zm-4.16.16l-.502-.865.502.865zm-1.6 1.6l-.86-.51a.192.192 0 00-.011.02l.871.49zm.032 4.736l.867-.5-.867.5zm3.04 3.736c-1.088 0-2.059-.233-2.93-.687l-.924 1.774c1.177.613 2.468.913 3.854.913v-2zm-2.922-.683c-.831-.442-1.498-1.086-2.006-1.957l-1.728 1.008c.687 1.177 1.621 2.09 2.795 2.715l.939-1.766zm-1.994-1.936c-.476-.865-.74-1.959-.74-3.325h-2c0 1.62.313 3.064.988 4.29l1.752-.965zm-.74-3.325c0-1.33.279-2.42.793-3.306l-1.73-1.004c-.723 1.246-1.063 2.696-1.063 4.31h2zm.798-3.314c.535-.94 1.229-1.638 2.085-2.119l-.981-1.743c-1.193.671-2.141 1.638-2.843 2.873l1.739.99zm2.077-2.114a5.977 5.977 0 012.941-.74v-2a7.975 7.975 0 00-3.906.988l.965 1.752zm2.941-.74c1.079 0 1.92.249 2.577.693l1.119-1.658c-1.05-.708-2.3-1.035-3.696-1.035v2zm2.591.702c.742.482 1.275 1.035 1.633 1.65l1.728-1.008c-.537-.921-1.306-1.691-2.271-2.319l-1.09 1.677zm1.561.795l-.192.512 1.873.702.192-.512-1.873-.702zm1.739.965l.288-2.816-1.99-.204-.288 2.816 1.99.203zm-.707-1.918h2.752v-2h-2.752v2zm1.752-1V33.07h2V19.822h-2zm1 12.248h-2.976v2h2.976v-2zm-1.976 1v-3.456h-2v3.456h2zm-1.923-3.072l.32.768 1.846-.769-.32-.768-1.846.77zm.315.012c-.02.05-.118.223-.4.545l1.505 1.317c.315-.36.601-.742.752-1.119l-1.857-.743zm-.403.549c-.206.237-.52.514-.968.826l1.142 1.642c.534-.371.988-.756 1.337-1.158l-1.511-1.31zm-.985.838c-.388.282-.851.53-1.398.738l.709 1.87a7.942 7.942 0 001.865-.99l-1.176-1.618zm-1.37.727c-.497.172-1.078.266-1.754.266v2c.86 0 1.666-.12 2.406-.375l-.652-1.89zm-.954-.198c.873 0 1.691-.163 2.437-.51l-.842-1.813c-.449.208-.974.323-1.595.323v2zm2.437-.51a4.94 4.94 0 001.839-1.442l-1.575-1.233a2.95 2.95 0 01-1.106.862l.842 1.814zm1.835-1.438c.511-.644.848-1.398 1.026-2.237l-1.956-.415c-.121.569-.338 1.032-.638 1.411l1.568 1.242zm1.048-2.444v-2.592h-2v2.592h2zm-.034-2.85a4.932 4.932 0 00-1.122-2.079l-1.48 1.345c.315.346.539.757.67 1.25l1.932-.516zm-1.107-2.062a5.21 5.21 0 00-1.897-1.383l-.788 1.838a3.2 3.2 0 011.176.857l1.509-1.312zm-1.87-1.371a5.65 5.65 0 00-2.405-.51v2c.595 0 1.111.114 1.563.324l.842-1.814zm-2.405-.51a5.25 5.25 0 00-2.678.712l1.004 1.73a3.257 3.257 0 011.674-.441v-2zm-2.678.712a5.43 5.43 0 00-1.958 1.954l1.72 1.021c.322-.541.734-.95 1.242-1.245l-1.004-1.73zm-1.969 1.974c-.482.857-.705 1.831-.705 2.89h2c0-.774.161-1.4.448-1.909l-1.743-.98zm-.705 2.89c0 1.02.244 1.972.742 2.836l1.733-.998a3.594 3.594 0 01-.475-1.837h-2zm.742 2.836a5.522 5.522 0 001.988 2.025l1.021-1.72a3.522 3.522 0 01-1.276-1.303l-1.733.998zm1.988 2.025a5.248 5.248 0 002.718.748v-2a3.25 3.25 0 01-1.697-.468l-1.021 1.72zm17.82-11.356l.997-.075a1 1 0 00-.997-.925v1zm.288 3.84l-.954.298a1 1 0 001.951-.373l-.997.075zm-.16-.512l-.921-.388a.995.995 0 00-.033.686l.954-.298zm1.472-2.048l.655.756.002-.002-.657-.754zm2.048-1.312l.391.92.013-.005-.404-.915zm1.888-.48l.999.054a1 1 0 00-.999-1.054v1zm-.16 2.944l-.063.998a.997.997 0 001.062-.944l-.999-.054zm-2.656.576l-.504-.864-.01.006.514.858zm-1.792 1.792l-.857-.515-.011.019.868.496zm-.64 8.448v1a1 1 0 001-1h-1zm-2.944 0h-1a1 1 0 001 1v-1zm0-13.248v-1a1 1 0 00-1 1h1zm1.659.075l.288 3.84 1.994-.15-.288-3.84-1.994.15zm2.24 3.466l-.16-.511-1.909.596.16.512 1.909-.597zm-.193.175a4.486 4.486 0 011.205-1.68l-1.31-1.512a6.48 6.48 0 00-1.738 2.416l1.843.776zm1.207-1.682c.593-.517 1.188-.894 1.782-1.146l-.781-1.84c-.814.345-1.585.842-2.315 1.478l1.314 1.508zm1.795-1.151c.654-.29 1.141-.395 1.484-.395v-2c-.723 0-1.495.214-2.291.565l.807 1.83zm.486-1.45l-.16 2.945 1.997.108.16-2.944-1.997-.108zm.902 2c-1.174-.074-2.262.15-3.224.711l1.008 1.727c.575-.335 1.258-.494 2.089-.441l.127-1.996zm-3.234.717a6.139 6.139 0 00-2.135 2.135l1.715 1.03a4.142 4.142 0 011.449-1.45l-1.029-1.715zm-2.146 2.154a5.763 5.763 0 00-.772 2.896h2c0-.678.167-1.307.508-1.904l-1.736-.992zm-.772 2.896v6.048h2v-6.048h-2zm1 5.048h-2.944v2h2.944v-2zm-1.944 1V19.822h-2V33.07h2zm-1-12.248h2.656v-2h-2.656v2zm13.709 11.672l-.494.87.013.006.481-.876zm-2.528-2.496l-.88.475.012.02.868-.495zm.128-7.2l.85.527-.85-.527zm10.72-1.984l-.664.747.664-.747zm2.336 4.224l.332.943a1 1 0 00.643-1.164l-.975.22zm-10.912 3.84l-.928.371a1 1 0 001.26.572l-.332-.943zm-.704-1.76l-.342-.94a1 1 0 00-.586 1.311l.928-.371zm8.96-3.264l.545.838a1 1 0 00-.887-1.778l.342.94zm-.64.416l-.94.341a1 1 0 001.485.497l-.545-.838zm-1.28-1.824l-.666.746.015.013.651-.76zm-4.512-.192l.514.857.021-.012-.535-.845zm-1.504 1.6l.883.469-.883-.47zm.032 4.768l-.878.479.006.011.872-.49zm1.568 1.632l-.523.852.033.02.49-.872zm3.968.256l-.359-.934-.012.005.371.929zm1.536-.832l.849-.53a1 1 0 00-1.437-.279l.588.809zm1.376 2.208l.561.828a1 1 0 00.288-1.357l-.849.529zm-2.24 1.088l-.316-.949-.008.003.324.946zm-2.4-.584c-1.383 0-2.511-.273-3.423-.773l-.962 1.753c1.264.695 2.739 1.02 4.385 1.02v-2zm-3.41-.765c-.938-.534-1.649-1.24-2.154-2.123l-1.736.992c.69 1.207 1.664 2.165 2.902 2.87l.988-1.74zm-2.142-2.102c-.488-.904-.744-1.953-.744-3.173h-2c0 1.51.32 2.893.984 4.123l1.76-.95zm-.744-3.173c0-1.123.282-2.123.842-3.025l-1.7-1.054c-.763 1.23-1.142 2.598-1.142 4.079h2zm.842-3.025a6.446 6.446 0 012.306-2.221l-1-1.732a8.455 8.455 0 00-3.006 2.899l1.7 1.054zm2.306-2.221c.947-.547 2.01-.826 3.212-.826v-2c-1.529 0-2.94.36-4.212 1.094l1 1.732zm3.212-.826c1.54 0 2.743.444 3.688 1.283l1.328-1.495c-1.359-1.208-3.057-1.788-5.016-1.788v2zm3.688 1.283c.967.86 1.656 2.069 2.025 3.697l1.95-.44c-.442-1.957-1.31-3.564-2.647-4.752l-1.328 1.495zm2.668 2.534l-10.912 3.84.664 1.886 10.912-3.84-.664-1.887zm-9.652 4.411l-.704-1.76-1.856.743.704 1.76 1.856-.743zm-1.29-.449l8.96-3.264-.684-1.879-8.96 3.264.684 1.88zm8.073-5.042l-.64.416 1.09 1.677.64-.416-1.09-1.677zm.845.913a5.323 5.323 0 00-1.569-2.242l-1.302 1.519c.474.406.797.873.991 1.407l1.88-.684zm-1.554-2.228c-.816-.728-1.848-1.054-3.002-1.054v2c.766 0 1.291.207 1.67.546l1.332-1.492zm-3.002-1.054c-.986 0-1.9.25-2.711.763l1.07 1.69c.469-.297 1.006-.453 1.641-.453v-2zm-2.691.75a5.032 5.032 0 00-1.872 1.989l1.766.938a3.034 3.034 0 011.135-1.212l-1.029-1.715zm-1.872 1.989c-.449.845-.661 1.788-.661 2.805h2c0-.733.151-1.347.427-1.867l-1.766-.938zm-.661 2.805c0 1.06.223 2.04.698 2.91l1.756-.957c-.293-.537-.454-1.179-.454-1.953h-2zm.704 2.922a5.43 5.43 0 001.917 1.994l1.046-1.705a3.423 3.423 0 01-1.219-1.27l-1.744.981zm1.95 2.013c.845.476 1.785.705 2.794.705v-2c-.697 0-1.294-.155-1.814-.448l-.98 1.743zm2.794.705a5.43 5.43 0 002.035-.392l-.742-1.857a3.444 3.444 0 01-1.293.249v2zm2.023-.387a7.658 7.658 0 001.765-.957l-1.176-1.617a5.668 5.668 0 01-1.307.707l.718 1.867zm.328-1.236l1.376 2.208 1.698-1.058-1.376-2.208-1.698 1.058zm1.664.85a8.1 8.1 0 01-1.995.968l.632 1.897a10.088 10.088 0 002.485-1.208l-1.122-1.656zm-2.003.97a6.382 6.382 0 01-2.076.363v2c.908 0 1.818-.16 2.724-.47l-.648-1.892zM42.647 64.59l-.47.883.008.004.462-.887zm-2.4-2.336l-.876.482a.886.886 0 00.012.022l.863-.504zm.063-7.616l.866.502.004-.008-.87-.494zm2.465-2.496l-.483-.876-.008.004.49.872zm6.56 0l-.56.829.014.01.545-.84zm1.951 1.984l.937.35a1 1 0 00-.073-.854l-.864.504zm-.192.512l-.994-.102a1 1 0 001.93.453l-.936-.351zm.288-2.816v-1a1 1 0 00-.994.898l.995.102zm2.753 0h1a1 1 0 00-1-1v1zm0 13.248v1a1 1 0 001-1h-1zm-2.977 0h-1a1 1 0 001 1v-1zm0-3.456l.924-.385a1 1 0 00-1.924.385h1zm.32.768l.929.371a1 1 0 00-.005-.756l-.924.385zm-.575.832l-.753-.659-.003.004.756.655zm-1.152.992l-.572-.821a1.792 1.792 0 00-.017.012l.589.809zm-1.633.864l.326.945a.98.98 0 00.03-.01l-.355-.935zm.736-2.56l-.42-.907.42.907zm1.473-1.152l-.785-.621-.003.005.788.616zm.831-1.824l.979.207a.999.999 0 00.021-.207h-1zm0-2.592h1a.997.997 0 00-.033-.258l-.967.258zm-.895-1.664l-.755.656.015.016.74-.672zm-1.536-1.12l-.422.907a.939.939 0 00.028.012l.394-.92zm-4.16.16l-.503-.865.502.865zm-1.6 1.6l-.86-.51a1.344 1.344 0 00-.012.02l.872.49zm.032 4.736l.866-.5-.867.5zm3.04 3.736c-1.089 0-2.06-.233-2.93-.687l-.924 1.774c1.176.613 2.467.913 3.853.913v-2zm-2.923-.683c-.831-.442-1.498-1.086-2.006-1.957l-1.727 1.008c.686 1.177 1.62 2.09 2.794 2.715l.94-1.766zm-1.994-1.936c-.476-.865-.74-1.959-.74-3.325h-2c0 1.62.313 3.065.989 4.29l1.751-.965zm-.74-3.325c0-1.33.279-2.42.794-3.306l-1.73-1.004c-.723 1.246-1.063 2.696-1.063 4.31h2zm.798-3.314c.535-.94 1.23-1.637 2.085-2.119l-.98-1.743c-1.193.671-2.141 1.638-2.844 2.873l1.739.99zm2.077-2.114a5.979 5.979 0 012.942-.74v-2c-1.4 0-2.708.327-3.907.988l.965 1.752zm2.942-.74c1.078 0 1.919.249 2.576.693l1.119-1.658c-1.05-.709-2.3-1.035-3.695-1.035v2zm2.59.702c.742.482 1.275 1.035 1.634 1.65l1.727-1.008c-.537-.921-1.305-1.691-2.27-2.319l-1.09 1.677zm1.561.795l-.192.512 1.873.702.192-.512-1.873-.702zm1.74.965l.287-2.817-1.99-.203-.287 2.816 1.99.203zm-.708-1.918h2.753v-2h-2.752v2zm1.753-1V65.07h2V51.822h-2zm1 12.248h-2.977v2h2.977v-2zm-1.977 1v-3.456h-2v3.456h2zm-1.923-3.072l.32.768 1.847-.769-.32-.768-1.847.77zm.315.012c-.02.05-.118.223-.4.545l1.505 1.317c.315-.36.601-.742.752-1.119l-1.857-.743zm-.403.549c-.206.237-.52.514-.968.826l1.143 1.642c.533-.371.987-.756 1.336-1.158l-1.511-1.31zm-.985.838a5.95 5.95 0 01-1.398.738l.71 1.87a7.95 7.95 0 001.865-.99l-1.177-1.618zm-1.37.727c-.497.172-1.078.266-1.754.266v2c.86 0 1.667-.12 2.407-.375l-.653-1.89zm-.953-.198c.872 0 1.69-.163 2.437-.51l-.843-1.813c-.448.208-.974.323-1.594.323v2zm2.437-.51a4.944 4.944 0 001.838-1.442l-1.575-1.232a2.946 2.946 0 01-1.106.86l.843 1.815zm1.835-1.438c.51-.644.848-1.398 1.026-2.237l-1.957-.415c-.12.569-.337 1.032-.638 1.411l1.569 1.241zm1.047-2.444v-2.592h-2v2.592h2zm-.033-2.85a4.942 4.942 0 00-1.123-2.079l-1.48 1.345c.315.346.539.757.67 1.25l1.933-.516zm-1.108-2.062a5.206 5.206 0 00-1.897-1.383l-.787 1.838c.458.197.847.48 1.175.857l1.51-1.312zm-1.87-1.371a5.652 5.652 0 00-2.404-.51v2c.594 0 1.11.114 1.562.324l.843-1.814zm-2.404-.51c-.96 0-1.86.236-2.679.712l1.005 1.73a3.256 3.256 0 011.673-.441v-2zm-2.679.712a5.424 5.424 0 00-1.957 1.954l1.72 1.021c.321-.541.734-.95 1.242-1.245l-1.005-1.73zm-1.97 1.974c-.48.857-.703 1.831-.703 2.89h2c0-.774.16-1.4.447-1.909l-1.743-.98zm-.703 2.89c0 1.02.244 1.972.74 2.836l1.734-.998a3.6 3.6 0 01-.474-1.837h-2zm.74 2.836a5.523 5.523 0 001.989 2.025l1.021-1.72a3.524 3.524 0 01-1.276-1.303l-1.733.998zm1.989 2.025a5.25 5.25 0 002.719.748v-2a3.25 3.25 0 01-1.698-.468l-1.021 1.72zm25.066-11.356l.996-.086a1 1 0 00-.996-.914v1zm.255 2.976l-.894.447a1 1 0 001.89-.533l-.995.086zm-.127-.256l-.899-.44a1 1 0 00.004.887l.895-.447zm2.08-2.368l-.532-.847-.01.006.541.84zm5.12-.512l.377-.926-.378.926zm1.407 1.024l-.777.629a.91.91 0 00.034.04l.743-.67zm.736 1.6l.515.857a1 1 0 00.472-1.022l-.987.165zm-.16.096l-.882-.47a1 1 0 001.397 1.327l-.514-.857zm2.112-2.24l.512.86.006-.005-.517-.855zm5.953.288l-.708.707.02.02.688-.727zm1.184 2.848h1v-.018l-1 .018zm0 9.792v1a1 1 0 001-1h-1zm-2.977 0h-1a1 1 0 001 1v-1zm0-8.736h1v-.032l-1 .032zm-.512-1.696l-.843.537.03.044.813-.581zm-1.6-.768l.056-.999a1.028 1.028 0 00-.055-.001v1zm-2.08.704l-.604-.797a.679.679 0 00-.013.01l.618.787zm-1.407 1.824l.904.426.005-.01-.91-.416zm-.544 2.368l-1-.025v.025h1zm0 6.304v1a1 1 0 001-1h-1zm-2.977 0h-1a1 1 0 001 1v-1zm0-8.736h1v-.032l-1 .032zm-.543-1.696l-.827.563.031.043.796-.606zm-1.632-.768l.055-.999a1.028 1.028 0 00-.055-.001v1zm-2.08.704l.617.786-.617-.786zm-1.409 1.824l-.909-.416a.847.847 0 00-.01.022l.92.394zm-.48 8.672v1a1 1 0 001-1h-1zm-2.975 0h-1a1 1 0 001 1v-1zm0-13.248v-1a1 1 0 00-1 1h1zm1.66.085l.255 2.977 1.993-.172-.256-2.976-1.993.172zm2.146 2.444l-.128-.256-1.789.894.128.256 1.789-.894zm-.124.63c.414-.847.987-1.494 1.722-1.966l-1.081-1.682c-1.057.68-1.87 1.61-2.438 2.77l1.797.878zm1.713-1.96c.745-.468 1.603-.711 2.605-.711v-2c-1.346 0-2.578.332-3.668 1.017l1.063 1.694zm2.605-.711c.642 0 1.171.1 1.606.278l.755-1.852c-.717-.292-1.51-.426-2.362-.426v2zm1.606.278c.433.176.76.42 1.008.727l1.555-1.258a4.443 4.443 0 00-1.808-1.321l-.755 1.852zm1.042.767c.24.267.414.618.493 1.095l1.973-.329c-.134-.802-.452-1.518-.98-2.104l-1.486 1.338zm.965.073l-.16.096 1.029 1.715.16-.096-1.029-1.715zm1.237 1.424c.43-.806 1.009-1.415 1.741-1.85l-1.023-1.72c-1.06.631-1.889 1.516-2.483 2.63l1.765.94zm1.747-1.854c.772-.468 1.555-.688 2.363-.688v-2c-1.198 0-2.336.334-3.398.976l1.035 1.712zm2.363-.688c1.101 0 1.847.31 2.364.827l1.415-1.414c-.976-.976-2.278-1.413-3.78-1.413v2zm2.385.847c.55.52.854 1.202.87 2.139l2-.036c-.025-1.41-.51-2.626-1.497-3.557l-1.373 1.454zm.87 2.12v9.793h2v-9.792h-2zm1 8.793H84.77v2h2.977v-2zm-1.976 1v-8.736h-2v8.736h2zm0-8.767c-.026-.833-.238-1.603-.698-2.246l-1.627 1.162c.18.252.31.613.326 1.146l1.999-.063zm-.668-2.202c-.532-.837-1.431-1.176-2.388-1.23l-.111 1.997c.58.032.747.205.812.307L85.1 54.1zm-2.444-1.231c-.988 0-1.893.307-2.684.907l1.209 1.593c.447-.339.928-.5 1.475-.5v-2zm-2.697.917a5.824 5.824 0 00-1.7 2.195l1.819.831c.28-.613.654-1.09 1.116-1.453l-1.235-1.573zm-1.695 2.185a6.84 6.84 0 00-.64 2.769l2 .05c.018-.724.17-1.376.45-1.967l-1.81-.852zm-.64 2.794v6.304h2v-6.304h-2zm1 5.304H75.65v2h2.975v-2zm-1.975 1v-8.736h-2v8.736h2zm-.001-8.767c-.026-.846-.256-1.625-.748-2.271l-1.59 1.212c.19.25.323.601.339 1.121l1.999-.063zm-.717-2.229c-.553-.81-1.443-1.15-2.403-1.203l-.111 1.997c.576.032.774.205.861.333l1.653-1.127zm-2.459-1.204a4.27 4.27 0 00-2.697.917l1.235 1.573c.414-.325.888-.49 1.463-.49v-2zm-2.697.917a5.824 5.824 0 00-1.7 2.195l1.819.831c.28-.613.654-1.09 1.116-1.453l-1.235-1.573zm-1.71 2.217a7.026 7.026 0 00-.56 2.794h2c0-.725.135-1.39.399-2.006l-1.839-.788zm-.56 2.794v6.272h2v-6.272h-2zm1 5.272h-2.977v2h2.977v-2zm-1.977 1V51.822h-2V65.07h2zm-1-12.248h2.657v-2h-2.657v2zm26.183 1.912l-.858-.515-.007.013.865.502zm2.624-2.528l.487.873-.487-.873zm7.584 0l-.495.87.495-.87zm2.528 2.528l.872-.489-.872.489zm0 7.2l.872.488.004-.007-.876-.481zm-2.56 2.528l-.487-.874-.008.005.495.869zm-7.584.064l-.481.876.02.011.46-.887zm-2.592-2.464l-.865.502.012.02.853-.522zm2.624-1.376l-.878.479.006.011.872-.49zm1.536 1.632l-.535.845.012.007.523-.852zm4.384 0l-.523-.853a.805.805 0 00-.012.008l.535.845zm1.536-1.632l.883.469.006-.011-.889-.458zm0-4.64l-.889.458.006.01.883-.468zm-1.536-1.664l-.555.832.032.02.523-.852zm-4.416 0l-.542-.84-.013.008.555.832zm-1.536 1.696l-.878-.48-.005.01.883.47zm-2.52 2.24c0-1.16.269-2.18.793-3.082l-1.73-1.004c-.714 1.23-1.063 2.6-1.063 4.086h2zm.785-3.07a5.948 5.948 0 012.254-2.169l-.974-1.747a7.948 7.948 0 00-2.995 2.887l1.715 1.03zm2.254-2.169c.945-.527 2.032-.801 3.289-.801v-2c-1.56 0-2.99.344-4.263 1.054l.974 1.747zm3.289-.801c1.305 0 2.399.277 3.313.797l.989-1.739c-1.261-.717-2.706-1.058-4.302-1.058v2zm3.313.797a5.54 5.54 0 012.15 2.147l1.745-.977a7.541 7.541 0 00-2.906-2.908l-.989 1.738zm2.15 2.147c.507.906.769 1.93.769 3.096h2c0-1.48-.336-2.845-1.024-4.073l-1.745.977zm.769 3.096c0 1.166-.262 2.204-.773 3.135l1.753.962c.684-1.245 1.02-2.618 1.02-4.097h-2zm-.769 3.127c-.503.899-1.22 1.611-2.174 2.143l.974 1.747c1.264-.705 2.254-1.678 2.945-2.913l-1.745-.977zm-2.182 2.148c-.914.52-2.008.797-3.313.797v2c1.596 0 3.041-.342 4.302-1.059l-.989-1.739zm-3.313.797c-1.268 0-2.366-.259-3.315-.752l-.922 1.775c1.269.66 2.689.977 4.237.977v-2zm-3.295-.74a5.85 5.85 0 01-2.22-2.11l-1.706 1.044a7.849 7.849 0 002.964 2.818l.962-1.753zm-2.208-2.09c-.517-.891-.793-1.96-.793-3.242h-2c0 1.577.342 3.004 1.063 4.245l1.73-1.003zm.183-3.21c0 1.01.229 1.954.698 2.815l1.756-.958a3.8 3.8 0 01-.454-1.857h-2zm.704 2.826a5.516 5.516 0 001.873 1.987l1.07-1.69a3.518 3.518 0 01-1.2-1.277l-1.743.98zm1.885 1.994a5.084 5.084 0 002.699.756v-2a3.086 3.086 0 01-1.654-.46L96.35 63.17zm2.699.756c1.002 0 1.927-.247 2.743-.763l-1.07-1.69c-.465.294-1.011.453-1.673.453v2zm2.73-.756a5.188 5.188 0 001.897-2.015l-1.766-.938a3.187 3.187 0 01-1.176 1.248l1.045 1.705zm1.903-2.026a6.026 6.026 0 00.655-2.794h-2a4.03 4.03 0 01-.433 1.878l1.778.916zm.655-2.794c0-1-.214-1.932-.661-2.773l-1.766.938c.278.524.427 1.128.427 1.835h2zm-.655-2.762a5.131 5.131 0 00-1.903-2.059l-1.045 1.705c.502.308.889.725 1.17 1.27l1.778-.916zm-1.871-2.038c-.817-.545-1.75-.808-2.762-.808v2c.651 0 1.191.164 1.653.472l1.109-1.664zm-2.762-.808a4.98 4.98 0 00-2.75.8l1.084 1.68a2.988 2.988 0 011.666-.48v-2zm-2.763.808a5.712 5.712 0 00-1.86 2.049l1.757.958a3.71 3.71 0 011.212-1.343l-1.109-1.664zm-1.864 2.059c-.446.838-.661 1.758-.661 2.74h2c0-.68.147-1.275.427-1.802l-1.766-.938zm18.608-3.787l.997-.086a1.001 1.001 0 00-.997-.914v1zm.256 2.976l-.894.447a1 1 0 001.891-.533l-.997.086zm-.128-.256l-.898-.44a.998.998 0 00.004.887l.894-.447zm2.08-2.368l-.532-.847-.008.006.54.84zm5.12-.512l.378-.926-.378.926zm1.408 1.024l-.777.629a.792.792 0 00.034.04l.743-.67zm.736 1.6l.515.857a1 1 0 00.472-1.022l-.987.165zm-.16.096l-.882-.47a.999.999 0 001.397 1.327l-.515-.857zm2.112-2.24l.512.86.006-.005-.518-.855zm5.952.288l-.707.707.021.02.686-.727zm1.184 2.848h1v-.018l-1 .018zm0 9.792v1a1 1 0 001-1h-1zm-2.976 0h-1a1 1 0 001 1v-1zm0-8.736h1v-.032l-1 .032zm-.512-1.696l-.843.537a.48.48 0 00.03.044l.813-.581zm-1.6-.768l.056-.999a1.047 1.047 0 00-.056-.001v1zm-2.08.704l-.604-.797-.014.01.618.787zm-1.408 1.824l.905.426.005-.01-.91-.416zm-.544 2.368l-.999-.025-.001.025h1zm0 6.304v1a1 1 0 001-1h-1zm-2.976 0h-1a1 1 0 001 1v-1zm0-8.736h1v-.032l-1 .032zm-.544-1.696l-.826.563.031.043.795-.606zm-1.632-.768l.056-.999a1.047 1.047 0 00-.056-.001v1zm-2.08.704l.618.786-.618-.786zm-1.408 1.824l-.909-.416-.01.022.919.394zm-.48 8.672v1a1 1 0 001-1h-1zm-2.976 0h-1a1 1 0 001 1v-1zm0-13.248v-1a1 1 0 00-1 1h1zm1.66.085l.256 2.977 1.993-.172-.256-2.976-1.993.172zm2.147 2.444l-.128-.256-1.789.894.128.256 1.789-.894zm-.125.63c.415-.847.988-1.494 1.723-1.966l-1.081-1.682c-1.058.68-1.871 1.61-2.438 2.77l1.796.878zm1.714-1.96c.745-.468 1.603-.711 2.604-.711v-2c-1.345 0-2.578.332-3.668 1.017l1.064 1.694zm2.604-.711c.643 0 1.172.1 1.607.278l.755-1.852c-.718-.292-1.511-.426-2.362-.426v2zm1.607.278c.432.176.76.42 1.008.727l1.555-1.258a4.453 4.453 0 00-1.808-1.321l-.755 1.852zm1.042.767c.24.267.413.618.493 1.095l1.973-.329c-.134-.802-.452-1.518-.979-2.104l-1.487 1.338zm.965.073l-.16.096 1.029 1.715.16-.096-1.029-1.715zm1.237 1.424c.43-.806 1.008-1.415 1.741-1.85l-1.023-1.72c-1.06.631-1.889 1.516-2.483 2.63l1.765.94zm1.747-1.854c.772-.468 1.555-.688 2.362-.688v-2c-1.197 0-2.335.334-3.397.976l1.035 1.712zm2.362-.688c1.102 0 1.848.31 2.365.827l1.414-1.414c-.976-.976-2.278-1.413-3.779-1.413v2zm2.386.847c.55.52.853 1.202.87 2.139l2-.036c-.026-1.41-.511-2.626-1.497-3.557l-1.373 1.454zm.87 2.12v9.793h2v-9.792h-2zm1 8.793h-2.976v2h2.976v-2zm-1.976 1v-8.736h-2v8.736h2zm0-8.767c-.026-.833-.238-1.603-.698-2.246l-1.627 1.162c.18.252.309.613.326 1.146l1.999-.063zm-.668-2.202c-.533-.837-1.431-1.176-2.388-1.23l-.111 1.997c.579.032.747.205.812.307l1.687-1.074zm-2.444-1.231c-.989 0-1.894.307-2.684.907l1.209 1.593c.447-.339.928-.5 1.475-.5v-2zm-2.698.917a5.827 5.827 0 00-1.699 2.195l1.819.831c.28-.613.654-1.09 1.116-1.453l-1.236-1.573zm-1.695 2.185a6.833 6.833 0 00-.638 2.769l1.999.05a4.847 4.847 0 01.449-1.967l-1.81-.852zm-.639 2.794v6.304h2v-6.304h-2zm1 5.304h-2.976v2h2.976v-2zm-1.976 1v-8.736h-2v8.736h2zm0-8.767c-.027-.846-.256-1.625-.748-2.271l-1.591 1.212c.19.25.324.601.34 1.121l1.999-.063zm-.718-2.229c-.552-.81-1.442-1.15-2.402-1.203l-.111 1.997c.575.032.774.205.861.333l1.652-1.127zm-2.458-1.204a4.27 4.27 0 00-2.698.917l1.236 1.573c.414-.325.888-.49 1.462-.49v-2zm-2.698.917a5.827 5.827 0 00-1.699 2.195l1.819.831c.28-.613.654-1.09 1.116-1.453l-1.236-1.573zm-1.709 2.217a7.028 7.028 0 00-.561 2.794h2c0-.725.135-1.39.399-2.006l-1.838-.788zm-.561 2.794v6.272h2v-6.272h-2zm1 5.272h-2.976v2h2.976v-2zm-1.976 1V51.822h-2V65.07h2zm-1-12.248h2.656v-2h-2.656v2zm28.647 11.672l-.495.87c.005.001.009.004.013.006l.482-.876zm-2.528-2.496l-.88.475a.192.192 0 00.011.02l.869-.495zm.128-7.2l.849.527-.849-.527zm10.72-1.984l-.665.747.665-.747zm2.336 4.224l.331.943a1 1 0 00.644-1.164l-.975.22zm-10.912 3.84l-.929.371a1 1 0 001.26.572l-.331-.943zm-.704-1.76l-.343-.94a.998.998 0 00-.586 1.311l.929-.371zm8.96-3.264l.544.838a1 1 0 00-.887-1.778l.343.94zm-.64.416l-.94.341a.999.999 0 001.484.497l-.544-.838zm-1.28-1.824l-.667.746.016.013.651-.76zm-4.512-.192l.514.857.021-.012-.535-.845zm-1.504 1.6l.883.469-.883-.47zm.032 4.768l-.878.479.006.011.872-.49zm1.568 1.632l-.523.852.032.02.491-.872zm3.968.256l-.36-.934-.012.005.372.929zm1.536-.832l.848-.53a1 1 0 00-1.437-.279l.589.809zm1.376 2.208l.56.828a1 1 0 00.288-1.357l-.848.529zm-2.24 1.088l-.317-.949-.007.003.324.946zm-2.4-.584c-1.384 0-2.512-.272-3.423-.773l-.963 1.753c1.265.695 2.739 1.02 4.386 1.02v-2zm-3.41-.766c-.939-.533-1.649-1.239-2.154-2.122l-1.737.992c.69 1.207 1.665 2.165 2.902 2.87l.989-1.74zm-2.143-2.101c-.487-.904-.743-1.953-.743-3.173h-2c0 1.51.319 2.893.984 4.123l1.759-.95zm-.743-3.173c0-1.123.282-2.123.841-3.025l-1.699-1.054c-.764 1.23-1.142 2.598-1.142 4.079h2zm.841-3.025a6.462 6.462 0 012.306-2.221l-.999-1.732a8.455 8.455 0 00-3.006 2.899l1.699 1.054zm2.306-2.221c.948-.547 2.011-.826 3.213-.826v-2c-1.529 0-2.941.36-4.212 1.094l.999 1.732zm3.213-.826c1.539 0 2.743.444 3.687 1.283l1.329-1.495c-1.36-1.208-3.058-1.788-5.016-1.788v2zm3.687 1.283c.968.86 1.657 2.069 2.025 3.697l1.951-.44c-.442-1.956-1.311-3.564-2.647-4.752l-1.329 1.495zm2.669 2.533l-10.912 3.84.663 1.887 10.912-3.84-.663-1.887zm-9.652 4.412l-.704-1.76-1.857.743.704 1.76 1.857-.743zm-1.29-.449l8.96-3.264-.685-1.879-8.96 3.264.685 1.88zm8.073-5.042l-.64.416 1.089 1.677.64-.416-1.089-1.677zm.844.913a5.314 5.314 0 00-1.569-2.241l-1.301 1.518c.473.406.797.873.991 1.407l1.879-.684zm-1.553-2.228c-.816-.728-1.848-1.054-3.002-1.054v2c.765 0 1.29.207 1.669.546l1.333-1.492zm-3.002-1.054c-.987 0-1.9.25-2.712.763l1.071 1.69c.468-.297 1.005-.453 1.641-.453v-2zm-2.691.75a5.028 5.028 0 00-1.873 1.989l1.767.938c.28-.528.657-.925 1.135-1.212l-1.029-1.715zm-1.873 1.989c-.449.845-.66 1.788-.66 2.805h2c0-.733.15-1.347.427-1.867l-1.767-.938zm-.66 2.805c0 1.06.223 2.04.698 2.91l1.755-.957c-.293-.537-.453-1.179-.453-1.953h-2zm.704 2.922a5.43 5.43 0 001.917 1.994l1.045-1.705a3.43 3.43 0 01-1.219-1.27l-1.743.981zm1.949 2.013c.846.476 1.785.705 2.795.705v-2c-.698 0-1.294-.155-1.814-.448l-.981 1.743zm2.795.705a5.44 5.44 0 002.035-.392l-.743-1.857a3.44 3.44 0 01-1.292.249v2zm2.022-.387a7.665 7.665 0 001.766-.956l-1.177-1.618a5.661 5.661 0 01-1.306.707l.717 1.867zm.329-1.236l1.376 2.208 1.697-1.058-1.376-2.208-1.697 1.058zm1.664.85a8.107 8.107 0 01-1.996.968l.633 1.897c.91-.303 1.74-.704 2.484-1.208l-1.121-1.656zm-2.003.97a6.387 6.387 0 01-2.076.363v2c.908 0 1.817-.16 2.723-.47L145 64.028zm11.061-12.205l.996-.08a1 1 0 00-.996-.92v1zm.256 3.232l-.971.242a1 1 0 001.967-.321l-.996.079zm-.128-.512l-.918-.399a1.009 1.009 0 00-.053.641l.971-.242zm2.08-2.336l.514.857.014-.008-.528-.85zm6.4.224l-.688.726.021.019.667-.745zm1.248 2.848h1l-.001-.018-.999.018zm0 9.792v1a1 1 0 001-1h-1zm-3.008 0h-1a1 1 0 001 1v-1zm0-8.736h1l-.001-.03-.999.03zm-.64-1.76l-.774.633a.75.75 0 00.032.038l.742-.671zm-5.376 1.696l-.9-.437-.01.021.91.416zm-.512 8.8v1a1 1 0 001-1h-1zm-2.976 0h-1a1 1 0 001 1v-1zm0-13.248v-1a1 1 0 00-1 1h1zm1.659.079l.256 3.232 1.993-.158-.256-3.232-1.993.158zm2.223 2.91l-.128-.512-1.941.485.128.512 1.941-.485zm-.181.13c.339-.782.887-1.404 1.677-1.878l-1.029-1.715c-1.13.678-1.969 1.613-2.483 2.795l1.835.797zm1.691-1.886c.784-.488 1.706-.745 2.8-.745v-2c-1.424 0-2.721.34-3.857 1.047l1.057 1.698zm2.8-.745c1.046 0 1.81.303 2.384.846l1.375-1.453c-1.005-.95-2.289-1.393-3.759-1.393v2zm2.405.865c.585.524.898 1.201.915 2.12l1.999-.035c-.026-1.427-.545-2.649-1.581-3.575l-1.333 1.49zm.915 2.103v9.792h2v-9.792h-2zm1 8.792h-3.008v2h3.008v-2zm-2.008 1v-8.736h-2v8.736h2zm-.001-8.766c-.027-.913-.302-1.743-.898-2.401l-1.483 1.342c.215.238.366.58.382 1.118l1.999-.059zm-.866-2.364c-.637-.779-1.583-1.07-2.597-1.07v2c.649 0 .919.178 1.05.337l1.547-1.267zm-2.597-1.07c-.967 0-1.859.272-2.648.817l1.135 1.646a2.582 2.582 0 011.513-.463v-2zm-2.648.817c-.775.534-1.374 1.26-1.804 2.146l1.799.874c.295-.608.678-1.055 1.14-1.374l-1.135-1.646zm-1.814 2.167c-.411.9-.602 1.91-.602 3.008h2c0-.866.15-1.583.421-2.177l-1.819-.831zm-.602 3.008v6.208h2v-6.208h-2zm1 5.208h-2.976v2h2.976v-2zm-1.976 1V51.822h-2V65.07h2zm-1-12.248h2.656v-2h-2.656v2zm18.967-6.824v-1a1 1 0 00-1 1h1zm2.976 0h1a1 1 0 00-1-1v1zm0 5.888h-1a1 1 0 001 1v-1zm3.648 0h1a1 1 0 00-1-1v1zm0 2.336v1a1 1 0 001-1h-1zm-3.648 0v-1a1 1 0 00-1 1h1zm0 10.848v1a1 1 0 001-1h-1zm-2.976 0h-1a1 1 0 001 1v-1zm0-10.848h1a1 1 0 00-1-1v1zm-2.432 0h-1a1 1 0 001 1v-1zm0-2.336v-1a1 1 0 00-1 1h1zm2.432 0v1a1 1 0 001-1h-1zm0-4.888h2.976v-2h-2.976v2zm1.976-1v5.888h2v-5.888h-2zm1 6.888h3.648v-2h-3.648v2zm2.648-1v2.336h2v-2.336h-2zm1 1.336h-3.648v2h3.648v-2zm-4.648 1V65.07h2V54.222h-2zm1 9.848h-2.976v2h2.976v-2zm-1.976 1V54.222h-2V65.07h2zm-1-11.848h-2.432v2h2.432v-2zm-1.432 1v-2.336h-2v2.336h2zm-1-1.336h2.432v-2h-2.432v2zm3.432-1v-5.888h-2v5.888h2zM42.904 83.822v-1a1 1 0 00-1 1h1zm2.976 0h1a1 1 0 00-1-1v1zm0 13.248v1a1 1 0 001-1h-1zm-2.976 0h-1a1 1 0 001 1v-1zm.32-19.232l-.64-.768a1.288 1.288 0 00-.021.018l.661.75zm2.433 0l-.684.73a.867.867 0 00.022.02l.662-.75zm0 2.4l.658.752.003-.002-.661-.75zm-2.432-.032l-.662.75a.941.941 0 00.021.018l.64-.768zm-.32 4.616h2.975v-2h-2.976v2zm1.975-1V97.07h2V83.822h-2zm1 12.248h-2.976v2h2.976v-2zm-1.976 1V83.822h-2V97.07h2zm-.224-18.048c0-.173.051-.298.206-.434l-1.323-1.5a2.516 2.516 0 00-.883 1.934h2zm.185-.416c.226-.189.42-.248.607-.248v-2c-.709 0-1.346.26-1.888.712l1.28 1.536zm.607-.248c.182 0 .335.055.5.21l1.368-1.46a2.678 2.678 0 00-1.868-.75v2zm.523.23c.155.136.206.261.206.434h2a2.52 2.52 0 00-.883-1.934l-1.323 1.5zm.206.434a.557.557 0 01-.206.466l1.323 1.5a2.55 2.55 0 00.883-1.966h-2zm-.203.463a.747.747 0 01-.526.2v2c.694 0 1.322-.239 1.843-.695l-1.317-1.505zm-.526.2c-.186 0-.38-.059-.607-.248l-1.28 1.537c.54.451 1.178.712 1.887.712v-2zm-.586-.23c-.155-.136-.206-.26-.206-.433h-2c0 .766.313 1.43.883 1.934l1.323-1.5zm9.8 4.367l.996-.08a1 1 0 00-.997-.92v1zm.255 3.232l-.97.242a1 1 0 001.967-.321l-.997.079zm-.128-.512l-.917-.399a1 1 0 00-.053.641l.97-.242zm2.08-2.336l.515.857.014-.008-.528-.85zm6.4.224l-.687.726a.908.908 0 00.02.019l.668-.745zm1.248 2.848h1v-.018l-1 .018zm0 9.792v1a1 1 0 001-1h-1zm-3.008 0h-1a1 1 0 001 1v-1zm0-8.736h1v-.03l-1 .03zm-.64-1.76l-.773.633.032.038.742-.671zm-5.376 1.696l-.899-.437a1.364 1.364 0 00-.01.021l.91.416zm-.512 8.8v1a1 1 0 001-1h-1zm-2.976 0h-1a1 1 0 001 1v-1zm0-13.248v-1a1 1 0 00-1 1h1zm1.66.079l.256 3.232 1.993-.158-.256-3.232-1.993.158zm2.223 2.91l-.128-.512-1.94.485.127.512 1.94-.485zm-.181.13c.34-.782.887-1.404 1.677-1.878l-1.029-1.715c-1.13.678-1.969 1.613-2.483 2.795l1.835.797zm1.69-1.886c.785-.488 1.707-.745 2.8-.745v-2c-1.423 0-2.72.34-3.856 1.047l1.057 1.698zm2.8-.745c1.047 0 1.811.303 2.385.846l1.375-1.453c-1.005-.95-2.289-1.393-3.76-1.393v2zm2.406.865c.585.524.898 1.201.915 2.12l2-.035c-.027-1.427-.546-2.649-1.582-3.576l-1.333 1.491zm.914 2.103v9.792h2v-9.792h-2zm1 8.792h-3.008v2h3.008v-2zm-2.008 1v-8.736h-2v8.736h2zm0-8.766c-.027-.913-.303-1.743-.898-2.401l-1.483 1.342c.215.237.366.58.382 1.118l2-.059zm-.866-2.364c-.637-.779-1.584-1.07-2.598-1.07v2c.65 0 .92.178 1.05.337l1.548-1.266zm-2.598-1.07c-.966 0-1.858.272-2.647.816l1.135 1.647a2.58 2.58 0 011.512-.463v-2zm-2.647.816c-.775.535-1.374 1.262-1.804 2.147l1.799.874c.295-.608.678-1.055 1.14-1.374l-1.135-1.647zm-1.814 2.168c-.411.9-.602 1.91-.602 3.008h2c0-.866.15-1.583.421-2.176l-1.819-.832zm-.602 3.008v6.208h2v-6.208h-2zm1 5.208h-2.977v2h2.976v-2zm-1.977 1V83.822h-2V97.07h2zm-1-12.248h2.656v-2H51.03v2zM80.954 96.59l-.47.883.008.004.462-.887zm-2.4-2.336l-.876.482a.886.886 0 00.012.022l.864-.504zm.064-7.616l.865.501.004-.007-.869-.494zm2.464-2.496l-.483-.876-.007.004.49.872zm6.56 0l-.56.829.015.01.545-.84zm1.952 1.984l.936.35a1 1 0 00-.072-.854l-.864.504zm-.192.512l-.995-.102a1 1 0 001.931.453l-.936-.351zm.288-2.816v-1a1 1 0 00-.995.898l.995.102zm2.752 0h1a1 1 0 00-1-1v1zm0 13.248v1a1 1 0 001-1h-1zm-2.976 0h-1a1 1 0 001 1v-1zm0-3.456l.923-.385a1 1 0 00-1.923.385h1zm.32.768l.928.371a1 1 0 00-.005-.756l-.923.385zm-.576.832l-.753-.659-.003.004.756.655zm-1.152.992l-.571-.821-.017.012.588.809zm-1.632.864l.326.945a.98.98 0 00.029-.01l-.355-.935zm.736-2.56l-.421-.907.421.907zm1.472-1.152l-.784-.62-.003.004.787.616zm.832-1.824l.978.207a.999.999 0 00.022-.207h-1zm0-2.592h1a.997.997 0 00-.034-.258l-.966.258zm-.896-1.664l-.755.656.015.016.74-.672zm-1.536-1.12l-.421.907a.939.939 0 00.027.012l.394-.92zm-4.16.16l-.502-.865.502.865zm-1.6 1.6l-.86-.51-.012.02.872.49zm.032 4.736l.867-.5-.867.5zm3.04 3.736c-1.088 0-2.059-.233-2.93-.687l-.924 1.774c1.177.613 2.468.913 3.854.913v-2zm-2.922-.683c-.832-.442-1.498-1.086-2.006-1.957l-1.728 1.008c.687 1.177 1.62 2.09 2.794 2.715l.94-1.766zM79.43 93.77c-.477-.865-.74-1.959-.74-3.325h-2c0 1.62.313 3.065.988 4.29l1.752-.965zm-.74-3.325c0-1.33.279-2.42.793-3.306l-1.73-1.004c-.723 1.246-1.063 2.696-1.063 4.31h2zm.797-3.314c.535-.94 1.23-1.638 2.085-2.119l-.98-1.743c-1.193.671-2.141 1.638-2.843 2.874l1.738.988zm2.078-2.114a5.979 5.979 0 012.941-.74v-2c-1.4 0-2.708.327-3.907.988l.966 1.752zm2.941-.74c1.079 0 1.92.249 2.576.693l1.12-1.658c-1.05-.709-2.3-1.035-3.696-1.035v2zm2.591.702c.741.482 1.275 1.035 1.633 1.65l1.728-1.008c-.538-.921-1.306-1.691-2.271-2.319l-1.09 1.677zm1.56.795l-.191.512 1.872.702.192-.512-1.872-.702zm1.74.965l.288-2.816-1.99-.204-.288 2.816 1.99.204zm-.707-1.918h2.752v-2H89.69v2zm1.752-1V97.07h2V83.822h-2zm1 12.248h-2.976v2h2.976v-2zm-1.976 1v-3.456h-2v3.456h2zm-1.923-3.072l.32.768 1.846-.769-.32-.768-1.846.77zm.314.012c-.02.05-.117.223-.4.545l1.506 1.317c.315-.36.6-.742.752-1.119l-1.858-.743zm-.403.549c-.205.237-.519.514-.967.826l1.142 1.642c.533-.371.988-.756 1.337-1.158l-1.512-1.31zm-.984.838a5.95 5.95 0 01-1.399.738l.71 1.87a7.95 7.95 0 001.865-.99l-1.176-1.618zm-1.37.727c-.497.172-1.078.266-1.754.266v2c.86 0 1.666-.12 2.406-.375l-.652-1.89zm-.954-.198c.873 0 1.691-.163 2.437-.51l-.842-1.813c-.449.208-.974.323-1.595.323v2zm2.437-.51a4.944 4.944 0 001.838-1.442l-1.575-1.233a2.946 2.946 0 01-1.105.862l.842 1.814zm1.835-1.438c.51-.644.848-1.397 1.026-2.237l-1.956-.415a3.337 3.337 0 01-.638 1.411l1.568 1.242zm1.048-2.444v-2.592h-2v2.592h2zm-.034-2.85a4.942 4.942 0 00-1.122-2.079l-1.48 1.345c.314.346.538.757.67 1.25l1.932-.516zm-1.107-2.062a5.206 5.206 0 00-1.897-1.383l-.788 1.838a3.2 3.2 0 011.175.857l1.51-1.312zm-1.87-1.371a5.652 5.652 0 00-2.405-.51v2c.595 0 1.11.114 1.563.324l.842-1.814zm-2.405-.51c-.96 0-1.86.237-2.678.712l1.004 1.73a3.257 3.257 0 011.674-.441v-2zm-2.678.712a5.425 5.425 0 00-1.958 1.954l1.72 1.021c.322-.541.734-.95 1.242-1.245l-1.004-1.73zm-1.97 1.974c-.481.857-.704 1.831-.704 2.89h2c0-.774.161-1.4.448-1.909l-1.744-.98zm-.704 2.89c0 1.02.244 1.972.741 2.836l1.734-.998a3.598 3.598 0 01-.475-1.837h-2zm.741 2.836a5.523 5.523 0 001.989 2.025l1.02-1.72a3.524 3.524 0 01-1.275-1.303l-1.734.998zm1.989 2.025a5.25 5.25 0 002.718.748v-2a3.25 3.25 0 01-1.698-.468l-1.02 1.72zm26.249 1.668l-.364.931.028.01.336-.941zm-2.176-1.504l-.811-.586a1 1 0 00.057 1.243l.754-.657zm1.248-1.728l.693-.721a1 1 0 00-1.504.135l.811.586zm1.696 1.216l-.434.9.04.019.394-.92zm2.944.224l.282.96-.282-.96zm.864-.512l-.737-.676-.003.003.74.673zm-.128-2.144l-.68.733.025.022.655-.755zm-1.184-.672l-.342.94.013.004.329-.944zm-1.504-.48l-.316.948c.015.006.031.01.046.015l.27-.963zm-2.496-1.504l.743-.67-.743.67zm-.352-4.288l-.863-.506-.005.01.868.496zm1.568-1.504l-.479-.878-.011.006.49.872zm5.056-.224l-.308.951.026.008.282-.96zm2.048 1.088l.843.538a1 1 0 00-.218-1.32l-.625.782zm-1.184 1.856l-.726.688a1 1 0 001.569-.15l-.843-.538zm-1.376-.896l-.339.94.339-.94zm-1.44-.32l-.059.998h.009l.05-.998zm-1.056.16l-.351-.937-.02.008.371.929zm-.672 2.464l.68-.733-.68.733zm1.152.672l-.342.94.051.016.291-.956zm1.44.48l-.342.94a1.1 1.1 0 00.063.02l.279-.96zm1.76.768l-.53.848.53-.848zm1.216 1.184l-.844.537.018.026.826-.563zm-.096 3.968l-.872-.49-.005.009.877.48zm-1.696 1.6l.457.89.01-.006-.467-.884zm-2.88-.424a7.13 7.13 0 01-2.416-.422l-.672 1.883a9.12 9.12 0 003.088.539v-2zm-2.388-.412c-.736-.287-1.323-.698-1.786-1.229l-1.508 1.314c.689.791 1.552 1.383 2.566 1.778l.728-1.863zm-1.729.013l1.248-1.728-1.622-1.17-1.248 1.727 1.622 1.171zm-.256-1.592c.616.592 1.267 1.064 1.955 1.396l.868-1.802c-.464-.223-.944-.562-1.437-1.036l-1.386 1.442zm1.995 1.414a5.445 5.445 0 002.154.465v-2a3.46 3.46 0 01-1.366-.303l-.788 1.838zm2.154.465c.51 0 1.001-.064 1.466-.2l-.564-1.92c-.26.077-.559.12-.902.12v2zm1.466-.2c.505-.15.963-.405 1.322-.8l-1.48-1.345c-.068.075-.185.16-.406.225l.564 1.92zm1.319-.796c.44-.48.615-1.083.615-1.7h-2c0 .236-.06.316-.089.348l1.474 1.352zm.615-1.7c0-.724-.261-1.387-.825-1.876l-1.31 1.511c.076.066.135.15.135.365h2zm-.8-1.853c-.423-.394-.949-.68-1.535-.884l-.658 1.89c.395.136.659.298.833.46l1.36-1.466zm-1.522-.879a21.944 21.944 0 00-1.576-.503l-.54 1.926c.512.143.989.295 1.432.457l.684-1.88zm-1.53-.489c-.976-.325-1.641-.749-2.069-1.224l-1.486 1.338c.724.804 1.723 1.384 2.923 1.783l.632-1.897zm-2.069-1.224c-.399-.444-.607-.98-.607-1.667h-2c0 1.146.368 2.168 1.121 3.005l1.486-1.338zm-.607-1.667c0-.534.127-1.014.38-1.456l-1.736-.992a4.865 4.865 0 00-.644 2.448h2zm.375-1.447c.265-.452.652-.832 1.195-1.138l-.98-1.743c-.823.463-1.48 1.085-1.941 1.87l1.726 1.012zm1.184-1.131c.522-.285 1.211-.454 2.113-.454v-2c-1.146 0-2.185.215-3.071.698l.958 1.756zm2.113-.454c.833 0 1.548.107 2.156.303l.616-1.903c-.843-.272-1.771-.4-2.772-.4v2zm2.182.311a4.96 4.96 0 011.705.91l1.25-1.562a6.96 6.96 0 00-2.391-1.267l-.564 1.92zm1.487-.41l-1.184 1.857 1.686 1.076 1.184-1.856-1.686-1.076zm.385 1.707a4.5 4.5 0 00-1.763-1.15l-.678 1.883a2.5 2.5 0 01.989.642l1.452-1.375zm-1.763-1.15c-.598-.214-1.178-.35-1.729-.377l-.1 1.998c.302.015.682.093 1.151.262l.678-1.882zm-1.72-.376a3.55 3.55 0 00-1.466.221l.702 1.873a1.55 1.55 0 01.646-.098l.118-1.996zm-1.486.23a3.116 3.116 0 00-1.169.8l1.48 1.344a1.14 1.14 0 01.431-.288l-.742-1.857zm-1.169.8c-.382.42-.58.938-.58 1.504h2c0-.074.016-.11.06-.16l-1.48-1.345zm-.58 1.504c0 .695.244 1.334.768 1.82l1.36-1.465c-.073-.068-.128-.155-.128-.355h-2zm.768 1.82c.416.387.923.673 1.49.88l.684-1.88c-.372-.135-.632-.297-.814-.465l-1.36 1.466zm1.541.896c.474.145.937.3 1.389.464l.684-1.88a29.76 29.76 0 00-1.491-.497l-.582 1.913zm1.452.484c.585.17 1.085.39 1.509.656l1.06-1.696a7.97 7.97 0 00-2.011-.88l-.558 1.92zm1.509.656c.397.248.69.54.902.873l1.688-1.074a4.81 4.81 0 00-1.53-1.495l-1.06 1.696zm.92.9c.182.266.306.644.306 1.196h2c0-.857-.196-1.652-.654-2.324l-1.652 1.127zm.306 1.196c0 .619-.148 1.186-.448 1.718l1.744.98a5.439 5.439 0 00.704-2.698h-2zm-.453 1.727c-.255.465-.664.868-1.286 1.196l.934 1.77c.914-.483 1.635-1.146 2.106-2.004l-1.754-.962zm-1.276 1.192c-.561.288-1.349.465-2.423.465v2c1.273 0 2.404-.207 3.337-.687l-.914-1.778zm9.552-12.04l.997-.078a1 1 0 00-.997-.921v1zm.256 3.233l-.97.242a1 1 0 001.967-.321l-.997.079zm-.128-.512l-.917-.399a1.002 1.002 0 00-.053.641l.97-.242zm2.08-2.336l.515.857.014-.008-.529-.85zm6.4.224l-.687.726.02.019.667-.745zm1.248 2.848h1v-.018l-1 .018zm0 9.792v1a1 1 0 001-1h-1zm-3.008 0h-1a1 1 0 001 1v-1zm0-8.736h1v-.03l-1 .03zm-.64-1.76l-.774.633.033.038.741-.671zm-5.376 1.696l-.899-.437a.192.192 0 00-.01.021l.909.416zm-.512 8.8v1a1 1 0 001-1h-1zm-2.976 0h-1a1 1 0 001 1v-1zm0-13.248v-1a1 1 0 00-1 1h1zm1.659.079l.256 3.232 1.994-.158-.256-3.232-1.994.158zm2.223 2.91l-.128-.512-1.94.485.128.512 1.94-.485zm-.181.13c.34-.782.888-1.404 1.678-1.878l-1.029-1.715c-1.13.678-1.969 1.613-2.483 2.795l1.834.797zm1.692-1.886c.783-.488 1.706-.745 2.799-.745v-2c-1.423 0-2.72.34-3.856 1.047l1.057 1.698zm2.799-.745c1.047 0 1.811.303 2.385.846l1.374-1.453c-1.004-.95-2.288-1.393-3.759-1.393v2zm2.405.865c.586.524.899 1.201.915 2.12l2-.035c-.026-1.427-.545-2.649-1.581-3.576l-1.334 1.491zm.915 2.103v9.792h2v-9.792h-2zm1 8.792h-3.008v2h3.008v-2zm-2.008 1v-8.736h-2v8.736h2zm0-8.766c-.027-.913-.303-1.743-.898-2.401l-1.483 1.342c.215.237.366.58.382 1.118l1.999-.059zm-.866-2.364c-.638-.779-1.584-1.07-2.598-1.07v2c.65 0 .92.178 1.05.337l1.548-1.266zm-2.598-1.07c-.966 0-1.858.272-2.647.816l1.135 1.647a2.58 2.58 0 011.512-.463v-2zm-2.647.816c-.776.535-1.374 1.262-1.804 2.147l1.799.874c.295-.608.678-1.055 1.14-1.374l-1.135-1.647zm-1.814 2.168c-.412.9-.603 1.91-.603 3.008h2c0-.866.151-1.583.422-2.176l-1.819-.832zm-.603 3.008v6.208h2v-6.208h-2zm1 5.208h-2.976v2h2.976v-2zm-1.976 1V83.822h-2V97.07h2zm-1-12.248h2.656v-2h-2.656v2zm19.8 11.768l-.47.883.008.004.462-.887zm-2.4-2.336l-.876.482.012.022.864-.504zm.064-7.616l.865.501.004-.007-.869-.494zm2.464-2.496l-.483-.876-.008.004.491.872zm6.56 0l-.56.829.015.01.545-.84zm1.952 1.984l.936.35a1 1 0 00-.072-.854l-.864.504zm-.192.512l-.995-.102a1 1 0 001.931.453l-.936-.351zm.288-2.816v-1a1 1 0 00-.995.898l.995.102zm2.752 0h1a1 1 0 00-1-1v1zm0 13.248v1a1 1 0 001-1h-1zm-2.976 0h-1a1 1 0 001 1v-1zm0-3.456l.923-.385a1 1 0 00-1.923.385h1zm.32.768l.928.371a1.004 1.004 0 00-.005-.756l-.923.385zm-.576.832l-.753-.659-.003.004.756.655zm-1.152.992l-.571-.821-.017.012.588.809zm-1.632.864l.326.945.028-.01-.354-.935zm.736-2.56l-.421-.907.421.907zm1.472-1.152l-.784-.62-.004.004.788.616zm.832-1.824l.978.207c.014-.068.022-.138.022-.207h-1zm0-2.592h1a1.02 1.02 0 00-.034-.258l-.966.258zm-.896-1.664l-.755.656.015.016.74-.672zm-1.536-1.12l-.421.907.027.012.394-.92zm-4.16.16l-.502-.865.502.865zm-1.6 1.6l-.86-.51-.012.02.872.49zm.032 4.736l.866-.5-.866.5zm3.04 3.736c-1.089 0-2.059-.233-2.93-.687l-.924 1.774c1.177.613 2.467.913 3.854.913v-2zm-2.923-.683c-.831-.442-1.497-1.086-2.005-1.957l-1.728 1.008c.687 1.177 1.62 2.09 2.794 2.715l.939-1.766zm-1.993-1.936c-.477-.865-.74-1.959-.74-3.325h-2c0 1.62.312 3.065.988 4.29l1.752-.965zm-.74-3.325c0-1.33.278-2.42.793-3.306l-1.73-1.004c-.723 1.246-1.063 2.696-1.063 4.31h2zm.797-3.314c.535-.94 1.23-1.638 2.085-2.119l-.981-1.743c-1.192.671-2.14 1.638-2.843 2.874l1.739.988zm2.077-2.114a5.981 5.981 0 012.942-.74v-2a7.98 7.98 0 00-3.907.988l.965 1.752zm2.942-.74c1.079 0 1.919.249 2.576.693l1.119-1.658c-1.049-.709-2.299-1.035-3.695-1.035v2zm2.591.702c.741.482 1.274 1.035 1.633 1.65l1.728-1.008c-.538-.921-1.306-1.691-2.271-2.319l-1.09 1.677zm1.56.795l-.192.512 1.873.702.192-.512-1.873-.702zm1.74.965l.288-2.816-1.99-.204-.288 2.816 1.99.204zm-.707-1.918h2.752v-2h-2.752v2zm1.752-1V97.07h2V83.822h-2zm1 12.248h-2.976v2h2.976v-2zm-1.976 1v-3.456h-2v3.456h2zm-1.923-3.072l.32.768 1.846-.769-.32-.768-1.846.77zm.314.012c-.02.05-.118.223-.4.545l1.505 1.317c.316-.36.601-.742.752-1.119l-1.857-.743zm-.403.549c-.206.237-.519.514-.967.826l1.142 1.642c.533-.371.988-.756 1.336-1.158l-1.511-1.31zm-.984.838a5.97 5.97 0 01-1.399.738l.709 1.87a7.95 7.95 0 001.866-.99l-1.176-1.618zm-1.37.727c-.498.172-1.078.266-1.754.266v2c.86 0 1.666-.12 2.406-.375l-.652-1.89zm-.954-.198c.872 0 1.691-.163 2.437-.51l-.842-1.813c-.449.208-.975.323-1.595.323v2zm2.437-.51a4.945 4.945 0 001.838-1.442l-1.575-1.233a2.947 2.947 0 01-1.105.862l.842 1.814zm1.835-1.438a5.346 5.346 0 001.026-2.237l-1.956-.415c-.121.569-.338 1.032-.638 1.411l1.568 1.242zm1.048-2.444v-2.592h-2v2.592h2zm-.034-2.85a4.943 4.943 0 00-1.122-2.079l-1.48 1.345c.314.346.538.757.67 1.25l1.932-.516zm-1.108-2.062a5.199 5.199 0 00-1.896-1.383l-.788 1.838c.459.197.847.48 1.175.857l1.509-1.312zm-1.869-1.371a5.65 5.65 0 00-2.405-.51v2c.595 0 1.11.114 1.563.324l.842-1.814zm-2.405-.51a5.26 5.26 0 00-2.678.712l1.004 1.73a3.258 3.258 0 011.674-.441v-2zm-2.678.712a5.422 5.422 0 00-1.958 1.954l1.72 1.021a3.42 3.42 0 011.242-1.245l-1.004-1.73zm-1.97 1.974c-.481.857-.704 1.831-.704 2.89h2c0-.774.161-1.4.447-1.909l-1.743-.98zm-.704 2.89c0 1.02.244 1.972.741 2.836l1.733-.998a3.603 3.603 0 01-.474-1.837h-2zm.741 2.836a5.522 5.522 0 001.988 2.025l1.021-1.72a3.53 3.53 0 01-1.276-1.303l-1.733.998zm1.988 2.025a5.251 5.251 0 002.719.748v-2a3.25 3.25 0 01-1.698-.468l-1.021 1.72zm20.061 1.508l-.456.89.009.004.447-.894zm-2.144-1.888l-.98-.203c-.053.258-.002.526.141.747l.839-.544zm.192-.928h1a1 1 0 00-1.98-.203l.98.203zm0 9.568v1a1 1 0 001-1h-1zm-2.944 0h-1a1 1 0 001 1v-1zm0-19.808v-1a1 1 0 00-1 1h1zm2.56 0l.992-.122a1 1 0 00-.992-.878v1zm.416 3.392l-.946.326a1 1 0 001.938-.448l-.992.122zm-.32-.928l-.785-.62a1 1 0 00-.161.946l.946-.326zm9.056-1.92l-.52.854.008.005.512-.86zm2.304 9.952l.86.51-.86-.51zm-2.56 2.432l.461.887.007-.003-.468-.884zm-1.888-2.112l.479.878.009-.005-.488-.873zm1.728-1.632l.848.53.007-.012-.855-.518zm.032-4.736l-.867.499.007.011.86-.51zm-1.632-1.664l-.523.852.012.008.511-.86zm-4.32-.16l-.435-.9.435.9zm-1.536 1.248l.784.62.012-.015-.796-.605zm-.864 1.792l-.97-.243a.998.998 0 00-.03.243h1zm0 2.208h-1a.99.99 0 00.012.154l.988-.154zm.768 1.824l.796-.605-.796.605zm1.504 1.248l-.448.894.013.006.435-.9zm2.56 1.816c-.84 0-1.659-.195-2.465-.599l-.894 1.79a7.438 7.438 0 003.359.809v-2zm-2.457-.594c-.776-.398-1.353-.914-1.76-1.542l-1.678 1.088c.616.95 1.469 1.693 2.527 2.234l.911-1.78zm-1.62-.796l.192-.928-1.959-.405-.192.928 1.959.405zm-1.787-1.13v9.568h2V93.87h-2zm1 8.568h-2.944v2h2.944v-2zm-1.944 1V83.63h-2v19.808h2zm-1-18.808h2.56v-2h-2.56v2zm1.567-.879l.416 3.392 1.985-.243-.416-3.392-1.985.243zm2.354 2.945l-.32-.928-1.891.652.32.928 1.891-.652zm-.48.017c.549-.696 1.252-1.283 2.124-1.757l-.955-1.757c-1.09.593-2.009 1.35-2.739 2.275l1.57 1.24zm2.124-1.757c.822-.446 1.754-.678 2.819-.678v-2c-1.368 0-2.633.301-3.774.921l.955 1.757zm2.819-.678c1.068 0 1.995.255 2.808.75l1.04-1.708c-1.15-.7-2.442-1.042-3.848-1.042v2zm2.816.755c.841.501 1.506 1.198 2 2.112l1.76-.95c-.659-1.22-1.572-2.187-2.736-2.88l-1.024 1.718zm2 2.112c.484.897.744 1.976.744 3.269h2c0-1.566-.317-2.983-.984-4.22l-1.76.95zm.744 3.269c0 1.282-.276 2.337-.789 3.202l1.721 1.02c.725-1.226 1.068-2.646 1.068-4.222h-2zm-.789 3.202a5.387 5.387 0 01-2.167 2.058l.936 1.768a7.391 7.391 0 002.952-2.807l-1.721-1.019zm-2.161 2.055c-.905.47-1.96.719-3.186.719v2c1.504 0 2.882-.307 4.109-.945l-.923-1.774zm-3.762.35a5.802 5.802 0 002.815-.697l-.958-1.756a3.8 3.8 0 01-1.857.454v2zm2.824-.702a5.71 5.71 0 002.088-1.975l-1.696-1.06a3.713 3.713 0 01-1.368 1.289l.976 1.746zm2.095-1.987c.527-.87.785-1.84.785-2.886h-2c0 .704-.169 1.312-.495 1.85l1.71 1.036zm.785-2.886c0-1.052-.24-2.022-.748-2.879l-1.72 1.021c.302.51.468 1.118.468 1.858h2zm-.742-2.867a5.523 5.523 0 00-1.988-2.025l-1.021 1.72c.532.315.954.744 1.276 1.303l1.733-.998zm-1.976-2.018c-.83-.509-1.76-.755-2.762-.755v2c.661 0 1.225.158 1.717.46l1.045-1.705zm-2.762-.755c-.901 0-1.746.176-2.515.547l.869 1.801c.468-.225 1.01-.348 1.646-.348v-2zm-2.515.547a5.178 5.178 0 00-1.897 1.544l1.592 1.21a3.18 3.18 0 011.174-.953l-.869-1.8zm-1.885 1.528a5.654 5.654 0 00-1.05 2.17l1.94.485a3.667 3.667 0 01.678-1.413l-1.568-1.242zm-1.08 2.413v2.208h2v-2.208h-2zm.012 2.362c.131.841.451 1.605.96 2.275l1.592-1.21a2.98 2.98 0 01-.576-1.374l-1.976.31zm.96 2.275a5.248 5.248 0 001.853 1.537l.894-1.789a3.256 3.256 0 01-1.155-.958l-1.592 1.21zm1.865 1.543a5.505 5.505 0 002.419.548v-2c-.558 0-1.07-.117-1.55-.349l-.869 1.801zm13.388-22.692v-1a1 1 0 00-1 1h1zm2.687 0h1a1 1 0 00-1-1v1zm0 18.304v1a1 1 0 001-1h-1zm-2.687 0h-1a1 1 0 001 1v-1zm.064 5.376l.661-.75-.661.75zm0-2.432l.661.75.024-.022-.685-.728zm2.688 0l-.708.707a.98.98 0 00.046.043l.662-.75zm0 2.432l-.662-.75a.362.362 0 00-.022.02l.684.73zm-2.752-22.68h2.687v-2h-2.687v2zm1.687-1v18.304h2V72.782h-2zm1 17.304h-2.687v2h2.687v-2zm-1.687 1V72.782h-2v18.304h2zm.44 4.856c-.35 0-.562-.095-.715-.23l-1.323 1.5c.572.504 1.277.73 2.038.73v-2zm-.715-.23a.556.556 0 01-.206-.466h-2c0 .773.302 1.453.883 1.966l1.323-1.5zm-.206-.466c0-.209.062-.34.206-.466l-1.323-1.5a2.552 2.552 0 00-.883 1.966h2zm.23-.488c.155-.146.359-.24.691-.24v-2c-.778 0-1.492.247-2.062.784l1.371 1.456zm.691-.24c.298 0 .471.086.604.219l1.415-1.414c-.55-.55-1.251-.805-2.019-.805v2zm.65.262a.556.556 0 01.205.466h2a2.55 2.55 0 00-.882-1.966l-1.323 1.5zm.205.466a.556.556 0 01-.205.466l1.323 1.5a2.55 2.55 0 00.882-1.966h-2zm-.227.486c-.13.122-.311.21-.628.21v2c.749 0 1.443-.232 1.995-.75l-1.367-1.46z" fill="#fff" mask="url(#a)"/></g><path d="M181.029 2.292c53.674 26.073 43.913 75.286 44.629 97.35m0 0c.106 3.275.443 5.952 1.253 7.866 6.264 14.809 21.037-10.513 11.427-11.26-5.327-.413-5.562-.368-12.68 3.394zm0 0c-5.724 3.025-15.9 8.453-36.755 17.979C142.114 138.993 28.449 126.285 1.5 96.249" stroke="#FFEE56" stroke-width="3" stroke-linecap="round"/><defs><filter id="filter0_d_1110_3840" x="35.383" y="4.302" width="147.613" height="103.136" filterUnits="userSpaceOnUse" color-interpolation-filters="sRGB"><feFlood flood-opacity="0" result="BackgroundImageFix"/><feColorMatrix in="SourceAlpha" values="0 0 0 0 0 0 0 0 0 0 0 0 0 0 0 0 0 0 127 0" result="hardAlpha"/><feOffset/><feGaussianBlur stdDeviation="2"/><feComposite in2="hardAlpha" operator="out"/><feColorMatrix values="0 0 0 0 1 0 0 0 0 1 0 0 0 0 1 0 0 0 1 0"/><feBlend in2="BackgroundImageFix" result="effect1_dropShadow_1110_3840"/><feBlend in="SourceGraphic" in2="effect1_dropShadow_1110_3840" result="shape"/></filter></defs></svg>