<svg width="180" height="180" fill="none" xmlns="http://www.w3.org/2000/svg"><circle cx="90" cy="90" r="90" fill="#CE2073"/><path d="M43.801 100h-7.526V79.416c0-.83.017-1.944.05-3.34.034-1.428.083-2.674.15-3.737-.166.2-.532.565-1.097 1.096-.531.499-1.03.947-1.495 1.346l-4.087 3.29-3.638-4.536 11.463-9.12h6.18V100zm34.602-17.793c0 3.821-.415 7.094-1.246 9.819-.797 2.724-2.11 4.818-3.937 6.28-1.827 1.461-4.253 2.192-7.276 2.192-4.287 0-7.427-1.611-9.42-4.834-1.994-3.223-2.99-7.709-2.99-13.457 0-3.82.398-7.094 1.196-9.818.797-2.758 2.11-4.868 3.937-6.33 1.827-1.462 4.253-2.193 7.276-2.193 4.254 0 7.394 1.612 9.42 4.835 2.027 3.223 3.04 7.725 3.04 13.506zm-17.394 0c0 4.054.35 7.11 1.047 9.17.698 2.028 1.994 3.04 3.888 3.04 1.86 0 3.156-1.013 3.887-3.04.731-2.026 1.096-5.083 1.096-9.17 0-4.053-.365-7.11-1.096-9.17-.73-2.06-2.027-3.09-3.888-3.09-1.893 0-3.19 1.03-3.887 3.09-.698 2.06-1.047 5.116-1.047 9.17zm45.916 0c0 3.821-.415 7.094-1.246 9.819-.797 2.724-2.11 4.818-3.937 6.28-1.828 1.461-4.253 2.192-7.277 2.192-4.286 0-7.426-1.611-9.42-4.834-1.993-3.223-2.99-7.709-2.99-13.457 0-3.82.399-7.094 1.196-9.818.798-2.758 2.11-4.868 3.938-6.33 1.827-1.462 4.253-2.193 7.276-2.193 4.253 0 7.393 1.612 9.42 4.835s3.04 7.725 3.04 13.506zm-17.394 0c0 4.054.349 7.11 1.047 9.17.697 2.028 1.993 3.04 3.887 3.04 1.861 0 3.157-1.013 3.888-3.04.73-2.026 1.096-5.083 1.096-9.17 0-4.053-.365-7.11-1.096-9.17-.731-2.06-2.027-3.09-3.888-3.09-1.894 0-3.19 1.03-3.887 3.09-.698 2.06-1.047 5.116-1.047 9.17zm25.364 16.849h7.152v1.744h-7.152v-1.744zm-.816-11.072h5.68v1.696h-5.68v-1.696zm.432-1.664l2.16.416a18.603 18.603 0 01-1.584 2.272 17.7 17.7 0 01-2.016 2.096c-.747.661-1.6 1.275-2.56 1.84a3.546 3.546 0 00-.384-.512c-.16-.192-.326-.379-.496-.56a3.4 3.4 0 00-.48-.432c.885-.47 1.669-.987 2.352-1.552a12.817 12.817 0 001.792-1.76c.501-.619.906-1.221 1.216-1.808zm4.64 1.664h.352l.32-.096 1.328.688A14.652 14.652 0 01119.327 92a15.652 15.652 0 01-2.544 2.768 17.767 17.767 0 01-3.088 2.144 21.701 21.701 0 01-3.456 1.52 4.528 4.528 0 00-.304-.592 12.954 12.954 0 00-.4-.624 3.66 3.66 0 00-.416-.512c1.109-.31 2.181-.73 3.216-1.264a16.808 16.808 0 002.896-1.904 14.275 14.275 0 002.352-2.4 11.057 11.057 0 001.568-2.832v-.32zm-7.168 3.504l1.44-1.232c.373.256.762.544 1.168.864.416.32.805.645 1.168.976.373.32.677.624.912.912l-1.552 1.376a7.544 7.544 0 00-.832-.928 18.106 18.106 0 00-1.136-1.04c-.406-.341-.795-.65-1.168-.928zm9.184 2.704h1.984v7.248h-1.984v-7.248zm-5.456 0h6.416v1.728h-6.416v5.504h-1.936V95.6l1.472-1.408h.464zm15.44-6h8.768v1.504h-8.768v-1.504zm.416 2.144h8.016v1.44h-8.016v-1.44zm-.736 2.128h9.392v1.568h-9.392v-1.568zm6.464-6.08l1.92.448-.64 1.04c-.203.33-.39.613-.56.848l-1.488-.432c.138-.277.277-.597.416-.96.149-.363.266-.677.352-.944zm-5.136.56l1.52-.512c.181.277.357.581.528.912.181.33.309.619.384.864l-1.6.576a5.769 5.769 0 00-.336-.896 8.686 8.686 0 00-.496-.944zm6.528 7.376l1.456 1.024c-.352.373-.731.741-1.136 1.104-.395.363-.747.672-1.056.928l-1.232-.928c.202-.181.426-.395.672-.64.245-.245.48-.496.704-.752a9.65 9.65 0 00.592-.736zm-7.536.928l1.296-.864c.288.288.586.619.896.992.309.363.544.683.704.96l-1.376.96a7.557 7.557 0 00-.656-1.008 9.928 9.928 0 00-.864-1.04zm-.944 3.6a36.37 36.37 0 001.728-.816c.661-.33 1.338-.677 2.032-1.04l.496 1.552c-.566.33-1.147.667-1.744 1.008-.598.33-1.152.635-1.664.912l-.848-1.616zm4.4-9.632h1.856v10.32c0 .427-.048.763-.144 1.008a1.027 1.027 0 01-.528.592c-.267.149-.592.24-.976.272-.374.043-.811.064-1.312.064a5.789 5.789 0 00-.192-.88 4.55 4.55 0 00-.32-.832l.816.032h.544c.106 0 .176-.021.208-.064s.048-.112.048-.208V89.216zm1.744 5.104c.245.715.56 1.387.944 2.016A7.22 7.22 0 00138.687 98c.544.48 1.157.859 1.84 1.136a4.84 4.84 0 00-.432.464c-.15.181-.299.368-.448.56a4.585 4.585 0 00-.336.528 6.796 6.796 0 01-1.856-1.472 10.323 10.323 0 01-1.392-2.096 14.957 14.957 0 01-.96-2.512l1.248-.288zm-10.848-4.592h5.296v1.776h-5.296v-1.776zm1.952-3.328h1.728v15.024h-1.728V86.4zm-.032 4.544l1.056.352c-.107.64-.246 1.301-.416 1.984a33.34 33.34 0 01-.576 2 18.26 18.26 0 01-.704 1.824 8.078 8.078 0 01-.8 1.456 5.962 5.962 0 00-.4-.864 9.925 9.925 0 00-.464-.816c.256-.352.501-.763.736-1.232.234-.47.453-.97.656-1.504a18.24 18.24 0 00.528-1.616c.16-.555.288-1.083.384-1.584zm1.68 1.152c.085.107.218.299.4.576.192.267.394.56.608.88.213.31.405.603.576.88.181.267.304.453.368.56l-.992 1.376a29.936 29.936 0 00-.368-.816c-.15-.32-.315-.65-.496-.992a39.756 39.756 0 00-.496-.96c-.15-.299-.283-.544-.4-.736l.8-.768z" fill="#FFEE56"/><path d="M147.951 88.816c.49.064 1.04.112 1.648.144.618.021 1.242.032 1.872.032a47.4 47.4 0 001.84-.064 57.78 57.78 0 001.52-.128v2.064c-.491.043-1.03.08-1.616.112a49.89 49.89 0 01-3.632 0 53.776 53.776 0 01-1.632-.112v-2.048zm1.28 6.832a8.57 8.57 0 00-.144.72c-.032.203-.048.41-.048.624 0 .17.042.33.128.48.085.139.213.261.384.368.181.096.41.17.688.224.288.043.634.064 1.04.064.714 0 1.386-.032 2.016-.096a26.616 26.616 0 002-.32l.032 2.16c-.512.096-1.104.171-1.776.224-.662.053-1.446.08-2.352.08-1.376 0-2.4-.23-3.072-.688-.672-.47-1.008-1.115-1.008-1.936 0-.31.021-.63.064-.96.053-.341.122-.715.208-1.12l1.84.176zm-3.744-7.904a4.374 4.374 0 00-.144.448c-.054.192-.107.379-.16.56-.043.181-.075.32-.096.416a15.97 15.97 0 01-.16.88c-.064.352-.134.752-.208 1.2-.064.437-.128.885-.192 1.344-.064.459-.118.901-.16 1.328-.032.427-.048.8-.048 1.12v.512c.01.192.032.368.064.528.074-.181.154-.363.24-.544l.256-.544c.085-.192.16-.373.224-.544l.992.784c-.15.437-.304.907-.464 1.408-.15.501-.288.976-.416 1.424-.118.437-.208.8-.272 1.088a8.79 8.79 0 00-.064.4c-.011.15-.016.267-.016.352v.304c.01.128.021.245.032.352l-1.856.128c-.16-.555-.304-1.29-.432-2.208a22.191 22.191 0 01-.192-3.024c0-.597.026-1.205.08-1.824.053-.619.117-1.21.192-1.776.074-.576.144-1.099.208-1.568.074-.47.138-.859.192-1.168.021-.224.048-.475.08-.752.042-.288.069-.56.08-.816l2.24.192zm-96.191 28.664a1.355 1.355 0 001.368 1.368c.384 0 .712-.128.984-.384.272-.272.408-.6.408-.984s-.136-.712-.408-.984a1.341 1.341 0 00-.984-.408c-.368 0-.688.136-.96.408-.272.272-.408.6-.408.984zm-1.488 0c0-.528.128-1.008.384-1.44.272-.448.624-.8 1.056-1.056a2.727 2.727 0 011.416-.384c.528 0 1.008.128 1.44.384.448.256.8.608 1.056 1.056.256.432.384.912.384 1.44 0 .512-.128.984-.384 1.416a3.033 3.033 0 01-1.056 1.056 2.772 2.772 0 01-1.44.384c-.512 0-.984-.128-1.416-.384a3.328 3.328 0 01-1.056-1.056 2.727 2.727 0 01-.384-1.416zm2.904 1.896a4.01 4.01 0 00-.288.816c-.08.304-.16.584-.24.84a33.217 33.217 0 01-.504 1.992c-.208.72-.456 1.472-.744 2.256-.288.784-.632 1.56-1.032 2.328a14.694 14.694 0 01-1.32 2.16c-.72.96-1.56 1.856-2.52 2.688a19.856 19.856 0 01-3.216 2.256 21.222 21.222 0 01-3.912 1.704l-2.616-2.88c1.6-.384 2.976-.856 4.128-1.416 1.152-.56 2.152-1.2 3-1.92a16.297 16.297 0 002.28-2.304c.528-.672.976-1.4 1.344-2.184.384-.784.696-1.568.936-2.352.256-.8.432-1.544.528-2.232h-11.16c-.56 0-1.104.008-1.632.024a17.5 17.5 0 00-1.224.072v-3.384a23.602 23.602 0 001.92.168c.368.016.68.024.936.024h11.112c.24 0 .528-.008.864-.024a4.15 4.15 0 001.008-.168l2.352 1.536zm7.968 14.736c.144-.304.232-.568.264-.792a5.48 5.48 0 00.048-.768v-13.008c0-.304-.016-.624-.048-.96a8.86 8.86 0 00-.096-.96 7.562 7.562 0 00-.12-.816h3.768c-.064.464-.12.92-.168 1.368-.048.448-.072.904-.072 1.368v12.48c.976-.288 2.016-.68 3.12-1.176a31.239 31.239 0 003.36-1.8 27.501 27.501 0 003.192-2.304 19.05 19.05 0 002.664-2.664l1.704 2.712c-1.632 1.968-3.656 3.672-6.072 5.112-2.4 1.424-5.016 2.6-7.848 3.528-.16.064-.368.144-.624.24s-.52.232-.792.408l-2.28-1.968zm37.896-18.672c.208.288.424.632.648 1.032.24.4.472.8.696 1.2.224.4.408.752.552 1.056l-1.92.84a52.075 52.075 0 00-.912-1.68 16.194 16.194 0 00-.984-1.656l1.92-.792zm2.832-1.08c.208.304.432.664.672 1.08.24.4.472.8.696 1.2.24.384.432.712.576.984l-1.92.816a23.586 23.586 0 00-.912-1.68 18.025 18.025 0 00-1.008-1.608l1.896-.792zm-14.976 17.976V118.28a21.333 21.333 0 00-.096-1.92 5.313 5.313 0 00-.096-.84h3.576c-.064.352-.12.8-.168 1.344-.032.528-.048 1-.048 1.416v12.144c0 .48.072.872.216 1.176.144.304.432.52.864.648.448.128 1.104.192 1.968.192.848 0 1.696-.032 2.544-.096.864-.064 1.72-.16 2.568-.288a72.585 72.585 0 002.472-.408l-.096 3.24c-.656.096-1.4.184-2.232.264-.832.08-1.696.144-2.592.192-.896.048-1.776.072-2.64.072-1.36 0-2.456-.088-3.288-.264-.832-.16-1.464-.408-1.896-.744a2.452 2.452 0 01-.84-1.296c-.144-.528-.216-1.144-.216-1.848zm15.096-10.536c-.096.16-.224.368-.384.624-.144.24-.272.464-.384.672-.272.496-.6 1.056-.984 1.68-.384.624-.8 1.264-1.248 1.92-.448.656-.912 1.28-1.392 1.872a14.637 14.637 0 01-1.344 1.512l-2.64-1.56c.528-.464 1.04-.992 1.536-1.584.512-.608.968-1.2 1.368-1.776.4-.576.704-1.072.912-1.488-.208.032-.592.112-1.152.24l-2.04.408-2.592.528a222.555 222.555 0 00-5.64 1.128c-.896.176-1.704.344-2.424.504-.72.144-1.296.264-1.728.36l-.6-3.144c.48-.064 1.088-.152 1.824-.264a1205.7 1205.7 0 002.52-.432c.944-.16 1.92-.336 2.928-.528 1.008-.208 2-.4 2.976-.576.992-.192 1.92-.376 2.784-.552l2.28-.456c.64-.144 1.112-.248 1.416-.312l.96-.264c.288-.08.536-.184.744-.312l2.304 1.8zm8.256-4.968c.416.288.904.64 1.464 1.056.56.416 1.136.872 1.728 1.368.608.48 1.176.952 1.704 1.416.528.464.96.88 1.296 1.248l-2.448 2.496a21.01 21.01 0 00-1.2-1.2 52.555 52.555 0 00-1.608-1.44 61.294 61.294 0 00-1.704-1.416 30.878 30.878 0 00-1.488-1.128l2.256-2.4zm-3 15.984a25.417 25.417 0 003.528-.744 24.598 24.598 0 003.072-1.104 27.932 27.932 0 002.592-1.296 23.21 23.21 0 003.744-2.784 24.27 24.27 0 002.976-3.24c.848-1.136 1.52-2.24 2.016-3.312l1.872 3.384a21.84 21.84 0 01-2.256 3.216 25.775 25.775 0 01-3 3.072 25.641 25.641 0 01-3.624 2.592c-.816.496-1.696.968-2.64 1.416-.944.432-1.944.816-3 1.152-1.04.352-2.128.624-3.264.816l-2.016-3.168zm28.752-.048v-13.8c0-.416-.024-.896-.072-1.44a11.176 11.176 0 00-.168-1.44h3.744c-.048.416-.096.88-.144 1.392-.048.496-.072.992-.072 1.488v13.8c0 .224.008.544.024.96.016.4.048.816.096 1.248.048.432.08.816.096 1.152h-3.744c.064-.48.12-1.04.168-1.68.048-.64.072-1.2.072-1.68zm2.568-10.464c.8.208 1.696.48 2.688.816.992.32 1.992.664 3 1.032s1.952.736 2.832 1.104c.896.352 1.64.68 2.232.984l-1.368 3.312a32.96 32.96 0 00-2.232-1.056 58.386 58.386 0 00-2.496-1.056 59.378 59.378 0 00-2.472-.936c-.8-.288-1.528-.544-2.184-.768v-3.432zm-92.28-83.144h1.936v4.72c0 .693-.021 1.456-.064 2.288-.032.821-.107 1.67-.224 2.544a19.636 19.636 0 01-.512 2.528 10.1 10.1 0 01-.896 2.224 2.964 2.964 0 00-.512-.352c-.213-.128-.432-.25-.656-.368a4.378 4.378 0 00-.56-.24c.341-.619.608-1.29.8-2.016.203-.736.352-1.488.448-2.256.096-.779.16-1.536.192-2.272a48.47 48.47 0 00.048-2.064v-4.736zm1.44 0H56.4v4.32H45.264v-1.632h9.2v-1.072h-9.2v-1.616zm4.384 5.424h1.888v6.144c0 .32.053.528.16.624.107.085.357.128.752.128h2.304c.213 0 .373-.037.48-.112.117-.075.197-.213.24-.416a6.05 6.05 0 00.128-.928c.213.139.48.277.8.416.33.128.63.224.896.288-.064.63-.181 1.125-.352 1.488-.17.363-.416.613-.736.752-.32.15-.747.224-1.28.224h-2.72c-.672 0-1.195-.075-1.568-.224a1.301 1.301 0 01-.784-.752c-.139-.352-.208-.843-.208-1.472v-6.16zm3.648-1.392l1.52 1.232c-.736.256-1.557.485-2.464.688-.907.203-1.835.379-2.784.528a70.9 70.9 0 01-2.784.352 7.322 7.322 0 00-.208-.688 4.208 4.208 0 00-.288-.672c.63-.064 1.27-.15 1.92-.256a71.195 71.195 0 001.92-.336c.63-.128 1.21-.261 1.744-.4a18.15 18.15 0 001.424-.448zm-7.104 3.744l9.472-1.376.288 1.536-9.456 1.408-.304-1.568zm-.352 2.56l10.88-1.584.288 1.52-10.88 1.648-.288-1.584zm17.152-9.264h10.256v1.536H62.992V39.16zm4 .752l2.208.128c-.15.427-.325.843-.528 1.248-.192.405-.363.757-.512 1.056l-1.552-.272c.085-.33.165-.693.24-1.088.075-.405.123-.763.144-1.072zm2.704-2.512l1.936.416c-.213.341-.427.672-.64.992-.213.32-.405.597-.576.832l-1.616-.384c.107-.181.213-.379.32-.592.117-.224.224-.443.32-.656.107-.224.192-.427.256-.608zm-5.2.576l1.504-.56c.213.245.421.523.624.832.213.31.357.587.432.832l-1.6.624a4.978 4.978 0 00-.384-.848 6.272 6.272 0 00-.576-.88zm-2.064 5.664v5.904H60.56v-4.128h-1.856V43.64h3.728zm0 5.072c.33.523.795.907 1.392 1.152.597.245 1.312.384 2.144.416.47.021 1.024.037 1.664.048.65 0 1.333-.005 2.048-.016a65.824 65.824 0 003.936-.176 14.322 14.322 0 00-.464 1.296 7.554 7.554 0 00-.144.656c-.48.032-1.03.053-1.648.064-.619.021-1.253.032-1.904.032a61.675 61.675 0 01-3.52-.048c-.981-.043-1.819-.197-2.512-.464-.693-.256-1.307-.693-1.84-1.312-.352.299-.715.608-1.088.928-.363.32-.763.65-1.2.992l-.944-2a33.3 33.3 0 001.168-.736c.405-.267.795-.544 1.168-.832h1.744zm-3.712-9.776l1.424-1.152c.33.213.667.464 1.008.752.341.277.661.565.96.864.299.288.539.555.72.8l-1.52 1.28a5.222 5.222 0 00-.672-.832 12.477 12.477 0 00-.928-.896c-.341-.31-.672-.581-.992-.816zm7.184 6.112v.848h4.352v-.848h-4.352zm0 2.128v.832h4.352v-.832h-4.352zm0-4.24v.832h4.352v-.832h-4.352zm-1.808-1.392h8.064V49.4h-8.064v-7.856zm22.08-3.728c.139.192.288.421.448.688.16.267.31.533.448.8.15.267.277.501.384.704l-1.296.56c-.16-.33-.357-.704-.592-1.12a10.795 10.795 0 00-.656-1.104l1.264-.528zm1.888-.72c.15.203.304.443.464.72.16.267.315.533.464.8.16.256.283.475.368.656l-1.264.56c-.17-.341-.373-.72-.608-1.136a9.923 9.923 0 00-.688-1.072l1.264-.528zm-8.48 2.768a7.265 7.265 0 00-.144-.64 11.818 11.818 0 00-.176-.576l2.256-.368c.021.16.043.357.064.592.032.235.07.448.112.64.021.16.07.443.144.848l.272 1.472c.107.576.224 1.195.352 1.856.139.661.272 1.333.4 2.016s.25 1.328.368 1.936c.128.608.235 1.147.32 1.616.096.47.165.816.208 1.04.053.235.117.49.192.768.075.277.15.544.224.8l-2.304.416a31.3 31.3 0 01-.112-.864 5.302 5.302 0 00-.112-.752 28.53 28.53 0 00-.176-.992 55.46 55.46 0 00-.288-1.568l-.368-1.888-.384-2.016c-.128-.672-.25-1.301-.368-1.888a90.517 90.517 0 00-.288-1.52 28.25 28.25 0 00-.192-.928zm-4.368 2.032c.256-.021.507-.037.752-.048l.736-.064c.235-.032.565-.075.992-.128l1.472-.224c.555-.085 1.125-.17 1.712-.256.597-.096 1.173-.187 1.728-.272a782.7 782.7 0 001.472-.256l1.024-.176c.256-.053.523-.107.8-.16.277-.064.512-.128.704-.192l.384 2.112c-.17.01-.4.037-.688.08-.288.043-.55.08-.784.112-.288.043-.667.101-1.136.176-.459.064-.97.144-1.536.24-.565.085-1.141.176-1.728.272-.587.096-1.147.187-1.68.272a58.11 58.11 0 00-1.408.24l-.912.144c-.256.053-.496.107-.72.16a10.39 10.39 0 00-.752.176l-.432-2.208zm.016 4.704c.213-.01.48-.032.8-.064l.864-.112a331.428 331.428 0 002.768-.432 220.67 220.67 0 001.872-.304c.64-.107 1.264-.208 1.872-.304.608-.107 1.163-.203 1.664-.288l1.216-.208c.31-.064.603-.128.88-.192.288-.064.539-.128.752-.192l.432 2.112a6.65 6.65 0 00-.784.096c-.299.043-.603.09-.912.144-.341.053-.768.123-1.28.208a66.75 66.75 0 00-1.696.272c-.608.096-1.232.197-1.872.304-.64.096-1.253.197-1.84.304-.587.096-1.115.187-1.584.272-.47.075-.837.139-1.104.192l-.928.176c-.267.043-.49.09-.672.144l-.448-2.128zm28.992-6.256c-.075.15-.144.33-.208.544-.053.203-.101.395-.144.576-.085.384-.197.821-.336 1.312-.139.49-.304.997-.496 1.52a13.19 13.19 0 01-.688 1.552 9.768 9.768 0 01-.88 1.44c-.48.63-1.04 1.227-1.68 1.792a13.237 13.237 0 01-2.144 1.504c-.79.437-1.659.81-2.608 1.12L93.296 49.8c1.056-.256 1.968-.57 2.736-.944.779-.384 1.456-.81 2.032-1.28a10.21 10.21 0 001.504-1.536c.352-.448.651-.933.896-1.456.256-.523.464-1.05.624-1.584a9.055 9.055 0 00.352-1.472h-7.456c-.363 0-.72.005-1.072.016-.341.01-.619.027-.832.048v-2.256c.17.01.368.027.592.048.224.021.459.043.704.064.245.01.453.016.624.016h7.392c.16 0 .357-.005.592-.016.235-.021.453-.059.656-.112l1.584 1.008zm6.8 9.12v-9.2c0-.277-.016-.597-.048-.96a7.449 7.449 0 00-.112-.96h2.496c-.032.277-.064.587-.096.928-.032.33-.048.661-.048.992v9.2c0 .15.005.363.016.64.011.267.032.544.064.832.032.288.053.544.064.768h-2.496c.043-.32.08-.693.112-1.12.032-.427.048-.8.048-1.12zm1.712-6.976c.533.139 1.131.32 1.792.544.661.213 1.328.443 2 .688.672.245 1.301.49 1.888.736.597.235 1.093.453 1.488.656l-.912 2.208c-.448-.235-.944-.47-1.488-.704a39.149 39.149 0 00-1.664-.704 39.765 39.765 0 00-1.648-.624 93.888 93.888 0 00-1.456-.512v-2.288zm17.04-4.32c-.053.288-.139.661-.256 1.12-.117.459-.288.976-.512 1.552-.171.395-.368.805-.592 1.232-.213.416-.432.79-.656 1.12a2.43 2.43 0 01.528-.16c.213-.053.432-.09.656-.112.235-.032.443-.048.624-.048.672 0 1.227.192 1.664.576.448.384.672.955.672 1.712v.784l.032.976.032.976c.011.32.016.608.016.864h-1.92c.021-.181.032-.395.032-.64.011-.256.016-.523.016-.8.011-.277.016-.544.016-.8.011-.267.016-.507.016-.72 0-.512-.139-.864-.416-1.056a1.444 1.444 0 00-.896-.304c-.448 0-.901.112-1.36.336a4.24 4.24 0 00-1.136.768c-.235.235-.475.496-.72.784-.235.288-.491.613-.768.976l-1.712-1.28a20.429 20.429 0 001.792-1.856c.512-.597.944-1.19 1.296-1.776.352-.587.64-1.173.864-1.76.16-.427.288-.87.384-1.328a7.73 7.73 0 00.192-1.312l2.112.176zm-6.016 1.472c.405.064.875.112 1.408.144.533.032 1.003.048 1.408.048.704 0 1.472-.016 2.304-.048a53.097 53.097 0 002.56-.16 38.604 38.604 0 002.464-.32l-.016 1.856c-.565.075-1.179.144-1.84.208-.651.053-1.317.101-2 .144-.672.032-1.317.059-1.936.08-.619.01-1.168.016-1.648.016h-.8l-.96-.032c-.331-.021-.645-.043-.944-.064V39.64zm12.672 4.544a14.3 14.3 0 00-.608.208 30.41 30.41 0 00-.688.24c-.224.075-.427.15-.608.224-.512.203-1.12.448-1.824.736-.693.288-1.419.624-2.176 1.008-.48.256-.885.507-1.216.752-.331.245-.581.496-.752.752a1.394 1.394 0 00-.256.816c0 .224.048.41.144.56.096.139.24.25.432.336.192.085.432.144.72.176s.629.048 1.024.048c.683 0 1.435-.037 2.256-.112a25.509 25.509 0 002.288-.336l-.064 2.064c-.341.043-.773.085-1.296.128a25.63 25.63 0 01-1.632.112 41.76 41.76 0 01-1.6.032c-.832 0-1.579-.08-2.24-.24-.661-.16-1.184-.432-1.568-.816-.373-.395-.56-.933-.56-1.616 0-.555.123-1.056.368-1.504a4.714 4.714 0 011.008-1.216 8.964 8.964 0 011.36-.976 26.1 26.1 0 011.472-.816 27.503 27.503 0 012.432-1.136c.352-.15.688-.299 1.008-.448l.896-.4c.288-.139.581-.283.88-.432l.8 1.856z" fill="#fff"/></svg>