<svg width="520" height="82" fill="none" xmlns="http://www.w3.org/2000/svg"><g clip-path="url(#clip0_1156_1898)"><path fill="#fff" d="M0 0h520v82H0z"/><path d="M20.723 69.59V57.74h-7.371v11.85H7.89V57.74H.196v-6.05h7.695V37.641H.196V31.59h7.695V19.74h5.46v11.85h7.372V19.74h5.46v11.85h7.789v6.052h-7.789v14.047h7.789v6.052h-7.789V69.59h-5.46zm0-17.9V37.641h-7.371v14.047h7.37zm50.971 25.734c-5.753 0-10.43-5.184-10.43-11.56V54.466c-.522.058-1.034.116-1.545.116a12.9 12.9 0 01-1.546-.104c-.041 11.455-8.456 20.77-18.814 20.77h-.595v-6.052h.595c7.361 0 13.354-6.641 13.354-14.8v-1.99c-4.124-2.684-6.672-7.625-6.672-12.983V20.458c0-8.354 6.14-15.158 13.678-15.158 7.538 0 13.593 6.804 13.593 15.158v18.965c0 5.335-2.516 10.276-6.588 12.983v13.458c0 3.032 2.224 5.508 4.97 5.508 2.746 0 4.97-2.465 4.97-5.508v-.66h5.46v.66c0 6.376-4.677 11.56-10.43 11.56zm-20.192-38c0 5.022 3.685 9.106 8.217 9.106 4.531 0 8.133-4.084 8.133-9.107v-1.712h-16.35v1.712zm16.35-7.765v-3.425h-16.35v3.425h16.35zm0-9.477V20.47c0-5.022-3.644-9.107-8.133-9.107-4.49 0-8.217 4.085-8.217 9.107v1.712h16.35zm42.431 44.723v-6.051h.595c8.165 0 14.805-7.313 14.805-16.316 0-9.002-6.64-16.408-14.805-16.408H86.677v-6.052h24.201c11.172 0 20.266 10.079 20.266 22.46s-9.094 22.367-20.266 22.367h-.595zm49.009 0v-6.051h.595c9.25 0 16.768-8.297 16.768-18.491v-12.52h-12.32V23.79h12.32V12.416h5.46v11.375h8.123v6.051h-8.123v12.52c0 13.54-9.971 24.543-22.228 24.543h-.595zm-15.651-9.199V19.521h5.461v31.161c1.19-.983 1.9-2.499 1.9-4.154v-.66h5.46v.66c0 6.168-4.52 11.178-10.085 11.178h-2.736zm95.533 11.374c-12.78 0-23.179-11.478-23.179-25.583 0-6.932 2.402-13.365 6.766-18.098.48-.532.992-1.041 1.514-1.527h-24.442V17.82h45.918v6.052h-6.577c-4.699 0-9.136 2.048-12.498 5.785-3.362 3.634-5.22 8.552-5.22 13.851 0 10.773 7.945 19.533 17.718 19.533h.595v6.051h-.595v-.011zm57.539 11.375c-6.463 0-11.715-5.82-11.715-12.983V63.11h-11.892v-6.052h11.892v-3.425h-7.611v-6.052h7.611v-3.737a11.654 11.654 0 01-6.076-3.784l-.397-.463 3.821-4.235.418.463c1.336 1.48 3.101 2.29 4.959 2.29 1.859 0 3.592-.81 4.886-2.29l.408-.475 3.936 4.236-.428.474c-1.671 1.851-3.811 3.17-6.066 3.76v3.738h6.932v6.052h-6.932v3.425h11.119v6.052h-11.119v4.362c0 3.819 2.808 6.931 6.254 6.931 3.445 0 6.254-3.112 6.254-6.93v-.66h5.46v.66c0 7.162-5.252 12.982-11.714 12.982v.023zM251.818 62.44v-6.052h.595c2.14 0 7.11-.567 7.11-5.786V23.12h41.481c2.318 0 4.197-2.129 4.197-4.744 0-2.615-1.879-4.651-4.197-4.651h-41.22V7.672h41.22c5.324 0 9.657 4.802 9.657 10.703 0 5.902-4.333 10.796-9.657 10.796h-36.021v21.43c0 7.082-5.053 11.838-12.57 11.838h-.595zm107.487 18.675c-13.49 0-24.452-12.115-24.452-27.007 0-4.19-3.07-7.591-6.85-7.591-3.779 0-6.849 3.402-6.849 7.59v.66h-5.46v-.66c0-7.52 5.523-13.642 12.309-13.642 2.976 0 5.398-2.685 5.398-5.983 0-3.297-2.474-5.878-5.398-5.878-2.923 0-5.303 2.639-5.303 5.879v.66h-5.461v-.66c0-6.584 4.834-11.942 10.775-11.942 5.941 0 10.858 5.357 10.858 11.942 0 3.355-1.232 6.491-3.393 8.759 3.049 2.523 4.855 6.515 4.855 10.866 0 11.56 8.52 20.955 18.992 20.955h.595v6.052h-.616zm.856-16.015c-6.223 0-11.287-5.612-11.287-12.508V42.444c0-6.897 5.064-12.509 11.287-12.509 6.222 0 11.203 5.612 11.203 12.509v10.148c0 6.896-5.022 12.508-11.203 12.508zm-5.44-10.148c.856 2.442 2.997 4.096 5.44 4.096 2.443 0 4.5-1.677 5.356-4.096h-10.796zm11.182-6.052v-2.858h-11.558V48.9h11.558zm-.397-8.91c-.866-2.36-2.996-3.992-5.345-3.992-2.349 0-4.563 1.644-5.429 3.992h10.774zm-9.271-16.118l3.936-4.235 3.822 4.235-3.822 4.235-3.936-4.235zm-10.858-6.839v-6.052h29.495v6.052h-29.495zm-21.205-5.682l3.821-4.235 3.936 4.236-3.936 4.235-3.821-4.236zm39.267-7.116L367.261 0l3.821 4.235-3.821 4.362-3.822-4.362zm-14.805 0L352.55 0l3.821 4.235-3.821 4.35-3.926-4.35h.01zm40.187 65.32V14.777h5.46V63.34c13.771-1.539 24.473-14.58 24.473-29.992v-.66h5.461v.66c0 19.96-14.659 36.206-32.669 36.206h-2.736.011zm50.47 2.083V12.404h5.461v59.234h-5.461zm8.655-26.545l-.104-6.051h14.022v6.051h-13.918zm39.404 20.192c-6.463 0-11.715-5.82-11.715-12.983V31.73c0-7.151 5.252-12.983 11.715-12.983h21.132c6.462 0 11.714 5.82 11.714 12.983v20.573c0 7.151-5.252 12.983-11.714 12.983H487.35zm0-40.476c-3.446 0-6.254 3.113-6.254 6.931v20.574c0 3.819 2.808 6.931 6.254 6.931h21.132c3.445 0 6.254-3.112 6.254-6.931V31.74c0-3.818-2.809-6.931-6.254-6.931H487.35z" fill="#4A3636"/></g><defs><clipPath id="clip0_1156_1898"><path fill="#fff" d="M0 0h520v82H0z"/></clipPath></defs></svg>