<svg width="356" height="60" fill="none" xmlns="http://www.w3.org/2000/svg"><g clip-path="url(#clip0_1156_1910)"><path fill="#fff" d="M0 0h356v60H0z"/><path d="M20.176 59.233V37.767H.036v-5.96h20.14V19.56H.036V13.6h20.14V.909h5.954V13.6h20.048v5.958H26.13v12.249h20.048v5.959H26.13v21.466h-5.954zm46.164-2.336v-23.71H54.593v-5.96H66.34v-8.02h5.954v8.02h18.933v2.986c0 7.713-6.273 13.991-13.98 13.991h-.65v-5.959h.65c3.255 0 6.193-2.04 7.4-5.059H72.294v23.71H66.34zm38.151.103v-5.96h.649c21.301 0 38.617-17.375 38.617-38.739v-.649h5.954v.65c0 24.644-19.991 44.709-44.571 44.709h-.649v-.012zm-2.983-39.674v-5.959h13.878v5.96h-13.878zm58.12 22.503l19.388-19.404c2.653-2.552 6.216-4.01 9.779-4.01 3.564 0 7.184 1.424 9.871 4.01l19.4 19.415-4.27 4.273-19.388-19.404c-1.446-1.526-3.381-2.335-5.601-2.335s-4.087.809-5.602 2.335l-19.297 19.404-4.269-4.273-.011-.011zm51.652-17.74a7.304 7.304 0 01-5.214-2.154c-1.389-1.378-2.152-3.235-2.152-5.218 0-4.113 3.302-7.463 7.366-7.463 2.015 0 3.883.81 5.226 2.256 1.377 1.288 2.129 3.088 2.129 5.196 0 4.067-3.302 7.371-7.366 7.371l.011.012zm0-9.799c-1.286 0-2.334 1.094-2.334 2.438 0 .639.251 1.288.649 1.687.422.421 1.014.65 1.685.65 1.332 0 2.334-1.004 2.334-2.337 0-.683-.227-1.264-.649-1.686-.478-.478-1.081-.74-1.685-.74v-.012zm61.171 17.182h-41.486v5.959h41.486v-5.959zM287.672 57v-5.96h.649c21.301 0 38.617-17.375 38.617-38.739v-.649h5.954v.65c0 24.644-19.991 44.709-44.571 44.709h-.649v-.012zm-2.983-39.674v-5.959h13.89v5.96h-13.89zm65.201 41.907v-5.96h5.954v5.96h-5.954zm0-14.003V.908h5.954V45.23h-5.954z" fill="#4A3636"/></g><defs><clipPath id="clip0_1156_1910"><path fill="#fff" d="M0 0h356v60H0z"/></clipPath></defs></svg>