<svg width="876" height="48" fill="none" xmlns="http://www.w3.org/2000/svg"><path d="M68.149 7.328c11.206-8.004 22.412-8.004 33.619 0 11.206 8.004 22.412 8.004 33.619 0 11.206-8.004 22.412-8.004 33.618 0 11.207 8.004 22.413 8.004 33.619 0s22.413-8.004 33.619 0 22.412 8.004 33.619 0c11.206-8.004 22.412-8.004 33.619 0 11.206 8.004 22.412 8.004 33.618 0 11.207-8.004 22.413-8.004 33.619 0s22.413 8.004 33.619 0 22.412-8.004 33.619 0c11.206 8.004 22.412 8.004 33.618 0 11.207-8.004 22.413-8.004 33.619 0 11.207 8.004 22.413 8.004 33.619 0s22.413-8.004 33.619 0 22.412 8.004 33.619 0c11.206-8.004 22.412-8.004 33.618 0 11.207 8.004 22.413 8.004 33.619 0 11.207-8.004 22.413-8.004 33.619 0s22.413 8.004 33.619 0 22.412-8.004 33.619 0c11.206 8.004 22.412 8.004 33.618 0 11.207-8.004 22.413-8.004 33.619 0 11.207 8.004 22.413 8.004 33.619 0M1.078 40.344c11.206-8.004 22.413-8.004 33.619 0 11.206 8.003 22.412 8.003 33.619 0 11.206-8.004 22.412-8.004 33.619 0 11.206 8.003 22.412 8.003 33.618 0 11.207-8.004 22.413-8.004 33.619 0 11.206 8.003 22.413 8.003 33.619 0 11.206-8.004 22.412-8.004 33.619 0 11.206 8.003 22.412 8.003 33.619 0 11.206-8.004 22.412-8.004 33.618 0 11.207 8.003 22.413 8.003 33.619 0 11.206-8.004 22.413-8.004 33.619 0 11.206 8.003 22.412 8.003 33.619 0 11.206-8.004 22.412-8.004 33.618 0 11.207 8.003 22.413 8.003 33.619 0 11.207-8.004 22.413-8.004 33.619 0 11.206 8.003 22.413 8.003 33.619 0 11.206-8.004 22.412-8.004 33.619 0 11.206 8.003 22.412 8.003 33.618 0 11.207-8.004 22.413-8.004 33.619 0 11.207 8.003 22.413 8.003 33.619 0 11.206-8.004 22.413-8.004 33.619 0 11.206 8.003 22.412 8.003 33.619 0 11.206-8.004 22.412-8.004 33.618 0 11.207 8.003 22.413 8.003 33.619 0" stroke="#CCE1E4" stroke-width="2" stroke-linecap="round"/></svg>