<svg width="210" height="28" fill="none" xmlns="http://www.w3.org/2000/svg"><g clip-path="url(#clip0_1127_2885)" fill="#4A3636"><path d="M116.751 15.294c0-4.123 3.282-7.493 7.551-7.493s7.579 3.364 7.579 7.493c0 4.128-3.282 7.52-7.579 7.52-4.298 0-7.551-3.307-7.551-7.52zm11.82 0c0-2.577-1.791-4.568-4.269-4.568-2.479 0-4.24 1.991-4.24 4.568 0 2.576 1.761 4.562 4.24 4.562 2.478 0 4.269-1.902 4.269-4.562zM.109 19.124c-.178-.202-.12-.41.057-.585l1.82-1.698c.206-.203.447-.175.596.09 1.371 2.221 3.7 2.896 6.237 2.896 2.536 0 4.745-.675 4.745-3.07 0-2.11-1.555-2.808-5.37-3.28C3.774 12.892.82 11.255.82 7.48c.006-3.392 2.898-5.704 7.677-5.704 2.864 0 5.491.821 7.551 3.043.178.174.15.382-.028.557l-1.79 1.637c-.207.202-.42.174-.597-.028-1.314-1.525-3.047-2.222-5.193-2.222-2.628 0-4.39.877-4.39 2.604s1.4 2.486 5.256 2.953c4.418.467 7.522 1.992 7.522 6.205s-3.253 6.288-7.998 6.288c-3.551 0-6.747-1.08-8.715-3.684l-.006-.006zm32.917-5.911v8.746c0 .265-.149.411-.419.411h-2.386c-.27 0-.42-.146-.42-.41v-8.163c0-2.401-1.015-3.279-2.805-3.279-1.91 0-3.672 1.288-3.7 4.213v7.228c0 .265-.15.411-.42.411H20.49c-.27 0-.418-.146-.418-.41V8.65c0-.264.149-.41.418-.41h2.387c.27 0 .42.146.42.41v1.902c.894-1.727 2.598-2.75 4.595-2.75 2.657 0 5.135 1.344 5.135 5.41zM48.122 8.65c0-.264.15-.41.419-.41h2.387c.27 0 .419.146.419.41v13.315c0 .264-.15.41-.42.41h-2.386c-.27 0-.419-.146-.419-.41v-1.49c-1.073 1.462-2.714 2.34-4.745 2.34-3.821 0-7.046-3.218-7.046-7.521S39.556 7.8 43.377 7.8c2.031 0 3.672.878 4.745 2.368V8.645v.006zm-.029 6.644c0-2.605-1.79-4.596-4.269-4.596-2.478 0-4.24 1.991-4.24 4.596 0 2.604 1.762 4.623 4.24 4.623 2.48 0 4.27-1.963 4.27-4.623zm21.907 0c0 4.303-3.253 7.52-7.046 7.52-2.031 0-3.672-.877-4.745-2.34v6.47c0 .264-.15.41-.419.41h-2.387c-.27 0-.419-.146-.419-.41V8.65c0-.265.15-.411.42-.411h2.386c.27 0 .419.146.419.41v1.525c1.073-1.463 2.714-2.368 4.745-2.368 3.793 0 7.046 3.245 7.046 7.492v-.005zm-3.253 0c0-2.605-1.79-4.596-4.27-4.596-2.478 0-4.24 2.02-4.24 4.652 0 2.633 1.762 4.568 4.24 4.568 2.48 0 4.27-1.964 4.27-4.624zm46.745-2.081v8.746c0 .265-.15.411-.419.411h-2.387c-.27 0-.419-.146-.419-.41v-8.163c0-2.401-1.016-3.279-2.806-3.279-1.91 0-3.672 1.288-3.701 4.213v7.228c0 .265-.149.411-.418.411h-2.387c-.27 0-.419-.146-.419-.41V8.65c0-.264.149-.41.419-.41h2.387c.269 0 .418.146.418.41v1.902c.896-1.727 2.6-2.75 4.596-2.75 2.657 0 5.136 1.344 5.136 5.41zm43.641 0v8.746c0 .265-.15.411-.419.411h-2.387c-.27 0-.419-.146-.419-.41v-8.337c0-2.222-1.016-3.1-2.714-3.1s-3.431 1.289-3.46 4.214v7.228c0 .264-.149.41-.419.41h-2.386c-.27 0-.419-.146-.419-.41v-8.336c0-2.222-1.016-3.1-2.749-3.1-1.732 0-3.373 1.289-3.402 4.213v7.229c0 .264-.149.41-.419.41h-2.387c-.27 0-.419-.146-.419-.41V8.65c0-.265.149-.411.419-.411h2.387c.27 0 .419.146.419.41v1.817c.838-1.665 2.479-2.66 4.475-2.66 1.854 0 3.73.787 4.504 2.953.895-1.873 2.714-2.953 4.866-2.953 2.45 0 4.923 1.344 4.923 5.411l.006-.005zm3.276-9.771c0-1.052.838-1.901 1.968-1.901 1.073 0 1.94.849 1.94 1.9 0 1.053-.867 1.93-1.94 1.93-1.136 0-1.968-.85-1.968-1.93zm3.133 18.934h-2.387c-.27 0-.419-.147-.419-.411V8.651c0-.265.149-.411.419-.411h2.387c.27 0 .419.146.419.41v13.315c0 .264-.149.41-.419.41zm4.039-7.082c0-4.123 3.162-7.493 7.43-7.493 2.33 0 4.206.996 5.732 2.515.178.202.178.382 0 .585l-1.52 1.552c-.178.203-.419.203-.597-.028-.895-1.024-2.06-1.727-3.58-1.727-2.45 0-4.206 2.02-4.206 4.596s1.762 4.623 4.206 4.623c1.492 0 2.685-.703 3.58-1.755.178-.202.39-.236.568-.028l1.555 1.581c.178.203.178.383 0 .557-1.492 1.552-3.402 2.548-5.732 2.548-4.269 0-7.43-3.28-7.43-7.52l-.006-.006zm29.469-2.081v8.746c0 .265-.149.411-.419.411h-2.387c-.27 0-.419-.146-.419-.41v-8.163c0-2.401-1.015-3.279-2.805-3.279-1.791 0-3.432 1.114-3.673 3.628v7.813c0 .265-.149.411-.418.411h-2.387c-.27 0-.419-.146-.419-.41V1.421c0-.264.149-.41.419-.41h2.387c.269 0 .418.146.418.41v9.102c.867-1.727 2.6-2.723 4.568-2.723 2.656 0 5.135 1.345 5.135 5.412zm10.018 5.242c-.425.214-2.892 1.232-2.892-.18V8.651a.417.417 0 00-.419-.411h-2.386a.417.417 0 00-.419.41v10.975c0 1.519 1.256 2.75 2.805 2.75 0 0 1.859.378 4.614-1.057 2.243-1.164.619-3.836-1.303-2.863zm-4.476-13.084c1.326 0 2.33-1.288 1.791-2.711a1.723 1.723 0 00-1.194-1.04c-1.429-.36-2.57.59-2.57 1.822 0 1.08.837 1.93 1.968 1.93h.005zM74.08 13.438C74.08 7.7 78.915 3.02 84.911 3.02S95.687 7.7 95.687 13.438c0 6.114-4.808 10.648-10.775 10.648-5.967 0-10.833-4.534-10.833-10.648zm18.113.028c0-4.04-3.075-7.228-7.28-7.228-4.207 0-7.345 3.189-7.345 7.228 0 4.33 3.075 7.402 7.344 7.402s7.281-3.071 7.281-7.402z"/><path d="M92.87.607l-6.041 3.42a.773.773 0 000 1.35l6.041 3.42c.528.298 1.194-.073 1.194-.675v-6.84c0-.602-.66-.973-1.194-.675zm-15.973 0l6.041 3.42a.773.773 0 010 1.35l-6.041 3.42c-.528.298-1.194-.073-1.194-.675v-6.84c0-.602.66-.973 1.194-.675z"/></g><defs><clipPath id="clip0_1127_2885"><path fill="#fff" transform="translate(0 .5)" d="M0 0h210v27H0z"/></clipPath></defs></svg>