<svg width="255" height="56" fill="none" xmlns="http://www.w3.org/2000/svg"><path fill-rule="evenodd" clip-rule="evenodd" d="M37.098 13.297l-.864-.542c-1.615-1.014-3.45-1.92-5.507-2.713-2.01-.775-3.98-1.179-5.914-1.224h-.005c-1.59-.045-2.893.138-3.94.514l-.011.004-.012.004c-1.043.347-1.907.815-2.61 1.39-.658.577-1.136 1.221-1.452 1.932-.342.767-.521 1.484-.561 2.157v.006c-.08 1.23.25 2.293.995 3.238.864 1.031 2.028 1.982 3.518 2.84 1.56.848 3.19 1.674 4.893 2.477a38.71 38.71 0 015.893 3.308 14.445 14.445 0 014.784 5.012c1.243 2.158 1.656 4.878 1.356 8.07-.155 1.907-.696 3.796-1.605 5.665-.876 1.898-2.133 3.584-3.759 5.056-1.603 1.496-3.597 2.661-5.955 3.513-2.359.87-5.086 1.238-8.157 1.139h-.011a29.606 29.606 0 01-6.708-1.043l-.014-.004-.014-.004a36.273 36.273 0 01-5.85-2.365l-.015-.008-.014-.008a28.863 28.863 0 01-4.85-3.352L0 47.749l4.957-6.947.857.778c.994.902 2.182 1.77 3.568 2.602a23.777 23.777 0 004.386 1.915c1.597.455 3.138.725 4.625.818 1.935-.004 3.604-.32 5.029-.921 1.482-.654 2.627-1.553 3.468-2.686l.003-.005c.886-1.178 1.394-2.522 1.524-4.055.08-1.302-.244-2.395-.948-3.332l-.015-.02-.013-.019c-.725-1.064-1.717-1.998-3.002-2.793l-.018-.011-.017-.012a27.18 27.18 0 00-4.299-2.352l-.004-.002-.004-.002a69.719 69.719 0 01-4.674-2.333l-.006-.003-.006-.003a27.766 27.766 0 01-4.407-3.058 12.446 12.446 0 01-3.292-4.379l-.005-.011-.005-.012c-.754-1.774-.977-3.797-.724-6.033.255-2.938 1.176-5.513 2.786-7.69 1.598-2.162 3.686-3.804 6.24-4.926l.004-.002.004-.001C18.602 1.138 21.478.59 24.622.59h.043c2.317.099 4.456.42 6.412.969 1.92.492 3.68 1.11 5.277 1.857a29.8 29.8 0 014.322 2.455l.815.563-4.393 6.863zM30.81 2.549c-1.87-.526-3.933-.838-6.188-.933-3.021 0-5.756.526-8.202 1.58-2.399 1.053-4.341 2.585-5.828 4.596S8.24 12.197 8 14.975c-.24 2.106-.025 3.95.647 5.53.72 1.58 1.727 2.92 3.022 4.022a26.756 26.756 0 004.245 2.945 68.754 68.754 0 004.605 2.298 28.2 28.2 0 014.461 2.442c1.391.862 2.495 1.891 3.31 3.088.863 1.15 1.247 2.49 1.151 4.022-.144 1.724-.72 3.256-1.727 4.597-.959 1.293-2.254 2.298-3.885 3.016-1.583.67-3.406 1.006-5.468 1.006-1.583-.096-3.214-.383-4.893-.862a24.81 24.81 0 01-4.605-2.011 24.992 24.992 0 01-2.96-2.057 19.48 19.48 0 01-.782-.672L1.38 47.582a27.834 27.834 0 004.677 3.232c1.775.91 3.67 1.676 5.684 2.298 2.063.575 4.221.91 6.476 1.005 2.974.096 5.564-.263 7.77-1.077 2.255-.814 4.126-1.915 5.613-3.304 1.535-1.388 2.71-2.968 3.526-4.74.863-1.772 1.367-3.543 1.51-5.315.288-3.064-.12-5.554-1.223-7.47a13.419 13.419 0 00-4.46-4.668 37.692 37.692 0 00-5.757-3.232 95.771 95.771 0 01-4.965-2.513c-1.583-.91-2.854-1.94-3.813-3.089-.912-1.149-1.32-2.466-1.223-3.95.048-.814.264-1.652.647-2.514.384-.862.96-1.628 1.727-2.298.816-.67 1.799-1.197 2.95-1.58 1.2-.431 2.638-.623 4.317-.575 2.063.048 4.15.48 6.26 1.293 2.11.814 4.006 1.748 5.684 2.801l3.31-5.171a28.78 28.78 0 00-4.173-2.37c-1.535-.718-3.238-1.317-5.109-1.796zm28.668-.862h13.815c2.35 0 4.51.312 6.476.934 2.015.623 3.742 1.532 5.18 2.73a12.157 12.157 0 013.454 4.452c.816 1.724 1.224 3.735 1.224 6.033 0 2.155-.36 4.334-1.08 6.536-.72 2.155-1.87 4.166-3.454 6.033-1.534 1.82-3.55 3.304-6.043 4.453-2.495 1.102-5.493 1.652-8.995 1.652h-7.483L60.27 53.615h-7.195l6.403-51.928zm4.006 33.85L61.181 54.64h-9.27L58.568.66h14.724c2.44 0 4.704.323 6.783.981C82.2 2.3 84.047 3.266 85.6 4.557a13.182 13.182 0 013.734 4.813c.89 1.885 1.32 4.05 1.32 6.466 0 2.27-.38 4.557-1.13 6.854l-.003.007c-.764 2.287-1.983 4.412-3.644 6.371-1.646 1.95-3.788 3.52-6.398 4.722l-.007.003-.008.004c-2.657 1.173-5.804 1.74-9.41 1.74h-6.571zm15.463-12.344l.004-.005c.85-1.116 1.435-2.23 1.778-3.344l.006-.017.005-.017c.408-1.174.591-2.159.591-2.968 0-1.176-.272-2.341-.833-3.505-.53-1.098-1.368-2.008-2.558-2.728l-.01-.007-.012-.007c-1.125-.723-2.687-1.13-4.769-1.13H66.72l-2.123 17.34h6.106c2.093 0 3.767-.364 5.069-1.035 1.371-.707 2.418-1.57 3.175-2.577zm-15.511 4.638L65.81 8.439h7.34c2.206 0 3.98.43 5.324 1.293 1.343.814 2.326 1.867 2.95 3.16.623 1.293.935 2.61.935 3.95 0 .957-.216 2.059-.647 3.304-.384 1.245-1.032 2.466-1.943 3.663-.863 1.149-2.039 2.106-3.526 2.872-1.487.767-3.334 1.15-5.54 1.15h-7.267zm45.95 20.813l-.004-.004c-2.469-2.162-4.424-4.846-5.871-8.032-1.462-3.221-2.178-6.914-2.178-11.054 0-3.29.625-6.64 1.859-10.042 1.241-3.468 3.078-6.638 5.504-9.506 2.449-2.942 5.516-5.302 9.184-7.084 3.714-1.853 7.975-2.763 12.758-2.763 3.282 0 6.468.546 9.552 1.638 3.142 1.096 5.943 2.718 8.395 4.865 2.471 2.165 4.426 4.874 5.872 8.108 1.461 3.22 2.177 6.911 2.177 11.05 0 3.291-.625 6.664-1.859 10.113l-.002.004c-1.241 3.42-3.077 6.587-5.5 9.5l-.002.003-.003.003c-2.45 2.895-5.517 5.23-9.184 7.01-3.668 1.806-7.93 2.69-12.756 2.69-3.282 0-6.468-.546-9.553-1.639a26.193 26.193 0 01-8.385-4.857l-.004-.003zm30.246 2.888c3.55-1.724 6.5-3.974 8.851-6.751 2.35-2.825 4.125-5.89 5.324-9.194 1.199-3.351 1.799-6.607 1.799-9.767 0-4.022-.696-7.566-2.087-10.63-1.391-3.112-3.262-5.698-5.612-7.757-2.351-2.059-5.037-3.615-8.059-4.668a27.386 27.386 0 00-9.21-1.58c-4.653 0-8.754.886-12.304 2.657-3.549 1.724-6.499 3.998-8.85 6.823-2.35 2.777-4.125 5.842-5.324 9.193-1.199 3.304-1.799 6.536-1.799 9.696 0 4.022.696 7.566 2.087 10.63 1.391 3.065 3.261 5.626 5.612 7.685a25.17 25.17 0 008.059 4.669 27.384 27.384 0 009.209 1.58c4.701 0 8.803-.862 12.304-2.586zm2.87-11.848l.004-.006c1.65-2.012 2.858-4.2 3.632-6.564l.003-.008.003-.009c.831-2.395 1.239-4.7 1.239-6.918 0-2.362-.432-4.547-1.286-6.568l-.006-.012-.005-.013a16.29 16.29 0 00-3.521-5.477l-.005-.005-.005-.005a16.32 16.32 0 00-5.419-3.786l-.013-.005-.012-.006c-2.008-.935-4.256-1.412-6.761-1.412-3.469 0-6.421.646-8.887 1.9l-.003.001-.004.002c-2.466 1.231-4.506 2.84-6.135 4.826a20.935 20.935 0 00-3.565 6.57c-.784 2.396-1.172 4.73-1.172 7.006 0 2.319.409 4.514 1.225 6.593a16.851 16.851 0 003.455 5.482 18.101 18.101 0 005.364 3.796c2.061.893 4.338 1.346 6.844 1.346 3.472 0 6.427-.623 8.894-1.83 2.517-1.28 4.554-2.914 6.132-4.893l.004-.005zm-5.676 5.815c-2.638 1.293-5.756 1.94-9.354 1.94-2.638 0-5.06-.48-7.267-1.437a19.138 19.138 0 01-5.684-4.022 17.903 17.903 0 01-3.67-5.818c-.863-2.203-1.295-4.525-1.295-6.967 0-2.394.408-4.836 1.223-7.326a21.97 21.97 0 013.742-6.894c1.727-2.107 3.885-3.807 6.476-5.1 2.638-1.34 5.756-2.01 9.353-2.01 2.639 0 5.037.502 7.196 1.507a17.348 17.348 0 015.756 4.023 17.305 17.305 0 013.741 5.817c.912 2.155 1.368 4.477 1.368 6.967 0 2.346-.432 4.764-1.296 7.254-.815 2.49-2.086 4.788-3.813 6.895-1.679 2.106-3.838 3.83-6.476 5.17zM170.751.66h36.61l-1.123 8.876h-13.812l-5.54 45.104h-9.267l5.541-45.104h-13.532L170.751.66zm13.57 7.85l-5.54 45.104h7.195l5.54-45.104h13.815l.864-6.824h-34.537l-.864 6.824h13.527zm65.726 4.786l-.864-.542c-1.616-1.014-3.45-1.92-5.508-2.713-2.01-.775-3.98-1.179-5.913-1.224h-.006c-1.589-.045-2.893.138-3.939.514l-.012.004-.011.004c-1.044.347-1.907.815-2.61 1.39-.658.577-1.136 1.221-1.453 1.932-.341.767-.521 1.484-.561 2.157v.006c-.08 1.23.25 2.293.995 3.238.864 1.031 2.028 1.982 3.519 2.84a94.505 94.505 0 004.893 2.477 38.685 38.685 0 015.892 3.308 14.444 14.444 0 014.785 5.012c1.243 2.158 1.655 4.878 1.356 8.07-.156 1.907-.696 3.796-1.606 5.665-.875 1.898-2.133 3.584-3.759 5.057-1.603 1.495-3.597 2.66-5.955 3.512-2.358.87-5.085 1.238-8.157 1.139h-.011a29.617 29.617 0 01-6.708-1.043l-.014-.004-.013-.004a36.259 36.259 0 01-5.85-2.365l-.015-.008-.015-.008a28.846 28.846 0 01-4.849-3.352l-.709-.61 4.956-6.947.857.778c.995.902 2.182 1.77 3.568 2.602a23.762 23.762 0 004.387 1.915c1.597.455 3.138.725 4.624.818 1.935-.004 3.605-.32 5.029-.921 1.482-.654 2.627-1.553 3.468-2.686l.004-.005c.885-1.178 1.394-2.522 1.524-4.055.079-1.302-.244-2.395-.949-3.332l-.014-.02-.013-.019c-.725-1.064-1.718-1.998-3.002-2.793l-.018-.011-.017-.012a27.248 27.248 0 00-4.299-2.352l-.004-.002-.004-.002a69.622 69.622 0 01-4.674-2.333l-.006-.003-.006-.003a27.74 27.74 0 01-4.408-3.058 12.435 12.435 0 01-3.291-4.379l-.006-.011-.005-.012c-.754-1.774-.977-3.798-.724-6.034.256-2.937 1.177-5.512 2.786-7.689 1.599-2.162 3.687-3.804 6.241-4.926l.004-.002.003-.001c2.591-1.116 5.467-1.664 8.61-1.664h.044c2.317.099 4.456.42 6.411.969 1.92.492 3.681 1.11 5.278 1.857a29.832 29.832 0 014.322 2.455l.814.563-4.392 6.863zm-6.289-10.748c-1.871-.526-3.934-.838-6.188-.933-3.022 0-5.756.526-8.203 1.58-2.398 1.053-4.341 2.585-5.828 4.596s-2.35 4.405-2.59 7.183c-.24 2.106-.024 3.95.648 5.53a11.405 11.405 0 003.022 4.022 26.745 26.745 0 004.245 2.945 68.754 68.754 0 004.605 2.298 28.19 28.19 0 014.461 2.442c1.391.862 2.494 1.891 3.31 3.088.863 1.15 1.247 2.49 1.151 4.022-.144 1.724-.72 3.256-1.727 4.597-.959 1.293-2.255 2.298-3.886 3.016-1.582.67-3.405 1.006-5.468 1.006-1.583-.096-3.214-.383-4.893-.862a24.807 24.807 0 01-4.605-2.011 25.027 25.027 0 01-2.959-2.057 19.851 19.851 0 01-.782-.672l-3.742 5.243a27.826 27.826 0 004.677 3.232c1.775.91 3.67 1.676 5.684 2.298 2.063.575 4.222.91 6.476 1.005 2.974.096 5.565-.263 7.771-1.077 2.255-.814 4.125-1.915 5.612-3.304 1.535-1.388 2.711-2.968 3.526-4.74.863-1.772 1.367-3.543 1.511-5.315.288-3.064-.12-5.554-1.223-7.47a13.415 13.415 0 00-4.461-4.668 37.733 37.733 0 00-5.756-3.232 95.783 95.783 0 01-4.965-2.513c-1.583-.91-2.854-1.94-3.814-3.089-.911-1.149-1.319-2.466-1.223-3.95.048-.814.264-1.652.648-2.514.384-.862.959-1.628 1.727-2.298.815-.67 1.798-1.197 2.95-1.58 1.199-.431 2.638-.623 4.317-.575 2.062.048 4.149.48 6.26 1.293 2.11.814 4.005 1.748 5.684 2.801l3.31-5.17a28.874 28.874 0 00-4.173-2.371c-1.535-.718-3.238-1.317-5.109-1.796z" fill="#fff"/></svg>