<svg width="358" height="40" fill="none" xmlns="http://www.w3.org/2000/svg"><mask id="a" maskUnits="userSpaceOnUse" x=".679" y="0" width="357" height="40" fill="#000"><path fill="#fff" d="M.679 0h357v40h-357z"/><path d="M1.68 19.624c0-2.4.447-4.672 1.343-6.816a18.693 18.693 0 013.84-5.712 17.716 17.716 0 015.664-3.888c2.144-.96 4.448-1.44 6.912-1.44 2.432 0 4.72.48 6.864 1.44a18.28 18.28 0 015.712 3.888 18.28 18.28 0 013.888 5.712c.928 2.144 1.392 4.416 1.392 6.816 0 2.464-.464 4.768-1.392 6.912a17.716 17.716 0 01-3.888 5.664 17.953 17.953 0 01-5.712 3.84c-2.144.896-4.432 1.344-6.864 1.344-2.464 0-4.768-.448-6.912-1.344a17.833 17.833 0 01-5.664-3.744 18.104 18.104 0 01-3.84-5.664c-.896-2.176-1.344-4.512-1.344-7.008zm5.28 0c0 1.792.32 3.472.96 5.04a13.637 13.637 0 002.735 4.08 13.198 13.198 0 003.984 2.736c1.536.64 3.184.96 4.944.96 1.728 0 3.344-.32 4.848-.96a12.603 12.603 0 003.936-2.736 12.926 12.926 0 002.688-4.08c.64-1.568.96-3.248.96-5.04 0-1.792-.336-3.456-1.008-4.992a12.785 12.785 0 00-2.688-4.128 12.09 12.09 0 00-3.984-2.784c-1.504-.672-3.12-1.008-4.848-1.008-1.792 0-3.44.336-4.944 1.008a12.79 12.79 0 00-3.984 2.784 12.785 12.785 0 00-2.688 4.128 13.686 13.686 0 00-.912 4.992zM88.773 38.2L61.94 11.56l1.488.48.144 24.96h-5.184V1.048h.24l26.496 26.688-1.2-.336-.096-25.248h5.088V38.2h-.144zm21.255-18.576c0-2.4.448-4.672 1.344-6.816a18.693 18.693 0 013.84-5.712 17.716 17.716 0 015.664-3.888c2.144-.96 4.448-1.44 6.912-1.44 2.432 0 4.72.48 6.864 1.44a18.28 18.28 0 015.712 3.888 18.28 18.28 0 013.888 5.712c.928 2.144 1.392 4.416 1.392 6.816 0 2.464-.464 4.768-1.392 6.912a17.716 17.716 0 01-3.888 5.664 17.953 17.953 0 01-5.712 3.84c-2.144.896-4.432 1.344-6.864 1.344-2.464 0-4.768-.448-6.912-1.344a17.833 17.833 0 01-5.664-3.744 18.104 18.104 0 01-3.84-5.664c-.896-2.176-1.344-4.512-1.344-7.008zm5.28 0c0 1.792.32 3.472.96 5.04a13.637 13.637 0 002.736 4.08 13.198 13.198 0 003.984 2.736c1.536.64 3.184.96 4.944.96 1.728 0 3.344-.32 4.848-.96a12.603 12.603 0 003.936-2.736 12.926 12.926 0 002.688-4.08c.64-1.568.96-3.248.96-5.04 0-1.792-.336-3.456-1.008-4.992a12.785 12.785 0 00-2.688-4.128 12.09 12.09 0 00-3.984-2.784c-1.504-.672-3.12-1.008-4.848-1.008-1.792 0-3.44.336-4.944 1.008a12.79 12.79 0 00-3.984 2.784 12.785 12.785 0 00-2.688 4.128 13.686 13.686 0 00-.912 4.992zM166.737 37V1h.048l18.528 26.256-2.208-.48L201.537 1h.096v36h-5.088V12.568l.336 2.64L184.017 33.4h-.096l-13.104-18.192.864-2.4V37h-4.944zm58.112-34.848h5.136V37h-5.136V2.152zm54.026 32.208c-.512.352-1.28.784-2.304 1.296-.992.48-2.176.896-3.552 1.248-1.344.352-2.832.512-4.464.48-2.72-.032-5.168-.512-7.344-1.44-2.144-.928-3.968-2.192-5.472-3.792a18.02 18.02 0 01-3.504-5.568c-.8-2.112-1.2-4.352-1.2-6.72 0-2.624.416-5.024 1.248-7.2.832-2.208 2.016-4.128 3.552-5.76a16.646 16.646 0 015.472-3.792c2.112-.896 4.416-1.344 6.912-1.344 2.144 0 4.08.288 5.808.864 1.728.576 3.184 1.248 4.368 2.016l-2.016 4.8c-.928-.64-2.08-1.248-3.456-1.824-1.344-.608-2.848-.912-4.512-.912-1.632 0-3.184.336-4.656 1.008-1.44.64-2.72 1.552-3.84 2.736-1.088 1.152-1.952 2.512-2.592 4.08-.64 1.536-.96 3.216-.96 5.04 0 1.856.288 3.568.864 5.136.576 1.568 1.392 2.928 2.448 4.08a11.445 11.445 0 003.888 2.688c1.504.64 3.2.96 5.088.96 1.792 0 3.36-.272 4.704-.816 1.376-.544 2.496-1.168 3.36-1.872l2.16 4.608zm49.071-32.208V37h-5.136V21.976h-17.664V37h-5.136V2.152h5.136V17.08h17.664V2.152h5.136zm23.239 0h5.136V37h-5.136V2.152z"/></mask><path d="M1.68 19.624c0-2.4.447-4.672 1.343-6.816a18.693 18.693 0 013.84-5.712 17.716 17.716 0 015.664-3.888c2.144-.96 4.448-1.44 6.912-1.44 2.432 0 4.72.48 6.864 1.44a18.28 18.28 0 015.712 3.888 18.28 18.28 0 013.888 5.712c.928 2.144 1.392 4.416 1.392 6.816 0 2.464-.464 4.768-1.392 6.912a17.716 17.716 0 01-3.888 5.664 17.953 17.953 0 01-5.712 3.84c-2.144.896-4.432 1.344-6.864 1.344-2.464 0-4.768-.448-6.912-1.344a17.833 17.833 0 01-5.664-3.744 18.104 18.104 0 01-3.84-5.664c-.896-2.176-1.344-4.512-1.344-7.008zm5.28 0c0 1.792.32 3.472.96 5.04a13.637 13.637 0 002.735 4.08 13.198 13.198 0 003.984 2.736c1.536.64 3.184.96 4.944.96 1.728 0 3.344-.32 4.848-.96a12.603 12.603 0 003.936-2.736 12.926 12.926 0 002.688-4.08c.64-1.568.96-3.248.96-5.04 0-1.792-.336-3.456-1.008-4.992a12.785 12.785 0 00-2.688-4.128 12.09 12.09 0 00-3.984-2.784c-1.504-.672-3.12-1.008-4.848-1.008-1.792 0-3.44.336-4.944 1.008a12.79 12.79 0 00-3.984 2.784 12.785 12.785 0 00-2.688 4.128 13.686 13.686 0 00-.912 4.992zM88.773 38.2L61.94 11.56l1.488.48.144 24.96h-5.184V1.048h.24l26.496 26.688-1.2-.336-.096-25.248h5.088V38.2h-.144zm21.255-18.576c0-2.4.448-4.672 1.344-6.816a18.693 18.693 0 013.84-5.712 17.716 17.716 0 015.664-3.888c2.144-.96 4.448-1.44 6.912-1.44 2.432 0 4.72.48 6.864 1.44a18.28 18.28 0 015.712 3.888 18.28 18.28 0 013.888 5.712c.928 2.144 1.392 4.416 1.392 6.816 0 2.464-.464 4.768-1.392 6.912a17.716 17.716 0 01-3.888 5.664 17.953 17.953 0 01-5.712 3.84c-2.144.896-4.432 1.344-6.864 1.344-2.464 0-4.768-.448-6.912-1.344a17.833 17.833 0 01-5.664-3.744 18.104 18.104 0 01-3.84-5.664c-.896-2.176-1.344-4.512-1.344-7.008zm5.28 0c0 1.792.32 3.472.96 5.04a13.637 13.637 0 002.736 4.08 13.198 13.198 0 003.984 2.736c1.536.64 3.184.96 4.944.96 1.728 0 3.344-.32 4.848-.96a12.603 12.603 0 003.936-2.736 12.926 12.926 0 002.688-4.08c.64-1.568.96-3.248.96-5.04 0-1.792-.336-3.456-1.008-4.992a12.785 12.785 0 00-2.688-4.128 12.09 12.09 0 00-3.984-2.784c-1.504-.672-3.12-1.008-4.848-1.008-1.792 0-3.44.336-4.944 1.008a12.79 12.79 0 00-3.984 2.784 12.785 12.785 0 00-2.688 4.128 13.686 13.686 0 00-.912 4.992zM166.737 37V1h.048l18.528 26.256-2.208-.48L201.537 1h.096v36h-5.088V12.568l.336 2.64L184.017 33.4h-.096l-13.104-18.192.864-2.4V37h-4.944zm58.112-34.848h5.136V37h-5.136V2.152zm54.026 32.208c-.512.352-1.28.784-2.304 1.296-.992.48-2.176.896-3.552 1.248-1.344.352-2.832.512-4.464.48-2.72-.032-5.168-.512-7.344-1.44-2.144-.928-3.968-2.192-5.472-3.792a18.02 18.02 0 01-3.504-5.568c-.8-2.112-1.2-4.352-1.2-6.72 0-2.624.416-5.024 1.248-7.2.832-2.208 2.016-4.128 3.552-5.76a16.646 16.646 0 015.472-3.792c2.112-.896 4.416-1.344 6.912-1.344 2.144 0 4.08.288 5.808.864 1.728.576 3.184 1.248 4.368 2.016l-2.016 4.8c-.928-.64-2.08-1.248-3.456-1.824-1.344-.608-2.848-.912-4.512-.912-1.632 0-3.184.336-4.656 1.008-1.44.64-2.72 1.552-3.84 2.736-1.088 1.152-1.952 2.512-2.592 4.08-.64 1.536-.96 3.216-.96 5.04 0 1.856.288 3.568.864 5.136.576 1.568 1.392 2.928 2.448 4.08a11.445 11.445 0 003.888 2.688c1.504.64 3.2.96 5.088.96 1.792 0 3.36-.272 4.704-.816 1.376-.544 2.496-1.168 3.36-1.872l2.16 4.608zm49.071-32.208V37h-5.136V21.976h-17.664V37h-5.136V2.152h5.136V17.08h17.664V2.152h5.136zm23.239 0h5.136V37h-5.136V2.152z" stroke="#9ED0E0" stroke-width="2" mask="url(#a)"/></svg>