<svg width="100" height="220" viewBox="0 0 100 220" fill="none" xmlns="http://www.w3.org/2000/svg">
<path d="M72.4903 11.3361C74.8 12.1915 77.5742 10.3934 78.6862 7.32166C79.7975 4.24988 78.8269 1.06703 76.5171 0.212442C74.2067 -0.641404 71.4332 1.15515 70.3212 4.22767C69.2099 7.29944 70.1806 10.4823 72.491 11.3361H72.4903Z" fill="#9ED0E0"/>
<path d="M63.7128 16.2355C66.1295 16.0237 67.8649 13.2482 67.5902 10.0335C67.3148 6.82025 65.1332 4.38683 62.7165 4.59714C60.3006 4.80968 58.5652 7.58597 58.8399 10.7999C59.1153 14.0131 61.2969 16.4466 63.7128 16.2355Z" fill="#9ED0E0"/>
<path d="M82.5321 16.1268C84.6528 17.3872 87.7002 16.1216 89.3397 13.3016C90.9784 10.4794 90.5879 7.17289 88.4665 5.91323C86.3457 4.65431 83.2976 5.92063 81.6589 8.74062C80.0202 11.5621 80.4113 14.8686 82.5321 16.1275V16.1268Z" fill="#9ED0E0"/>
<path d="M93.891 19.4695C92.516 17.45 89.2708 17.2937 86.6424 19.1221C84.0132 20.9513 82.9972 24.0705 84.3715 26.0907C85.7465 28.1101 88.9917 28.2664 91.62 26.438C94.2484 24.6096 95.2652 21.4904 93.891 19.4702V19.4695Z" fill="#9ED0E0"/>
<path d="M79.7711 19.851C79.5088 18.0167 78.3961 16.343 76.6182 15.4951C74.8403 14.6472 72.8551 14.8427 71.2882 15.8039C69.5557 16.8666 68.4481 18.2551 66.9558 18.8616C65.4644 19.4681 61.2859 17.6612 58.6846 22.437C56.8474 25.8101 58.5337 30.0742 61.9782 31.7175C64.5963 32.966 66.668 32.8268 68.1895 33.5518C69.7102 34.2768 70.9211 35.983 73.5393 37.2315C76.9837 38.8748 81.3116 37.4804 82.7196 33.9021C84.7129 28.836 80.6758 26.7247 80.1908 25.1748C79.7059 23.6255 80.0619 21.8779 79.7718 19.851H79.7711Z" fill="#9ED0E0"/>
<path d="M77.778 72.6184C80.0878 73.4737 82.8619 71.6757 83.9739 68.6039C85.0852 65.5321 84.1146 62.3493 81.8049 61.4947C79.4944 60.6408 76.721 62.4374 75.6089 65.5099C74.4977 68.5817 75.4683 71.7645 77.7788 72.6184H77.778Z" fill="#9ED0E0"/>
<path d="M69.0005 77.5177C71.4172 77.3059 73.1526 74.5304 72.8779 71.3157C72.6025 68.1025 70.4209 65.6691 68.0043 65.8794C65.5883 66.0919 63.8529 68.8682 64.1276 72.0822C64.403 75.2954 66.5846 77.7288 69.0005 77.5177Z" fill="#9ED0E0"/>
<path d="M87.8198 77.409C89.9405 78.6694 92.9879 77.4038 94.6274 74.5839C96.2661 71.7616 95.8757 68.4551 93.7542 67.1955C91.6335 65.9365 88.5853 67.2029 86.9466 70.0228C85.3079 72.8443 85.6991 76.1508 87.8198 77.4098V77.409Z" fill="#9ED0E0"/>
<path d="M99.1787 80.7517C97.8037 78.7322 94.5585 78.576 91.9301 80.4044C89.3009 82.2335 88.2849 85.3527 89.6592 87.3729C91.0342 89.3923 94.2794 89.5486 96.9078 87.7202C99.5362 85.8918 100.553 82.7726 99.1787 80.7524V80.7517Z" fill="#9ED0E0"/>
<path d="M85.0588 81.1332C84.7966 79.2989 83.6838 77.6253 81.9059 76.7773C80.128 75.9294 78.1428 76.1249 76.5759 77.0862C74.8434 78.1488 73.7358 79.5374 72.2436 80.1439C70.7521 80.7504 66.5736 78.9434 63.9723 83.7192C62.1351 87.0924 63.8214 91.3564 67.2659 92.9997C69.884 94.2482 71.9557 94.109 73.4772 94.834C74.998 95.559 76.2089 97.2652 78.827 98.5138C82.2715 100.157 86.5994 98.7626 88.0073 95.1843C90.0006 90.1182 85.9635 88.0069 85.4786 86.457C84.9936 84.9078 85.3496 83.1601 85.0595 81.1332H85.0588Z" fill="#9ED0E0"/>
<path d="M14.7684 132.138C17.0782 132.993 19.8523 131.195 20.9644 128.123C22.0756 125.052 21.105 121.869 18.7953 121.014C16.4848 120.16 13.7114 121.957 12.5994 125.029C11.4881 128.101 12.4587 131.284 14.7692 132.138H14.7684Z" fill="#9ED0E0"/>
<path d="M5.99094 137.037C8.40763 136.825 10.143 134.05 9.86833 130.835C9.59289 127.622 7.41136 125.189 4.99467 125.399C2.57872 125.611 0.843306 128.388 1.11801 131.602C1.39345 134.815 3.57499 137.248 5.99094 137.037Z" fill="#9ED0E0"/>
<path d="M24.8102 136.929C26.9309 138.189 29.9784 136.923 31.6178 134.103C33.2565 131.281 32.8661 127.975 30.7446 126.715C28.6239 125.456 25.5757 126.722 23.937 129.542C22.2983 132.364 22.6895 135.67 24.8102 136.929V136.929Z" fill="#9ED0E0"/>
<path d="M36.1691 140.271C34.7941 138.252 31.5489 138.096 28.9205 139.924C26.2914 141.753 25.2753 144.872 26.6496 146.892C28.0246 148.912 31.2698 149.068 33.8982 147.24C36.5266 145.411 37.5434 142.292 36.1691 140.272V140.271Z" fill="#9ED0E0"/>
<path d="M22.0492 140.653C21.787 138.818 20.6742 137.145 18.8963 136.297C17.1184 135.449 15.1332 135.644 13.5663 136.606C11.8338 137.668 10.7262 139.057 9.23398 139.663C7.74251 140.27 3.56404 138.463 0.96275 143.239C-0.874488 146.612 0.811845 150.876 4.2563 152.519C6.87444 153.768 8.94609 153.629 10.4676 154.354C11.9884 155.079 13.1993 156.785 15.8174 158.033C19.2619 159.677 23.5898 158.282 24.9977 154.704C26.991 149.638 22.9539 147.526 22.469 145.977C21.984 144.427 22.3401 142.68 22.05 140.653H22.0492Z" fill="#9ED0E0"/>
<path d="M20.0561 193.42C22.3659 194.275 25.1401 192.477 26.2521 189.406C27.3633 186.334 26.3927 183.151 24.083 182.296C21.7725 181.443 18.9991 183.239 17.8871 186.312C16.7758 189.383 17.7464 192.566 20.0569 193.42H20.0561Z" fill="#9ED0E0"/>
<path d="M11.2787 198.319C13.6953 198.108 15.4308 195.332 15.156 192.117C14.8806 188.904 12.6991 186.471 10.2824 186.681C7.86643 186.894 6.13102 189.67 6.40572 192.884C6.68116 196.097 8.8627 198.531 11.2787 198.319Z" fill="#9ED0E0"/>
<path d="M30.0979 198.211C32.2187 199.471 35.2661 198.206 36.9055 195.386C38.5442 192.563 38.1538 189.257 36.0323 187.997C33.9116 186.738 30.8634 188.005 29.2247 190.825C27.586 193.646 27.9772 196.953 30.0979 198.212V198.211Z" fill="#9ED0E0"/>
<path d="M41.4568 201.553C40.0818 199.534 36.8366 199.378 34.2082 201.206C31.5791 203.035 30.563 206.154 31.9373 208.175C33.3123 210.194 36.5575 210.35 39.1859 208.522C41.8143 206.694 42.8311 203.574 41.4568 201.554V201.553Z" fill="#9ED0E0"/>
<path d="M27.3369 201.935C27.0747 200.101 25.9619 198.427 24.184 197.579C22.4061 196.731 20.4209 196.927 18.854 197.888C17.1215 198.951 16.0139 200.339 14.5217 200.946C13.0302 201.552 8.85175 199.745 6.25046 204.521C4.41322 207.894 6.09956 212.158 9.54401 213.801C12.1621 215.05 14.2338 214.911 15.7553 215.636C17.2761 216.361 18.487 218.067 21.1051 219.316C24.5496 220.959 28.8775 219.564 30.2855 215.986C32.2787 210.92 28.2416 208.809 27.7567 207.259C27.2717 205.71 27.6278 203.962 27.3377 201.935H27.3369Z" fill="#9ED0E0"/>
</svg>
