<svg width="113" height="24" viewBox="0 0 113 24" fill="none" xmlns="http://www.w3.org/2000/svg">
<path fill-rule="evenodd" clip-rule="evenodd" d="M32.2172 3.43732C30.289 3.39498 28.3752 3.50762 26.494 3.74729C25.6331 3.85697 24.8538 3.18355 24.7533 2.24315C24.6529 1.30276 25.2694 0.451491 26.1304 0.341802C28.142 0.0855046 30.1988 -0.0362688 32.2802 0.00944238C33.1469 0.0284737 33.8353 0.811258 33.8178 1.75784C33.8004 2.70442 33.0838 3.45635 32.2172 3.43732ZM112.306 0.333348C113.025 0.861567 113.217 1.92673 112.733 2.71246C112.226 3.53683 111.521 4.52338 110.653 5.60621C110.082 6.31832 109.09 6.38981 108.438 5.76588C107.786 5.14196 107.721 4.05889 108.292 3.34678C109.099 2.34017 109.715 1.47083 110.128 0.799604C110.612 0.0138783 111.587 -0.194872 112.306 0.333348ZM39.5517 2.60062C39.7713 1.68473 40.629 1.13667 41.4675 1.37651C43.4291 1.93757 45.3844 2.6845 47.3164 3.64293C48.1056 4.03444 48.4548 5.05064 48.0964 5.91267C47.7379 6.7747 46.8076 7.15614 46.0184 6.76463C44.2541 5.88937 42.4674 5.20667 40.6724 4.69325C39.8339 4.45341 39.3322 3.51651 39.5517 2.60062ZM19.0912 3.54414C19.3395 4.45123 18.8676 5.40645 18.0371 5.67769C16.1339 6.29932 14.31 7.01976 12.5911 7.79965C11.7906 8.16283 10.8722 7.74846 10.5397 6.87412C10.2072 5.99977 10.5865 4.99656 11.387 4.63337C13.1993 3.81113 15.1248 3.05031 17.1379 2.39283C17.9683 2.12159 18.8428 2.63705 19.0912 3.54414ZM53.0166 9.23141C53.5574 8.4915 54.5449 8.37052 55.2223 8.96121C56.0145 9.65198 56.797 10.3882 57.5686 11.1717C58.3405 11.9556 59.1132 12.6819 59.8858 13.3538C60.5639 13.9435 60.6759 15.022 60.136 15.7627C59.5961 16.5034 58.6087 16.6258 57.9306 16.036C57.0935 15.308 56.2601 14.5244 55.4313 13.6827C54.7168 12.9571 53.9939 12.2772 53.264 11.6407C52.5866 11.05 52.4759 9.97132 53.0166 9.23141ZM5.37714 9.73668C5.83236 10.5424 5.60343 11.5986 4.86581 12.0958C3.99663 12.6818 3.19959 13.2614 2.48236 13.8216C1.77732 14.3724 0.797028 14.1945 0.292822 13.4244C-0.211384 12.6543 -0.048575 11.5836 0.656467 11.0328C1.4348 10.4248 2.29127 9.80241 3.21731 9.17816C3.95493 8.68093 4.92192 8.93099 5.37714 9.73668ZM103.771 10.5254C104.307 11.2688 104.191 12.3467 103.51 12.9329C101.884 14.3328 100.093 15.7237 98.1631 17.0229C97.4252 17.5196 96.4583 17.2689 96.0036 16.4628C95.5489 15.6568 95.7784 14.6008 96.5164 14.1041C98.3341 12.8805 100.027 11.5667 101.566 10.2406C102.247 9.65437 103.234 9.78188 103.771 10.5254ZM65.6191 19.3506C65.9462 18.4737 66.862 18.0525 67.6647 18.4097C69.5991 19.2705 71.522 19.8495 73.4209 20.1899C74.2763 20.3432 74.8559 21.2249 74.7155 22.1591C74.5751 23.0934 73.768 23.7265 72.9126 23.5732C70.7843 23.1917 68.6346 22.5435 66.4805 21.5849C65.6778 21.2277 65.2921 20.2274 65.6191 19.3506ZM90.2623 19.5249C90.5525 20.4171 90.1256 21.3973 89.3088 21.7142C87.2542 22.5114 85.1107 23.14 82.8993 23.5346C82.0439 23.6873 81.2371 23.0536 81.0974 22.1192C80.9576 21.1848 81.5378 20.3036 82.3932 20.1509C84.4 19.7928 86.3612 19.2194 88.2581 18.4834C89.0749 18.1665 89.9722 18.6328 90.2623 19.5249Z" fill="#CE2073"/>
</svg>
