<svg width="356" height="60" viewBox="0 0 356 60" fill="none" xmlns="http://www.w3.org/2000/svg">
<g clip-path="url(#clip0_1156_1910)">
<rect width="356" height="60" fill="white"/>
<path d="M20.1756 59.2327V37.7667H0.0358887V31.8078H20.1756V19.5594H0.0358887V13.6005H20.1756V0.907745H26.1298V13.6005H46.1784V19.5594H26.1298V31.8078H46.1784V37.7667H26.1298V59.2327H20.1756Z" fill="#4A3636"/>
<path d="M66.3406 56.8969V33.1864H54.5916V27.2275H66.3406V19.2062H72.2949V27.2275H91.2278V30.2126C91.2278 37.9262 84.9547 44.2042 77.2473 44.2042H76.5983V38.2453H77.2473C80.5033 38.2453 83.4406 36.2058 84.6474 33.1864H72.2949V56.8969H66.3406Z" fill="#4A3636"/>
<path d="M104.491 56.9995V51.0405H105.14C126.441 51.0405 143.757 33.6649 143.757 12.3015V11.6521H149.711V12.3015C149.711 36.9464 129.72 57.0109 105.14 57.0109H104.491V56.9995ZM101.508 17.3262V11.3672H115.386V17.3262H101.508Z" fill="#4A3636"/>
<path d="M159.628 39.829L179.016 20.4253C181.669 17.8731 185.232 16.4147 188.795 16.4147C192.359 16.4147 195.979 17.8389 198.666 20.4253L218.066 39.8404L213.796 44.1131L194.408 24.7094C192.962 23.1826 191.027 22.3737 188.807 22.3737C186.587 22.3737 184.72 23.1826 183.205 24.7094L163.908 44.1131L159.639 39.8404L159.628 39.829ZM211.28 22.0888C209.299 22.0888 207.455 21.3255 206.066 19.9354C204.677 18.5568 203.914 16.6996 203.914 14.717C203.914 10.6039 207.216 7.25409 211.28 7.25409C213.295 7.25409 215.163 8.06305 216.506 9.51007C217.883 10.7976 218.635 12.5978 218.635 14.7056C218.635 18.7732 215.333 22.0774 211.269 22.0774L211.28 22.0888ZM211.28 12.2902C209.994 12.2902 208.946 13.384 208.946 14.7284C208.946 15.3665 209.197 16.0159 209.595 16.4147C210.017 16.8363 210.609 17.0642 211.28 17.0642C212.612 17.0642 213.614 16.0615 213.614 14.7284C213.614 14.0448 213.387 13.4637 212.965 13.0421C212.487 12.5636 211.884 12.3015 211.28 12.3015V12.2902Z" fill="#4A3636"/>
<path d="M272.451 29.472H230.965V35.431H272.451V29.472Z" fill="#4A3636"/>
<path d="M287.672 56.9995V51.0405H288.321C309.622 51.0405 326.938 33.6649 326.938 12.3015V11.6521H332.892V12.3015C332.892 36.9464 312.901 57.0109 288.321 57.0109H287.672V56.9995ZM284.689 17.3262V11.3672H298.579V17.3262H284.689Z" fill="#4A3636"/>
<path d="M349.89 59.2327V53.2737H355.844V59.2327H349.89ZM349.89 45.2297V0.907745H355.844V45.2297H349.89Z" fill="#4A3636"/>
</g>
<defs>
<clipPath id="clip0_1156_1910">
<rect width="356" height="60" fill="white"/>
</clipPath>
</defs>
</svg>
