<svg width="80" height="80" viewBox="0 0 80 80" fill="none" xmlns="http://www.w3.org/2000/svg">
<circle cx="40" cy="40" r="40" transform="matrix(-1 0 0 1 80 0)" fill="#FFEE56"/>
<path d="M45.9361 48.715L36.7211 39.5L45.9361 30.285C46.156 30.0651 46.3304 29.8041 46.4494 29.5168C46.5684 29.2295 46.6296 28.9216 46.6296 28.6106C46.6296 28.2996 46.5684 27.9917 46.4494 27.7044C46.3304 27.4171 46.156 27.1561 45.9361 26.9362C45.7162 26.7163 45.4552 26.5419 45.1679 26.4229C44.8806 26.3039 44.5727 26.2427 44.2617 26.2427C43.9508 26.2427 43.6428 26.3039 43.3555 26.4229C43.0683 26.5419 42.8072 26.7163 42.5873 26.9362L31.6861 37.8375C30.7598 38.7637 30.7598 40.26 31.6861 41.1862L42.5873 52.0875C42.8071 52.3076 43.068 52.4823 43.3554 52.6015C43.6427 52.7207 43.9507 52.782 44.2617 52.782C44.5728 52.782 44.8808 52.7207 45.1681 52.6015C45.4554 52.4823 45.7164 52.3076 45.9361 52.0875C46.8386 51.1612 46.8623 49.6412 45.9361 48.715Z" fill="#9ED0E0"/>
</svg>
