<svg width="80" height="80" viewBox="0 0 80 80" fill="none" xmlns="http://www.w3.org/2000/svg">
<circle cx="40" cy="40" r="40" fill="#FFEE56"/>
<path d="M34.0639 48.715L43.2789 39.5L34.0639 30.285C33.844 30.0651 33.6696 29.8041 33.5506 29.5168C33.4316 29.2295 33.3704 28.9216 33.3704 28.6106C33.3704 28.2996 33.4316 27.9917 33.5506 27.7044C33.6696 27.4171 33.844 27.1561 34.0639 26.9362C34.2838 26.7163 34.5448 26.5419 34.8321 26.4229C35.1194 26.3039 35.4273 26.2427 35.7383 26.2427C36.0492 26.2427 36.3572 26.3039 36.6445 26.4229C36.9317 26.5419 37.1928 26.7163 37.4127 26.9362L48.3139 37.8375C49.2402 38.7637 49.2402 40.26 48.3139 41.1862L37.4127 52.0875C37.1929 52.3076 36.932 52.4823 36.6446 52.6015C36.3573 52.7207 36.0493 52.782 35.7383 52.782C35.4272 52.782 35.1192 52.7207 34.8319 52.6015C34.5446 52.4823 34.2836 52.3076 34.0639 52.0875C33.1614 51.1612 33.1377 49.6412 34.0639 48.715Z" fill="#9ED0E0"/>
</svg>
