<svg width="1512" height="120" viewBox="0 0 1512 120" fill="none" xmlns="http://www.w3.org/2000/svg">
<path d="M1381.8 120C1441.81 120 1451.52 88.1819 1512 88.1818V0H1260V88.1818C1320.48 88.1818 1321.79 120 1381.8 120Z" fill="#67B0C7"/>
<path d="M1129.8 120C1189.81 120 1199.52 88.1819 1260 88.1818V0H1008V88.1818C1068.48 88.1818 1069.79 120 1129.8 120Z" fill="#67B0C7"/>
<path d="M877.8 120C937.81 120 947.52 88.1819 1008 88.1818V0H756V88.1818C816.48 88.1818 817.79 120 877.8 120Z" fill="#67B0C7"/>
<path d="M625.8 120C685.81 120 695.52 88.1819 756 88.1818V0H504V88.1818C564.48 88.1818 565.79 120 625.8 120Z" fill="#67B0C7"/>
<path d="M373.8 120C433.81 120 443.52 88.1819 504 88.1818V0H252V88.1818C312.48 88.1818 313.79 120 373.8 120Z" fill="#67B0C7"/>
<path d="M121.8 120C181.81 120 191.52 88.1819 252 88.1818V0H1.52588e-05V88.1818C60.48 88.1818 61.79 120 121.8 120Z" fill="#67B0C7"/>
</svg>
