<svg width="1512" height="120" viewBox="0 0 1512 120" fill="none" xmlns="http://www.w3.org/2000/svg">
<path d="M130.2 0C70.19 -4.73476e-05 60.48 31.8181 0 31.8182V120H252V31.8182C191.52 31.8182 190.21 4.73476e-05 130.2 0Z" fill="#67B0C7"/>
<path d="M382.2 0C322.19 -4.73476e-05 312.48 31.8181 252 31.8182V120H504V31.8182C443.52 31.8182 442.21 4.73476e-05 382.2 0Z" fill="#67B0C7"/>
<path d="M634.2 0C574.19 -4.73476e-05 564.48 31.8181 504 31.8182V120H756V31.8182C695.52 31.8182 694.21 4.73476e-05 634.2 0Z" fill="#67B0C7"/>
<path d="M886.2 0C826.19 -4.73476e-05 816.48 31.8181 756 31.8182V120H1008V31.8182C947.52 31.8182 946.21 4.73476e-05 886.2 0Z" fill="#67B0C7"/>
<path d="M1138.2 0C1078.19 -4.73476e-05 1068.48 31.8181 1008 31.8182V120H1260V31.8182C1199.52 31.8182 1198.21 4.73476e-05 1138.2 0Z" fill="#67B0C7"/>
<path d="M1390.2 0C1330.19 -4.73476e-05 1320.48 31.8181 1260 31.8182V120H1512V31.8182C1451.52 31.8182 1450.21 4.73476e-05 1390.2 0Z" fill="#67B0C7"/>
</svg>
