<svg width="33" height="25" fill="none" xmlns="http://www.w3.org/2000/svg"><path d="M25.834 12.667c0 .855.7 1.555 1.555 1.555H30.5c.856 0 1.556-.7 1.556-1.555 0-.856-.7-1.556-1.556-1.556h-3.11c-.855 0-1.555.7-1.555 1.556zm-2.194 7.497a1.502 1.502 0 00.311 2.131c.825.607 1.696 1.26 2.52 1.883a1.521 1.521 0 002.147-.311c0-.016.016-.016.016-.032a1.52 1.52 0 00-.312-2.146 865.702 865.702 0 00-2.504-1.882 1.546 1.546 0 00-2.162.326c0 .016-.016.031-.016.031zm5.01-18.682c0-.015-.015-.015-.015-.03a1.526 1.526 0 00-2.147-.312c-.825.622-1.711 1.276-2.52 1.898a1.522 1.522 0 00-.296 2.146c0 .016.016.016.016.032a1.523 1.523 0 002.146.31c.825-.606 1.696-1.275 2.52-1.897.67-.498.794-1.462.296-2.147zM10.278 8H4.056a3.12 3.12 0 00-3.111 3.111v3.111a3.12 3.12 0 003.11 3.111h1.556V22c0 .855.7 1.555 1.556 1.555.855 0 1.555-.7 1.555-1.555v-4.667h1.556L18.056 22V3.333L10.278 8zm11.667 4.667a6.969 6.969 0 00-2.334-5.211v10.406a6.91 6.91 0 002.334-5.195z" fill="#9ED0E0"/></svg>