<svg width="381" height="46" fill="none" xmlns="http://www.w3.org/2000/svg"><path d="M49.6 45.714c-22.86 0-26.56-12.12-49.6-12.12V0h96v33.593c-23.04 0-23.54 12.121-46.4 12.121z" fill="#67B0C7"/><path d="M144.6 45.714c-22.861 0-26.56-12.12-49.6-12.12V0h96v33.593c-23.04 0-23.539 12.121-46.4 12.121z" fill="#67B0C7"/><path d="M239.6 45.714c-22.861 0-26.56-12.12-49.6-12.12V0h96v33.593c-23.04 0-23.539 12.121-46.4 12.121z" fill="#67B0C7"/><path d="M334.6 45.714c-22.861 0-26.56-12.12-49.6-12.12V0h96v33.593c-23.04 0-23.539 12.121-46.4 12.121z" fill="#67B0C7"/></svg>