<svg width="48" height="49" fill="none" xmlns="http://www.w3.org/2000/svg"><path d="M21.5 2.327a4.01 4.01 0 015 0 4.01 4.01 0 003.611.719 4.01 4.01 0 014.62 1.913 4.01 4.01 0 003.061 2.046 4.01 4.01 0 013.537 3.536 4.01 4.01 0 002.045 3.06 4.01 4.01 0 011.914 4.621 4.01 4.01 0 00.718 3.61 4.01 4.01 0 010 5.002 4.01 4.01 0 00-.718 3.61 4.01 4.01 0 01-1.914 4.62 4.01 4.01 0 00-2.045 3.062 4.01 4.01 0 01-3.537 3.536 4.01 4.01 0 00-3.06 2.045 4.01 4.01 0 01-4.62 1.914 4.01 4.01 0 00-3.611.718 4.01 4.01 0 01-5.002 0 4.01 4.01 0 00-3.61-.718 4.01 4.01 0 01-4.62-1.914 4.01 4.01 0 00-3.062-2.045 4.01 4.01 0 01-3.536-3.536 4.01 4.01 0 00-2.045-3.061 4.01 4.01 0 01-1.914-4.62 4.01 4.01 0 00-.718-3.611 4.01 4.01 0 010-5.001 4.01 4.01 0 00.718-3.61 4.01 4.01 0 011.914-4.621 4.01 4.01 0 002.045-3.061 4.01 4.01 0 013.536-3.536 4.01 4.01 0 003.061-2.046 4.01 4.01 0 014.62-1.913 4.01 4.01 0 003.611-.719z" fill="#CE2073"/><path d="M19.875 9.256h3.701v.838h-3.701v-.838zm-.461 1.49h4.5v.853h-4.5v-.853zm.169 1.544h4.255v.853h-4.255v-.853zm1.659-3.725h.914v2.65h-.914v-2.65zm.914 2.942h.914v3.248c0 .469-.093.722-.4.86-.307.139-.745.162-1.329.162a3.298 3.298 0 00-.276-.914c.376.015.799.015.93.008.122 0 .16-.024.16-.131v-3.233zm-2.304 2.05l.683-.422c.338.338.745.822.93 1.16l-.73.476c-.162-.338-.553-.845-.883-1.214zm-3.172-.89c.752-.17 1.874-.485 2.933-.784l.123.806c-.967.308-2.02.623-2.834.86l-.222-.883zm1.382-4.094h.845v7.211h-.845V8.573zm-1.014.4l.768.13c-.1 1.014-.284 2.081-.56 2.772a4.528 4.528 0 00-.653-.414c.246-.623.376-1.582.445-2.489zm.208 1.051h2.288v.876h-2.457l.169-.876zm11.259 4.493l.66-.599c.806.377 1.744.876 2.266 1.221l-.845.615a15.835 15.835 0 00-2.081-1.237zm-4.117-1.374h7.196v.867h-7.196v-.867zm1.214-1.874h4.723v.852h-4.723v-.852zm1.144-2.72h.86v4.978h-.86V8.55zm1.597-.007h.876v4.985h-.876V8.541zm-3.195.914h5.737v4.001h-.929V10.31H26.05v3.148h-.89v-4zm1.506 4.47l.845.56c-.607.477-1.59.999-2.381 1.29a7.6 7.6 0 00-.722-.667c.814-.261 1.782-.776 2.258-1.183zm1.927 7.492l-3.456 6.635-1.82-.99c.154-.062.315-.108.484-.139.184-.03.353-.046.507-.046a5.788 5.788 0 011.613.185 3.72 3.72 0 011.451.737c.446.353.799.837 1.06 1.451.277.615.415 1.398.415 2.35 0 1.106-.261 2.059-.784 2.858a5.025 5.025 0 01-2.004 1.797 5.943 5.943 0 01-2.696.622c-.752 0-1.543-.154-2.373-.461-.83-.323-1.49-.745-1.981-1.267l1.705-2.765c.23.292.583.576 1.06.852a2.94 2.94 0 001.497.415 2.13 2.13 0 001.797-1.013c.215-.339.323-.753.323-1.245 0-.676-.192-1.213-.576-1.613-.369-.399-.891-.599-1.567-.599-.46 0-.814.023-1.06.07-.23.03-.46.076-.69.138l-.07-.093 2.696-5.045.967.391h-4.815v-3.225h8.317z" fill="#fff"/></svg>