<svg width="12" height="13" fill="none" xmlns="http://www.w3.org/2000/svg"><g clip-path="url(#clip0_42300_126)"><path d="M7.516 5.606a.64.64 0 01-.64.639H5.812v1.066a.64.64 0 11-1.278 0V6.245H3.467a.64.64 0 010-1.279h1.066V3.901a.64.64 0 011.278 0v1.065h1.066a.64.64 0 01.64.64zm4.075 6.42a.64.64 0 01-.905 0l-2.53-2.531a4.908 4.908 0 11.905-.906l2.533 2.532a.64.64 0 01-.003.904zM5.172 9.228a3.623 3.623 0 100-7.246 3.623 3.623 0 000 7.246z" fill="#F5F5F5"/></g><defs><clipPath id="clip0_42300_126"><path fill="#fff" transform="translate(.26 .693)" d="M0 0h11.52v11.52H0z"/></clipPath></defs></svg>