<svg width="241" height="40" fill="none" xmlns="http://www.w3.org/2000/svg"><g clip-path="url(#clip0_730_4387)"><path fill="#fff" d="M.5 0h240v40H.5z"/><path d="M14.101 39.488v-14.31H.524v-3.973H14.1V13.04H.524V9.067H14.1V.605h4.014v8.462H31.63v3.973H18.115v8.165h13.516v3.973H18.115v14.31h-4.014zm31.123-1.557V22.124h-7.92v-3.972h7.92v-5.348h4.014v5.348h12.764v1.99c0 5.142-4.23 9.328-9.425 9.328h-.438v-3.973h.438a5.409 5.409 0 004.989-3.373h-8.328v15.807h-4.014zM70.943 38v-3.973h.438c14.36 0 26.034-11.584 26.034-25.826v-.433h4.014v.433c0 16.43-13.478 29.806-30.049 29.806h-.437V38zm-2.01-26.45V7.579h9.355v3.973h-9.356zm39.181 15.003l13.071-12.936c1.788-1.702 4.19-2.674 6.593-2.674 2.402 0 4.843.95 6.654 2.674L147.51 26.56l-2.878 2.849-13.07-12.936c-.975-1.018-2.28-1.557-3.777-1.557-1.496 0-2.755.54-3.776 1.557L111 29.409l-2.878-2.849-.008-.007zm34.822-11.827a4.953 4.953 0 01-3.515-1.436 4.836 4.836 0 01-1.451-3.479c0-2.742 2.226-4.975 4.966-4.975 1.359 0 2.617.54 3.523 1.504.929.858 1.435 2.059 1.435 3.464 0 2.711-2.226 4.914-4.966 4.914l.008.008zm0-6.533c-.867 0-1.573.73-1.573 1.626 0 .425.168.858.437 1.124.284.281.683.433 1.136.433.898 0 1.573-.668 1.573-1.557 0-.456-.153-.843-.437-1.124a1.626 1.626 0 00-1.136-.494v-.008zm41.238 11.455h-27.968v3.973h27.968v-3.973zM194.436 38v-3.973h.438c14.36 0 26.034-11.584 26.034-25.826v-.433h4.014v.433c0 16.43-13.478 29.806-30.048 29.806h-.438V38zm-2.011-26.45V7.579h9.364v3.973h-9.364zm43.956 27.938v-3.972h4.013v3.972h-4.013zm0-9.335V.605h4.013v29.548h-4.013z" fill="#4A3636"/></g><defs><clipPath id="clip0_730_4387"><path fill="#fff" transform="translate(.5)" d="M0 0h240v40H0z"/></clipPath></defs></svg>