<svg width="143" height="80" fill="none" xmlns="http://www.w3.org/2000/svg"><g filter="url(#filter0_d_730_4406)"><mask id="a" maskUnits="userSpaceOnUse" x="23.533" y="4.581" width="83" height="56" fill="#000"><path fill="#fff" d="M23.533 4.581h83v56h-83z"/><path d="M66.818 8.675a9.667 9.667 0 00-1.487-.606 5.192 5.192 0 00-1.58-.257c-.71 0-1.279.165-1.707.496-.416.33-.624.771-.624 1.322 0 .416.134.771.404 1.065.269.281.624.526 1.065.734.44.208.9.404 1.377.588.416.159.826.336 1.23.532s.765.44 1.083.735c.33.293.588.654.771 1.083.196.428.294.96.294 1.597 0 .698-.177 1.335-.532 1.91-.343.575-.839 1.028-1.488 1.359-.648.33-1.42.495-2.313.495-.588 0-1.15-.067-1.69-.202a8.636 8.636 0 01-1.468-.514 10.85 10.85 0 01-1.212-.68l.79-1.395c.293.208.63.41 1.01.606.379.184.777.337 1.193.46.416.11.82.165 1.212.165.416 0 .826-.074 1.23-.22a2.49 2.49 0 001.028-.717c.27-.318.404-.74.404-1.267 0-.453-.122-.826-.367-1.12a2.805 2.805 0 00-.937-.77 9.746 9.746 0 00-1.248-.588 35.15 35.15 0 01-1.267-.514 6.773 6.773 0 01-1.194-.698 3.233 3.233 0 01-.88-1.028c-.221-.404-.331-.894-.331-1.47 0-.697.165-1.303.495-1.817a3.491 3.491 0 011.396-1.23c.587-.306 1.26-.471 2.02-.496.856 0 1.61.104 2.258.312a7.894 7.894 0 011.744.771l-.68 1.36zm3.397 10.906V5.371h1.67v8.372l-.036-.312c.257-.502.649-.918 1.175-1.249.539-.33 1.17-.496 1.891-.496.723 0 1.31.214 1.763.643.465.416.704.96.716 1.634v5.618h-1.726V14.57c-.012-.416-.134-.753-.367-1.01-.22-.27-.57-.404-1.047-.404-.44 0-.838.129-1.193.386a2.548 2.548 0 00-.845 1.01c-.195.428-.293.918-.293 1.468v3.562h-1.708zm13.307.184c-.71 0-1.359-.153-1.947-.459a3.45 3.45 0 01-1.377-1.34c-.33-.6-.495-1.328-.495-2.185 0-.845.177-1.573.532-2.185a3.699 3.699 0 011.414-1.432c.6-.33 1.255-.496 1.965-.496.71 0 1.31.165 1.799.496.49.318.863.697 1.12 1.138l-.11.294.165-1.616h1.579v7.601h-1.708v-1.983l.184.441c-.049.122-.16.282-.33.477-.16.184-.38.374-.662.57a3.99 3.99 0 01-.936.495 3.646 3.646 0 01-1.193.184zm.459-1.414c.428 0 .814-.08 1.156-.238.343-.16.625-.38.845-.661a2.48 2.48 0 00.477-1.047v-1.487a2.263 2.263 0 00-.514-.955 2.414 2.414 0 00-.881-.643 2.67 2.67 0 00-1.138-.238c-.453 0-.87.11-1.249.33-.38.22-.685.526-.918.918-.22.392-.33.851-.33 1.377a2.639 2.639 0 001.285 2.295 2.44 2.44 0 001.267.35zm8.665-6.37l.165 2.202-.092-.293c.196-.466.478-.857.845-1.176.38-.33.771-.58 1.175-.752.416-.184.777-.276 1.083-.276l-.092 1.69c-.575-.037-1.083.073-1.523.33-.429.257-.772.6-1.029 1.028a2.73 2.73 0 00-.367 1.377v3.47h-1.69v-7.6h1.525zm8.582 7.784c-.87 0-1.616-.171-2.24-.514a3.793 3.793 0 01-1.45-1.432c-.331-.612-.497-1.31-.497-2.093 0-.747.19-1.426.57-2.038a4.277 4.277 0 011.523-1.47 4.185 4.185 0 012.13-.55c1.004 0 1.836.294 2.497.881.661.588 1.108 1.396 1.341 2.424l-6.261 2.203-.404-1.01 5.141-1.873-.367.24a2.478 2.478 0 00-.735-1.047c-.343-.306-.789-.46-1.34-.46-.465 0-.882.117-1.249.35-.367.22-.655.526-.863.918a2.813 2.813 0 00-.312 1.34c0 .526.11.991.33 1.395.221.392.52.704.9.937.392.22.833.33 1.322.33.331 0 .649-.061.955-.183.318-.123.612-.282.881-.478l.79 1.267c-.38.257-.808.465-1.285.624a4.22 4.22 0 01-1.377.239zm-72.337 18a4.15 4.15 0 01-1.946-.459 3.45 3.45 0 01-1.377-1.34c-.33-.6-.496-1.328-.496-2.185 0-.845.177-1.573.532-2.185a3.699 3.699 0 011.414-1.432c.6-.33 1.255-.496 1.965-.496.71 0 1.31.165 1.799.496.49.318.863.697 1.12 1.138l-.11.294.165-1.616h1.58v7.601h-1.708v-1.983l.183.441c-.049.122-.159.282-.33.477-.16.184-.38.374-.661.57a3.99 3.99 0 01-.937.495 3.646 3.646 0 01-1.193.184zm.459-1.414c.428 0 .814-.08 1.157-.239.342-.159.624-.379.844-.66.233-.294.392-.643.478-1.047v-1.487a2.264 2.264 0 00-.515-.955 2.414 2.414 0 00-.88-.643 2.671 2.671 0 00-1.14-.238c-.452 0-.868.11-1.248.33a2.54 2.54 0 00-.918.918c-.22.392-.33.851-.33 1.377a2.638 2.638 0 001.285 2.295 2.44 2.44 0 001.267.35zm12.822-6.37l.147 1.707-.074-.147a3.304 3.304 0 011.194-1.359c.526-.33 1.126-.496 1.8-.496.428 0 .807.068 1.138.202.33.135.6.33.807.588.22.245.361.55.423.918l-.092.055a3.23 3.23 0 011.212-1.285 3.146 3.146 0 011.652-.478c.747 0 1.334.215 1.763.643.44.416.667.96.68 1.634v5.618h-1.708V32.57c-.013-.392-.11-.716-.294-.973-.172-.27-.478-.416-.918-.44-.44 0-.839.134-1.194.403-.342.27-.612.618-.807 1.047a3.35 3.35 0 00-.313 1.358v3.617h-1.707V32.57c-.013-.392-.117-.716-.312-.973-.184-.27-.496-.416-.937-.44-.453 0-.85.134-1.193.403a2.77 2.77 0 00-.808 1.047 3.458 3.458 0 00-.276 1.377v3.598h-1.707v-7.6h1.524zm12.966 3.726c0-.759.178-1.444.533-2.056a3.987 3.987 0 011.505-1.45c.637-.356 1.359-.533 2.167-.533.832 0 1.56.177 2.185.532a3.754 3.754 0 011.45 1.45c.343.613.514 1.298.514 2.057 0 .76-.171 1.45-.514 2.075a3.72 3.72 0 01-1.469 1.45c-.624.355-1.352.533-2.185.533-.807 0-1.53-.165-2.166-.496a3.93 3.93 0 01-1.487-1.413c-.355-.613-.533-1.329-.533-2.149zm1.708.019c0 .49.11.936.33 1.34.22.392.514.704.881.936.38.233.796.35 1.249.35.477 0 .9-.117 1.267-.35.38-.232.673-.544.881-.936.208-.404.312-.85.312-1.34 0-.49-.104-.93-.312-1.322a2.37 2.37 0 00-.881-.955 2.23 2.23 0 00-1.267-.367c-.465 0-.887.122-1.267.367a2.72 2.72 0 00-.881.973 2.735 2.735 0 00-.312 1.304zm10.482-3.746l.147 1.708-.073-.147a3.305 3.305 0 011.193-1.359c.526-.33 1.126-.496 1.8-.496.428 0 .807.068 1.138.202.33.135.6.33.808.588.22.245.36.55.422.918l-.092.055a3.23 3.23 0 011.212-1.285 3.147 3.147 0 011.652-.478c.747 0 1.335.215 1.763.643.44.416.667.96.68 1.634v5.618H76.27V32.57c-.012-.392-.11-.716-.294-.973-.171-.27-.477-.416-.918-.44-.44 0-.839.134-1.193.403a2.77 2.77 0 00-.808 1.047 3.35 3.35 0 00-.312 1.358v3.617h-1.708V32.57c-.012-.392-.116-.716-.312-.973-.184-.27-.496-.416-.936-.44a1.88 1.88 0 00-1.194.403 2.77 2.77 0 00-.808 1.047 3.458 3.458 0 00-.275 1.377v3.598h-1.708v-7.6h1.524zm17.153 7.785c-.87 0-1.616-.171-2.24-.514a3.794 3.794 0 01-1.45-1.432c-.331-.612-.497-1.31-.497-2.093 0-.747.19-1.426.57-2.038a4.276 4.276 0 011.523-1.47 4.185 4.185 0 012.13-.55c1.004 0 1.836.294 2.497.881.661.588 1.108 1.396 1.34 2.424l-6.26 2.203-.404-1.01 5.14-1.872-.366.238a2.478 2.478 0 00-.735-1.046c-.343-.306-.79-.46-1.34-.46-.465 0-.882.117-1.249.35-.367.22-.655.526-.863.918a2.814 2.814 0 00-.312 1.34c0 .526.11.991.33 1.395.221.392.52.704.9.937.392.22.833.33 1.322.33.33 0 .65-.061.955-.184a3.8 3.8 0 00.881-.477l.79 1.267a5.22 5.22 0 01-1.285.624 4.22 4.22 0 01-1.377.239zm7.537-7.785l.147 1.854-.073-.293a2.873 2.873 0 011.193-1.34c.55-.343 1.188-.515 1.91-.515s1.31.215 1.762.643c.465.416.704.96.716 1.634v5.618h-1.726V32.57c-.012-.416-.134-.753-.367-1.01-.22-.27-.569-.404-1.046-.404a2.06 2.06 0 00-1.194.367 2.548 2.548 0 00-.844 1.01c-.196.429-.294.924-.294 1.487v3.562h-1.708v-7.6h1.524zm9.359-3.342h1.708v3.379h2.093v1.34h-2.093v6.224h-1.708v-6.224h-1.395v-1.34h1.395v-3.379zM27.093 47.98H28.8v7.601h-1.707v-7.6zm-.129-2.754a.87.87 0 01.312-.68 1.1 1.1 0 01.716-.275c.257 0 .484.092.68.276a.87.87 0 01.312.679.89.89 0 01-.312.698 1.001 1.001 0 01-.68.257c-.257 0-.495-.092-.716-.276a.87.87 0 01-.312-.679zm6.315 2.754l.146 1.855-.073-.294a2.873 2.873 0 011.193-1.34c.551-.343 1.188-.515 1.91-.515s1.31.215 1.763.643c.465.416.703.96.716 1.634v5.618h-1.726V50.57c-.013-.416-.135-.753-.368-1.01-.22-.27-.569-.404-1.046-.404-.44 0-.839.123-1.194.367a2.548 2.548 0 00-.844 1.01c-.196.429-.294.924-.294 1.487v3.562h-1.708v-7.6h1.524zm17.592 7.785a4.15 4.15 0 01-1.947-.459 3.45 3.45 0 01-1.377-1.34c-.33-.6-.495-1.328-.495-2.185 0-.845.177-1.573.532-2.185a3.699 3.699 0 011.414-1.432c.6-.33 1.254-.496 1.964-.496s1.31.165 1.8.496c.49.318.863.697 1.12 1.138l-.11.294.165-1.616h1.579v7.601h-1.708v-1.983l.184.441c-.05.122-.16.282-.33.477-.16.184-.38.374-.662.57a3.99 3.99 0 01-.936.495 3.646 3.646 0 01-1.193.184zm.459-1.414c.428 0 .814-.08 1.156-.239.343-.159.625-.379.845-.66.232-.294.392-.643.477-1.047v-1.487a2.263 2.263 0 00-.514-.955 2.414 2.414 0 00-.881-.643 2.671 2.671 0 00-1.138-.238c-.453 0-.87.11-1.249.33-.38.22-.686.526-.918.918-.22.392-.33.851-.33 1.377a2.638 2.638 0 001.285 2.295 2.44 2.44 0 001.267.35zm15.08 1.377a4.662 4.662 0 01-1.579-.275 3.136 3.136 0 01-1.248-.863l.716-.992c.318.306.642.539.973.698.342.147.679.22 1.01.22.244 0 .47-.03.679-.091.208-.061.373-.16.496-.294.134-.147.202-.343.202-.588a.805.805 0 00-.276-.642 1.902 1.902 0 00-.68-.386c-.269-.098-.556-.19-.862-.275-.624-.208-1.102-.496-1.432-.863-.33-.367-.496-.814-.496-1.34 0-.404.098-.778.294-1.12a2.35 2.35 0 01.9-.864c.403-.22.9-.33 1.487-.33.526 0 .997.067 1.413.202.417.122.808.33 1.175.624l-.679 1.065a2.008 2.008 0 00-.79-.514 2.899 2.899 0 00-.826-.184 1.46 1.46 0 00-.606.092 1.223 1.223 0 00-.459.312.686.686 0 00-.183.478c0 .257.086.465.257.624.171.16.392.288.66.386.282.085.558.177.827.275a4 4 0 011.01.44c.294.184.526.41.698.68.183.27.275.606.275 1.01 0 .453-.11.875-.33 1.267-.209.38-.533.685-.974.918-.428.22-.979.33-1.652.33zm6.871-7.748l.147 1.855-.073-.294a2.873 2.873 0 011.193-1.34c.55-.343 1.187-.515 1.91-.515.722 0 1.31.215 1.762.643.465.416.704.96.716 1.634v5.618H77.21V50.57c-.012-.416-.134-.753-.367-1.01-.22-.27-.57-.404-1.047-.404-.44 0-.838.123-1.193.367a2.548 2.548 0 00-.845 1.01c-.195.429-.293.924-.293 1.487v3.562h-1.708v-7.6h1.524zm11.783 7.785c-.71 0-1.359-.153-1.946-.459a3.45 3.45 0 01-1.378-1.34c-.33-.6-.495-1.328-.495-2.185 0-.845.177-1.573.532-2.185a3.699 3.699 0 011.414-1.432c.6-.33 1.255-.496 1.965-.496.71 0 1.31.165 1.799.496.49.318.863.697 1.12 1.138l-.11.294.165-1.616h1.579v7.601h-1.708v-1.983l.184.441c-.049.122-.16.282-.33.477a3.58 3.58 0 01-.661.57 4.01 4.01 0 01-.937.495 3.646 3.646 0 01-1.193.184zm.459-1.414c.428 0 .814-.08 1.157-.239.342-.159.624-.379.844-.66a2.48 2.48 0 00.477-1.047v-1.487a2.263 2.263 0 00-.514-.955 2.414 2.414 0 00-.881-.643 2.67 2.67 0 00-1.138-.238c-.453 0-.87.11-1.249.33-.38.22-.685.526-.918.918-.22.392-.33.851-.33 1.377a2.638 2.638 0 001.285 2.295 2.44 2.44 0 001.267.35zm11.62 1.414a3.692 3.692 0 01-1.67-.404 3.125 3.125 0 01-1.23-1.083l.11-.533v5.49h-1.69V47.87h1.47l.238 1.946-.183-.532a4.468 4.468 0 011.395-1.157 3.896 3.896 0 011.891-.46c.71 0 1.347.172 1.91.515.575.343 1.028.82 1.359 1.432.33.612.495 1.328.495 2.148 0 .82-.177 1.53-.532 2.13a3.665 3.665 0 01-1.469 1.396c-.612.318-1.31.477-2.093.477zm-.33-1.359c.49 0 .937-.11 1.34-.33a2.7 2.7 0 00.992-.937 2.57 2.57 0 00.367-1.358c0-.514-.116-.967-.348-1.359a2.596 2.596 0 00-.937-.955 2.41 2.41 0 00-1.285-.349c-.44 0-.839.086-1.193.258-.355.17-.65.41-.882.716a2.68 2.68 0 00-.496 1.028v1.267a2.3 2.3 0 00.441 1.046c.233.306.52.545.863.716.355.172.734.257 1.138.257zm6.294-12.76h1.542v10.502h-1.542V41.646zm.826 13.862c-.318 0-.581-.092-.789-.276a.89.89 0 01-.312-.697.89.89 0 01.312-.698c.208-.196.471-.294.789-.294.306 0 .557.098.753.294a.89.89 0 01.312.698.89.89 0 01-.312.698c-.196.183-.447.275-.753.275z"/></mask><path d="M66.818 8.675a9.667 9.667 0 00-1.487-.606 5.192 5.192 0 00-1.58-.257c-.71 0-1.279.165-1.707.496-.416.33-.624.771-.624 1.322 0 .416.134.771.404 1.065.269.281.624.526 1.065.734.44.208.9.404 1.377.588.416.159.826.336 1.23.532s.765.44 1.083.735c.33.293.588.654.771 1.083.196.428.294.96.294 1.597 0 .698-.177 1.335-.532 1.91-.343.575-.839 1.028-1.488 1.359-.648.33-1.42.495-2.313.495-.588 0-1.15-.067-1.69-.202a8.636 8.636 0 01-1.468-.514 10.85 10.85 0 01-1.212-.68l.79-1.395c.293.208.63.41 1.01.606.379.184.777.337 1.193.46.416.11.82.165 1.212.165.416 0 .826-.074 1.23-.22a2.49 2.49 0 001.028-.717c.27-.318.404-.74.404-1.267 0-.453-.122-.826-.367-1.12a2.805 2.805 0 00-.937-.77 9.746 9.746 0 00-1.248-.588 35.15 35.15 0 01-1.267-.514 6.773 6.773 0 01-1.194-.698 3.233 3.233 0 01-.88-1.028c-.221-.404-.331-.894-.331-1.47 0-.697.165-1.303.495-1.817a3.491 3.491 0 011.396-1.23c.587-.306 1.26-.471 2.02-.496.856 0 1.61.104 2.258.312a7.894 7.894 0 011.744.771l-.68 1.36zm3.397 10.906V5.371h1.67v8.372l-.036-.312c.257-.502.649-.918 1.175-1.249.539-.33 1.17-.496 1.891-.496.723 0 1.31.214 1.763.643.465.416.704.96.716 1.634v5.618h-1.726V14.57c-.012-.416-.134-.753-.367-1.01-.22-.27-.57-.404-1.047-.404-.44 0-.838.129-1.193.386a2.548 2.548 0 00-.845 1.01c-.195.428-.293.918-.293 1.468v3.562h-1.708zm13.307.184c-.71 0-1.359-.153-1.947-.459a3.45 3.45 0 01-1.377-1.34c-.33-.6-.495-1.328-.495-2.185 0-.845.177-1.573.532-2.185a3.699 3.699 0 011.414-1.432c.6-.33 1.255-.496 1.965-.496.71 0 1.31.165 1.799.496.49.318.863.697 1.12 1.138l-.11.294.165-1.616h1.579v7.601h-1.708v-1.983l.184.441c-.049.122-.16.282-.33.477-.16.184-.38.374-.662.57a3.99 3.99 0 01-.936.495 3.646 3.646 0 01-1.193.184zm.459-1.414c.428 0 .814-.08 1.156-.238.343-.16.625-.38.845-.661a2.48 2.48 0 00.477-1.047v-1.487a2.263 2.263 0 00-.514-.955 2.414 2.414 0 00-.881-.643 2.67 2.67 0 00-1.138-.238c-.453 0-.87.11-1.249.33-.38.22-.685.526-.918.918-.22.392-.33.851-.33 1.377a2.639 2.639 0 001.285 2.295 2.44 2.44 0 001.267.35zm8.665-6.37l.165 2.202-.092-.293c.196-.466.478-.857.845-1.176.38-.33.771-.58 1.175-.752.416-.184.777-.276 1.083-.276l-.092 1.69c-.575-.037-1.083.073-1.523.33-.429.257-.772.6-1.029 1.028a2.73 2.73 0 00-.367 1.377v3.47h-1.69v-7.6h1.525zm8.582 7.784c-.87 0-1.616-.171-2.24-.514a3.793 3.793 0 01-1.45-1.432c-.331-.612-.497-1.31-.497-2.093 0-.747.19-1.426.57-2.038a4.277 4.277 0 011.523-1.47 4.185 4.185 0 012.13-.55c1.004 0 1.836.294 2.497.881.661.588 1.108 1.396 1.341 2.424l-6.261 2.203-.404-1.01 5.141-1.873-.367.24a2.478 2.478 0 00-.735-1.047c-.343-.306-.789-.46-1.34-.46-.465 0-.882.117-1.249.35-.367.22-.655.526-.863.918a2.813 2.813 0 00-.312 1.34c0 .526.11.991.33 1.395.221.392.52.704.9.937.392.22.833.33 1.322.33.331 0 .649-.061.955-.183.318-.123.612-.282.881-.478l.79 1.267c-.38.257-.808.465-1.285.624a4.22 4.22 0 01-1.377.239zm-72.337 18a4.15 4.15 0 01-1.946-.459 3.45 3.45 0 01-1.377-1.34c-.33-.6-.496-1.328-.496-2.185 0-.845.177-1.573.532-2.185a3.699 3.699 0 011.414-1.432c.6-.33 1.255-.496 1.965-.496.71 0 1.31.165 1.799.496.49.318.863.697 1.12 1.138l-.11.294.165-1.616h1.58v7.601h-1.708v-1.983l.183.441c-.049.122-.159.282-.33.477-.16.184-.38.374-.661.57a3.99 3.99 0 01-.937.495 3.646 3.646 0 01-1.193.184zm.459-1.414c.428 0 .814-.08 1.157-.239.342-.159.624-.379.844-.66.233-.294.392-.643.478-1.047v-1.487a2.264 2.264 0 00-.515-.955 2.414 2.414 0 00-.88-.643 2.671 2.671 0 00-1.14-.238c-.452 0-.868.11-1.248.33a2.54 2.54 0 00-.918.918c-.22.392-.33.851-.33 1.377a2.638 2.638 0 001.285 2.295 2.44 2.44 0 001.267.35zm12.822-6.37l.147 1.707-.074-.147a3.304 3.304 0 011.194-1.359c.526-.33 1.126-.496 1.8-.496.428 0 .807.068 1.138.202.33.135.6.33.807.588.22.245.361.55.423.918l-.092.055a3.23 3.23 0 011.212-1.285 3.146 3.146 0 011.652-.478c.747 0 1.334.215 1.763.643.44.416.667.96.68 1.634v5.618h-1.708V32.57c-.013-.392-.11-.716-.294-.973-.172-.27-.478-.416-.918-.44-.44 0-.839.134-1.194.403-.342.27-.612.618-.807 1.047a3.35 3.35 0 00-.313 1.358v3.617h-1.707V32.57c-.013-.392-.117-.716-.312-.973-.184-.27-.496-.416-.937-.44-.453 0-.85.134-1.193.403a2.77 2.77 0 00-.808 1.047 3.458 3.458 0 00-.276 1.377v3.598h-1.707v-7.6h1.524zm12.966 3.726c0-.759.178-1.444.533-2.056a3.987 3.987 0 011.505-1.45c.637-.356 1.359-.533 2.167-.533.832 0 1.56.177 2.185.532a3.754 3.754 0 011.45 1.45c.343.613.514 1.298.514 2.057 0 .76-.171 1.45-.514 2.075a3.72 3.72 0 01-1.469 1.45c-.624.355-1.352.533-2.185.533-.807 0-1.53-.165-2.166-.496a3.93 3.93 0 01-1.487-1.413c-.355-.613-.533-1.329-.533-2.149zm1.708.019c0 .49.11.936.33 1.34.22.392.514.704.881.936.38.233.796.35 1.249.35.477 0 .9-.117 1.267-.35.38-.232.673-.544.881-.936.208-.404.312-.85.312-1.34 0-.49-.104-.93-.312-1.322a2.37 2.37 0 00-.881-.955 2.23 2.23 0 00-1.267-.367c-.465 0-.887.122-1.267.367a2.72 2.72 0 00-.881.973 2.735 2.735 0 00-.312 1.304zm10.482-3.746l.147 1.708-.073-.147a3.305 3.305 0 011.193-1.359c.526-.33 1.126-.496 1.8-.496.428 0 .807.068 1.138.202.33.135.6.33.808.588.22.245.36.55.422.918l-.092.055a3.23 3.23 0 011.212-1.285 3.147 3.147 0 011.652-.478c.747 0 1.335.215 1.763.643.44.416.667.96.68 1.634v5.618H76.27V32.57c-.012-.392-.11-.716-.294-.973-.171-.27-.477-.416-.918-.44-.44 0-.839.134-1.193.403a2.77 2.77 0 00-.808 1.047 3.35 3.35 0 00-.312 1.358v3.617h-1.708V32.57c-.012-.392-.116-.716-.312-.973-.184-.27-.496-.416-.936-.44a1.88 1.88 0 00-1.194.403 2.77 2.77 0 00-.808 1.047 3.458 3.458 0 00-.275 1.377v3.598h-1.708v-7.6h1.524zm17.153 7.785c-.87 0-1.616-.171-2.24-.514a3.794 3.794 0 01-1.45-1.432c-.331-.612-.497-1.31-.497-2.093 0-.747.19-1.426.57-2.038a4.276 4.276 0 011.523-1.47 4.185 4.185 0 012.13-.55c1.004 0 1.836.294 2.497.881.661.588 1.108 1.396 1.34 2.424l-6.26 2.203-.404-1.01 5.14-1.872-.366.238a2.478 2.478 0 00-.735-1.046c-.343-.306-.79-.46-1.34-.46-.465 0-.882.117-1.249.35-.367.22-.655.526-.863.918a2.814 2.814 0 00-.312 1.34c0 .526.11.991.33 1.395.221.392.52.704.9.937.392.22.833.33 1.322.33.33 0 .65-.061.955-.184a3.8 3.8 0 00.881-.477l.79 1.267a5.22 5.22 0 01-1.285.624 4.22 4.22 0 01-1.377.239zm7.537-7.785l.147 1.854-.073-.293a2.873 2.873 0 011.193-1.34c.55-.343 1.188-.515 1.91-.515s1.31.215 1.762.643c.465.416.704.96.716 1.634v5.618h-1.726V32.57c-.012-.416-.134-.753-.367-1.01-.22-.27-.569-.404-1.046-.404a2.06 2.06 0 00-1.194.367 2.548 2.548 0 00-.844 1.01c-.196.429-.294.924-.294 1.487v3.562h-1.708v-7.6h1.524zm9.359-3.342h1.708v3.379h2.093v1.34h-2.093v6.224h-1.708v-6.224h-1.395v-1.34h1.395v-3.379zM27.093 47.98H28.8v7.601h-1.707v-7.6zm-.129-2.754a.87.87 0 01.312-.68 1.1 1.1 0 01.716-.275c.257 0 .484.092.68.276a.87.87 0 01.312.679.89.89 0 01-.312.698 1.001 1.001 0 01-.68.257c-.257 0-.495-.092-.716-.276a.87.87 0 01-.312-.679zm6.315 2.754l.146 1.855-.073-.294a2.873 2.873 0 011.193-1.34c.551-.343 1.188-.515 1.91-.515s1.31.215 1.763.643c.465.416.703.96.716 1.634v5.618h-1.726V50.57c-.013-.416-.135-.753-.368-1.01-.22-.27-.569-.404-1.046-.404-.44 0-.839.123-1.194.367a2.548 2.548 0 00-.844 1.01c-.196.429-.294.924-.294 1.487v3.562h-1.708v-7.6h1.524zm17.592 7.785a4.15 4.15 0 01-1.947-.459 3.45 3.45 0 01-1.377-1.34c-.33-.6-.495-1.328-.495-2.185 0-.845.177-1.573.532-2.185a3.699 3.699 0 011.414-1.432c.6-.33 1.254-.496 1.964-.496s1.31.165 1.8.496c.49.318.863.697 1.12 1.138l-.11.294.165-1.616h1.579v7.601h-1.708v-1.983l.184.441c-.05.122-.16.282-.33.477-.16.184-.38.374-.662.57a3.99 3.99 0 01-.936.495 3.646 3.646 0 01-1.193.184zm.459-1.414c.428 0 .814-.08 1.156-.239.343-.159.625-.379.845-.66.232-.294.392-.643.477-1.047v-1.487a2.263 2.263 0 00-.514-.955 2.414 2.414 0 00-.881-.643 2.671 2.671 0 00-1.138-.238c-.453 0-.87.11-1.249.33-.38.22-.686.526-.918.918-.22.392-.33.851-.33 1.377a2.638 2.638 0 001.285 2.295 2.44 2.44 0 001.267.35zm15.08 1.377a4.662 4.662 0 01-1.579-.275 3.136 3.136 0 01-1.248-.863l.716-.992c.318.306.642.539.973.698.342.147.679.22 1.01.22.244 0 .47-.03.679-.091.208-.061.373-.16.496-.294.134-.147.202-.343.202-.588a.805.805 0 00-.276-.642 1.902 1.902 0 00-.68-.386c-.269-.098-.556-.19-.862-.275-.624-.208-1.102-.496-1.432-.863-.33-.367-.496-.814-.496-1.34 0-.404.098-.778.294-1.12a2.35 2.35 0 01.9-.864c.403-.22.9-.33 1.487-.33.526 0 .997.067 1.413.202.417.122.808.33 1.175.624l-.679 1.065a2.008 2.008 0 00-.79-.514 2.899 2.899 0 00-.826-.184 1.46 1.46 0 00-.606.092 1.223 1.223 0 00-.459.312.686.686 0 00-.183.478c0 .257.086.465.257.624.171.16.392.288.66.386.282.085.558.177.827.275a4 4 0 011.01.44c.294.184.526.41.698.68.183.27.275.606.275 1.01 0 .453-.11.875-.33 1.267-.209.38-.533.685-.974.918-.428.22-.979.33-1.652.33zm6.871-7.748l.147 1.855-.073-.294a2.873 2.873 0 011.193-1.34c.55-.343 1.187-.515 1.91-.515.722 0 1.31.215 1.762.643.465.416.704.96.716 1.634v5.618H77.21V50.57c-.012-.416-.134-.753-.367-1.01-.22-.27-.57-.404-1.047-.404-.44 0-.838.123-1.193.367a2.548 2.548 0 00-.845 1.01c-.195.429-.293.924-.293 1.487v3.562h-1.708v-7.6h1.524zm11.783 7.785c-.71 0-1.359-.153-1.946-.459a3.45 3.45 0 01-1.378-1.34c-.33-.6-.495-1.328-.495-2.185 0-.845.177-1.573.532-2.185a3.699 3.699 0 011.414-1.432c.6-.33 1.255-.496 1.965-.496.71 0 1.31.165 1.799.496.49.318.863.697 1.12 1.138l-.11.294.165-1.616h1.579v7.601h-1.708v-1.983l.184.441c-.049.122-.16.282-.33.477a3.58 3.58 0 01-.661.57 4.01 4.01 0 01-.937.495 3.646 3.646 0 01-1.193.184zm.459-1.414c.428 0 .814-.08 1.157-.239.342-.159.624-.379.844-.66a2.48 2.48 0 00.477-1.047v-1.487a2.263 2.263 0 00-.514-.955 2.414 2.414 0 00-.881-.643 2.67 2.67 0 00-1.138-.238c-.453 0-.87.11-1.249.33-.38.22-.685.526-.918.918-.22.392-.33.851-.33 1.377a2.638 2.638 0 001.285 2.295 2.44 2.44 0 001.267.35zm11.62 1.414a3.692 3.692 0 01-1.67-.404 3.125 3.125 0 01-1.23-1.083l.11-.533v5.49h-1.69V47.87h1.47l.238 1.946-.183-.532a4.468 4.468 0 011.395-1.157 3.896 3.896 0 011.891-.46c.71 0 1.347.172 1.91.515.575.343 1.028.82 1.359 1.432.33.612.495 1.328.495 2.148 0 .82-.177 1.53-.532 2.13a3.665 3.665 0 01-1.469 1.396c-.612.318-1.31.477-2.093.477zm-.33-1.359c.49 0 .937-.11 1.34-.33a2.7 2.7 0 00.992-.937 2.57 2.57 0 00.367-1.358c0-.514-.116-.967-.348-1.359a2.596 2.596 0 00-.937-.955 2.41 2.41 0 00-1.285-.349c-.44 0-.839.086-1.193.258-.355.17-.65.41-.882.716a2.68 2.68 0 00-.496 1.028v1.267a2.3 2.3 0 00.441 1.046c.233.306.52.545.863.716.355.172.734.257 1.138.257zm6.294-12.76h1.542v10.502h-1.542V41.646zm.826 13.862c-.318 0-.581-.092-.789-.276a.89.89 0 01-.312-.697.89.89 0 01.312-.698c.208-.196.471-.294.789-.294.306 0 .557.098.753.294a.89.89 0 01.312.698.89.89 0 01-.312.698c-.196.183-.447.275-.753.275z" fill="#CE2073"/><path d="M66.818 8.675l-.262.51a.574.574 0 00.775-.253l-.513-.257zm-4.774-.367l-.35-.454-.007.005.357.449zm-.22 2.387l-.423.388.008.008.415-.396zm1.065.734l.245-.519-.245.52zm1.377.588l-.206.535.206-.535zm2.313 1.267l-.39.421.009.008.381-.43zm.771 1.083l-.527.226.005.012.522-.238zm-.238 3.507l-.489-.301-.004.007.493.294zm-1.488 1.359l.26.51-.26-.51zm-4.002.293l-.142.556h.003l.139-.556zm-1.47-.514l-.25.516.011.006.24-.522zm-1.21-.68l-.5-.282a.574.574 0 00.185.763l.314-.48zm.789-1.395l.331-.468a.574.574 0 00-.83.186l.499.282zm1.01.606l-.264.51a.406.406 0 00.014.007l.25-.517zm1.193.46l-.162.55.015.004.147-.555zm2.442-.056l.196.54.009-.004-.205-.536zm1.028-.716l.438.37-.438-.37zm.037-2.387l-.457.348.016.02.44-.368zm-.937-.77l-.281.5.012.006.27-.507zm-1.248-.588l.208-.535-.003-.001-.205.536zm-1.267-.514l-.239.521.013.006.226-.527zm-1.194-.698l-.349.455.01.008.34-.463zm-.88-1.028l-.505.274.504-.274zm.165-3.287l-.481-.313-.002.003.483.31zm1.395-1.23l.256.513.009-.004-.265-.51zm2.02-.496V5.66h-.019l.019.574zm2.258.312l-.175.547h.003l.172-.547zm1.744.771l.513.257a.574.574 0 00-.214-.746l-.299.49zm-.417.849a10.243 10.243 0 00-1.575-.642l-.348 1.093c.511.163.977.353 1.399.57l.524-1.021zm-1.575-.642a5.765 5.765 0 00-1.753-.285v1.148c.45 0 .917.075 1.405.23l.348-1.093zm-1.753-.285c-.797 0-1.502.187-2.058.616l.7.908c.301-.232.735-.376 1.358-.376V7.238zm-2.065.62c-.559.444-.841 1.053-.841 1.772h1.148c0-.383.133-.656.407-.873l-.714-.898zm-.841 1.772c0 .553.184 1.048.555 1.452l.846-.775a.947.947 0 01-.253-.677h-1.148zm.563 1.461c.328.344.746.626 1.235.857l.49-1.038c-.393-.185-.685-.392-.896-.612l-.829.793zm1.235.857c.454.214.926.416 1.416.604l.412-1.07c-.465-.18-.911-.37-1.338-.572l-.49 1.038zm1.417.605c.4.153.795.324 1.184.512l.501-1.032a16.092 16.092 0 00-1.275-.552l-.41 1.072zm1.184.512c.356.173.67.386.945.64l.778-.843a5.017 5.017 0 00-1.222-.829l-.5 1.033zm.953.648c.264.234.473.525.625.88l1.055-.452a3.591 3.591 0 00-.918-1.286l-.762.857zm.63.893c.152.332.242.777.242 1.358h1.148c0-.691-.106-1.31-.346-1.836l-1.044.477zm.242 1.358c0 .595-.15 1.127-.447 1.609l.977.602c.413-.669.618-1.41.618-2.21H67.07zm-.451 1.616c-.283.474-.694.856-1.255 1.141l.52 1.023c.737-.375 1.318-.9 1.72-1.576l-.985-.588zm-1.255 1.141c-.552.281-1.23.433-2.053.433v1.148c.964 0 1.828-.178 2.574-.558l-.521-1.023zm-2.053.433c-.543 0-1.06-.062-1.55-.184l-.278 1.113a7.489 7.489 0 001.828.219v-1.148zm-1.547-.184a8.062 8.062 0 01-1.372-.48l-.479 1.044a9.22 9.22 0 001.567.548l.284-1.112zm-1.36-.474a10.404 10.404 0 01-1.149-.643l-.628.96c.378.248.804.486 1.275.715l.502-1.032zm-.964.12l.79-1.396-.999-.565-.79 1.395 1 .565zm-.041-1.21c.32.226.68.441 1.078.647l.527-1.02a7.894 7.894 0 01-.942-.564l-.663.937zm1.091.654c.41.198.837.362 1.282.493l.324-1.101a7.192 7.192 0 01-1.106-.425l-.5 1.033zm1.297.497a5.3 5.3 0 001.359.184v-1.147c-.338 0-.692-.048-1.065-.146l-.294 1.109zm1.359.184c.485 0 .961-.085 1.426-.255l-.392-1.078a3.001 3.001 0 01-1.034.186v1.147zm1.435-.258a3.05 3.05 0 001.261-.881l-.876-.741a1.911 1.911 0 01-.795.55l.41 1.072zm1.261-.881c.378-.447.54-1.012.54-1.638h-1.148c0 .428-.107.707-.268.897l.876.74zm.54-1.638c0-.56-.154-1.072-.5-1.487l-.882.735c.144.172.234.408.234.752h1.148zm-.484-1.467c-.29-.381-.67-.69-1.124-.93l-.539 1.013c.33.175.574.381.749.611l.914-.694zm-1.112-.924a10.326 10.326 0 00-1.322-.622l-.416 1.07c.417.161.808.346 1.175.552l.563-1zm-1.325-.623a33.925 33.925 0 01-1.246-.506l-.452 1.055c.435.186.864.36 1.288.523l.41-1.072zm-1.233-.5a6.198 6.198 0 01-1.093-.639l-.679.925c.4.294.832.546 1.294.757l.477-1.043zm-1.083-.631a2.66 2.66 0 01-.727-.848l-1.008.55c.26.474.606.878 1.036 1.208l.699-.91zm-.727-.848c-.164-.301-.26-.691-.26-1.194H59.01c0 .648.124 1.237.4 1.743l1.008-.55zm-.26-1.194c0-.604.141-1.099.404-1.508l-.965-.62c-.398.62-.587 1.336-.587 2.128h1.148zm.402-1.505c.285-.437.67-.78 1.171-1.03l-.513-1.026a4.066 4.066 0 00-1.62 1.43l.962.626zm1.18-1.034c.5-.261 1.087-.41 1.773-.431l-.037-1.147c-.832.027-1.592.209-2.266.56l.53 1.018zm1.755-.431c.812 0 1.503.099 2.083.285l.35-1.093c-.718-.23-1.532-.34-2.433-.34v1.148zm2.086.286a7.324 7.324 0 011.617.713l.598-.98a8.466 8.466 0 00-1.87-.828l-.345 1.095zm1.403-.033l-.68 1.359 1.027.513.68-1.359-1.027-.513zm3.231 12.521h-.574c0 .317.257.574.574.574v-.574zm0-14.21v-.575a.574.574 0 00-.574.574h.574zm1.67 0h.575a.574.574 0 00-.574-.575v.574zm0 8.372l-.569.067a.574.574 0 001.144-.067h-.574zm-.036-.312l-.51-.262a.574.574 0 00-.06.329l.57-.067zm1.175-1.249l-.3-.489-.005.003.305.486zm3.654.147l-.394.417a.401.401 0 00.011.01l.383-.427zm.716 1.634h.574v-.01l-.574.01zm0 5.618v.574a.574.574 0 00.574-.574h-.574zm-1.726 0h-.574c0 .317.257.574.574.574v-.574zm0-5.012h.574a.47.47 0 000-.017l-.574.017zm-.367-1.01l-.444.363a.657.657 0 00.019.022l.425-.385zm-2.24-.018l.326.472.01-.008-.336-.464zm-.845 1.01L71.7 14.3l-.005.012.521.239zm-.293 5.03v.574a.574.574 0 00.573-.574h-.573zm-1.134 0V5.371H69.64v14.21h1.148zm-.574-13.637h1.67V4.796h-1.67v1.148zm1.097-.574v8.373h1.148V5.37h-1.148zm1.144 8.306l-.037-.313-1.14.135.037.312 1.14-.134zm-.096.016c.205-.4.521-.743.97-1.024l-.61-.972c-.605.38-1.073.87-1.382 1.473l1.022.523zm.964-1.02c.436-.268.96-.412 1.591-.412v-1.147c-.812 0-1.55.187-2.19.58l.6.978zm1.591-.412c.6 0 1.04.174 1.369.486l.788-.834c-.576-.545-1.313-.8-2.157-.8v1.148zm1.38.497c.337.3.516.689.525 1.216l1.148-.02c-.015-.82-.313-1.52-.907-2.052l-.766.856zm.525 1.206v5.618h1.148v-5.618H76.82zm.574 5.045h-1.726v1.147h1.726v-1.147zm-1.152.573V14.57h-1.148v5.012h1.148zm0-5.029c-.016-.524-.174-1-.516-1.378l-.85.77c.123.136.21.333.219.642l1.147-.034zm-.497-1.356c-.366-.447-.909-.615-1.49-.615v1.148c.372 0 .527.102.602.193l.888-.726zm-1.49-.615a2.56 2.56 0 00-1.53.495l.672.93c.257-.186.537-.277.857-.277V12.58zm-1.52.487A3.12 3.12 0 0071.7 14.3l1.032.501c.17-.349.39-.605.655-.788l-.652-.945zm-1.04 1.244c-.236.515-.346 1.088-.346 1.707h1.147c0-.482.086-.888.242-1.23l-1.043-.477zm-.346 1.707v3.562h1.147V16.02H71.35zm.574 2.989h-1.708v1.147h1.708v-1.147zm9.653.298l-.27.507.004.002.266-.509zm-1.378-1.34l-.502.277.007.012.495-.29zm.037-4.37l.496.288.003-.005-.499-.283zm1.414-1.432l-.277-.503-.004.003.28.5zm3.764 0l-.321.475.008.006.313-.481zm1.12 1.138l.537.202a.574.574 0 00-.041-.491l-.496.289zm-.11.294l-.571-.059a.574.574 0 001.108.26l-.537-.201zm.165-1.616v-.574a.574.574 0 00-.57.516l.57.058zm1.579 0h.574a.574.574 0 00-.574-.574v.574zm0 7.601v.574a.574.574 0 00.574-.574h-.574zm-1.708 0h-.573c0 .317.257.574.573.574v-.574zm0-1.983l.53-.22a.574.574 0 00-1.103.22h.573zm.184.441l.533.213a.574.574 0 00-.003-.434l-.53.221zm-.33.477l-.432-.377-.002.002.433.376zm-.662.57l-.327-.471-.01.007.338.464zm-.936.495l.187.543a.791.791 0 00.017-.006l-.204-.537zm.422-1.468l-.241-.52.242.52zm.845-.661l-.45-.357-.002.003.452.354zm.477-1.047l.562.12a.575.575 0 00.012-.12h-.574zm0-1.487h.574c0-.05-.006-.1-.02-.148l-.554.148zm-.514-.955l-.433.377.009.009.424-.386zm-.881-.643l-.242.52.016.008.226-.528zm-2.387.092l-.288-.496.288.496zm-.918.918l-.493-.293-.007.012.5.281zm.019 2.718l.497-.287-.498.287zm1.744 2.143a3.576 3.576 0 01-1.681-.394l-.53 1.018a4.723 4.723 0 002.21.524V19.19zm-1.677-.392a2.877 2.877 0 01-1.151-1.122l-.991.578c.394.675.93 1.2 1.603 1.558l.539-1.014zM80.7 17.69c-.273-.497-.424-1.124-.424-1.908h-1.148c0 .93.18 1.758.567 2.462l1.005-.554zm-.424-1.908c0-.763.16-1.388.454-1.897l-.992-.576c-.415.715-.61 1.547-.61 2.473h1.147zm.457-1.902a3.12 3.12 0 011.196-1.215l-.562-1a4.272 4.272 0 00-1.632 1.648l.998.567zm1.192-1.213a3.43 3.43 0 011.688-.424v-1.148c-.804 0-1.554.188-2.242.567l.554 1.005zm1.688-.424c.618 0 1.1.143 1.478.397l.642-.95c-.602-.407-1.32-.595-2.12-.595v1.148zm1.486.403c.426.276.732.593.937.946l.991-.578c-.308-.529-.749-.97-1.302-1.33l-.626.962zm.896.456l-.11.293 1.074.403.11-.293-1.074-.403zm.998.553l.165-1.615-1.142-.117-.165 1.615 1.141.117zm-.406-1.1h1.579v-1.148h-1.58v1.148zm1.005-.574v7.601h1.148v-7.6h-1.148zm.574 7.028h-1.708v1.147h1.708v-1.147zm-1.134.573v-1.983h-1.147v1.983h1.147zM85.93 17.82l.183.44 1.06-.44-.184-.441-1.06.441zm.18.007c-.011.029-.067.128-.23.313l.864.755c.181-.206.345-.425.432-.642l-1.066-.426zm-.231.315a3.022 3.022 0 01-.555.474l.655.942c.306-.213.567-.434.767-.665l-.867-.751zm-.565.48a3.415 3.415 0 01-.802.424l.407 1.073c.396-.15.754-.339 1.07-.568l-.675-.928zm-.786.418a3.076 3.076 0 01-1.006.152v1.148c.493 0 .956-.069 1.38-.215l-.374-1.085zm-.547-.114c.5 0 .97-.093 1.398-.292l-.483-1.04c-.258.119-.56.184-.915.184v1.148zm1.398-.292c.42-.195.775-.47 1.055-.828l-.904-.707a1.687 1.687 0 01-.634.494l.483 1.041zm1.053-.825a3.06 3.06 0 00.589-1.284l-1.123-.238c-.07.326-.194.592-.366.81l.9.712zm.601-1.403v-1.487h-1.147v1.487h1.147zm-.02-1.635a2.837 2.837 0 00-.643-1.193l-.85.772c.181.198.31.434.385.717l1.109-.296zm-.635-1.184a2.987 2.987 0 00-1.088-.793l-.452 1.055c.263.113.486.275.674.491l.866-.753zm-1.072-.786a3.243 3.243 0 00-1.38-.292v1.148c.34 0 .637.064.896.185l.484-1.041zm-1.38-.292c-.551 0-1.067.135-1.537.408l.576.992a1.87 1.87 0 01.96-.252v-1.148zm-1.537.408a3.113 3.113 0 00-1.123 1.121l.986.586c.185-.31.422-.545.713-.715l-.576-.992zm-1.13 1.133c-.276.491-.404 1.05-.404 1.658h1.147c0-.445.093-.803.257-1.096l-1-.562zm-.404 1.658c0 .585.14 1.131.425 1.627l.995-.573a2.064 2.064 0 01-.273-1.054h-1.147zm.425 1.627c.28.487.662.878 1.14 1.162l.587-.987a2.022 2.022 0 01-.732-.748l-.995.573zm1.14 1.162c.48.285 1.004.429 1.56.429v-1.148c-.348 0-.67-.088-.973-.268l-.586.987zm10.226-6.516l.572-.043a.574.574 0 00-.572-.53v.573zm.165 2.203l-.548.171a.574.574 0 001.12-.214l-.572.043zm-.092-.293l-.529-.223a.574.574 0 00-.018.394l.547-.171zm.845-1.176l.376.434-.376-.434zm1.175-.752l.224.528.008-.003-.232-.525zm1.083-.276l.573.031a.574.574 0 00-.573-.604v.573zm-.092 1.69l-.036.572a.574.574 0 00.61-.541l-.574-.031zm-1.523.33l-.29-.496-.006.004.296.492zm-1.029 1.028l-.492-.295-.006.01.498.285zm-.367 4.847v.574a.574.574 0 00.574-.574h-.574zm-1.69 0h-.573c0 .317.257.574.574.574v-.574zm0-7.6v-.575a.574.574 0 00-.573.574h.574zm.953.042l.165 2.203 1.144-.086-.165-2.203-1.144.086zm1.285 1.99l-.092-.295-1.095.343.091.293 1.096-.342zm-.11.1c.162-.388.392-.707.69-.965l-.75-.867a3.72 3.72 0 00-.999 1.386l1.058.445zm.692-.966c.34-.296.681-.513 1.022-.657l-.448-1.056a4.98 4.98 0 00-1.328.848l.754.865zm1.03-.66c.375-.166.654-.227.851-.227v-1.147c-.415 0-.858.122-1.315.324l.463 1.05zm.278-.832l-.091 1.69 1.145.062.092-1.69-1.146-.062zm.518 1.148c-.674-.043-1.298.086-1.85.407l.579.992c.33-.193.721-.284 1.198-.254l.073-1.145zm-1.856.411a3.53 3.53 0 00-1.225 1.225l.984.59a2.38 2.38 0 01.832-.831l-.59-.984zm-1.23 1.236a3.304 3.304 0 00-.444 1.661h1.148c0-.389.096-.75.291-1.092l-.996-.57zm-.444 1.661v3.47h1.148v-3.47h-1.148zm.574 2.897h-1.69v1.147h1.69v-1.147zm-1.115.573v-7.6h-1.148v7.6h1.148zm-.574-7.027h1.524v-1.148h-1.524v1.148zm7.866 6.697l-.284.499.007.004.277-.503zm-1.45-1.432l-.506.273.007.011.498-.284zm.073-4.131l.487.302-.487-.302zm6.15-1.139l-.381.43.381-.43zm1.341 2.424l.19.541a.573.573 0 00.369-.668l-.559.127zm-6.261 2.203l-.533.213c.114.286.433.43.723.328l-.19-.54zm-.404-1.01l-.197-.539a.574.574 0 00-.336.752l.533-.213zm5.141-1.873l.312.482a.574.574 0 00-.509-1.02l.197.538zm-.367.24l-.54.195a.576.576 0 00.852.285l-.312-.48zm-.735-1.047l-.382.428.009.007.373-.435zm-2.589-.11l.296.492.011-.008-.307-.484zm-.863.918l.507.269-.507-.27zm.019 2.735l-.504.275.004.007.5-.282zm.9.937l-.3.489a.686.686 0 00.018.01l.281-.5zm2.276.146l-.206-.535-.007.003.213.533zm.881-.477l.487-.303a.573.573 0 00-.824-.16l.337.463zm.79 1.267l.322.475a.574.574 0 00.165-.778l-.487.303zm-1.285.624l-.182-.544-.004.001.186.543zm-1.377-.335c-.794 0-1.441-.156-1.964-.443l-.553 1.006c.726.398 1.572.585 2.517.585v-1.15zm-1.957-.439a3.22 3.22 0 01-1.236-1.218l-.996.57a4.365 4.365 0 001.665 1.646l.567-.998zm-1.23-1.206c-.279-.518-.426-1.12-.426-1.82h-1.147c0 .866.183 1.66.564 2.365l1.01-.545zm-.426-1.82c0-.644.162-1.218.483-1.736l-.975-.605a4.364 4.364 0 00-.655 2.34h1.147zm.483-1.736c.329-.53.767-.953 1.323-1.274l-.573-.994a4.85 4.85 0 00-1.725 1.663l.975.605zm1.323-1.274a3.612 3.612 0 011.843-.474v-1.148c-.877 0-1.687.207-2.416.628l.573.994zm1.843-.474c.884 0 1.574.255 2.116.736l.763-.858c-.781-.693-1.755-1.026-2.879-1.026v1.148zm2.116.736c.555.494.951 1.187 1.162 2.121l1.119-.253c-.254-1.122-.752-2.044-1.518-2.726l-.763.858zm1.531 1.454l-6.26 2.203.38 1.082 6.261-2.203-.381-1.082zm-5.538 2.531l-.404-1.01-1.065.426.404 1.01 1.065-.426zm-.74-.258l5.141-1.872-.393-1.079-5.14 1.873.392 1.078zm4.632-2.893l-.367.24.625.961.367-.238-.625-.963zm.485.524a3.058 3.058 0 00-.901-1.286l-.746.871c.271.233.457.5.568.807l1.079-.392zm-.892-1.278c-.468-.418-1.06-.605-1.722-.605V13.6c.439 0 .74.12.958.314l.764-.856zm-1.722-.605c-.566 0-1.09.143-1.556.438l.614.97c.269-.171.577-.26.942-.26v-1.148zm-1.544.43c-.46.277-.82.661-1.074 1.141l1.013.539a1.74 1.74 0 01.651-.696l-.59-.984zm-1.074 1.141a3.385 3.385 0 00-.38 1.61h1.148c0-.42.086-.773.245-1.071l-1.013-.539zm-.38 1.61c0 .608.128 1.17.4 1.67l1.008-.55c-.168-.308-.26-.676-.26-1.12h-1.148zm.404 1.677c.268.476.637.86 1.1 1.144l.6-.978a1.968 1.968 0 01-.7-.729l-1 .563zm1.119 1.155a3.221 3.221 0 001.603.404v-1.148c-.4 0-.742-.089-1.04-.256l-.563 1zm1.603.404a3.12 3.12 0 001.168-.225l-.426-1.065a1.975 1.975 0 01-.742.142v1.148zm1.161-.222c.364-.14.702-.323 1.013-.549l-.675-.928a3.247 3.247 0 01-.75.406l.412 1.071zm.188-.71l.79 1.268.974-.607-.79-1.267-.974.607zm.955.489c-.332.225-.712.41-1.145.555l.363 1.089a5.807 5.807 0 001.426-.694l-.644-.95zm-1.149.556c-.411.14-.807.208-1.191.208v1.148c.521 0 1.043-.092 1.562-.27l-.371-1.086zM26.945 37.306l-.27.507.005.002.265-.509zm-1.377-1.34l-.503.277.007.012.496-.29zm.036-4.37l.497.288.002-.005-.499-.283zm1.414-1.432l-.277-.503-.004.003.281.5zm3.764 0l-.321.475.008.006.313-.481zm1.12 1.138l.537.201a.574.574 0 00-.041-.49l-.496.289zm-.11.294l-.57-.059a.574.574 0 001.107.26l-.537-.201zm.165-1.616v-.574a.574.574 0 00-.57.516l.57.058zm1.58 0h.573a.574.574 0 00-.574-.574v.574zm0 7.601v.574a.574.574 0 00.573-.574h-.574zm-1.708 0h-.574c0 .317.257.574.574.574v-.574zm0-1.983l.53-.22a.574.574 0 00-1.104.22h.574zm.183.441l.533.213a.573.573 0 00-.003-.434l-.53.221zm-.33.477l-.432-.377-.002.002.434.376zm-.661.57l-.328-.471-.01.007.338.464zm-.937.495l.187.543.017-.006-.204-.537zm.423-1.469l-.242-.52.242.52zm.844-.66l-.45-.357-.002.003.452.354zm.478-1.047l.56.12a.568.568 0 00.013-.12h-.573zm0-1.487h.573c0-.05-.006-.1-.019-.148l-.554.148zm-.515-.955l-.433.377.009.009.424-.386zm-.88-.643l-.242.52.015.008.226-.528zm-2.388.092l-.288-.496.288.496zm-.918.918l-.493-.293-.007.012.5.281zm.019 2.718l.497-.287-.497.287zm1.744 2.143a3.577 3.577 0 01-1.681-.394l-.53 1.018a4.723 4.723 0 002.21.524V37.19zm-1.677-.392a2.876 2.876 0 01-1.15-1.123l-.992.579c.394.675.93 1.2 1.603 1.557l.54-1.013zm-1.144-1.11c-.273-.496-.424-1.124-.424-1.908h-1.148c0 .93.18 1.758.567 2.462l1.005-.554zm-.424-1.908c0-.763.16-1.388.455-1.897l-.993-.576c-.415.715-.61 1.547-.61 2.473h1.148zm.457-1.902a3.12 3.12 0 011.196-1.215l-.562-1a4.272 4.272 0 00-1.631 1.648l.997.567zm1.192-1.213a3.43 3.43 0 011.688-.424v-1.148a4.58 4.58 0 00-2.242.567l.554 1.005zm1.688-.424c.619 0 1.1.143 1.478.397l.642-.95c-.602-.407-1.32-.595-2.12-.595v1.148zm1.486.403c.426.276.732.593.937.946l.992-.578c-.309-.529-.75-.97-1.303-1.33l-.626.962zm.896.456l-.11.293 1.074.403.11-.294-1.074-.402zm.998.553l.165-1.616-1.142-.116-.165 1.615 1.142.117zm-.406-1.1h1.58v-1.148h-1.58v1.148zm1.005-.574v7.601h1.148v-7.6h-1.148zm.574 7.028H31.83v1.147h1.707v-1.147zm-1.134.573v-1.983h-1.147v1.983h1.147zM31.3 35.82l.184.44 1.059-.44-.184-.441-1.06.441zm.18.007c-.011.029-.067.128-.23.313l.865.755c.18-.206.344-.425.43-.642l-1.065-.426zm-.23.315a3.023 3.023 0 01-.556.474l.655.942c.306-.213.567-.434.767-.665l-.867-.751zm-.566.48a3.413 3.413 0 01-.802.424l.407 1.073c.396-.15.754-.339 1.07-.568l-.675-.928zm-.786.418a3.076 3.076 0 01-1.006.152v1.148c.493 0 .956-.069 1.38-.215l-.374-1.085zm-.547-.114c.5 0 .97-.093 1.398-.292l-.483-1.04a2.154 2.154 0 01-.915.184v1.148zm1.398-.292c.42-.195.776-.47 1.055-.828l-.904-.707a1.688 1.688 0 01-.634.494l.483 1.041zm1.053-.825a3.06 3.06 0 00.589-1.284l-1.123-.238a1.913 1.913 0 01-.366.81l.9.712zm.601-1.403v-1.487h-1.147v1.487h1.147zm-.019-1.635a2.836 2.836 0 00-.644-1.193l-.85.772c.181.198.31.434.385.717l1.109-.296zm-.636-1.184a2.988 2.988 0 00-1.088-.793l-.452 1.055c.263.113.486.275.674.492l.866-.754zm-1.072-.786a3.243 3.243 0 00-1.38-.292v1.148c.341 0 .637.064.896.185l.484-1.041zm-1.38-.292c-.55 0-1.067.135-1.537.408l.576.992a1.88 1.88 0 01.96-.253v-1.147zm-1.537.408a3.112 3.112 0 00-1.123 1.121l.987.586c.184-.31.42-.545.712-.715l-.576-.992zm-1.13 1.133c-.276.491-.404 1.05-.404 1.658h1.148c0-.444.092-.803.256-1.096l-1-.562zm-.404 1.658c0 .585.14 1.131.425 1.627l.995-.573a2.065 2.065 0 01-.272-1.054h-1.148zm.425 1.627c.28.487.663.878 1.141 1.162l.586-.987a2.022 2.022 0 01-.732-.748l-.995.573zm1.141 1.162c.48.285 1.003.429 1.56.429v-1.147c-.35 0-.67-.089-.974-.269l-.586.987zm14.382-6.516l.572-.05a.574.574 0 00-.572-.524v.574zm.147 1.708l-.513.256a.574.574 0 001.085-.306l-.572.05zm-.074-.147l-.515-.253a.574.574 0 00.002.51l.513-.257zm1.194-1.359l-.305-.486-.005.003.31.483zm2.938-.294l.216-.531-.217.531zm.807.588l-.446.36a.532.532 0 00.02.024l.426-.384zm.423.918l.295.492a.574.574 0 00.27-.587l-.565.095zm-.092.055l-.506-.27a.574.574 0 00.801.762l-.295-.492zm1.212-1.285l.293.493.004-.002-.297-.491zm3.415.165l-.406.406a.64.64 0 00.012.011l.394-.417zm.68 1.634h.573v-.01l-.574.01zm0 5.618v.574a.574.574 0 00.573-.574h-.574zm-1.708 0h-.574c0 .317.257.574.574.574v-.574zm0-5.012h.573v-.018l-.573.018zm-.294-.973l-.484.308a.628.628 0 00.017.025l.467-.333zm-.918-.44l.032-.574h-.032v.573zm-1.194.403l-.346-.457-.008.006.354.451zm-.807 1.047l.519.244.002-.006-.521-.238zm-.313 1.358l-.573-.014v.014h.573zm0 3.617v.574a.574.574 0 00.574-.574h-.574zm-1.707 0h-.574c0 .317.257.574.574.574v-.574zm0-5.012h.574v-.018l-.574.018zm-.312-.973l-.474.323a.545.545 0 00.017.024l.457-.347zm-.937-.44l.032-.574h-.032v.573zm-1.193.403l.354.451-.354-.45zm-.808 1.047l-.522-.239-.005.013.527.226zm-.276 4.975v.574a.574.574 0 00.574-.574h-.574zm-1.707 0h-.574c0 .317.257.574.574.574v-.574zm0-7.6v-.575a.574.574 0 00-.574.574h.574zm.952.048l.147 1.708 1.144-.099-.147-1.707-1.144.098zm1.232 1.402l-.073-.147-1.027.513.074.147 1.026-.513zm-.071.362a2.72 2.72 0 01.988-1.128l-.62-.966a3.878 3.878 0 00-1.399 1.59l1.03.504zm.983-1.125c.427-.268.92-.408 1.494-.408v-1.148c-.772 0-1.479.192-2.104.584l.61.972zm1.494-.408c.369 0 .673.058.922.16l.433-1.063a3.57 3.57 0 00-1.355-.244v1.147zm.922.16c.248.1.436.24.578.417l.892-.722a2.55 2.55 0 00-1.037-.758l-.433 1.063zm.598.44c.138.153.237.354.283.628l1.132-.189a2.346 2.346 0 00-.562-1.207l-.853.768zm.553.042l-.091.055.59.984.092-.055-.59-.984zm.71.817a2.657 2.657 0 011-1.062l-.588-.986a3.804 3.804 0 00-1.424 1.508l1.012.54zm1.003-1.064a2.574 2.574 0 011.355-.395v-1.148a3.72 3.72 0 00-1.95.56l.595.983zm1.355-.395c.632 0 1.06.178 1.357.475l.812-.812c-.56-.56-1.308-.81-2.169-.81v1.147zm1.369.486c.315.298.49.69.5 1.228l1.147-.021c-.015-.809-.294-1.507-.86-2.041l-.787.834zm.5 1.217v5.618h1.147v-5.618h-1.148zm.573 5.045h-1.707v1.147h1.707v-1.147zm-1.134.573V32.57H50.54v5.012h1.147zm0-5.03c-.015-.478-.136-.92-.4-1.289l-.934.667c.103.145.178.352.187.658l1.147-.036zm-.383-1.263c-.306-.48-.821-.675-1.37-.706l-.064 1.146c.332.018.428.117.466.176l.968-.616zm-1.402-.707a2.5 2.5 0 00-1.54.521l.693.914c.257-.194.533-.287.847-.287v-1.15zm-1.548.527c-.42.33-.745.754-.975 1.26l1.043.476c.161-.352.376-.626.64-.834l-.708-.902zm-.973 1.253a3.925 3.925 0 00-.366 1.589l1.147.029c.01-.416.098-.79.258-1.129l-1.039-.489zm-.366 1.603v3.617h1.147v-3.617h-1.147zm.573 3.044h-1.707v1.147h1.707v-1.147zm-1.133.573V32.57h-1.148v5.012h1.148zm0-5.03c-.016-.485-.147-.932-.43-1.303l-.913.695c.11.144.186.346.195.644l1.147-.036zm-.412-1.278c-.317-.465-.828-.66-1.379-.69l-.064 1.145c.33.018.444.117.495.191l.948-.646zm-1.41-.692c-.577 0-1.1.175-1.549.527l.71.902c.237-.186.509-.281.838-.281v-1.15zm-1.549.527c-.42.33-.744.754-.975 1.26l1.044.476c.16-.352.375-.626.64-.834l-.709-.902zm-.98 1.272a4.031 4.031 0 00-.322 1.603h1.147c0-.416.078-.798.23-1.151l-1.055-.452zm-.322 1.603v3.598h1.147v-3.598h-1.147zm.574 3.025h-1.708v1.147h1.707v-1.147zm-1.134.573v-7.6h-1.148v7.6h1.148zm-.574-7.027h1.524v-1.148h-1.524v1.148zm15.023 1.097l-.492-.295-.005.007.497.288zm1.505-1.45l.28.5-.28-.5zm4.352 0l-.284.498.284-.499zm1.45 1.45l.5-.28-.5.28zm0 4.131l.5.28.003-.004-.503-.276zm-1.469 1.45l-.28-.5-.003.002.283.498zm-4.351.037l-.276.503.011.007.265-.51zm-1.487-1.413l-.497.287.007.012.49-.3zm1.505-.79l-.504.275.004.006.5-.281zm.881.936l-.306.485.007.005.3-.49zm2.516 0l-.3-.489-.007.005.307.484zm.881-.936l.507.27.003-.007-.51-.263zm0-2.662l-.51.262.003.007.507-.27zm-.881-.955l-.318.477a.445.445 0 00.018.012l.3-.49zm-2.534 0l-.311-.482-.007.005.318.477zm-.881.973l-.504-.275-.003.006.507.269zm-1.446 1.285c0-.665.154-1.25.455-1.768l-.993-.576a4.597 4.597 0 00-.61 2.344h1.148zm.45-1.76a3.413 3.413 0 011.294-1.245l-.56-1.003a4.56 4.56 0 00-1.717 1.657l.984.59zm1.294-1.245c.542-.303 1.166-.46 1.887-.46v-1.148c-.895 0-1.715.198-2.446.605l.559 1.002zm1.887-.46c.749 0 1.376.159 1.901.457l.567-.997c-.723-.412-1.553-.608-2.468-.608v1.148zm1.901.457a3.18 3.18 0 011.233 1.232l1.002-.56a4.329 4.329 0 00-1.668-1.67l-.567.998zm1.233 1.232c.291.52.442 1.107.442 1.776h1.147c0-.849-.193-1.632-.587-2.336l-1.002.56zm.442 1.776c0 .67-.15 1.265-.444 1.799l1.006.552a4.813 4.813 0 00.585-2.35h-1.148zm-.441 1.795c-.29.515-.7.924-1.248 1.23l.559 1.002a4.295 4.295 0 001.69-1.672l-1.002-.56zm-1.252 1.232c-.525.298-1.153.457-1.902.457v1.148c.916 0 1.745-.196 2.469-.608l-.567-.997zm-1.902.457c-.727 0-1.357-.148-1.902-.431l-.529 1.019c.728.377 1.543.56 2.431.56v-1.15zm-1.89-.425a3.357 3.357 0 01-1.274-1.21l-.979.6c.42.685.99 1.226 1.7 1.616l.553-1.006zm-1.267-1.198c-.297-.512-.455-1.125-.455-1.86h-1.148c0 .904.197 1.723.61 2.435l.993-.575zm.105-1.842c0 .579.131 1.121.4 1.615l1.008-.55a2.18 2.18 0 01-.26-1.065h-1.148zm.404 1.621c.265.472.624.855 1.075 1.14l.614-.97a2.018 2.018 0 01-.689-.732l-1 .562zm1.082 1.145c.471.289.991.433 1.548.433v-1.147a1.77 1.77 0 01-.949-.265l-.6.979zm1.548.433a2.89 2.89 0 001.574-.438l-.614-.97c-.267.17-.58.26-.96.26v1.148zm1.567-.433a2.975 2.975 0 001.088-1.157l-1.014-.538c-.16.3-.382.537-.674.716l.6.979zm1.091-1.163c.253-.492.376-1.03.376-1.603h-1.147c0 .405-.086.76-.249 1.077l1.02.526zm.376-1.603c0-.574-.123-1.109-.38-1.591l-1.013.538c.16.3.246.647.246 1.053h1.147zm-.376-1.585a2.943 2.943 0 00-1.091-1.181l-.6.978c.288.177.51.416.671.728l1.02-.525zm-1.073-1.17a2.804 2.804 0 00-1.585-.463v1.148c.374 0 .683.094.949.27l.636-.954zm-1.585-.463a2.86 2.86 0 00-1.578.459l.622.964c.284-.183.598-.276.956-.276v-1.147zm-1.585.463a3.278 3.278 0 00-1.067 1.176l1.007.55c.178-.326.41-.58.696-.77l-.636-.956zm-1.07 1.182a3.308 3.308 0 00-.38 1.573h1.148c0-.391.085-.732.245-1.035l-1.013-.538zm10.677-2.173l.572-.05a.574.574 0 00-.572-.524v.574zm.147 1.708l-.513.256a.574.574 0 001.085-.306l-.572.05zm-.073-.147l-.516-.253a.574.574 0 00.002.51l.514-.257zm1.193-1.359l-.305-.486-.005.003.31.483zm2.938-.294l.216-.531-.216.531zm.808.588l-.446.36a.532.532 0 00.02.024l.426-.384zm.422.918l.295.492a.574.574 0 00.27-.587l-.565.095zm-.092.055l-.506-.27a.574.574 0 00.801.762l-.295-.492zm1.212-1.285l.293.493.004-.002-.297-.491zm3.415.165l-.406.406a.64.64 0 00.012.011l.394-.417zm.68 1.634h.573v-.01l-.574.01zm0 5.618v.574a.574.574 0 00.573-.574h-.574zm-1.708 0h-.574c0 .317.257.574.574.574v-.574zm0-5.012h.574v-.018l-.574.018zm-.294-.973l-.484.308a.539.539 0 00.017.025l.467-.333zm-.918-.44l.032-.574h-.032v.573zm-1.193.403l-.347-.457-.008.006.355.451zm-.808 1.047l.519.244.003-.006-.522-.238zm-.312 1.358l-.574-.014v.014h.574zm0 3.617v.574a.574.574 0 00.573-.574h-.573zm-1.708 0h-.574c0 .317.257.574.574.574v-.574zm0-5.012h.574v-.018l-.574.018zm-.312-.973l-.474.323a.545.545 0 00.017.024l.457-.347zm-.936-.44l.031-.574h-.031v.573zm-1.194.403l.355.451-.355-.45zm-.808 1.047l-.522-.239-.005.013.527.226zm-.275 4.975v.574a.574.574 0 00.574-.574h-.574zm-1.708 0h-.573c0 .317.256.574.573.574v-.574zm0-7.6v-.575a.574.574 0 00-.573.574h.573zm.953.048l.146 1.708 1.144-.099-.147-1.707-1.144.098zm1.231 1.402l-.073-.147-1.027.513.074.147 1.026-.513zm-.071.362c.238-.486.567-.857.988-1.128l-.62-.966a3.878 3.878 0 00-1.399 1.59l1.031.504zm.983-1.125c.427-.268.92-.408 1.494-.408v-1.148c-.771 0-1.479.192-2.104.584l.61.972zm1.494-.408c.37 0 .673.058.922.16l.433-1.063a3.57 3.57 0 00-1.355-.244v1.147zm.922.16c.248.1.436.24.579.417l.892-.722a2.55 2.55 0 00-1.038-.758l-.433 1.063zm.598.44c.138.153.237.354.283.628l1.132-.189a2.346 2.346 0 00-.562-1.207l-.853.768zm.554.042l-.092.055.59.984.092-.055-.59-.984zm.71.817c.246-.463.578-.812.998-1.062l-.587-.986a3.803 3.803 0 00-1.424 1.508l1.012.54zm1.002-1.064a2.574 2.574 0 011.355-.395v-1.148a3.72 3.72 0 00-1.949.56l.594.983zm1.355-.395c.632 0 1.06.178 1.357.475l.812-.812c-.56-.56-1.307-.81-2.169-.81v1.147zm1.37.486c.315.298.489.69.499 1.228l1.147-.021c-.015-.809-.293-1.507-.859-2.041l-.788.834zm.499 1.217v5.618h1.147v-5.618h-1.147zm.573 5.045H76.27v1.147h1.707v-1.147zm-1.133.573V32.57h-1.148v5.012h1.148zm0-5.03c-.016-.478-.137-.92-.401-1.289l-.934.667c.103.145.178.352.187.658l1.147-.036zm-.384-1.263c-.305-.48-.821-.675-1.37-.706l-.064 1.146c.332.018.429.117.466.176l.968-.616zm-1.402-.707a2.5 2.5 0 00-1.54.521l.693.914c.257-.194.533-.287.847-.287v-1.15zm-1.548.527a3.34 3.34 0 00-.975 1.26l1.044.476c.16-.352.375-.626.64-.834l-.709-.902zm-.973 1.253a3.925 3.925 0 00-.366 1.589l1.147.029c.01-.416.098-.79.258-1.129l-1.038-.489zm-.366 1.603v3.617h1.147v-3.617h-1.147zm.574 3.044h-1.708v1.147h1.708v-1.147zm-1.134.573V32.57h-1.148v5.012h1.148zm0-5.03c-.016-.485-.147-.932-.43-1.303l-.912.695c.109.144.185.346.194.644l1.148-.036zm-.412-1.278c-.317-.465-.828-.66-1.379-.69l-.063 1.145c.33.018.444.117.494.191l.948-.646zm-1.41-.692c-.576 0-1.1.175-1.548.527l.709.902c.237-.186.509-.281.838-.281v-1.15zm-1.548.527a3.34 3.34 0 00-.976 1.26l1.044.476c.161-.352.376-.626.64-.834l-.708-.902zm-.981 1.272a4.033 4.033 0 00-.322 1.603h1.148c0-.416.077-.798.229-1.151l-1.055-.452zm-.322 1.603v3.598h1.148v-3.598h-1.148zm.574 3.025h-1.708v1.147h1.708v-1.147zm-1.134.573v-7.6h-1.147v7.6h1.147zm-.574-7.027h1.524v-1.148h-1.524v1.148zm16.437 6.697l-.284.499.008.004.276-.503zm-1.45-1.432l-.506.273.007.011.498-.284zm.073-4.131l.487.302-.487-.302zm6.15-1.139l-.38.43.38-.43zm1.34 2.424l.191.541a.574.574 0 00.37-.668l-.56.127zm-6.26 2.203l-.533.213c.114.286.433.43.723.328l-.19-.54zm-.404-1.01l-.197-.539a.573.573 0 00-.336.752l.533-.213zm5.14-1.872l.314.48a.574.574 0 00-.51-1.02l.197.54zm-.366.238l-.54.196a.574.574 0 00.852.285l-.312-.48zm-.735-1.046l-.382.428.009.007.373-.435zm-2.589-.11l.296.492.011-.008-.307-.485zm-.863.918l.507.269-.507-.27zm.019 2.735l-.504.275.004.007.5-.282zm.9.937l-.3.489a.5.5 0 00.018.01l.281-.5zm2.276.146l-.206-.535-.007.003.213.532zm.881-.477l.487-.303a.574.574 0 00-.824-.16l.337.463zm.79 1.267l.322.475a.574.574 0 00.165-.778l-.487.303zm-1.285.624l-.182-.544-.004.001.186.543zm-1.377-.335c-.794 0-1.441-.156-1.964-.443l-.552 1.006c.725.398 1.571.585 2.516.585v-1.15zm-1.957-.439a3.22 3.22 0 01-1.236-1.218l-.996.57a4.365 4.365 0 001.665 1.646l.567-.998zm-1.229-1.206c-.28-.518-.427-1.12-.427-1.82h-1.147c0 .866.183 1.66.564 2.365l1.01-.545zm-.427-1.82c0-.644.162-1.218.483-1.736l-.975-.605a4.364 4.364 0 00-.655 2.34h1.147zm.483-1.736c.329-.53.767-.953 1.323-1.274l-.573-.994a4.85 4.85 0 00-1.725 1.663l.975.605zm1.323-1.274a3.612 3.612 0 011.843-.474v-1.148c-.877 0-1.687.207-2.416.628l.573.994zm1.843-.474c.884 0 1.575.255 2.116.736l.763-.858c-.78-.693-1.755-1.026-2.879-1.026v1.148zm2.116.736c.555.494.95 1.187 1.162 2.121l1.12-.253c-.255-1.122-.753-2.044-1.52-2.726l-.762.858zm1.531 1.454l-6.26 2.203.38 1.082 6.261-2.203-.38-1.082zm-5.538 2.531l-.404-1.01-1.065.426.404 1.01 1.065-.426zm-.74-.258l5.141-1.872-.393-1.079-5.14 1.873.392 1.078zm4.632-2.893l-.367.24.625.961.368-.238-.626-.963zm.485.524a3.053 3.053 0 00-.9-1.286l-.747.871c.271.233.457.5.568.807l1.079-.392zm-.892-1.278c-.468-.418-1.06-.605-1.722-.605V31.6c.44 0 .74.12.958.314l.764-.856zm-1.722-.605c-.566 0-1.09.143-1.556.438l.614.97c.27-.171.577-.26.942-.26v-1.148zm-1.544.43c-.46.277-.82.661-1.074 1.141l1.013.539c.161-.303.377-.53.651-.696l-.59-.983zm-1.074 1.141a3.386 3.386 0 00-.38 1.61h1.148c0-.42.087-.773.245-1.071l-1.013-.539zm-.38 1.61c0 .608.128 1.17.401 1.67l1.007-.55c-.168-.308-.26-.676-.26-1.12h-1.148zm.405 1.677c.267.476.636.86 1.1 1.144l.6-.978a1.968 1.968 0 01-.7-.729l-1 .563zm1.118 1.155a3.222 3.222 0 001.603.404v-1.148c-.4 0-.742-.089-1.04-.256l-.563 1zm1.603.404c.404 0 .794-.075 1.168-.225l-.426-1.065a1.974 1.974 0 01-.742.142v1.148zm1.161-.222c.364-.14.702-.323 1.013-.549l-.675-.928a3.25 3.25 0 01-.75.406l.412 1.071zm.189-.71l.789 1.267.974-.606-.79-1.267-.974.607zm.954.489a4.65 4.65 0 01-1.145.555l.363 1.089a5.797 5.797 0 001.426-.694l-.644-.95zm-1.149.556c-.41.14-.807.208-1.191.208v1.148a4.81 4.81 0 001.562-.27l-.371-1.086zm6.346-7.003l.572-.045a.574.574 0 00-.572-.529v.574zm.147 1.854l-.556.14a.574.574 0 001.128-.185l-.572.045zm-.073-.293l-.526-.229a.574.574 0 00-.031.368l.557-.14zm1.193-1.34l.295.491.008-.004-.303-.488zm3.672.128l-.394.417a.401.401 0 00.012.01l.382-.427zm.716 1.634h.574v-.01l-.574.01zm0 5.618v.574a.574.574 0 00.574-.574h-.574zm-1.726 0h-.573c0 .317.257.574.573.574v-.574zm0-5.012h.574v-.017l-.574.017zm-.367-1.01l-.444.363a.657.657 0 00.019.022l.425-.385zm-3.084.973l-.517-.25-.005.012.522.238zm-.294 5.05v.573a.574.574 0 00.574-.574h-.574zm-1.708 0h-.573c0 .316.256.573.573.573v-.574zm0-7.602v-.574a.574.574 0 00-.573.574h.573zm.952.045l.147 1.855 1.144-.09-.147-1.855-1.144.09zm1.276 1.67l-.074-.293-1.113.278.074.294 1.113-.279zm-.104.075a2.3 2.3 0 01.962-1.078l-.59-.984a3.447 3.447 0 00-1.424 1.604l1.052.457zm.97-1.082c.45-.28.98-.428 1.607-.428v-1.148c-.817 0-1.561.196-2.213.601l.606.975zm1.607-.428c.6 0 1.038.174 1.368.486l.789-.834c-.577-.545-1.313-.8-2.157-.8v1.148zm1.38.496c.336.301.515.69.525 1.218l1.147-.021c-.015-.82-.313-1.52-.907-2.052l-.765.855zm.525 1.207v5.618h1.147v-5.618H97.1zm.573 5.045h-1.726v1.147h1.726v-1.147zm-1.152.573V32.57h-1.147v5.012h1.147zm0-5.029c-.016-.524-.174-1-.515-1.378l-.851.77c.123.137.21.333.219.642l1.147-.034zm-.497-1.356c-.366-.448-.909-.615-1.49-.615v1.148c.373 0 .527.102.602.193l.888-.726zm-1.49-.615c-.555 0-1.067.157-1.52.469l.652.945a1.48 1.48 0 01.868-.266v-1.15zm-1.52.469a3.122 3.122 0 00-1.034 1.232l1.032.5c.17-.348.389-.604.654-.787l-.651-.945zm-1.04 1.244c-.236.516-.346 1.096-.346 1.725h1.148c0-.496.086-.908.241-1.248l-1.043-.477zm-.346 1.725v3.562h1.148V34.02h-1.148zm.574 2.989h-1.708v1.147h1.708v-1.147zm-1.134.573v-7.6h-1.147v7.6h1.147zm-.574-7.027h1.524v-1.148h-1.524v1.148zm10.883-3.916v-.573a.573.573 0 00-.573.573h.573zm1.708 0h.574a.574.574 0 00-.574-.573v.573zm0 3.379h-.574c0 .317.257.574.574.574v-.574zm2.093 0h.574a.574.574 0 00-.574-.574v.574zm0 1.34v.574a.574.574 0 00.574-.574h-.574zm-2.093 0v-.574a.574.574 0 00-.574.574h.574zm0 6.224v.574a.574.574 0 00.574-.574h-.574zm-1.708 0h-.573c0 .317.256.574.573.574v-.574zm0-6.224h.574a.574.574 0 00-.574-.574v.574zm-1.395 0h-.574c0 .317.257.574.574.574v-.574zm0-1.34v-.574a.574.574 0 00-.574.574h.574zm1.395 0v.574a.574.574 0 00.574-.574h-.574zm0-2.805h1.708v-1.147h-1.708v1.147zm1.134-.574v3.379h1.148v-3.379h-1.148zm.574 3.953h2.093v-1.148h-2.093v1.148zm1.519-.574v1.34h1.148v-1.34h-1.148zm.574.766h-2.093v1.148h2.093v-1.148zm-2.667.574v6.224h1.148v-6.224h-1.148zm.574 5.65h-1.708v1.148h1.708v-1.147zm-1.134.574v-6.224h-1.147v6.224h1.147zm-.574-6.798h-1.395v1.148h1.395v-1.148zm-.821.574v-1.34h-1.148v1.34h1.148zm-.574-.766h1.395v-1.148h-1.395v1.148zm1.969-.574v-3.379h-1.147v3.379h1.147zM27.093 47.98v-.574a.574.574 0 00-.574.574h.574zm1.707 0h.574a.574.574 0 00-.574-.574v.574zm0 7.601v.574a.574.574 0 00.574-.574H28.8zm-1.707 0h-.574c0 .317.257.574.574.574v-.574zm.183-11.034l-.367-.441a.573.573 0 00-.012.01l.38.43zm1.396 0l-.393.418a.355.355 0 00.013.012l.38-.43zm0 1.377l.377.431.002-.001-.38-.43zm-1.396-.019l-.38.43.013.011.367-.44zm-.183 2.649H28.8v-1.148h-1.707v1.148zm1.133-.574v7.601h1.148v-7.6h-1.148zm.574 7.028h-1.707v1.147H28.8v-1.147zm-1.134.573v-7.6H26.52v7.6h1.147zm-.128-10.355a.3.3 0 01.118-.25l-.76-.86c-.327.29-.506.67-.506 1.11h1.148zm.106-.239a.526.526 0 01.348-.142v-1.148c-.407 0-.772.15-1.083.409l.735.881zm.348-.142a.39.39 0 01.287.12l.785-.837a1.537 1.537 0 00-1.072-.43v1.147zm.3.132a.3.3 0 01.118.249h1.148c0-.44-.18-.82-.507-1.11l-.759.86zm.118.249a.32.32 0 01-.118.267l.76.86c.333-.293.506-.684.506-1.127H28.41zm-.116.266a.428.428 0 01-.302.115v1.148c.398 0 .758-.138 1.057-.4l-.755-.863zm-.302.115a.526.526 0 01-.348-.142l-.735.881c.31.259.676.409 1.083.409v-1.148zm-.336-.132a.3.3 0 01-.118-.249H26.39c0 .44.18.82.507 1.11l.759-.86zm5.623 2.505l.571-.045a.574.574 0 00-.572-.529v.574zm.146 1.855l-.556.139a.574.574 0 001.128-.185l-.572.045zm-.073-.294l-.526-.229a.573.573 0 00-.03.368l.556-.14zm1.193-1.34l.296.492.008-.005-.304-.488zm3.672.128l-.394.417.012.01.383-.427zm.717 1.634h.573v-.01l-.573.01zm0 5.618v.574a.574.574 0 00.573-.574h-.573zm-1.726 0h-.574c0 .317.257.574.574.574v-.574zm0-5.012h.573v-.017l-.573.017zm-.368-1.01l-.444.363a.48.48 0 00.019.022l.425-.385zm-3.084.973l-.516-.25-.006.012.522.238zm-.294 5.05v.573a.574.574 0 00.574-.574h-.574zm-1.708 0h-.573c0 .316.257.573.573.573v-.574zm0-7.602v-.574a.574.574 0 00-.573.574h.573zm.952.045l.147 1.855 1.144-.09-.147-1.855-1.144.09zm1.276 1.67l-.073-.293-1.114.278.074.294 1.113-.279zm-.104.075a2.3 2.3 0 01.963-1.078l-.59-.984a3.446 3.446 0 00-1.425 1.604l1.052.458zm.97-1.082c.45-.28.98-.428 1.607-.428v-1.148c-.817 0-1.56.196-2.213.601l.607.975zm1.607-.428c.6 0 1.039.174 1.368.486l.789-.834c-.577-.545-1.313-.8-2.157-.8v1.148zm1.38.497c.336.3.515.689.525 1.217l1.147-.021c-.015-.82-.313-1.52-.907-2.052l-.765.855zm.525 1.206v5.618h1.147v-5.618H38.36zm.574 5.045h-1.726v1.147h1.726v-1.147zm-1.153.573V50.57h-1.147v5.012h1.147zm0-5.029c-.015-.524-.173-1-.515-1.378l-.851.77c.123.136.21.333.22.642l1.146-.034zm-.496-1.356c-.366-.447-.91-.615-1.491-.615v1.148c.373 0 .528.102.602.193l.889-.726zm-1.491-.615c-.554 0-1.066.157-1.52.469l.652.945a1.48 1.48 0 01.868-.266V48.58zm-1.52.469a3.122 3.122 0 00-1.034 1.232l1.032.5c.17-.348.389-.604.654-.787l-.651-.945zm-1.04 1.244c-.236.516-.346 1.096-.346 1.725h1.148c0-.496.086-.908.242-1.248l-1.044-.477zm-.346 1.725v3.562h1.148V52.02h-1.148zm.574 2.989h-1.708v1.147h1.708v-1.147zm-1.134.573v-7.6h-1.147v7.6h1.147zm-.574-7.027h1.524v-1.148h-1.523v1.148zm17.17 6.752l-.27.507.005.002.265-.509zm-1.377-1.34l-.502.277.007.012.495-.29zm.037-4.37l.496.288.003-.005-.499-.283zm1.414-1.432l-.277-.503-.004.003.28.5zm3.764 0l-.321.475.008.006.313-.481zm1.12 1.138l.537.202a.574.574 0 00-.042-.491l-.495.289zm-.11.294l-.571-.059a.574.574 0 001.108.26l-.537-.201zm.165-1.616v-.574a.574.574 0 00-.571.516l.57.058zm1.579 0h.574a.574.574 0 00-.574-.574v.574zm0 7.601v.574a.574.574 0 00.574-.574h-.574zm-1.708 0h-.574c0 .317.257.574.574.574v-.574zm0-1.983l.53-.22a.574.574 0 00-1.104.22h.574zm.184.441l.533.213a.573.573 0 00-.003-.434l-.53.221zm-.33.477l-.432-.377-.002.002.433.376zm-.662.57l-.327-.471-.01.007.337.464zm-.936.495l.187.543a.791.791 0 00.017-.006l-.204-.537zm.422-1.469l-.241-.52.241.52zm.845-.66l-.45-.357-.002.003.452.354zm.477-1.047l.562.12a.575.575 0 00.012-.12h-.574zm0-1.487h.574c0-.05-.006-.1-.02-.148l-.554.148zm-.514-.955l-.433.377.009.009.424-.386zm-.881-.643l-.242.52.016.008.226-.528zm-2.387.092l-.288-.496.288.496zm-.918.918l-.493-.293-.007.012.5.281zm.018 2.718l.498-.287-.498.287zm1.745 2.143a3.577 3.577 0 01-1.682-.394l-.53 1.018a4.723 4.723 0 002.212.524V55.19zm-1.677-.392a2.877 2.877 0 01-1.151-1.123l-.991.579c.394.675.93 1.2 1.603 1.557l.539-1.013zm-1.144-1.11c-.274-.496-.425-1.124-.425-1.908h-1.147c0 .93.18 1.758.567 2.462l1.005-.554zm-.425-1.908c0-.763.16-1.388.455-1.897l-.992-.576c-.415.715-.61 1.547-.61 2.473h1.147zm.458-1.902c.307-.54.705-.94 1.196-1.215l-.563-1a4.272 4.272 0 00-1.63 1.648l.997.567zm1.192-1.213a3.43 3.43 0 011.687-.424v-1.148c-.803 0-1.553.188-2.241.567l.554 1.005zm1.687-.424c.62 0 1.102.143 1.479.397l.642-.95c-.602-.407-1.32-.595-2.12-.595v1.148zm1.487.403c.425.276.731.593.937.946l.991-.578c-.308-.529-.749-.97-1.303-1.33l-.625.962zm.895.456l-.11.293 1.075.403.11-.293-1.075-.403zm.998.553l.166-1.616-1.142-.116-.165 1.615 1.141.117zm-.405-1.1h1.579v-1.148h-1.58v1.148zm1.005-.574v7.601h1.148v-7.6h-1.148zm.574 7.028h-1.708v1.147h1.708v-1.147zm-1.134.573v-1.983h-1.148v1.983h1.148zm-1.103-1.762l.183.44 1.06-.44-.184-.441-1.06.441zm.18.007c-.011.029-.068.128-.23.313l.864.755c.181-.206.345-.425.432-.642l-1.066-.426zm-.231.315a3.022 3.022 0 01-.555.474l.655.942c.306-.213.567-.434.767-.665l-.867-.751zm-.565.48a3.411 3.411 0 01-.802.424l.407 1.073a4.56 4.56 0 001.07-.568l-.675-.928zm-.786.418a3.076 3.076 0 01-1.006.152v1.148c.493 0 .956-.069 1.38-.215l-.374-1.085zm-.547-.114c.5 0 .97-.093 1.398-.292l-.483-1.04c-.258.119-.56.184-.915.184v1.148zm1.398-.292c.42-.195.775-.47 1.055-.828l-.904-.707a1.687 1.687 0 01-.634.494l.483 1.041zm1.053-.825c.293-.37.486-.802.589-1.284l-1.123-.238c-.07.326-.194.592-.366.81l.9.712zm.601-1.403v-1.487h-1.148v1.487h1.148zm-.02-1.635a2.837 2.837 0 00-.643-1.193l-.85.772c.181.198.31.434.385.717l1.109-.296zm-.635-1.184a2.988 2.988 0 00-1.088-.793l-.452 1.055c.263.113.486.275.674.492l.866-.754zm-1.072-.786a3.243 3.243 0 00-1.38-.292v1.148c.34 0 .637.064.896.185l.483-1.041zm-1.38-.292c-.551 0-1.067.135-1.537.408l.576.992c.29-.167.605-.252.96-.252v-1.148zm-1.537.408a3.112 3.112 0 00-1.123 1.121l.986.586c.185-.31.422-.545.713-.715l-.576-.992zm-1.13 1.133c-.276.491-.404 1.05-.404 1.658h1.147c0-.444.093-.803.257-1.096l-1-.562zm-.404 1.658c0 .585.14 1.131.425 1.627l.995-.573a2.064 2.064 0 01-.273-1.054h-1.147zm.425 1.627c.28.487.662.878 1.14 1.162l.587-.987a2.021 2.021 0 01-.732-.748l-.995.573zm1.14 1.162c.48.285 1.004.429 1.56.429v-1.147c-.349 0-.67-.089-.973-.269l-.586.987zm15.062.957l-.209.534.016.006.193-.54zm-1.248-.863l-.466-.336a.574.574 0 00.033.713l.433-.377zm.716-.992l.397-.413a.574.574 0 00-.863.078l.466.335zm.973.698l-.25.517a.67.67 0 00.024.01l.226-.527zm1.689.129l.162.55-.162-.55zm.496-.294l-.423-.388-.002.002.425.386zm-.074-1.23l-.39.42.014.013.376-.433zm-.68-.386l-.195.54.007.002.189-.542zm-.862-.275l-.182.544a.59.59 0 00.027.008l.155-.552zm-1.432-.863l.426-.384-.426.384zm-.202-2.46l-.495-.29-.003.005.498.285zm.9-.864l-.275-.503-.007.003.281.5zm2.9-.128l-.176.546.014.005.162-.551zm1.175.624l.484.309a.574.574 0 00-.125-.757l-.358.448zm-.679 1.065l-.416.395a.574.574 0 00.9-.086l-.484-.309zm-.79-.514l-.194.54.195-.54zm-.826-.184l-.033.573h.005l.028-.572zm-.606.092l-.201-.537-.012.005.213.532zm-.385 1.414l.39-.42-.39.42zm.66.386l-.195.539.029.01.167-.55zm.827.275l-.196.54a.584.584 0 00.036.011l.16-.551zm1.01.44l-.304.487.304-.486zm.698.68l-.484.308.01.015.474-.323zm-.055 2.277l-.5-.282-.004.006.504.276zm-.974.918l.263.51.005-.003-.267-.507zm-1.652-.244c-.472 0-.933-.08-1.386-.242l-.386 1.081a5.236 5.236 0 001.772.309v-1.148zm-1.37-.236c-.422-.164-.76-.4-1.025-.705l-.865.754c.395.454.89.793 1.472 1.02l.418-1.069zm-.992.008l.716-.992-.93-.671-.717.991.93.672zm-.147-.914c.353.34.727.61 1.122.801l.498-1.034a3.226 3.226 0 01-.825-.594l-.795.827zm1.145.812a3.13 3.13 0 001.235.266v-1.147a1.98 1.98 0 01-.783-.174l-.452 1.055zm1.235.266c.293 0 .575-.036.842-.115l-.324-1.1c-.15.043-.32.068-.518.068v1.147zm.842-.115c.29-.085.552-.232.758-.458l-.849-.772a.486.486 0 01-.233.13l.324 1.1zm.756-.456c.253-.276.353-.622.353-.976h-1.147c0 .136-.035.182-.051.2l.845.776zm.353-.976c0-.415-.15-.795-.473-1.076l-.752.867c.044.038.078.086.078.21h1.147zm-.459-1.063a2.47 2.47 0 00-.88-.507l-.378 1.084c.227.079.378.172.478.264l.78-.84zm-.873-.504c-.284-.103-.586-.2-.904-.289l-.31 1.105c.294.082.567.17.822.262l.392-1.078zm-.878-.28c-.56-.187-.941-.43-1.187-.703l-.853.768c.416.461.99.794 1.677 1.023l.363-1.089zm-1.187-.703c-.229-.255-.348-.562-.348-.957h-1.148c0 .658.211 1.245.643 1.725l.853-.768zm-.348-.957c0-.306.073-.58.218-.835l-.996-.57c-.247.432-.37.904-.37 1.405h1.148zm.215-.83c.152-.259.374-.477.686-.652l-.563-1c-.472.265-.85.622-1.113 1.072l.99.58zm.68-.649c.299-.163.694-.26 1.212-.26v-1.148c-.658 0-1.254.123-1.762.4l.55 1.008zm1.212-.26c.478 0 .888.061 1.237.174l.353-1.092a5.156 5.156 0 00-1.59-.23v1.148zm1.252.178c.338.1.664.271.978.522l.717-.896a3.991 3.991 0 00-1.372-.727l-.323 1.101zm.853-.234l-.68 1.065.968.617.68-1.065-.968-.617zm.22.979a2.583 2.583 0 00-1.011-.66l-.389 1.08c.223.08.41.202.568.369l.833-.79zm-1.011-.66a3.468 3.468 0 00-.992-.217l-.057 1.146c.173.01.391.054.66.15l.389-1.079zm-.987-.216a2.037 2.037 0 00-.841.127l.403 1.075a.888.888 0 01.37-.057l.068-1.145zm-.853.131a1.797 1.797 0 00-.67.46l.849.771a.65.65 0 01.248-.165l-.427-1.066zm-.67.46a1.26 1.26 0 00-.333.863h1.148c0-.043.009-.064.034-.092l-.85-.772zm-.333.863c0 .399.14.765.44 1.044l.781-.84c-.042-.04-.073-.09-.073-.204h-1.148zm.44 1.044c.24.222.53.386.856.505l.392-1.079a1.357 1.357 0 01-.467-.266l-.78.84zm.885.514c.272.083.538.172.797.266l.392-1.078a15.858 15.858 0 00-.855-.285l-.334 1.097zm.833.278c.336.097.623.224.866.376l.608-.973a4.574 4.574 0 00-1.154-.505l-.32 1.102zm.866.376c.227.142.396.31.518.501l.968-.616a2.753 2.753 0 00-.878-.858l-.608.973zm.528.516c.104.154.175.37.175.687h1.148c0-.492-.113-.948-.375-1.333l-.948.646zm.175.687c0 .355-.085.68-.257.986l1 .562c.27-.478.405-.998.405-1.548h-1.148zm-.26.99c-.146.267-.38.5-.737.687l.535 1.015c.525-.277.939-.657 1.209-1.15l-1.007-.551zm-.732.684c-.322.166-.774.267-1.39.267v1.148c.73 0 1.38-.119 1.915-.394l-.525-1.02zm5.481-6.907l.572-.045a.574.574 0 00-.572-.529v.574zm.147 1.855l-.557.139A.574.574 0 0074 49.789l-.572.045zm-.073-.294l-.527-.229a.573.573 0 00-.03.368l.556-.14zm1.193-1.34l.295.492.008-.005-.303-.488zm3.672.128l-.394.417a.401.401 0 00.012.01l.382-.427zm.716 1.634h.574v-.01l-.574.01zm0 5.618v.574a.574.574 0 00.574-.574h-.574zm-1.726 0h-.573c0 .317.256.574.573.574v-.574zm0-5.012h.574v-.017l-.574.017zm-.367-1.01l-.444.363a.657.657 0 00.019.022l.425-.385zm-3.085.973l-.516-.25-.005.012.521.238zm-.293 5.05v.573a.574.574 0 00.573-.574h-.573zm-1.708 0h-.574c0 .316.257.573.574.573v-.574zm0-7.602v-.574a.574.574 0 00-.574.574h.574zm.952.045l.147 1.855L74 49.79l-.147-1.855-1.144.09zm1.276 1.67l-.074-.293-1.113.278.073.294 1.114-.279zm-.104.075a2.3 2.3 0 01.962-1.078l-.59-.984a3.447 3.447 0 00-1.425 1.604l1.053.458zm.97-1.082c.45-.28.979-.428 1.606-.428v-1.148c-.816 0-1.56.196-2.212.601l.606.975zm1.606-.428c.6 0 1.04.174 1.369.486l.788-.834c-.576-.545-1.313-.8-2.157-.8v1.148zm1.38.497c.337.3.516.689.525 1.217l1.148-.021c-.015-.82-.313-1.52-.907-2.052l-.765.855zm.525 1.206v5.618h1.148v-5.618h-1.148zm.574 5.045H77.21v1.147h1.726v-1.147zm-1.152.573V50.57h-1.148v5.012h1.148zm0-5.029c-.016-.524-.174-1-.516-1.378l-.85.77c.123.136.21.333.219.642l1.147-.034zm-.497-1.356c-.366-.447-.909-.615-1.49-.615v1.148c.372 0 .527.102.602.193l.888-.726zm-1.49-.615c-.555 0-1.067.157-1.52.469l.652.945a1.48 1.48 0 01.867-.266V48.58zm-1.52.469a3.122 3.122 0 00-1.035 1.232l1.032.5c.17-.348.39-.604.655-.787l-.652-.945zm-1.04 1.244c-.236.516-.346 1.096-.346 1.725h1.147c0-.496.087-.908.242-1.248l-1.043-.477zm-.346 1.725v3.562h1.147V52.02h-1.147zm.574 2.989h-1.708v1.147h1.708v-1.147zm-1.134.573v-7.6h-1.148v7.6h1.148zm-.574-7.027h1.524v-1.148h-1.524v1.148zm11.36 6.752l-.269.507.004.002.266-.509zm-1.377-1.34l-.502.277.007.012.495-.29zm.037-4.37l.496.288.003-.005-.499-.283zm1.414-1.432l-.277-.503-.004.003.28.5zm3.764 0l-.321.475.008.006.313-.481zm1.12 1.138l.537.202a.574.574 0 00-.041-.491l-.496.289zm-.11.294l-.571-.059a.574.574 0 001.108.26l-.537-.201zm.165-1.616v-.574a.574.574 0 00-.57.516l.57.058zm1.579 0h.574a.574.574 0 00-.574-.574v.574zm0 7.601v.574a.574.574 0 00.574-.574h-.574zm-1.708 0h-.573c0 .317.257.574.573.574v-.574zm0-1.983l.53-.22a.574.574 0 00-1.103.22H88zm.184.441l.533.213a.574.574 0 00-.003-.434l-.53.221zm-.33.477l-.432-.377-.002.002.433.376zm-.661.57l-.328-.471-.01.007.338.464zm-.937.495l.187.543a.791.791 0 00.017-.006l-.204-.537zm.422-1.469l-.241-.52.242.52zm.845-.66l-.45-.357-.002.003.452.354zm.477-1.047l.562.12a.575.575 0 00.012-.12h-.574zm0-1.487h.574c0-.05-.006-.1-.02-.148l-.554.148zm-.514-.955l-.433.377.009.009.424-.386zm-.881-.643l-.242.52.016.008.226-.528zm-2.387.092l-.288-.496.288.496zm-.918.918l-.493-.293-.007.012.5.281zm.019 2.718l.497-.287-.497.287zm1.744 2.143a3.577 3.577 0 01-1.681-.394l-.53 1.018a4.723 4.723 0 002.21.524V55.19zm-1.677-.392a2.877 2.877 0 01-1.151-1.123l-.991.579c.394.675.93 1.2 1.603 1.557l.539-1.013zm-1.144-1.11c-.273-.496-.424-1.124-.424-1.908H80.67c0 .93.18 1.758.567 2.462l1.005-.554zm-.424-1.908c0-.763.16-1.388.454-1.897l-.992-.576c-.415.715-.61 1.547-.61 2.473h1.147zm.457-1.902a3.12 3.12 0 011.196-1.215l-.562-1a4.272 4.272 0 00-1.632 1.648l.998.567zm1.192-1.213a3.43 3.43 0 011.688-.424v-1.148c-.804 0-1.554.188-2.242.567l.554 1.005zm1.688-.424c.618 0 1.1.143 1.478.397l.642-.95c-.602-.407-1.32-.595-2.12-.595v1.148zm1.486.403c.426.276.732.593.937.946l.992-.578c-.309-.529-.75-.97-1.303-1.33l-.626.962zm.896.456l-.11.293 1.074.403.11-.293-1.074-.403zm.998.553l.165-1.616-1.142-.116-.165 1.615 1.141.117zm-.406-1.1h1.579v-1.148h-1.58v1.148zm1.005-.574v7.601h1.148v-7.6h-1.148zm.574 7.028h-1.708v1.147h1.708v-1.147zm-1.134.573v-1.983h-1.147v1.983h1.147zm-1.103-1.762l.183.44 1.06-.44-.184-.441-1.06.441zm.18.007c-.011.029-.067.128-.23.313l.864.755c.181-.206.345-.425.432-.642l-1.066-.426zm-.231.315a3.018 3.018 0 01-.555.474l.655.942c.306-.213.567-.434.767-.665l-.867-.751zm-.565.48a3.415 3.415 0 01-.802.424l.407 1.073c.396-.15.754-.339 1.07-.568l-.675-.928zm-.786.418a3.076 3.076 0 01-1.006.152v1.148c.493 0 .956-.069 1.38-.215l-.374-1.085zm-.547-.114c.5 0 .97-.093 1.398-.292l-.483-1.04c-.258.119-.56.184-.915.184v1.148zm1.398-.292c.42-.195.775-.47 1.055-.828l-.904-.707a1.687 1.687 0 01-.634.494l.483 1.041zm1.053-.825a3.06 3.06 0 00.589-1.284l-1.123-.238c-.07.326-.194.592-.366.81l.9.712zm.601-1.403v-1.487h-1.147v1.487h1.147zm-.02-1.635a2.837 2.837 0 00-.643-1.193l-.85.772c.181.198.31.434.385.717l1.109-.296zm-.635-1.184a2.987 2.987 0 00-1.088-.793l-.452 1.055c.263.113.486.275.674.492l.866-.754zm-1.072-.786a3.243 3.243 0 00-1.38-.292v1.148c.34 0 .637.064.896.185l.484-1.041zm-1.38-.292c-.551 0-1.067.135-1.537.408l.576.992a1.87 1.87 0 01.96-.252v-1.148zm-1.537.408a3.113 3.113 0 00-1.123 1.121l.986.586c.185-.31.422-.545.713-.715l-.576-.992zm-1.13 1.133c-.276.491-.404 1.05-.404 1.658h1.147c0-.444.093-.803.257-1.096l-1-.562zm-.404 1.658c0 .585.14 1.131.425 1.627l.995-.573a2.064 2.064 0 01-.273-1.054h-1.147zm.425 1.627c.28.487.662.878 1.14 1.162l.587-.987a2.022 2.022 0 01-.732-.748l-.995.573zm1.14 1.162c.48.285 1.004.429 1.56.429v-1.147c-.348 0-.67-.089-.973-.269l-.586.987zm11.511.865l-.261.51.004.003.257-.513zm-1.23-1.083l-.562-.117a.574.574 0 00.08.429l.482-.312zm.11-.533h.574a.574.574 0 00-1.136-.116l.562.116zm0 5.49v.574a.574.574 0 00.574-.574h-.574zm-1.69 0h-.573c0 .317.257.574.574.574v-.574zm0-11.365v-.574a.574.574 0 00-.573.574h.574zm1.47 0l.57-.07a.574.574 0 00-.57-.504v.574zm.238 1.946l-.542.187a.574.574 0 001.112-.257l-.57.07zm-.183-.532l-.45-.356a.574.574 0 00-.093.543l.543-.187zm5.196-1.102l-.299.49.005.003.294-.493zm1.322 5.71l.494.292-.494-.292zm-1.469 1.396l.265.509.004-.002-.269-.507zm-1.083-1.212l.275.504.005-.003-.28-.501zm.991-.937l.487.305.004-.007-.49-.298zm.019-2.717l-.498.286.004.007.494-.293zm-.937-.955l-.3.49.007.004.293-.494zm-2.478-.091l-.25-.517.25.517zm-.882.716l.45.356.007-.01-.457-.346zm-.496 1.028l-.556-.14a.572.572 0 00-.017.14h.573zm0 1.267h-.573c0 .03.002.059.007.088l.566-.088zm.441 1.046l.457-.347-.457.347zm.863.716l-.257.514.008.003.249-.517zm1.469 1.042a3.12 3.12 0 01-1.414-.343l-.514 1.026a4.266 4.266 0 001.928.465V55.19zm-1.41-.34a2.553 2.553 0 01-1.01-.886l-.963.625c.354.545.844.971 1.45 1.282l.523-1.022zm-.93-.457l.11-.532-1.123-.233-.11.532 1.124.233zm-1.025-.649v5.49h1.148v-5.49h-1.148zm.574 4.916h-1.69v1.148h1.69V58.66zm-1.115.574V47.87H92.09v11.365h1.148zm-.574-10.791h1.469v-1.148h-1.47v1.148zm.9-.504l.238 1.946 1.139-.14-.239-1.946-1.139.14zm1.35 1.69l-.184-.533-1.085.374.184.532 1.085-.374zm-.276.01c.315-.4.719-.737 1.22-1.009l-.549-1.008a5.042 5.042 0 00-1.572 1.305l.901.711zm1.22-1.009a3.323 3.323 0 011.616-.39v-1.147c-.784 0-1.51.173-2.165.529l.548 1.008zm1.616-.39c.614 0 1.145.147 1.611.431l.597-.98c-.66-.402-1.4-.598-2.208-.598v1.148zm1.616.434c.483.288.864.687 1.148 1.212l1.009-.545a4.217 4.217 0 00-1.57-1.653l-.587.986zm1.148 1.212c.278.514.427 1.133.427 1.875h1.147c0-.898-.181-1.71-.565-2.42l-1.009.545zm.427 1.875c0 .736-.159 1.341-.453 1.838l.988.584c.416-.702.612-1.517.612-2.422h-1.147zm-.453 1.838a3.09 3.09 0 01-1.243 1.18l.537 1.015a4.242 4.242 0 001.694-1.61l-.988-.585zm-1.24 1.179c-.52.27-1.124.412-1.828.412v1.148c.863 0 1.653-.176 2.358-.542l-.53-1.018zm-2.159.201c.58 0 1.122-.131 1.615-.4l-.549-1.008a2.18 2.18 0 01-1.066.26v1.148zm1.62-.403a3.278 3.278 0 001.199-1.133l-.973-.609c-.192.307-.45.553-.785.74l.56 1.002zm1.203-1.14c.303-.5.45-1.056.45-1.656h-1.147c0 .404-.097.752-.284 1.061l.98.595zm.45-1.656c0-.604-.137-1.16-.43-1.652l-.986.586c.174.292.269.641.269 1.066h1.147zm-.425-1.645a3.17 3.17 0 00-1.14-1.162l-.587.987c.305.18.548.427.732.747l.995-.572zm-1.134-1.158a2.983 2.983 0 00-1.585-.433v1.147c.38 0 .703.091.985.264l.6-.978zm-1.585-.433c-.517 0-1.001.1-1.443.314l.499 1.033c.268-.13.58-.2.944-.2v-1.147zm-1.443.314c-.434.21-.8.505-1.089.885l.914.695c.176-.232.398-.414.674-.547l-.499-1.033zm-1.082.876a3.255 3.255 0 00-.602 1.246l1.113.278c.08-.319.21-.586.389-.811l-.9-.713zm-.62 1.385v1.267h1.148V51.12h-1.147zm.008 1.355c.075.483.258.921.55 1.305l.914-.694a1.71 1.71 0 01-.33-.788l-1.134.177zm.55 1.305c.286.376.642.672 1.063.883l.514-1.027a1.869 1.869 0 01-.663-.55l-.914.694zm1.07.886c.435.21.9.314 1.388.314v-1.147a2.01 2.01 0 01-.889-.2l-.498 1.033zm7.682-13.02v-.574a.574.574 0 00-.574.574h.574zm1.542 0h.574a.574.574 0 00-.574-.574v.574zm0 10.502v.574a.574.574 0 00.574-.574h-.574zm-1.542 0h-.574c0 .317.257.574.574.574v-.574zm.037 3.084l.379-.43-.379.43zm0-1.395l.379.43.014-.012-.393-.418zm1.542 0l-.406.406.026.024.38-.43zm0 1.395l-.38-.43-.012.012.392.419zm-1.579-13.013h1.542v-1.147h-1.542v1.147zm.968-.573v10.502h1.148V41.646h-1.148zm.574 9.928h-1.542v1.148h1.542v-1.148zm-.968.574V41.646h-1.148v10.502h1.148zm.252 2.786c-.2 0-.322-.054-.41-.132l-.759.86c.328.29.733.42 1.169.42v-1.148zm-.41-.132a.32.32 0 01-.118-.267h-1.147c0 .443.172.834.506 1.128l.759-.86zm-.118-.267a.32.32 0 01.118-.268l-.759-.86a1.461 1.461 0 00-.506 1.128h1.147zm.132-.28c.089-.084.206-.138.396-.138V52.97a1.68 1.68 0 00-1.183.45l.787.835zm.396-.138c.172 0 .271.05.347.126l.812-.812a1.594 1.594 0 00-1.159-.461v1.147zm.373.15a.318.318 0 01.118.268h1.148c0-.444-.173-.834-.506-1.128l-.76.86zm.118.268c0 .12-.035.194-.118.267l.76.86c.333-.294.506-.684.506-1.127h-1.148zm-.13.279c-.075.07-.179.12-.361.12v1.148c.43 0 .828-.133 1.145-.43l-.784-.838z" fill="#fff" mask="url(#a)"/></g><path d="M106.353 1.41c31.236 16.045 25.556 46.33 25.973 59.908m0 0c.061 2.015.258 3.663.729 4.84 3.645 9.114 12.243-6.469 6.65-6.928-3.1-.255-3.237-.227-7.379 2.088zm0 0c-3.332 1.861-9.254 5.202-21.39 11.064-27.23 13.152-93.38 5.332-109.063-13.152" stroke="#FFEE56" stroke-width="2" stroke-linecap="round"/><defs><filter id="filter0_d_730_4406" x="22.777" y="3.075" width="84.696" height="58.455" filterUnits="userSpaceOnUse" color-interpolation-filters="sRGB"><feFlood flood-opacity="0" result="BackgroundImageFix"/><feColorMatrix in="SourceAlpha" values="0 0 0 0 0 0 0 0 0 0 0 0 0 0 0 0 0 0 127 0" result="hardAlpha"/><feOffset/><feGaussianBlur stdDeviation="1.148"/><feComposite in2="hardAlpha" operator="out"/><feColorMatrix values="0 0 0 0 1 0 0 0 0 1 0 0 0 0 1 0 0 0 1 0"/><feBlend in2="BackgroundImageFix" result="effect1_dropShadow_730_4406"/><feBlend in="SourceGraphic" in2="effect1_dropShadow_730_4406" result="shape"/></filter></defs></svg>