<svg width="48" height="49" fill="none" xmlns="http://www.w3.org/2000/svg"><path d="M21.5 2.327a4.01 4.01 0 015 0 4.01 4.01 0 003.611.719 4.01 4.01 0 014.62 1.913 4.01 4.01 0 003.061 2.046 4.01 4.01 0 013.537 3.536 4.01 4.01 0 002.045 3.06 4.01 4.01 0 011.914 4.621 4.01 4.01 0 00.718 3.61 4.01 4.01 0 010 5.002 4.01 4.01 0 00-.718 3.61 4.01 4.01 0 01-1.914 4.62 4.01 4.01 0 00-2.045 3.062 4.01 4.01 0 01-3.537 3.536 4.01 4.01 0 00-3.06 2.045 4.01 4.01 0 01-4.62 1.914 4.01 4.01 0 00-3.611.718 4.01 4.01 0 01-5.002 0 4.01 4.01 0 00-3.61-.718 4.01 4.01 0 01-4.62-1.914 4.01 4.01 0 00-3.062-2.045 4.01 4.01 0 01-3.536-3.536 4.01 4.01 0 00-2.045-3.061 4.01 4.01 0 01-1.914-4.62 4.01 4.01 0 00-.718-3.611 4.01 4.01 0 010-5.001 4.01 4.01 0 00.718-3.61 4.01 4.01 0 011.914-4.621 4.01 4.01 0 002.045-3.061 4.01 4.01 0 013.536-3.536 4.01 4.01 0 003.061-2.046 4.01 4.01 0 014.62-1.913 4.01 4.01 0 003.611-.719z" fill="#CE2073"/><path d="M19.875 9.256h3.701v.838h-3.701v-.838zm-.461 1.49h4.5v.853h-4.5v-.853zm.169 1.544h4.255v.853h-4.255v-.853zm1.659-3.725h.914v2.65h-.914v-2.65zm.914 2.942h.914v3.248c0 .469-.093.722-.4.86-.307.139-.745.162-1.329.162a3.298 3.298 0 00-.276-.914c.376.015.799.015.93.008.122 0 .16-.024.16-.131v-3.233zm-2.304 2.05l.683-.422c.338.338.745.822.93 1.16l-.73.476c-.162-.338-.553-.845-.883-1.214zm-3.172-.89c.752-.17 1.874-.485 2.933-.784l.123.806c-.967.308-2.02.623-2.834.86l-.222-.883zm1.382-4.094h.845v7.211h-.845V8.573zm-1.014.4l.768.13c-.1 1.014-.284 2.081-.56 2.772a4.528 4.528 0 00-.653-.414c.246-.623.376-1.582.445-2.489zm.208 1.051h2.288v.876h-2.457l.169-.876zm11.259 4.493l.66-.599c.806.377 1.744.876 2.266 1.221l-.845.615a15.835 15.835 0 00-2.081-1.237zm-4.117-1.374h7.196v.867h-7.196v-.867zm1.214-1.874h4.723v.852h-4.723v-.852zm1.144-2.72h.86v4.978h-.86V8.55zm1.597-.007h.876v4.985h-.876V8.541zm-3.195.914h5.737v4.001h-.929V10.31H26.05v3.148h-.89v-4zm1.506 4.47l.845.56c-.607.477-1.59.999-2.381 1.29a7.6 7.6 0 00-.722-.667c.814-.261 1.782-.776 2.258-1.183zm-7.976 22.767l2.742-2.787a47.988 47.988 0 002.35-2.604c.706-.845 1.26-1.659 1.659-2.442.415-.784.622-1.544.622-2.281a2.03 2.03 0 00-.184-.876 1.742 1.742 0 00-.484-.668 1.923 1.923 0 00-.738-.415 2.592 2.592 0 00-.944-.16c-.353 0-.668.053-.945.16a1.894 1.894 0 00-.691.392c-.184.169-.33.353-.438.553-.092.2-.138.407-.138.622 0 .492.077.93.23 1.313.17.369.392.7.669.991l-2.051 1.866c-.446-.215-.83-.576-1.152-1.082a7.012 7.012 0 01-.714-1.59c-.154-.569-.23-1.037-.23-1.406 0-.845.23-1.65.69-2.419.477-.768 1.16-1.398 2.051-1.89.906-.49 2.005-.736 3.295-.736 1.06 0 1.981.238 2.765.714a4.994 4.994 0 011.82 1.889c.445.768.668 1.59.668 2.465 0 .692-.108 1.36-.323 2.005a9.355 9.355 0 01-.898 1.912 18.853 18.853 0 01-1.267 1.843 396.4 396.4 0 01-1.475 1.844l-1.52-.438h5.667v3.225H18.688z" fill="#fff"/></svg>