<svg width="49" height="49" fill="none" xmlns="http://www.w3.org/2000/svg"><path d="M22 2.327a4.01 4.01 0 015 0 4.01 4.01 0 003.611.719 4.01 4.01 0 014.62 1.913 4.01 4.01 0 003.061 2.046 4.01 4.01 0 013.537 3.536 4.01 4.01 0 002.045 3.06 4.01 4.01 0 011.914 4.621 4.01 4.01 0 00.718 3.61 4.01 4.01 0 010 5.002 4.01 4.01 0 00-.718 3.61 4.01 4.01 0 01-1.914 4.62 4.01 4.01 0 00-2.045 3.062 4.01 4.01 0 01-3.537 3.536 4.01 4.01 0 00-3.06 2.045 4.01 4.01 0 01-4.62 1.914 4.01 4.01 0 00-3.611.718 4.01 4.01 0 01-5.002 0 4.01 4.01 0 00-3.61-.718 4.01 4.01 0 01-4.62-1.914 4.01 4.01 0 00-3.062-2.045 4.01 4.01 0 01-3.536-3.536 4.01 4.01 0 00-2.045-3.061 4.01 4.01 0 01-1.914-4.62 4.01 4.01 0 00-.718-3.611 4.01 4.01 0 010-5.001 4.01 4.01 0 00.718-3.61 4.01 4.01 0 011.914-4.621 4.01 4.01 0 002.045-3.061 4.01 4.01 0 013.536-3.536 4.01 4.01 0 003.061-2.046 4.01 4.01 0 014.62-1.913A4.01 4.01 0 0022 2.327z" fill="#CE2073"/><path d="M20.375 9.256h3.701v.838h-3.701v-.838zm-.461 1.49h4.5v.853h-4.5v-.853zm.169 1.544h4.255v.853h-4.255v-.853zm1.659-3.725h.914v2.65h-.914v-2.65zm.914 2.942h.914v3.248c0 .469-.093.722-.4.86-.307.139-.745.162-1.329.162a3.298 3.298 0 00-.276-.914c.376.015.799.015.93.008.122 0 .16-.024.16-.131v-3.233zm-2.304 2.05l.683-.422c.338.338.745.822.93 1.16l-.73.476c-.162-.338-.553-.845-.883-1.214zm-3.172-.89c.752-.17 1.874-.485 2.933-.784l.123.806c-.967.308-2.02.623-2.834.86l-.222-.883zm1.382-4.094h.845v7.211h-.845V8.573zm-1.014.4l.768.13c-.1 1.014-.284 2.081-.56 2.772a4.528 4.528 0 00-.653-.414c.246-.623.376-1.582.445-2.489zm.208 1.051h2.288v.876h-2.457l.169-.876zm11.259 4.493l.66-.599c.806.377 1.744.876 2.266 1.221l-.845.615a15.835 15.835 0 00-2.081-1.237zm-4.117-1.374h7.196v.867h-7.196v-.867zm1.214-1.874h4.723v.852h-4.723v-.852zm1.144-2.72h.86v4.978h-.86V8.55zm1.597-.007h.876v4.985h-.876V8.541zm-3.195.914h5.737v4.001h-.929V10.31H26.55v3.148h-.89v-4zm1.506 4.47l.845.56c-.607.477-1.59.999-2.381 1.29a7.6 7.6 0 00-.722-.667c.814-.261 1.782-.776 2.258-1.183zm-2.891 22.952c-.906 0-1.79-.17-2.65-.507-.86-.338-1.528-.745-2.004-1.221l1.728-2.673c.277.338.668.622 1.175.853.523.215 1.022.322 1.498.322.353 0 .683-.077.99-.23.308-.154.554-.384.738-.691.184-.308.276-.684.276-1.13 0-.491-.1-.921-.3-1.29a1.934 1.934 0 00-.829-.852c-.353-.215-.775-.323-1.267-.323-.476 0-.93.07-1.36.208-.43.122-.936.337-1.52.645h-.023v-8.571h7.626v3.225h-4.746v2.466l-.392-.692a9.66 9.66 0 01.623-.069c.2-.015.399-.023.599-.023 1.075 0 1.981.238 2.718.715a4.756 4.756 0 011.728 1.889c.4.783.6 1.636.6 2.557 0 1.014-.231 1.928-.692 2.742a5.192 5.192 0 01-1.89 1.935c-.783.477-1.658.715-2.626.715z" fill="#fff"/></svg>