<svg width="110" height="110" fill="none" xmlns="http://www.w3.org/2000/svg"><circle cx="55" cy="55" r="55" fill="#CE2073"/><path d="M26.767 61.111h-4.599V48.532a90.231 90.231 0 01.122-4.325 9.748 9.748 0 01-.67.67c-.325.305-.63.579-.914.822l-2.497 2.01-2.223-2.771 7.005-5.574h3.776v21.747zm21.146-10.873c0 2.335-.253 4.335-.761 6-.487 1.665-1.29 2.944-2.406 3.837-1.117.894-2.6 1.34-4.447 1.34-2.62 0-4.538-.984-5.757-2.954-1.218-1.97-1.827-4.71-1.827-8.223 0-2.335.244-4.335.73-6 .488-1.686 1.29-2.975 2.407-3.869 1.117-.893 2.6-1.34 4.447-1.34 2.599 0 4.518.985 5.756 2.955 1.239 1.97 1.858 4.72 1.858 8.254zm-10.63 0c0 2.477.214 4.345.64 5.604.427 1.239 1.218 1.858 2.376 1.858 1.137 0 1.929-.62 2.376-1.858.446-1.239.67-3.107.67-5.604 0-2.477-.224-4.346-.67-5.605-.447-1.259-1.239-1.888-2.376-1.888-1.157 0-1.95.63-2.376 1.889-.426 1.258-.64 3.127-.64 5.604zm28.06 0c0 2.335-.254 4.335-.761 6-.487 1.665-1.29 2.944-2.406 3.837-1.117.894-2.6 1.34-4.447 1.34-2.62 0-4.538-.984-5.757-2.954-1.218-1.97-1.827-4.71-1.827-8.223 0-2.335.243-4.335.73-6 .488-1.686 1.29-2.975 2.407-3.869 1.117-.893 2.6-1.34 4.447-1.34 2.599 0 4.518.985 5.756 2.955 1.239 1.97 1.858 4.72 1.858 8.254zm-10.63 0c0 2.477.214 4.345.64 5.604.426 1.239 1.218 1.858 2.376 1.858 1.137 0 1.929-.62 2.376-1.858.446-1.239.67-3.107.67-5.604 0-2.477-.224-4.346-.67-5.605-.447-1.259-1.24-1.888-2.376-1.888-1.158 0-1.95.63-2.376 1.889-.426 1.258-.64 3.127-.64 5.604zm15.5 10.296h4.371V61.6h-4.37v-1.066zm-.498-6.766h3.47v1.036h-3.47v-1.036zm.264-1.017l1.32.254c-.28.476-.603.939-.968 1.389-.359.443-.77.87-1.232 1.28-.457.405-.978.78-1.565 1.125a2.167 2.167 0 00-.234-.313 7.532 7.532 0 00-.303-.342 2.053 2.053 0 00-.294-.264 8.455 8.455 0 001.438-.948 7.796 7.796 0 001.095-1.076c.306-.378.554-.746.743-1.105zm2.835 1.017h.215l.196-.059.812.42a8.923 8.923 0 01-1.115 2.093 9.564 9.564 0 01-1.555 1.692c-.58.502-1.209.938-1.887 1.31-.678.372-1.382.681-2.112.929a2.745 2.745 0 00-.186-.362 7.57 7.57 0 00-.244-.381 2.19 2.19 0 00-.254-.313 10.24 10.24 0 003.735-1.936 8.728 8.728 0 001.437-1.467c.41-.54.73-1.118.958-1.73v-.196zm-4.38 2.141l.88-.753c.228.157.466.333.714.528.254.196.492.395.713.597.229.195.414.381.558.557l-.949.841a4.588 4.588 0 00-.508-.567 11.048 11.048 0 00-.694-.636 15.09 15.09 0 00-.714-.567zm5.612 1.653h1.213v4.43h-1.213v-4.43zm-3.334 0h3.921v1.056h-3.92v3.363h-1.184v-3.559l.9-.86h.283zm9.436-3.667h5.358v.92h-5.358v-.92zm.254 1.31H85.3v.88h-4.898v-.88zm-.45 1.3h5.74v.959h-5.74v-.958zm3.95-3.715l1.174.274c-.137.222-.268.434-.391.636a7.986 7.986 0 01-.343.518l-.909-.264c.085-.17.17-.365.254-.587.091-.221.163-.414.215-.577zm-3.138.342l.928-.312c.111.169.219.355.323.557.111.202.19.378.235.528l-.978.352a3.523 3.523 0 00-.205-.548 5.228 5.228 0 00-.303-.577zm3.989 4.508l.89.626a11.41 11.41 0 01-.695.674c-.24.222-.456.411-.645.568l-.753-.568a10.284 10.284 0 00.841-.85c.144-.163.264-.313.362-.45zm-4.605.567l.792-.528c.176.176.358.378.547.606.19.222.333.418.43.587l-.84.587a4.568 4.568 0 00-.401-.616 6.065 6.065 0 00-.528-.636zm-.577 2.2c.3-.13.652-.296 1.056-.499.404-.202.818-.413 1.242-.635l.303.948c-.346.202-.701.408-1.066.616-.365.202-.704.388-1.017.558l-.518-.988zm2.689-5.886h1.134v6.307c0 .26-.03.466-.088.616a.624.624 0 01-.323.361 1.459 1.459 0 01-.596.167 7.18 7.18 0 01-.802.039 3.534 3.534 0 00-.117-.538 2.767 2.767 0 00-.196-.509l.499.02h.332c.065 0 .108-.013.127-.04.02-.025.03-.068.03-.126V54.52zm1.065 3.119c.15.437.343.847.577 1.232.235.385.519.724.851 1.017.332.293.707.525 1.124.694a2.959 2.959 0 00-.264.284c-.09.11-.182.225-.273.342a2.867 2.867 0 00-.206.323 4.163 4.163 0 01-1.134-.9 6.344 6.344 0 01-.85-1.28 9.139 9.139 0 01-.587-1.536l.762-.176zm-6.629-2.806h3.237v1.085h-3.237v-1.085zM77.89 52.8h1.056v9.181H77.89V52.8zm-.02 2.777l.646.215c-.065.391-.15.795-.255 1.212-.104.411-.221.819-.352 1.223-.13.397-.273.769-.43 1.114a4.91 4.91 0 01-.489.89 3.575 3.575 0 00-.244-.528 5.884 5.884 0 00-.284-.499 5.28 5.28 0 00.45-.752 10.905 10.905 0 00.724-1.907c.098-.34.176-.662.234-.968zm1.027.704c.052.065.134.182.245.352.117.163.24.342.371.538.13.189.248.368.352.537.11.163.186.278.225.343l-.606.84a17.543 17.543 0 00-.225-.498 13.068 13.068 0 00-.303-.606 23.078 23.078 0 00-.303-.587 6.206 6.206 0 00-.245-.45l.49-.47z" fill="#FFEE56"/><path d="M90.414 54.276c.3.04.636.069 1.007.088.378.014.76.02 1.144.02.392-.007.766-.02 1.125-.04.358-.025.668-.051.929-.077v1.261c-.3.026-.63.049-.988.068a30.272 30.272 0 01-2.22 0c-.358-.02-.69-.042-.997-.068v-1.252zm.782 4.176c-.039.163-.068.31-.087.44-.02.123-.03.25-.03.38 0 .105.026.203.078.294.053.085.13.16.235.225.11.059.251.104.42.137.177.026.388.04.636.04.437 0 .848-.02 1.232-.06.385-.045.792-.11 1.222-.195l.02 1.32a10.47 10.47 0 01-1.085.137 18.52 18.52 0 01-1.438.049c-.84 0-1.466-.14-1.877-.42a1.366 1.366 0 01-.616-1.184c0-.189.013-.385.039-.587.033-.208.075-.436.127-.684l1.124.108zm-2.287-4.83a2.805 2.805 0 00-.089.273c-.032.117-.065.231-.097.342l-.059.255a9.43 9.43 0 01-.098.537c-.039.215-.081.46-.127.734-.039.267-.078.54-.117.821-.04.28-.072.55-.098.812-.02.26-.03.488-.03.684v.313c.007.117.02.225.04.323.046-.111.094-.222.147-.333l.156-.332c.052-.118.098-.229.137-.333l.606.48c-.091.267-.186.553-.284.86l-.254.87c-.071.267-.127.489-.166.665a6.402 6.402 0 00-.039.244 3.22 3.22 0 00-.01.215v.186l.02.215-1.135.079a10.073 10.073 0 01-.264-1.35 13.565 13.565 0 01-.068-2.962c.033-.378.072-.74.117-1.086l.127-.958c.046-.287.085-.525.118-.714.013-.137.03-.29.049-.46.026-.175.042-.342.049-.498l1.368.117zm-59.45 17.794a.828.828 0 00.836.836.846.846 0 00.6-.235.82.82 0 00.25-.601.82.82 0 00-.25-.601.82.82 0 00-.6-.25.803.803 0 00-.587.25.82.82 0 00-.25.601zm-.91 0c0-.323.079-.616.235-.88.166-.274.381-.489.645-.645.264-.157.553-.235.866-.235.322 0 .616.078.88.235.273.156.488.371.645.645.156.264.235.557.235.88 0 .313-.079.601-.235.865-.157.264-.372.48-.645.646a1.694 1.694 0 01-.88.234c-.313 0-.602-.078-.866-.234a2.033 2.033 0 01-.645-.646 1.667 1.667 0 01-.235-.865zm1.775 1.159a2.454 2.454 0 00-.176.498 11.93 11.93 0 01-.147.514 19.659 19.659 0 01-.762 2.596c-.176.479-.387.953-.631 1.422a8.95 8.95 0 01-.807 1.32 10.51 10.51 0 01-1.54 1.643c-.586.508-1.241.968-1.965 1.379-.724.41-1.52.757-2.39 1.041l-1.6-1.76c.978-.235 1.82-.523 2.523-.865a8.676 8.676 0 001.834-1.174c.528-.44.992-.909 1.393-1.408a6.86 6.86 0 00.821-1.334 9.71 9.71 0 00.572-1.438c.157-.489.264-.943.323-1.364h-6.82c-.342 0-.675.005-.997.015-.313.01-.563.025-.748.044v-2.068a14.383 14.383 0 001.745.117h6.791c.146 0 .322-.004.528-.014.215-.01.42-.044.616-.103l1.437.939zm4.87 9.005c.087-.186.141-.347.16-.484.02-.137.03-.293.03-.47v-7.948c0-.186-.01-.382-.03-.587a5.43 5.43 0 00-.058-.587 4.613 4.613 0 00-.073-.499h2.302a27.51 27.51 0 00-.102.836c-.03.274-.044.553-.044.836v7.627a15.137 15.137 0 001.906-.719c.685-.313 1.37-.68 2.054-1.1.694-.43 1.344-.9 1.95-1.408a11.647 11.647 0 001.628-1.628l1.042 1.658c-.998 1.202-2.235 2.244-3.711 3.124a24.024 24.024 0 01-4.796 2.156c-.098.039-.225.088-.381.146a2.528 2.528 0 00-.484.25l-1.394-1.203zm23.158-11.41c.127.175.259.386.396.63.147.245.288.489.425.733.137.245.25.46.338.646l-1.174.513a31.946 31.946 0 00-.557-1.027 9.885 9.885 0 00-.601-1.012l1.173-.484zm1.73-.66c.128.185.265.405.411.66.147.244.289.488.426.733.146.234.264.435.352.601l-1.174.499a14.443 14.443 0 00-.557-1.027c-.215-.381-.42-.709-.616-.983l1.159-.484zm-9.151 10.985V72.56a13.007 13.007 0 00-.059-1.173 3.253 3.253 0 00-.059-.514H53c-.04.215-.074.49-.103.822-.02.322-.03.61-.03.865v7.421c0 .294.045.533.133.719.088.186.264.318.528.396.273.078.674.117 1.202.117a20.823 20.823 0 003.124-.235 44.296 44.296 0 001.51-.249l-.058 1.98c-.4.059-.855.113-1.364.162a37.49 37.49 0 01-1.584.117c-.547.03-1.085.044-1.613.044-.831 0-1.501-.054-2.01-.161-.508-.098-.894-.25-1.158-.455a1.498 1.498 0 01-.513-.792 4.315 4.315 0 01-.132-1.13zm9.225-6.439c-.059.098-.137.225-.235.381a9.944 9.944 0 00-.234.411 24.1 24.1 0 01-.602 1.027 29.53 29.53 0 01-.762 1.173c-.274.4-.558.782-.851 1.144a8.95 8.95 0 01-.821.924l-1.614-.953c.323-.284.636-.606.939-.968.313-.372.592-.734.836-1.086a7.73 7.73 0 00.557-.909c-.127.02-.361.069-.704.147l-1.246.249-1.584.323a135.701 135.701 0 00-3.447.689c-.548.108-1.041.21-1.481.308-.44.088-.792.161-1.056.22l-.367-1.921c.293-.04.665-.093 1.115-.162l1.54-.264a89.922 89.922 0 001.789-.322 73.616 73.616 0 011.819-.352 8757.03 8757.03 0 013.095-.616c.39-.088.679-.152.865-.191l.586-.161c.176-.05.328-.113.455-.191l1.408 1.1zM65.2 71.02c.255.176.553.391.895.645.342.255.694.533 1.056.836.371.294.719.582 1.041.866.323.283.587.537.792.762l-1.496 1.526c-.186-.206-.43-.45-.733-.734a37.378 37.378 0 00-2.024-1.745 18.857 18.857 0 00-.91-.69l1.38-1.466zm-1.833 9.768a15.53 15.53 0 002.156-.455c.675-.195 1.3-.42 1.877-.674a17.08 17.08 0 001.584-.792 14.192 14.192 0 002.288-1.702c.695-.635 1.3-1.295 1.819-1.98.518-.694.929-1.368 1.232-2.024l1.144 2.068c-.372.656-.831 1.31-1.379 1.966a15.747 15.747 0 01-1.833 1.877 15.661 15.661 0 01-2.215 1.584 17.8 17.8 0 01-1.613.865c-.577.264-1.188.499-1.833.704-.636.216-1.3.382-1.995.499l-1.232-1.936zm17.57-.03v-8.433c0-.254-.014-.547-.043-.88a6.833 6.833 0 00-.103-.88h2.288c-.03.255-.059.538-.088.851-.03.303-.044.606-.044.91v8.432c0 .137.005.332.015.586.01.245.029.499.058.763.03.264.05.499.059.704h-2.288a18.123 18.123 0 00.147-2.053zm1.57-6.394a24.03 24.03 0 011.643.499c.606.195 1.217.406 1.833.63.616.225 1.193.45 1.73.675a15.49 15.49 0 011.365.601l-.836 2.024a20.38 20.38 0 00-1.364-.645 35.652 35.652 0 00-1.526-.645 36.347 36.347 0 00-1.51-.572 85.427 85.427 0 00-1.335-.47v-2.097zm-56.2-51.489h1.21v2.95c0 .433-.014.91-.04 1.43a16.9 16.9 0 01-.14 1.59c-.074.54-.18 1.066-.32 1.58a6.31 6.31 0 01-.56 1.39 1.852 1.852 0 00-.32-.22 8.078 8.078 0 00-.41-.23 2.732 2.732 0 00-.35-.15 5.52 5.52 0 00.5-1.26c.126-.46.22-.93.28-1.41.06-.487.1-.96.12-1.42.02-.467.03-.897.03-1.29v-2.96zm.9 0h6.96v2.7h-6.96v-1.02h5.75v-.67h-5.75v-1.01zm2.74 3.39h1.18v3.84c0 .2.033.33.1.39.066.053.223.08.47.08h1.44a.525.525 0 00.3-.07c.073-.047.123-.134.15-.26a3.84 3.84 0 00.08-.58c.133.086.3.173.5.26.206.08.393.14.56.18-.04.393-.114.703-.22.93a.905.905 0 01-.46.47c-.2.093-.467.14-.8.14h-1.7c-.42 0-.747-.047-.98-.14a.814.814 0 01-.49-.47c-.087-.22-.13-.527-.13-.92v-3.85zm2.28-.87l.95.77c-.46.16-.974.303-1.54.43-.567.126-1.147.236-1.74.33-.594.086-1.174.16-1.74.22a4.541 4.541 0 00-.13-.43 2.623 2.623 0 00-.18-.42c.393-.04.793-.094 1.2-.16.413-.067.813-.137 1.2-.21.393-.08.756-.164 1.09-.25.34-.094.636-.187.89-.28zm-4.44 2.34l5.92-.86.18.96-5.91.88-.19-.98zm-.22 1.6l6.8-.99.18.95-6.8 1.03-.18-.99zm10.72-5.79h6.41v.96h-6.41v-.96zm2.5.47l1.38.08a6.666 6.666 0 01-.33.78c-.12.253-.227.473-.32.66l-.97-.17c.053-.207.103-.434.15-.68.046-.254.076-.477.09-.67zm1.69-1.57l1.21.26c-.134.213-.267.42-.4.62-.134.2-.254.373-.36.52l-1.01-.24a6.17 6.17 0 00.2-.37 8.05 8.05 0 00.36-.79zm-3.25.36l.94-.35c.133.153.263.326.39.52.133.193.223.366.27.52l-1 .39a3.094 3.094 0 00-.24-.53 3.917 3.917 0 00-.36-.55zm-1.29 3.54v3.69h-1.17v-2.58h-1.16v-1.11h2.33zm0 3.17c.206.326.496.566.87.72.373.153.82.24 1.34.26.293.013.64.023 1.04.03.406 0 .833-.004 1.28-.01a41.168 41.168 0 002.46-.11 8.917 8.917 0 00-.29.81c-.04.153-.07.29-.09.41-.3.02-.644.033-1.03.04-.387.013-.784.02-1.19.02a35.154 35.154 0 01-2.2-.03c-.614-.027-1.137-.124-1.57-.29a2.786 2.786 0 01-1.15-.82c-.22.186-.447.38-.68.58-.227.2-.477.406-.75.62l-.59-1.25c.233-.14.476-.294.73-.46.253-.167.496-.34.73-.52h1.09zm-2.32-6.11l.89-.72c.206.133.416.29.63.47.213.173.413.353.6.54.186.18.336.346.45.5l-.95.8a3.26 3.26 0 00-.42-.52 7.759 7.759 0 00-.58-.56 7.752 7.752 0 00-.62-.51zm4.49 3.82v.53h2.72v-.53h-2.72zm0 1.33v.52h2.72v-.52h-2.72zm0-2.65v.52h2.72v-.52h-2.72zm-1.13-.87h5.04v4.91h-5.04v-4.91zm13.8-2.33c.086.12.18.263.28.43.1.166.193.333.28.5.093.166.173.313.24.44l-.81.35c-.1-.207-.224-.44-.37-.7a6.728 6.728 0 00-.41-.69l.79-.33zm1.18-.45c.093.126.19.276.29.45.1.166.196.333.29.5.1.16.176.296.23.41l-.79.35a17 17 0 00-.38-.71 6.18 6.18 0 00-.43-.67l.79-.33zm-5.3 1.73a4.478 4.478 0 00-.09-.4c-.034-.12-.07-.24-.11-.36l1.41-.23c.013.1.026.223.04.37.02.146.043.28.07.4.013.1.043.276.09.53l.17.92c.066.36.14.746.22 1.16.086.413.17.833.25 1.26.08.426.156.83.23 1.21.08.38.146.716.2 1.01.06.293.103.51.13.65a20.107 20.107 0 00.26.98l-1.44.26c-.027-.187-.05-.367-.07-.54a3.297 3.297 0 00-.07-.47c-.02-.134-.057-.34-.11-.62-.047-.28-.107-.607-.18-.98a455.4 455.4 0 01-.23-1.18l-.24-1.26c-.08-.42-.157-.814-.23-1.18a54.67 54.67 0 00-.3-1.53zm-2.73 1.27c.16-.014.316-.024.47-.03l.46-.04c.146-.02.353-.047.62-.08l.92-.14c.346-.054.703-.107 1.07-.16.373-.06.733-.117 1.08-.17a553.837 553.837 0 001.56-.27c.16-.034.326-.067.5-.1.173-.04.32-.08.44-.12l.24 1.32c-.107.006-.25.023-.43.05l-.49.07c-.18.026-.417.063-.71.11-.287.04-.607.09-.96.15-.354.053-.714.11-1.08.17l-1.05.17c-.334.053-.627.103-.88.15l-.57.09c-.16.033-.31.066-.45.1a5.99 5.99 0 00-.47.11l-.27-1.38zm.01 2.94c.133-.007.3-.02.5-.04l.54-.07a112.391 112.391 0 001.73-.27c.38-.06.77-.124 1.17-.19.4-.067.79-.13 1.17-.19a202.598 202.598 0 011.8-.31c.193-.04.376-.08.55-.12.18-.04.336-.08.47-.12l.27 1.32a4.175 4.175 0 00-.49.06c-.187.026-.377.056-.57.09-.214.033-.48.076-.8.13-.32.046-.674.103-1.06.17-.38.06-.77.123-1.17.19-.4.06-.784.123-1.15.19-.367.06-.697.116-.99.17a15.87 15.87 0 00-.69.12c-.214.04-.407.076-.58.11a3.432 3.432 0 00-.42.09l-.28-1.33zm18.12-3.91c-.047.093-.09.206-.13.34a9.456 9.456 0 00-.09.36c-.054.24-.124.513-.21.82-.087.306-.19.623-.31.95a8.28 8.28 0 01-.43.97c-.16.32-.344.62-.55.9-.3.393-.65.766-1.05 1.12-.4.346-.847.66-1.34.94a9.305 9.305 0 01-1.63.7l-1.09-1.19c.66-.16 1.23-.357 1.71-.59.486-.24.91-.507 1.27-.8.36-.3.673-.62.94-.96a4.7 4.7 0 00.56-.91c.16-.327.29-.657.39-.99.106-.334.18-.64.22-.92h-4.66c-.227 0-.45.003-.67.01a7.838 7.838 0 00-.52.03v-1.41c.106.006.23.016.37.03l.44.04c.153.006.283.01.39.01h4.62c.1 0 .223-.004.37-.01a2.51 2.51 0 00.41-.07l.99.63zm4.25 5.7v-5.75c0-.174-.01-.374-.03-.6a4.637 4.637 0 00-.07-.6h1.56c-.02.173-.04.366-.06.58-.02.206-.03.413-.03.62v5.75c0 .093.003.226.01.4.006.166.02.34.04.52s.033.34.04.48h-1.56a12.351 12.351 0 00.1-1.4zm1.07-4.36c.333.086.706.2 1.12.34a33.132 33.132 0 012.43.89c.373.146.683.283.93.41l-.57 1.38c-.28-.147-.59-.294-.93-.44-.34-.154-.687-.3-1.04-.44-.347-.14-.69-.27-1.03-.39-.334-.12-.637-.227-.91-.32v-1.43zm10.65-2.7c-.034.18-.087.413-.16.7-.074.286-.18.61-.32.97-.107.246-.23.503-.37.77a6.7 6.7 0 01-.41.7c.086-.04.196-.074.33-.1a2.76 2.76 0 01.41-.07c.146-.02.276-.03.39-.03.42 0 .766.12 1.04.36.28.24.42.596.42 1.07v.49a163.577 163.577 0 01.04 1.22c.006.2.01.38.01.54h-1.2c.013-.114.02-.247.02-.4.006-.16.01-.327.01-.5.006-.174.01-.34.01-.5.006-.167.01-.317.01-.45 0-.32-.087-.54-.26-.66a.902.902 0 00-.56-.19c-.28 0-.564.07-.85.21-.28.133-.517.293-.71.48-.147.146-.297.31-.45.49-.147.18-.307.383-.48.61l-1.07-.8c.433-.4.806-.787 1.12-1.16.32-.374.59-.744.81-1.11.22-.367.4-.734.54-1.1.1-.267.18-.544.24-.83.066-.294.106-.567.12-.82l1.32.11zm-3.76.92c.253.04.546.07.88.09.333.02.626.03.88.03a37.664 37.664 0 003.04-.13c.54-.054 1.053-.12 1.54-.2l-.01 1.16a33.5 33.5 0 01-1.15.13c-.407.033-.824.063-1.25.09-.42.02-.824.036-1.21.05-.387.006-.73.01-1.03.01h-.5l-.6-.02a93.472 93.472 0 01-.59-.04v-1.17zm7.92 2.84a8.844 8.844 0 00-.38.13c-.14.046-.284.096-.43.15-.14.046-.267.093-.38.14-.32.126-.7.28-1.14.46-.434.18-.887.39-1.36.63-.3.16-.554.316-.76.47-.207.153-.364.31-.47.47a.873.873 0 00-.16.51c0 .14.03.256.09.35.06.086.15.156.27.21.12.053.27.09.45.11.18.02.393.03.64.03.426 0 .896-.024 1.41-.07.513-.054.99-.124 1.43-.21l-.04 1.29c-.214.026-.484.053-.81.08-.327.033-.667.056-1.02.07-.347.013-.68.02-1 .02-.52 0-.987-.05-1.4-.15-.414-.1-.74-.27-.98-.51-.234-.247-.35-.584-.35-1.01 0-.347.076-.66.23-.94.16-.28.37-.534.63-.76.26-.227.543-.43.85-.61.313-.187.62-.357.92-.51a16.732 16.732 0 011.52-.71c.22-.094.43-.187.63-.28l.56-.25c.18-.087.363-.177.55-.27l.5 1.16z" fill="#fff"/></svg>