<svg width="36" height="37" fill="none" xmlns="http://www.w3.org/2000/svg"><path d="M36 .333v36H0l36-36z" fill="#67B0C7"/><g clip-path="url(#clip0_42300_124)"><path d="M26.516 23.606a.64.64 0 01-.64.639h-1.065v1.066a.64.64 0 01-1.278 0v-1.066h-1.066a.64.64 0 110-1.279h1.066v-1.065a.64.64 0 111.278 0v1.065h1.066a.64.64 0 01.64.64zm4.075 6.42a.64.64 0 01-.905 0l-2.53-2.531a4.908 4.908 0 11.905-.906l2.533 2.533a.64.64 0 01-.003.903zm-6.419-2.797a3.623 3.623 0 100-7.246 3.623 3.623 0 000 7.246z" fill="#F5F5F5"/></g><defs><clipPath id="clip0_42300_124"><path fill="#fff" transform="translate(19.26 18.693)" d="M0 0h11.52v11.52H0z"/></clipPath></defs></svg>