<svg width="335" height="53" fill="none" xmlns="http://www.w3.org/2000/svg"><g clip-path="url(#clip0_730_4375)"><path fill="#fff" d="M0 0h335v53H0z"/><path d="M13.325 44.893V37.25h-4.74v7.644h-3.51V37.25H.125v-3.904h4.948v-9.062H.126V20.38h4.948v-7.644h3.511v7.644h4.74v-7.644h3.511v7.644h5.008v3.904h-5.008v9.062h5.008v3.904h-5.008v7.644h-3.51zm0-11.548v-9.062h-4.74v9.062h4.74zM46.1 49.947c-3.7 0-6.707-3.344-6.707-7.457v-7.353c-.336.037-.664.074-.993.074a8.28 8.28 0 01-.994-.067c-.027 7.39-5.438 13.4-12.098 13.4h-.382v-3.905h.382c4.733 0 8.587-4.284 8.587-9.547v-1.284c-2.652-1.732-4.29-4.92-4.29-8.375V13.198c0-5.39 3.948-9.78 8.795-9.78 4.847 0 8.74 4.39 8.74 9.78v12.235c0 3.44-1.617 6.628-4.236 8.375v8.682c0 1.955 1.43 3.553 3.196 3.553 1.766 0 3.195-1.59 3.195-3.553v-.426h3.512v.426c0 4.113-3.008 7.457-6.707 7.457zM33.116 25.432c0 3.24 2.37 5.875 5.284 5.875 2.913 0 5.23-2.635 5.23-5.874v-1.105H33.115v1.105zm10.513-5.008v-2.21H33.116v2.21H43.63zm0-6.114v-1.105c0-3.24-2.343-5.875-5.23-5.875-2.886 0-5.283 2.635-5.283 5.875v1.105H43.63zm27.284 28.851v-3.904h.382c5.25 0 9.52-4.717 9.52-10.525 0-5.808-4.27-10.585-9.52-10.585H55.734v-3.904h15.561c7.184 0 13.031 6.502 13.031 14.489 0 7.987-5.847 14.43-13.03 14.43h-.383zm31.513 0v-3.904h.382c5.948 0 10.782-5.352 10.782-11.928v-8.077h-7.922v-3.904h7.922V8.01h3.511v7.338h5.223v3.904h-5.223v8.077c0 8.733-6.411 15.832-14.293 15.832h-.382zm-10.064-5.934V12.593h3.511v20.103c.766-.635 1.222-1.613 1.222-2.68v-.426h3.511v.426c0 3.979-2.906 7.21-6.485 7.21h-1.759zm61.428 7.338c-8.217 0-14.904-7.405-14.904-16.505 0-4.471 1.544-8.622 4.35-11.675.309-.343.638-.672.974-.985h-15.716v-3.904h29.525V15.4h-4.229c-3.021 0-5.874 1.321-8.036 3.732-2.162 2.344-3.357 5.517-3.357 8.936 0 6.95 5.109 12.6 11.393 12.6h.383v3.904h-.383v-.007zm36.998 7.338c-4.156 0-7.533-3.755-7.533-8.376v-2.814h-7.646v-3.904h7.646v-2.21h-4.894v-3.904h4.894v-2.41a7.493 7.493 0 01-3.907-2.442l-.255-.299 2.457-2.732.269.299c.859.956 1.993 1.478 3.188 1.478s2.31-.522 3.142-1.478l.262-.306 2.531 2.732-.275.306c-1.074 1.195-2.451 2.046-3.901 2.426v2.411h4.458v3.904h-4.458v2.21h7.15v3.904h-7.15v2.814c0 2.464 1.806 4.472 4.022 4.472 2.215 0 4.021-2.008 4.021-4.472v-.425h3.511v.425c0 4.621-3.377 8.376-7.532 8.376v.015zM161.92 40.28v-3.904h.383c1.376 0 4.571-.366 4.571-3.732v-17.73h26.673c1.49 0 2.699-1.373 2.699-3.06s-1.209-3-2.699-3h-26.505V4.948h26.505c3.424 0 6.21 3.098 6.21 6.905 0 3.807-2.786 6.965-6.21 6.965h-23.161v13.825c0 4.568-3.25 7.636-8.083 7.636h-.383zm69.115 12.048c-8.674 0-15.723-7.816-15.723-17.423 0-2.702-1.974-4.896-4.404-4.896-2.43 0-4.404 2.194-4.404 4.896v.426h-3.511v-.426c0-4.852 3.551-8.8 7.915-8.8 1.913 0 3.471-1.733 3.471-3.86s-1.591-3.792-3.471-3.792c-1.88 0-3.411 1.702-3.411 3.792v.426h-3.511v-.426c0-4.247 3.109-7.704 6.929-7.704 3.819 0 6.981 3.457 6.981 7.704 0 2.165-.792 4.188-2.181 5.65 1.96 1.628 3.121 4.204 3.121 7.01 0 7.458 5.479 13.52 12.212 13.52h.383v3.903h-.396zm.55-10.331c-4.001 0-7.257-3.62-7.257-8.07v-6.546c0-4.45 3.256-8.07 7.257-8.07 4.001 0 7.204 3.62 7.204 8.07v6.547c0 4.449-3.229 8.069-7.204 8.069zm-3.498-6.547c.551 1.575 1.927 2.643 3.498 2.643 1.571 0 2.894-1.083 3.444-2.643h-6.942zm7.191-3.904v-1.844h-7.432v1.844h7.432zm-.256-5.748c-.557-1.522-1.926-2.575-3.437-2.575-1.51 0-2.934 1.06-3.491 2.575h6.928zM229.061 15.4l2.531-2.732 2.457 2.732-2.457 2.732-2.531-2.732zm-6.982-4.412V7.084h18.965v3.904h-18.965zm-13.635-3.665l2.457-2.732 2.531 2.732-2.531 2.732-2.457-2.732zm25.249-4.59L236.15 0l2.457 2.732-2.457 2.814-2.457-2.814zm-9.519 0L226.691 0l2.457 2.732-2.457 2.807-2.524-2.807h.007zm25.84 42.137V9.534h3.511v31.33c8.855-.993 15.736-9.406 15.736-19.35v-.425h3.511v.425c0 12.877-9.426 23.358-21.006 23.358h-1.759.007zm32.452 1.345V8.002h3.511v38.212h-3.511zm5.566-17.125l-.067-3.904h9.016v3.904h-8.949zm25.336 13.026c-4.155 0-7.532-3.754-7.532-8.375V20.468c0-4.613 3.377-8.375 7.532-8.375h13.588c4.156 0 7.533 3.755 7.533 8.375v13.273c0 4.613-3.377 8.375-7.533 8.375h-13.588zm0-26.111c-2.215 0-4.021 2.008-4.021 4.47v13.273c0 2.464 1.806 4.472 4.021 4.472h13.588c2.216 0 4.021-2.008 4.021-4.472V20.476c0-2.463-1.805-4.471-4.021-4.471h-13.588z" fill="#4A3636"/></g><defs><clipPath id="clip0_730_4375"><path fill="#fff" d="M0 0h335v53H0z"/></clipPath></defs></svg>