<svg width="100" height="220" fill="none" xmlns="http://www.w3.org/2000/svg"><path d="M72.49 11.336c2.31.855 5.084-.943 6.196-4.014 1.111-3.072.14-6.255-2.169-7.11-2.31-.853-5.084.943-6.196 4.016-1.111 3.071-.14 6.254 2.17 7.108zm-8.777 4.899c2.416-.211 4.152-2.987 3.877-6.201-.275-3.214-2.457-5.647-4.873-5.437-2.416.213-4.152 2.989-3.877 6.203.275 3.213 2.457 5.647 4.873 5.435zm18.819-.108c2.12 1.26 5.168-.005 6.808-2.825 1.638-2.823 1.248-6.13-.874-7.389-2.12-1.259-5.168.008-6.807 2.828-1.639 2.821-1.248 6.128.873 7.387v-.001zm11.359 3.343c-1.375-2.02-4.62-2.176-7.249-.348-2.629 1.83-3.645 4.948-2.27 6.969 1.374 2.02 4.62 2.175 7.248.347 2.628-1.828 3.645-4.948 2.271-6.968zm-14.12.381c-.262-1.834-1.375-3.508-3.153-4.356-1.778-.848-3.763-.652-5.33.309-1.732 1.063-2.84 2.451-4.332 3.058-1.492.606-5.67-1.2-8.271 3.575-1.838 3.373-.151 7.637 3.293 9.28 2.618 1.249 4.69 1.11 6.211 1.835 1.521.725 2.732 2.431 5.35 3.68 3.445 1.643 7.773.248 9.18-3.33 1.994-5.066-2.043-7.177-2.528-8.727-.485-1.55-.13-3.297-.42-5.324zm-1.993 52.767c2.31.856 5.084-.942 6.196-4.014 1.111-3.072.14-6.255-2.17-7.11-2.31-.853-5.083.943-6.195 4.016-1.111 3.072-.14 6.254 2.17 7.108h-.001zM69 77.518c2.417-.212 4.153-2.988 3.878-6.202-.275-3.213-2.457-5.647-4.874-5.437-2.416.213-4.151 2.99-3.876 6.203.275 3.213 2.457 5.647 4.873 5.436zm18.82-.109c2.12 1.26 5.168-.005 6.807-2.825 1.64-2.822 1.249-6.129-.873-7.389-2.12-1.258-5.169.008-6.807 2.828-1.64 2.821-1.248 6.128.873 7.387v-.001zm11.359 3.343c-1.375-2.02-4.62-2.176-7.249-.348-2.63 1.83-3.645 4.949-2.27 6.969 1.374 2.02 4.62 2.176 7.248.347 2.628-1.828 3.645-4.947 2.27-6.968zm-14.12.381c-.262-1.834-1.375-3.508-3.153-4.356-1.778-.848-3.763-.652-5.33.31-1.733 1.062-2.84 2.45-4.332 3.057-1.492.606-5.67-1.2-8.272 3.575-1.837 3.373-.15 7.637 3.294 9.28 2.618 1.25 4.69 1.11 6.211 1.835 1.521.725 2.732 2.431 5.35 3.68 3.445 1.643 7.772.249 9.18-3.33 1.994-5.066-2.044-7.177-2.528-8.727-.485-1.55-.13-3.297-.42-5.324zm-70.291 51.005c2.31.855 5.084-.943 6.196-4.015 1.112-3.071.141-6.254-2.169-7.109-2.31-.854-5.084.943-6.196 4.015-1.11 3.072-.14 6.255 2.17 7.109zm-8.778 4.899c2.418-.212 4.153-2.987 3.878-6.202-.275-3.213-2.457-5.646-4.873-5.436-2.416.212-4.152 2.989-3.877 6.203.275 3.213 2.457 5.646 4.873 5.435zm18.82-.108c2.12 1.26 5.168-.006 6.808-2.826 1.639-2.822 1.248-6.128-.873-7.388-2.121-1.259-5.17.007-6.808 2.827-1.639 2.822-1.248 6.128.873 7.387zm11.36 3.342c-1.376-2.019-4.621-2.175-7.25-.347-2.629 1.829-3.645 4.948-2.27 6.968 1.375 2.02 4.62 2.176 7.248.348 2.629-1.829 3.645-4.948 2.271-6.968v-.001zm-14.12.382c-.263-1.835-1.376-3.508-3.154-4.356-1.778-.848-3.763-.653-5.33.309-1.732 1.062-2.84 2.451-4.332 3.057-1.491.607-5.67-1.2-8.271 3.576-1.837 3.373-.151 7.637 3.293 9.28 2.618 1.249 4.69 1.11 6.212 1.835 1.52.725 2.731 2.431 5.35 3.679 3.444 1.644 7.772.249 9.18-3.329 1.993-5.066-2.044-7.178-2.529-8.727-.485-1.55-.129-3.297-.419-5.324zm-1.994 52.767c2.31.855 5.084-.943 6.196-4.014 1.111-3.072.14-6.255-2.169-7.11-2.31-.853-5.084.943-6.196 4.016-1.111 3.071-.14 6.254 2.17 7.108zm-8.777 4.899c2.416-.211 4.152-2.987 3.877-6.202-.275-3.213-2.457-5.646-4.874-5.436-2.416.213-4.151 2.989-3.876 6.203.275 3.213 2.457 5.647 4.873 5.435zm18.819-.108c2.12 1.26 5.168-.005 6.808-2.825 1.638-2.823 1.248-6.129-.874-7.389-2.12-1.259-5.169.008-6.807 2.828-1.639 2.821-1.248 6.128.873 7.387v-.001zm11.359 3.342c-1.375-2.019-4.62-2.175-7.249-.347-2.629 1.829-3.645 4.948-2.27 6.969 1.374 2.019 4.62 2.175 7.248.347 2.628-1.828 3.645-4.948 2.27-6.968v-.001zm-14.12.382c-.262-1.834-1.375-3.508-3.153-4.356-1.778-.848-3.763-.652-5.33.309-1.732 1.063-2.84 2.451-4.332 3.058-1.492.606-5.67-1.201-8.272 3.575-1.837 3.373-.15 7.637 3.294 9.28 2.618 1.249 4.69 1.11 6.211 1.835 1.521.725 2.732 2.431 5.35 3.68 3.445 1.643 7.773.248 9.18-3.33 1.994-5.066-2.043-7.177-2.528-8.727-.485-1.549-.13-3.297-.42-5.324z" fill="#9ED0E0"/></svg>