<svg width="1512" height="120" fill="none" xmlns="http://www.w3.org/2000/svg"><path d="M1381.8 120c60.01 0 69.72-31.818 130.2-31.818V0h-252v88.182c60.48 0 61.79 31.818 121.8 31.818zm-252 0c60.01 0 69.72-31.818 130.2-31.818V0h-252v88.182c60.48 0 61.79 31.818 121.8 31.818zm-252 0c60.01 0 69.72-31.818 130.2-31.818V0H756v88.182c60.48 0 61.79 31.818 121.8 31.818zm-252 0c60.01 0 69.72-31.818 130.2-31.818V0H504v88.182c60.48 0 61.79 31.818 121.8 31.818zm-252 0c60.01 0 69.72-31.818 130.2-31.818V0H252v88.182c60.48 0 61.79 31.818 121.8 31.818zm-252 0c60.01 0 69.72-31.818 130.2-31.818V0H0v88.182C60.48 88.182 61.79 120 121.8 120z" fill="#67B0C7"/></svg>