<svg width="1512" height="120" fill="none" xmlns="http://www.w3.org/2000/svg"><path d="M130.2 0C70.19 0 60.48 31.818 0 31.818V120h252V31.818C191.52 31.818 190.21 0 130.2 0zm252 0C322.19 0 312.48 31.818 252 31.818V120h252V31.818C443.52 31.818 442.21 0 382.2 0zm252 0C574.19 0 564.48 31.818 504 31.818V120h252V31.818C695.52 31.818 694.21 0 634.2 0zm252 0C826.19 0 816.48 31.818 756 31.818V120h252V31.818C947.52 31.818 946.21 0 886.2 0zm252 0c-60.01 0-69.72 31.818-130.2 31.818V120h252V31.818C1199.52 31.818 1198.21 0 1138.2 0zm252 0c-60.01 0-69.72 31.818-130.2 31.818V120h252V31.818C1451.52 31.818 1450.21 0 1390.2 0z" fill="#67B0C7"/></svg>